<?xml version="1.0" encoding="UTF-8"?> <svg xmlns="http://www.w3.org/2000/svg" width="200" height="50" viewBox="0 0 200 50" fill="none"><path fill-rule="evenodd" clip-rule="evenodd" d="M47.3474 32.8941L47.8971 27.7289C43.0616 28.7856 39.2333 32.357 37.8126 37.1061L42.4711 36.4114C44.6966 36.1105 47.043 35.0942 47.3474 32.8941ZM37.0591 37.2185C38.4966 31.9986 42.6742 28.0658 47.9738 27.0001L49.781 10L49.7803 32.1855L49.7817 32.4608C49.7927 34.3122 49.8064 36.6454 48.534 37.9307C47.1449 39.3312 44.1638 39.3832 42.18 39.361L20 39.7674L37.0591 37.2185ZM54.8949 32.8939C55.1993 35.0942 57.5451 36.1098 59.7713 36.4114L64.4093 37.1032C62.9886 32.4397 59.1723 28.8834 54.3494 27.7574L54.8949 32.8939ZM52.4606 32.4643L52.462 32.1862V10.0014L54.2714 27.025C59.561 28.1665 63.7267 32.0868 65.165 37.2179L82.2423 39.7681L60.0623 39.3617C58.0778 39.3839 55.0967 39.3318 53.7091 37.9314C52.4374 36.6461 52.4503 34.3152 52.4606 32.4643ZM100.303 25.9969C103.466 25.9969 105.591 23.8718 105.591 20.326C105.591 17.3394 103.785 14.8628 100.478 14.8628C97.3154 14.8628 95.2389 17.2741 95.2389 20.5017C95.2389 23.5841 97.1243 25.9969 100.303 25.9969ZM100.43 24.0643C98.8014 24.0643 97.8107 22.5788 97.8107 20.4539C97.8107 18.3613 98.7694 16.7955 100.43 16.7955C102.107 16.7955 103.018 18.4566 103.018 20.4059C103.018 22.4983 102.075 24.0643 100.43 24.0643ZM84.7092 15.0538V25.8217L86.9462 25.821V22.5782C86.9462 20.8212 86.9142 19.3032 86.8343 17.866H86.8976C87.4082 19.1282 88.1272 20.5176 88.7663 21.6681L91.0672 25.8217H93.6223V15.0544H91.386V18.1862C91.386 19.8146 91.434 21.2686 91.5778 22.6906H91.5458C91.0505 21.4756 90.4281 20.1341 89.7889 18.9997L87.5527 15.0538H84.7092ZM107.19 15.1984C107.973 15.0706 109.123 14.9754 110.433 14.9754C112.031 14.9754 113.148 15.2151 113.915 15.8223C114.57 16.3329 114.922 17.0999 114.922 18.0904C114.922 19.4486 113.947 20.3913 113.021 20.7269V20.7741C113.772 21.0783 114.187 21.7807 114.459 22.7714C114.495 22.9057 114.532 23.0422 114.568 23.1793C114.631 23.4174 114.693 23.6574 114.753 23.8909L114.754 23.894C114.976 24.7557 115.176 25.5317 115.321 25.8226H112.83C112.67 25.503 112.398 24.6409 112.094 23.3146C111.791 21.9572 111.328 21.6056 110.322 21.5897H109.603V25.8232H107.19V15.1984ZM109.603 19.8307H110.561C111.776 19.8307 112.494 19.2235 112.494 18.2815C112.494 17.3075 111.823 16.7956 110.705 16.7956C110.114 16.7956 109.778 16.8275 109.603 16.8755V19.8307ZM115.851 17.099H118.758V25.8217H121.187V17.099H124.126V15.0544H115.851V17.099ZM127.866 15.0538V19.1915H131.875V15.0538H134.304V25.821H131.875V21.3165H127.866V25.821H125.437V15.0538H127.866ZM140.04 22.4343V20.8212H135.855V22.4343H140.04ZM142.933 25.8217L140.377 15.0544H142.98L143.795 19.4798C143.951 20.3178 144.099 21.1967 144.232 22.0073C144.295 22.3886 144.354 22.7549 144.409 23.0947L144.417 23.1436L144.434 23.25H144.466C144.642 22.0834 144.898 20.79 145.17 19.4478L146.08 15.0544H148.669L149.532 19.5916C149.771 20.8531 149.947 22.0035 150.106 23.2013H150.138C150.26 22.2896 150.427 21.3414 150.599 20.3703C150.653 20.0649 150.708 19.7573 150.761 19.4478L151.64 15.0544H154.116L151.336 25.8217H148.7L147.789 21.1888C147.581 20.1029 147.406 19.0963 147.278 17.8667H147.246C147.055 19.0802 146.879 20.1029 146.624 21.1888L145.601 25.8217H142.933ZM157.824 21.2686H161.785V19.2873H157.824V17.0511H162.026V15.0538H155.396V25.8217H162.249V23.8251H157.824V21.2686ZM163.993 23.3131C164.632 23.6487 165.654 23.9842 166.692 23.9842C167.811 23.9842 168.402 23.5208 168.402 22.8178C168.402 22.1467 167.891 21.7632 166.596 21.3166C164.807 20.6774 163.625 19.6867 163.625 18.1209C163.625 16.2841 165.174 14.894 167.699 14.894C168.929 14.894 169.807 15.1337 170.446 15.4372L169.903 17.3859C169.488 17.1783 168.705 16.8753 167.667 16.8753C166.612 16.8753 166.101 17.3706 166.101 17.9132C166.101 18.6002 166.692 18.9038 168.098 19.4311C169.998 20.1341 170.878 21.1248 170.878 22.6421C170.878 24.4476 169.504 25.9808 166.548 25.9808C165.318 25.9808 164.104 25.646 163.497 25.3097L163.993 23.3131ZM171.725 17.099H174.633V25.8217H177.061V17.099H180V15.0544H171.725V17.099ZM102.135 32.3543C102.135 33.7986 101.254 34.5739 100.178 34.5739C99.0584 34.5739 98.2824 33.7048 98.2824 32.4286C98.2824 31.0906 99.1077 30.2146 100.234 30.2146C101.391 30.2153 102.135 31.0969 102.135 32.3543ZM98.8583 32.4168C98.8583 33.3241 99.346 34.1307 100.21 34.1307C101.072 34.1307 101.56 33.3359 101.56 32.3793C101.56 31.5345 101.122 30.6585 100.215 30.6585C99.3085 30.6585 98.8583 31.497 98.8583 32.4168ZM96.8638 34.5739C97.3772 34.5739 97.7836 34.4746 97.9774 34.3738L97.8705 33.9362C97.6516 34.0425 97.314 34.1112 96.9764 34.1112C95.9566 34.1112 95.3626 33.4547 95.3626 32.4168C95.3626 31.3095 96.0198 30.678 97.0076 30.678C97.3578 30.678 97.6516 30.753 97.8517 30.8531L97.9893 30.4091C97.8455 30.3334 97.5078 30.2209 96.9889 30.2209C95.6814 30.2209 94.7874 31.1094 94.7874 32.4356C94.7874 33.8236 95.6759 34.5739 96.8638 34.5739ZM90.3489 30.3466C90.624 30.2966 91.0242 30.2584 91.3931 30.2584C91.9746 30.2584 92.3566 30.3709 92.613 30.6029C92.8193 30.7905 92.9444 31.0781 92.9444 31.4095C92.9444 31.9597 92.5942 32.3286 92.1566 32.4786V32.4974C92.4754 32.6099 92.6693 32.9101 92.7693 33.3484C92.9069 33.9361 93.0069 34.3425 93.0944 34.5051H92.5317C92.4629 34.38 92.3691 34.0237 92.2566 33.4985C92.1316 32.9163 91.9002 32.6982 91.4056 32.6787H90.8929V34.5051H90.3489V30.3466ZM90.8929 32.2668H91.4494C92.0308 32.2668 92.4004 31.9479 92.4004 31.4665C92.4004 30.9225 92.0065 30.6842 91.4306 30.6842C91.168 30.6842 90.9867 30.703 90.8929 30.728V32.2668ZM85.272 34.505L85.7097 33.1795H87.2054L87.6555 34.505H88.237L86.7983 30.2902H86.148L84.7093 34.505H85.272ZM86.6788 31.5407L87.0977 32.7544V32.7551H85.8222L86.2349 31.5352C86.3098 31.315 86.3665 31.0913 86.4205 30.8779L86.4474 30.7717H86.4599L86.4713 30.816C86.5302 31.0459 86.5907 31.2822 86.6788 31.5407ZM89.3986 34.505V30.2902H88.8484V34.505H89.3986ZM106.392 32.6354L106.393 32.6538L106.493 34.5059H107.03L106.768 30.2911H106.074L105.323 32.3301C105.136 32.8615 104.986 33.3249 104.873 33.75H104.861C104.748 33.3117 104.609 32.849 104.435 32.3301L103.715 30.2911H103.021L102.727 34.5059H103.247L103.359 32.6982C103.397 32.0598 103.428 31.3595 103.441 30.8344H103.453C103.572 31.3338 103.735 31.8722 103.935 32.4725L104.622 34.4802H105.036L105.779 32.4356C105.992 31.8535 106.161 31.322 106.311 30.8344H106.324C106.324 31.3478 106.361 32.0511 106.392 32.6352L106.392 32.6353L106.392 32.6354ZM107.867 30.3396C108.13 30.2959 108.474 30.2584 108.911 30.2584C109.45 30.2584 109.844 30.3841 110.094 30.6092C110.319 30.8093 110.463 31.1156 110.463 31.4915C110.463 31.8729 110.35 32.1723 110.138 32.3918C109.843 32.6982 109.38 32.8545 108.849 32.8545C108.687 32.8545 108.537 32.8482 108.411 32.817V34.5058H107.867V30.3396ZM108.411 32.3723C108.53 32.4036 108.681 32.4161 108.861 32.4161C109.518 32.4161 109.918 32.091 109.918 31.522C109.918 30.9586 109.518 30.6905 108.923 30.6905C108.686 30.6905 108.504 30.7085 108.411 30.7342V32.3723H108.411ZM110.913 34.505L111.351 33.1795H112.845L113.295 34.505H113.877L112.438 30.2902H111.788L110.349 34.505H110.913ZM112.32 31.5407L112.739 32.7544V32.7551H111.462L111.876 31.5352C111.948 31.321 112.004 31.1036 112.057 30.8955L112.088 30.7717H112.101L112.112 30.8159L112.112 30.8161C112.171 31.0459 112.232 31.2823 112.32 31.5407ZM114.495 30.2902V34.5058H115.008V32.7044C115.008 32.2346 115.005 31.8523 114.993 31.4911C114.988 31.3135 114.98 31.141 114.97 30.9654L114.988 30.9592C115.194 31.4157 115.476 31.8971 115.77 32.3661L117.109 34.505H117.659V30.2902H117.147V32.0535C117.147 32.7098 117.16 33.2226 117.209 33.786L117.191 33.7923C116.997 33.3608 116.746 32.9163 116.44 32.4224L115.095 30.2902H114.495ZM119.503 32.717V34.5058H120.054V32.7107L121.461 30.2911H120.847L120.241 31.4541C120.208 31.5174 120.177 31.5791 120.146 31.6394C120.02 31.8825 119.906 32.1034 119.816 32.3238H119.803C119.703 32.0998 119.603 31.898 119.493 31.6739L119.492 31.6736C119.458 31.6031 119.422 31.5304 119.384 31.4541L118.79 30.2911H118.165L119.503 32.717Z" fill="#125A9C"></path></svg> 