<?xml version="1.0" encoding="UTF-8"?> <svg xmlns="http://www.w3.org/2000/svg" width="200" height="50" viewBox="0 0 200 50" fill="none"><path fill-rule="evenodd" clip-rule="evenodd" d="M88.0396 31.8416L82.0157 22.9035V31.8416H80.7227V20.874H82.3102L88.3345 29.8611V20.874H89.6276V31.8416H88.0396ZM91.5264 27.7491C91.5264 25.4574 92.9506 23.4933 95.8153 23.4933C98.68 23.4933 100.104 25.4574 100.104 27.7491C100.104 30.0412 98.68 32.0053 95.8153 32.0053C92.9506 32.0053 91.5264 30.0412 91.5264 27.7491ZM92.8036 27.7491C92.8036 29.5009 93.8181 30.9741 95.8153 30.9741C97.8125 30.9741 98.8275 29.5009 98.8275 27.7491C98.8275 26.0468 97.8125 24.5246 95.8153 24.5246C93.8181 24.5246 92.8036 26.0468 92.8036 27.7491ZM103.231 24.7696C103.247 24.7696 103.247 24.7864 103.263 24.7864C104.376 24.05 105.441 23.4933 106.816 23.4933V24.6716C105.866 24.6716 104.458 25.0976 103.231 25.8503V31.8416H102.003V23.6566H103.231V24.7696ZM114.313 30.2372V25.0645C113.429 24.721 112.627 24.5899 111.874 24.5899C110.221 24.5899 108.829 25.7196 108.829 27.7985C108.829 29.9101 110.221 30.9741 111.907 30.9741C112.659 30.9741 113.397 30.7776 114.313 30.2372ZM115.541 20.874V31.8416H114.313V31.1873L114.28 31.1705C113.429 31.7926 112.512 32.0053 111.645 32.0053C108.96 32.0053 107.569 30.0902 107.569 27.7985C107.569 25.3921 109.042 23.4933 111.71 23.4933C112.578 23.4933 113.462 23.6897 114.28 24.0005L114.313 23.9842V20.874H115.541ZM121.565 31.9069H119.96L116.883 23.6566H118.274L120.763 30.7123L123.218 23.6566H124.61L127.114 30.7123L129.553 23.6566H130.945L127.916 31.9069H126.312L123.89 25.5068L121.565 31.9069ZM132.287 31.8416H133.515V23.6566H132.287V31.8416ZM136.969 24.7537L137.001 24.7696C138.196 24.0332 139.277 23.4933 140.652 23.4933C142.731 23.4933 143.549 24.6389 143.549 26.4887V31.8416H142.321V26.5871C142.321 25.1625 141.634 24.5899 140.243 24.5899C139.277 24.5899 138.196 25.0976 136.969 25.834V31.8416H135.741V23.6566H136.969V24.7537ZM152.192 30.2372V25.0645C151.309 24.721 150.506 24.5899 149.753 24.5899C148.1 24.5899 146.708 25.7196 146.708 27.7985C146.708 29.9101 148.1 30.9741 149.786 30.9741C150.539 30.9741 151.276 30.7776 152.192 30.2372ZM153.42 20.874V31.8416H152.192V31.1873L152.159 31.1705C151.309 31.7926 150.392 32.0053 149.524 32.0053C146.839 32.0053 145.448 30.0902 145.448 27.7985C145.448 25.3921 146.921 23.4933 149.589 23.4933C150.457 23.4933 151.341 23.6897 152.159 24.0005L152.192 23.9842V20.874H153.42ZM132.289 22.4504H133.517V20.874H132.289V22.4504ZM172.482 26.6241H173.358V25.7484H172.482V26.6241ZM163.979 26.6241H164.855V25.7484H163.979V26.6241ZM160.756 25.7484L163.058 31.8416H162.047L161.488 30.2798H158.951L158.383 31.8416H157.372L159.682 25.7484H160.756ZM160.233 26.7956L159.231 29.5129H161.226L160.233 26.7956ZM163.979 31.8416H164.855V27.3282H163.979V31.8416ZM167.202 27.9331C167.21 27.9331 167.21 27.9421 167.22 27.9421C167.788 27.563 168.339 27.238 169.097 27.238V28.0595C168.582 28.0595 167.797 28.3122 167.202 28.6733V31.8416H166.335V27.3282H167.202V27.9331ZM170.126 31.8416H171.002V25.7484H170.126V31.8416ZM172.482 31.8416H173.358V27.3282H172.482V31.8416ZM175.713 27.9331L175.731 27.9421C176.318 27.5539 176.887 27.238 177.645 27.238C178.792 27.238 179.252 27.8699 179.252 28.9351V31.8416H178.376V29.0074C178.376 28.2761 178.015 28.0053 177.365 28.0053C176.833 28.0053 176.273 28.3032 175.713 28.6733V31.8416H174.838V27.3282H175.713V27.9331ZM183.075 31.2187C183.635 31.2187 184.159 31.1194 184.8 30.8666L184.953 31.5527C184.511 31.7603 183.743 31.9318 182.949 31.9318C181.252 31.9318 180.458 30.8485 180.458 29.5847C180.458 27.9873 181.586 27.238 182.922 27.238C184.646 27.238 185.341 28.0956 184.8 29.7743H181.378C181.405 30.5601 182.073 31.2187 183.075 31.2187ZM181.432 29.0705H184.014C184.222 28.4296 183.915 27.9511 182.94 27.9511C182.272 27.9511 181.55 28.3032 181.432 29.0705ZM187.869 31.9318C187.39 31.9318 186.632 31.8596 186.109 31.6971L186.189 30.9839C186.695 31.1374 187.309 31.2187 187.778 31.2187C188.473 31.2187 189.024 31.1103 189.033 30.6504C189.042 30.2351 188.609 30.0545 187.878 29.9097C186.478 29.6389 186.135 29.1157 186.135 28.556C186.135 27.572 187.02 27.238 188.058 27.238C188.537 27.238 189.277 27.3012 189.782 27.4637L189.692 28.1768C189.223 28.0324 188.618 27.9511 188.166 27.9511C187.489 27.9511 187.101 28.0866 187.101 28.4472C187.101 28.7456 187.237 28.9442 188.338 29.1699C189.773 29.4678 189.999 30.0902 189.999 30.5506C189.999 31.6163 189.105 31.9318 187.869 31.9318Z" fill="black"></path><path fill-rule="evenodd" clip-rule="evenodd" d="M60.3781 34.2794H42.4886L32.5446 17.0554L22.6002 34.2794H10L17.0354 22.0931C18.9785 18.728 23.2816 16 26.6467 16H44.5357L54.4801 33.224L64.4246 16H77.0248L69.9889 28.1862C68.0459 31.5513 63.7432 34.2794 60.3781 34.2794Z" fill="#CD202C"></path></svg> 