<?xml version="1.0" encoding="UTF-8"?> <svg xmlns="http://www.w3.org/2000/svg" width="200" height="50" viewBox="0 0 200 50" fill="none"><path fill-rule="evenodd" clip-rule="evenodd" d="M173.985 5C175.879 5 177.773 5 179.666 5C176.792 7.86608 173.917 10.7322 171.042 13.5982C170.332 14.3063 169.656 14.9807 168.979 15.7225C167.897 15.1156 166.612 15.0144 165.361 14.947C163.568 14.8795 161.776 14.947 160.017 14.9133C161.167 14.0366 162.317 13.2273 163.501 12.3844C167.018 9.92291 170.501 7.46146 173.985 5ZM152.915 15.9248C156.771 15.9248 160.592 15.9248 164.448 15.9248C165.767 15.9248 167.153 16.0597 168.303 16.7678C170.062 17.8131 171.245 19.499 172.564 21.0163C175.71 24.6242 178.855 28.2321 182 31.8737C179.666 31.9074 177.333 31.84 175.033 31.9074C170.434 27.76 165.8 23.6464 161.235 19.4653C160.795 19.0606 160.356 18.656 159.814 18.4537C159.206 18.184 158.563 18.2514 157.921 18.2514C155.722 18.2514 153.524 18.2514 151.326 18.2514C151.867 17.4759 152.374 16.7003 152.915 15.9248ZM73.4394 18.42C75.1981 17.7793 77.0919 17.6782 78.952 17.9142C79.7299 18.0154 80.5077 18.2514 81.2856 18.3188C81.3194 19.1281 81.2856 19.9373 81.2856 20.7466C80.2372 20.2745 79.0535 20.1734 77.9374 20.1059C76.7199 20.0048 75.5024 20.1059 74.3864 20.578C73.2703 21.0163 72.2896 21.8256 71.7485 22.9046C71.1735 24.051 71.1735 25.4335 71.5117 26.6473C71.7823 27.6589 72.4587 28.5693 73.3718 29.1088C74.6908 29.918 76.2803 30.0866 77.8022 30.0529C79.2226 30.0192 80.6768 29.9517 81.9958 29.4122C81.7929 30.2215 81.4547 30.9633 81.1503 31.7051C79.5269 32.1772 77.8022 32.2783 76.145 32.1434C74.7922 32.0423 73.4394 31.7388 72.2219 31.1319C71.0721 30.5587 70.1251 29.6483 69.5164 28.5018C68.8738 27.288 68.6709 25.9055 68.7724 24.5568C68.8738 23.1743 69.3473 21.8256 70.1928 20.7466C71.0044 19.6676 72.1543 18.8921 73.4394 18.42ZM22 18.2177C22.8117 18.2177 23.5895 18.2177 24.4012 18.2177C24.4012 22.7697 24.4012 27.3217 24.4012 31.8737C23.5895 31.9074 22.8117 31.8737 22 31.8737C22 27.3217 22 22.7697 22 18.2177ZM25.3819 24.7254C27.6479 22.5674 29.9138 20.3757 32.1797 18.2177C33.0252 18.2177 33.8706 18.2177 34.7161 18.2177C32.8222 20.3082 30.9283 22.3988 29.0345 24.4893C31.4018 26.9508 33.7692 29.3785 36.1365 31.84C35.1896 31.84 34.2427 31.84 33.3295 31.8063C30.6916 29.4797 28.0537 27.0857 25.3819 24.7254ZM39.045 18.2177C41.7844 18.2177 44.5238 18.2177 47.297 18.2177C48.4468 18.2514 49.6305 18.5211 50.5098 19.263C51.3553 19.9373 51.7273 21.05 51.6935 22.129C51.6935 23.1743 51.2877 24.2196 50.476 24.894C49.5629 25.6695 48.3454 25.9055 47.1955 25.9392C45.606 25.9392 44.0165 25.9392 42.427 25.9392C42.799 25.2986 43.171 24.6579 43.543 23.9836C44.7267 23.9836 45.9104 23.9836 47.0941 23.9836C47.7704 23.9836 48.4807 23.815 48.9541 23.3429C49.6982 22.6011 49.5629 21.1849 48.6836 20.6117C48.0072 20.1396 47.1617 20.1396 46.3839 20.1396C44.7267 20.1396 43.0695 20.1396 41.4462 20.1396C41.4124 24.051 41.4462 27.9623 41.4462 31.8737C40.6345 31.8737 39.8567 31.8737 39.045 31.8737C39.045 27.3217 39.045 22.7697 39.045 18.2177ZM52.1332 31.8737C54.1623 27.3217 56.1577 22.7697 58.1869 18.2177C59.2691 18.2177 60.3513 18.2177 61.4673 18.2177C63.4627 22.7697 65.4919 27.3217 67.4872 31.8737C66.6755 31.8737 65.8301 31.8737 65.0184 31.8737C64.5111 30.7273 64.0038 29.5808 63.4965 28.4344C61.3659 28.4344 59.2691 28.4344 57.1384 28.4344C57.5105 27.7938 57.8825 27.1531 58.2545 26.5124C59.7087 26.5124 61.163 26.5124 62.6172 26.5124C61.7379 24.5231 60.8248 22.5337 59.9455 20.5443C59.8778 20.5443 59.7764 20.5443 59.7087 20.5443C58.0178 24.3207 56.293 28.0972 54.602 31.8737C53.7565 31.8737 52.9448 31.8737 52.1332 31.8737ZM89.6052 18.2177C90.6874 18.2177 91.7696 18.2177 92.8856 18.2177C94.881 22.7697 96.9102 27.3217 98.9055 31.8737C98.0938 31.8737 97.2484 31.8737 96.4367 31.8737C95.9294 30.7273 95.4221 29.5808 94.9148 28.4344C92.7842 28.4344 90.6874 28.4344 88.5568 28.4344C88.9288 27.7938 89.3008 27.1531 89.6728 26.5124C91.127 26.5124 92.5813 26.5124 94.0355 26.5124C93.1562 24.5231 92.2431 22.5337 91.3638 20.5443C91.2961 20.5443 91.1947 20.5443 91.127 20.5443C89.4022 24.3207 87.7113 28.0972 85.9865 31.8737C85.1748 31.8737 84.3631 31.8737 83.5515 31.8737C85.5806 27.3217 87.6098 22.7697 89.6052 18.2177ZM101.645 18.2177C104.384 18.2177 107.124 18.2177 109.897 18.2177C111.081 18.2514 112.298 18.5211 113.177 19.3304C113.955 20.0048 114.327 21.05 114.293 22.0279C114.327 22.972 113.989 23.9161 113.346 24.5905C113.786 24.8602 114.192 25.1637 114.496 25.602C115.037 26.3439 115.24 27.288 115.173 28.1984C115.139 28.9739 114.902 29.7494 114.395 30.3226C113.854 30.997 113.076 31.4354 112.264 31.6377C111.486 31.84 110.675 31.84 109.897 31.84C107.157 31.84 104.418 31.84 101.645 31.84C101.645 27.3217 101.645 22.7697 101.645 18.2177ZM104.046 20.1396C104.046 23.3766 104.046 26.6136 104.046 29.8506C106.109 29.8506 108.172 29.8506 110.235 29.8506C110.742 29.8506 111.25 29.8506 111.723 29.682C112.23 29.5134 112.704 29.1088 112.873 28.603C113.11 27.9286 113.008 27.0857 112.467 26.5462C112.027 26.1078 111.351 25.9055 110.742 25.8718C108.848 25.8718 106.955 25.8718 105.061 25.8718C105.433 25.2311 105.805 24.5905 106.177 23.9161C107.36 23.9161 108.544 23.9161 109.728 23.9161C110.336 23.9161 110.945 23.7812 111.453 23.4103C112.332 22.736 112.332 21.2524 111.419 20.578C110.878 20.1734 110.167 20.0722 109.491 20.1059C107.699 20.1396 105.872 20.1396 104.046 20.1396ZM119.062 18.2177C119.874 18.2177 120.651 18.2177 121.463 18.2177C121.463 21.893 121.463 25.5683 121.463 29.2437C121.531 29.2437 121.565 29.2099 121.632 29.1425C124.439 25.5009 127.246 21.8593 130.087 18.2177C131.034 18.2177 131.981 18.2177 132.928 18.2177C132.928 22.7697 132.928 27.3217 132.928 31.8737C132.116 31.8737 131.338 31.8737 130.527 31.8737C130.527 28.1984 130.527 24.5231 130.527 20.8477C130.121 21.2524 129.817 21.7581 129.445 22.1965C126.942 25.4335 124.473 28.6704 121.937 31.8737C120.99 31.8737 120.009 31.8737 119.062 31.8737C119.062 27.3217 119.062 22.7697 119.062 18.2177ZM139.624 23.7475C138.44 26.445 137.223 29.1762 136.039 31.8737C136.851 31.8737 137.663 31.8737 138.474 31.8737C140.165 28.0972 141.89 24.3207 143.581 20.5443C143.649 20.5443 143.75 20.5443 143.818 20.5443C144.697 22.5337 145.61 24.5231 146.49 26.5124C145.035 26.5124 143.581 26.5124 142.127 26.5124C141.755 27.1531 141.383 27.7938 141.011 28.4344C143.141 28.4344 145.238 28.4344 147.369 28.4344C147.842 29.5808 148.383 30.6936 148.891 31.84C149.736 31.8737 150.548 31.84 151.393 31.84C149.398 27.288 147.369 22.736 145.373 18.184C144.291 18.184 143.209 18.184 142.127 18.184C141.248 20.0385 140.436 21.893 139.624 23.7475Z" fill="#E80248"></path></svg> 