<?xml version="1.0" encoding="UTF-8"?> <svg xmlns="http://www.w3.org/2000/svg" width="200" height="50" viewBox="0 0 200 50" fill="none"><path fill-rule="evenodd" clip-rule="evenodd" d="M120.698 29.5228L121.864 32.285C120.418 33.5203 118.581 34.2028 116.68 34.211C115.565 34.2347 114.456 34.0356 113.42 33.6253C112.383 33.2151 111.438 32.6019 110.641 31.8218C109.844 31.0417 109.211 30.1104 108.779 29.0825C108.347 28.0545 108.124 26.9506 108.124 25.8355C108.124 24.7203 108.347 23.6164 108.779 22.5885C109.211 21.5605 109.844 20.6292 110.641 19.8491C111.438 19.069 112.383 18.4558 113.42 18.0456C114.456 17.6353 115.565 17.4362 116.68 17.4599C118.577 17.4567 120.414 18.1271 121.864 19.3518L120.698 22.1102C119.636 21.0728 118.21 20.4927 116.725 20.4946C116.013 20.4756 115.305 20.5994 114.642 20.8587C113.978 21.118 113.374 21.5075 112.864 22.0043C112.354 22.5011 111.948 23.095 111.671 23.7511C111.394 24.4071 111.252 25.112 111.252 25.8241C111.252 26.5362 111.394 27.2411 111.671 27.8971C111.948 28.5532 112.354 29.1471 112.864 29.6439C113.374 30.1407 113.978 30.5302 114.642 30.7895C115.305 31.0488 116.013 31.1726 116.725 31.1537C117.463 31.1615 118.195 31.0212 118.877 30.741C119.559 30.4609 120.179 30.0466 120.698 29.5228ZM104.651 30.495C105.572 29.1164 106.063 27.4954 106.062 25.8374C106.058 23.621 105.177 21.4963 103.612 19.9274C102.046 18.3584 99.9238 17.4727 97.7074 17.4637C96.0494 17.4592 94.4274 17.9468 93.0466 18.8648C91.6659 19.7827 90.5886 21.0898 89.9512 22.6203C89.3137 24.151 89.1448 25.8363 89.4658 27.4629C89.7868 29.0896 90.5832 30.5844 91.7543 31.7582C92.9254 32.9319 94.4184 33.7317 96.0443 34.0564C97.6703 34.3811 99.356 34.216 100.888 33.582C102.42 32.948 103.729 31.8737 104.651 30.495ZM102.136 22.875C102.722 23.7518 103.035 24.7827 103.035 25.8374H103.005C103.008 27.2464 102.452 28.5991 101.459 29.5986C100.466 30.5981 99.1164 31.1628 97.7074 31.1688C96.6528 31.1696 95.6217 30.8575 94.7444 30.2721C93.8672 29.6868 93.1833 28.8544 92.7791 27.8803C92.375 26.9061 92.2689 25.834 92.4742 24.7996C92.6795 23.7651 93.1869 22.8148 93.9324 22.0688C94.6779 21.3228 95.6278 20.8147 96.6622 20.6086C97.6964 20.4026 98.7686 20.508 99.7431 20.9114C100.717 21.3148 101.55 21.9981 102.136 22.875ZM84.8424 33.8326H88.6792L81.4369 25.4817L88.3197 17.8421H84.464L78.7882 24.46V17.8421H75.7422V33.8326H78.7882V26.8363L84.8424 33.8326ZM140.132 33.8326H143.367L141.07 17.8421H138.024L133.836 28.1228L129.647 17.8421H126.601L124.331 33.8326H127.57L128.902 23.3627L133.098 33.8326H134.611L138.8 23.3627L140.132 33.8326ZM161.753 25.8374C161.754 27.4944 161.263 29.1145 160.343 30.4927C159.423 31.8708 158.115 32.9452 156.584 33.5798C155.053 34.2145 153.369 34.3809 151.743 34.0581C150.118 33.7353 148.625 32.9377 147.453 31.7662C146.281 30.5948 145.483 29.1021 145.159 27.4769C144.836 25.8517 145.001 24.1671 145.635 22.6361C146.269 21.1051 147.343 19.7965 148.721 18.8758C150.099 17.9551 151.718 17.4637 153.376 17.4637C155.596 17.4677 157.723 18.3511 159.294 19.9205C160.864 21.4899 161.748 23.6174 161.753 25.8374ZM158.707 25.8374C158.707 24.7829 158.394 23.7521 157.808 22.8754C157.223 21.9986 156.39 21.3153 155.416 20.9117C154.442 20.5082 153.37 20.4026 152.335 20.6083C151.301 20.8141 150.351 21.3218 149.606 22.0675C148.86 22.8131 148.352 23.7631 148.147 24.7972C147.941 25.8314 148.046 26.9034 148.45 27.8776C148.853 28.8518 149.537 29.6845 150.414 30.2703C151.29 30.8561 152.321 31.1688 153.376 31.1688C154.076 31.1703 154.77 31.0334 155.418 30.766C156.065 30.4986 156.653 30.106 157.149 29.6106C157.644 29.1152 158.037 28.5269 158.304 27.8794C158.572 27.2319 158.709 26.5379 158.707 25.8374ZM177.554 32.285L176.385 29.5228C175.866 30.0466 175.246 30.4609 174.564 30.741C173.882 31.0212 173.15 31.1615 172.412 31.1537C171.7 31.1726 170.992 31.0488 170.329 30.7895C169.665 30.5302 169.061 30.1407 168.551 29.6439C168.041 29.1471 167.635 28.5532 167.358 27.8971C167.081 27.2411 166.939 26.5362 166.939 25.8241C166.939 25.112 167.081 24.4071 167.358 23.7511C167.635 23.095 168.041 22.5011 168.551 22.0043C169.061 21.5075 169.665 21.118 170.329 20.8587C170.992 20.5994 171.7 20.4756 172.412 20.4946C173.897 20.4927 175.323 21.0728 176.385 22.1102L177.554 19.3518C176.103 18.1277 174.265 17.4574 172.367 17.4599C171.252 17.4362 170.143 17.6353 169.107 18.0456C168.07 18.4558 167.125 19.069 166.328 19.8491C165.531 20.6292 164.898 21.5605 164.466 22.5885C164.034 23.6164 163.811 24.7203 163.811 25.8355C163.811 26.9506 164.034 28.0545 164.466 29.0825C164.898 30.1104 165.531 31.0417 166.328 31.8218C167.125 32.6019 168.07 33.2151 169.107 33.6253C170.143 34.0356 171.252 34.2347 172.367 34.211C174.269 34.202 176.107 33.5197 177.554 32.285Z" fill="#004488"></path><path d="M35.8328 19.7793C35.4545 20.0328 23.6905 26.9346 26.85 31.0855C30.0095 35.2363 45.9547 29.5454 50.2531 27.4946C54.5516 25.4437 61.4458 21.2815 61.4458 21.2815L62.7323 21.2588C59.2697 24.5443 55.3955 27.3667 51.2066 29.6552C44.6227 33.1514 27.3911 39.618 23.3802 33.4163C20.7239 29.3108 32.749 20.7442 35.8328 19.7793Z" fill="#004488"></path><path fill-rule="evenodd" clip-rule="evenodd" d="M49.6172 21.7132L72.2333 12L65.831 24.57L64.0223 20.1315L49.6172 21.7132Z" fill="#E40234"></path></svg> 