<?xml version="1.0" encoding="UTF-8"?> <svg xmlns="http://www.w3.org/2000/svg" width="200" height="50" viewBox="0 0 200 50" fill="none"><path fill-rule="evenodd" clip-rule="evenodd" d="M39.7739 10.1886C39.7739 10.0201 39.5659 9.9359 39.4525 10.0576L34.9064 14.5868C34.8308 14.6617 34.7079 14.6617 34.6417 14.5868L30.0767 10.0576C29.9538 9.9359 29.7553 10.0201 29.7553 10.1886V19.6589H20.1904C20.0203 19.6589 19.9353 19.8647 20.0581 19.977L24.6326 24.4689C24.7082 24.5438 24.7082 24.6654 24.6326 24.7309L20.0581 29.2508C19.9353 29.3725 20.0203 29.569 20.1904 29.569H29.7553V39.0299C29.7553 39.1984 29.9633 39.2826 30.0767 39.161L34.6228 34.6317C34.6984 34.5568 34.8213 34.5568 34.8875 34.6317L39.4525 39.1703C39.5754 39.292 39.7739 39.2077 39.7739 39.0393V29.5784H49.3293C49.4994 29.5784 49.5845 29.3725 49.4616 29.2602L44.8871 24.759C44.8115 24.6841 44.8115 24.5625 44.8871 24.497L49.4711 19.977C49.5939 19.8554 49.5089 19.6589 49.3387 19.6589H39.7739V10.1886Z" fill="#C42A2C"></path><path fill-rule="evenodd" clip-rule="evenodd" d="M127.395 28.4819H127.291H127.112C126.782 28.4819 126.508 28.2377 126.47 27.9184V26.0682V24.6219C126.47 19.7663 126.14 18.9773 124.264 17.7376C122.83 16.789 119.859 16.3664 117.671 16.7984C115.097 17.3056 113.267 18.7613 112.749 20.7242C112.635 21.1469 112.588 21.5319 112.588 21.5319H116.625L116.841 21.0623C117.973 18.6111 122.33 19.569 122.33 22.2739V22.9877H119.727C114.107 22.9877 112.003 24.4528 112.268 28.1814C112.579 32.6144 119.661 33.8447 122.689 29.994L122.868 29.7686L122.934 30.1349C123.217 31.6376 123.952 31.9757 126.385 31.9757H127.894V28.4819H127.395ZM120.491 28.8106C117.605 30.2194 114.635 27.4113 117.473 25.9555C117.737 25.8146 118.586 25.6738 119.463 25.6832C120.078 25.6934 120.742 25.7174 121.291 25.7372C121.753 25.754 122.132 25.7677 122.33 25.7677C122.33 27.3361 121.604 28.2753 120.491 28.8106ZM141.069 24.2556C140.984 24.2556 140.909 24.2086 140.909 24.1617C140.909 24.1147 140.975 24.0677 141.05 24.0677C144.87 24.0677 144.012 18.1321 140.051 17.1084C138.74 16.7703 130.299 16.7984 130.299 16.7984V31.9663H134.609C140.664 31.9663 142.041 31.7409 143.295 30.1161C144.936 27.9748 143.531 24.2556 141.069 24.2556ZM136.212 19.7663C137.938 19.7944 138.155 19.8132 138.457 19.9917C139.56 20.6397 139.485 22.18 138.315 22.7529C137.863 22.9783 137.768 22.9877 136.099 22.9877H134.355V19.7663H136.212ZM138.664 28.9891C138.344 29.1112 137.872 29.1394 136.278 29.1394H134.345V25.7771H136.307C138.099 25.8052 138.353 25.8334 138.74 26.0025C140.126 26.6411 140.079 28.4538 138.664 28.9891ZM70.6211 31.9757V16.7984H74.5632V26.1903L81.8343 16.7984H85.4746V31.9757H81.4477V22.6871L74.3368 31.9757H70.6211ZM146.747 31.9757V16.7984H150.698V26.1903L157.96 16.7984H161.61V31.9757H157.573V22.6871L150.472 31.9757H146.747ZM111.192 16.7984L106.656 23.9175L111.523 31.9757H106.873L103.148 26.1809H101.384V31.9757H97.4612V26.1809H95.6976L91.9725 31.9757H87.3231L92.1894 23.9175L87.6531 16.7984H91.9913L95.7542 22.565H97.4612V16.7984H101.384V22.565H103.091L106.854 16.7984H111.192ZM179.396 28.4819H179.5H180V31.9757H178.491C176.058 31.9757 175.322 31.6376 175.039 30.1349L174.973 29.7686L174.794 29.994C171.767 33.8447 164.684 32.6144 164.373 28.1814C164.109 24.4528 166.212 22.9877 171.833 22.9877H174.435V22.2739C174.435 19.569 170.078 18.6111 168.947 21.0623L168.73 21.5319H164.693C164.693 21.5319 164.741 21.1469 164.854 20.7242C165.372 18.7613 167.202 17.3056 169.777 16.7984C171.965 16.3664 174.935 16.789 176.369 17.7376C178.245 18.9773 178.576 19.7663 178.576 24.6219V26.0682V27.9184C178.613 28.2377 178.887 28.4819 179.217 28.4819H179.396ZM169.588 25.9555C166.749 27.4113 169.72 30.2194 172.606 28.8106C173.709 28.2753 174.445 27.3361 174.445 25.7677C174.247 25.7677 173.867 25.754 173.406 25.7372C172.857 25.7174 172.192 25.6934 171.578 25.6832C170.701 25.6738 169.852 25.8146 169.588 25.9555Z" fill="black"></path></svg> 