<?xml version="1.0" encoding="UTF-8"?> <svg xmlns="http://www.w3.org/2000/svg" width="415" height="230" viewBox="0 0 415 230" fill="none"><rect width="415" height="230" rx="30" fill="white"></rect><rect x="335" y="19" width="60" height="60" rx="10" fill="#043DFF"></rect><path d="M352 59.167C352 57.4115 352.697 55.7279 353.939 54.4866C355.18 53.2452 356.864 52.5479 358.619 52.5479H371.858C373.613 52.5479 375.297 53.2452 376.538 54.4866C377.779 55.7279 378.477 57.4115 378.477 59.167C378.477 60.0448 378.128 60.8866 377.507 61.5073C376.887 62.128 376.045 62.4766 375.167 62.4766H355.31C354.432 62.4766 353.59 62.128 352.969 61.5073C352.349 60.8866 352 60.0448 352 59.167Z" fill="#F4F5F6"></path><path d="M365.238 45.9288C367.98 45.9288 370.202 43.7062 370.202 40.9644C370.202 38.2226 367.98 36 365.238 36C362.496 36 360.273 38.2226 360.273 40.9644C360.273 43.7062 362.496 45.9288 365.238 45.9288Z" fill="#F4F5F6"></path></svg> 