<?xml version="1.0" encoding="UTF-8"?> <svg xmlns="http://www.w3.org/2000/svg" width="200" height="50" viewBox="0 0 200 50" fill="none"><path fill-rule="evenodd" clip-rule="evenodd" d="M58.5421 18.9289C57.8743 18.871 57.4097 18.6684 57.3806 17.9737C57.3806 17.9447 57.3806 16.3237 57.3516 13.0526C57.3516 11.8658 56.9451 11.0263 56.1321 10.4184C55.3481 9.81051 54.0125 9.3763 52.0961 9.34733C49.1054 9.28944 47.3632 9.69473 46.5792 10.1579C46.0566 10.3895 45.9404 10.7368 45.9985 11.2289C46.0276 11.4027 46.0566 11.6342 46.405 12.9368C46.4631 13.3132 46.8406 13.4289 47.5374 13.2842C48.6408 13.0526 50.0055 12.9368 51.6605 13.0237C52.4155 13.0526 52.7639 13.5447 52.7929 14.3552C52.7929 14.3552 51.8348 14.3842 49.3086 14.4131C47.9149 14.3842 46.4921 14.9632 45.592 16.15C45.1565 16.9026 44.8951 18.0315 45.0403 19.5658C45.1565 20.7237 45.9114 21.9105 46.9857 22.2579C48.2633 22.6631 49.4828 22.4895 50.8185 22.1131C51.6315 21.8816 52.4445 21.3895 53.2285 20.6079C53.5189 21.3316 53.8092 21.9105 54.6222 22.1131C56.2773 22.5184 57.5258 22.4316 58.4259 22.0842C58.7163 21.9974 58.9776 21.7658 58.9776 21.4184V19.5079C58.9776 19.0737 58.7453 18.871 58.5421 18.9289ZM52.5897 18.3789C51.6896 18.9868 50.5572 19.1605 50.1507 18.9289C49.7732 18.6974 49.7151 18.2921 49.8894 17.8C50.0926 17.4816 50.3539 17.3079 50.6733 17.2789H52.5897C52.6187 18.0026 52.5897 18.3789 52.5897 18.3789ZM98.1472 13.2553C98.1472 13.2553 97.944 12.2131 97.7698 10.0711C97.7407 9.49208 97.3342 9.34733 96.6373 9.52106C95.1565 9.89738 93.937 10.6789 93.0078 11.6921V9.98418C93.0078 9.75262 92.8046 9.54997 92.5723 9.54997H88.6234C88.3911 9.54997 88.1879 9.75262 88.1879 9.98418V21.8816C88.1879 22.1131 88.3911 22.3158 88.6234 22.3158H92.6013C92.8336 22.3158 93.0369 22.1131 93.0369 21.8816V15.2526C93.7047 14.9342 95.2726 14.5289 97.6536 14.0658C98.1182 14.0658 98.2343 13.7474 98.1472 13.2553ZM85.1971 9.54997H81.2773C81.045 9.54997 80.8417 9.75262 80.8417 9.98418V17.6552C79.7384 18.0605 77.9091 18.7263 77.9381 16.4974V9.98418C77.9381 9.75262 77.7349 9.54997 77.5026 9.54997H73.5537C73.3214 9.54997 73.1182 9.75262 73.1182 9.98418V19.0157C73.002 22.3447 76.9509 23.7631 80.8417 21.071V21.8816C80.8417 22.1131 81.045 22.3158 81.2773 22.3158H85.2262C85.4585 22.3158 85.6617 22.1131 85.6617 21.8816V9.98418C85.6327 9.75262 85.4585 9.54997 85.1971 9.54997ZM65.9463 18.5815H71.0276C71.1437 18.5815 71.2308 18.6684 71.2308 18.7842V21.9974C71.2308 22.1131 71.1437 22.1999 71.0276 22.1999H60.3423C60.2262 22.1999 60.1391 22.1131 60.1391 21.9974V19.421V19.2474C60.1391 19.0638 60.4012 18.809 60.5152 18.6981L60.5266 18.687L60.5456 18.6684L65.4236 13.2553C65.3946 13.2263 65.3946 13.2263 65.3655 13.2263H60.7779C60.6617 13.2263 60.5456 13.1394 60.5456 13.0236V9.81051C60.5456 9.69473 60.6327 9.60786 60.7488 9.60786H70.8824C70.9985 9.60786 71.0856 9.69473 71.0856 9.81051V12.6763C71.0856 12.8279 70.9972 12.9354 70.8974 13.0566L70.8942 13.0604C70.8807 13.0769 70.867 13.0935 70.8533 13.1105L65.9463 18.5526V18.5815ZM113.478 9.75262H114.407C114.524 9.75262 114.582 9.81051 114.582 9.95527V22.1421C114.582 22.2579 114.524 22.3158 114.407 22.3158H113.478C113.362 22.3158 113.304 22.2579 113.304 22.1421V9.92629C113.304 9.81051 113.362 9.75262 113.478 9.75262ZM123.38 10.0132C123.351 9.66582 123.234 9.57895 122.915 9.72371L122.766 9.78791C121.343 10.4034 120.847 10.6178 119.808 11.3737V9.98418C119.808 9.8684 119.721 9.81051 119.634 9.81051H118.647C118.531 9.81051 118.472 9.89738 118.472 9.98418V22.2C118.472 22.3158 118.56 22.3737 118.647 22.3737H119.634C119.75 22.3737 119.808 22.2868 119.808 22.2V12.4737C120.999 11.8079 122.131 11.2869 123.234 11.0552C123.409 10.9974 123.438 10.9395 123.467 10.6789C123.438 10.6789 123.409 10.4184 123.38 10.0132ZM110.546 21.3605C110.749 21.3315 110.807 21.4184 110.778 21.621C110.778 21.8815 110.807 22.0553 110.865 22.0842C110.836 22.2289 110.749 22.3158 110.575 22.3447C109.936 22.4895 109.297 22.5184 108.658 22.171C108.339 21.9974 108.078 21.3315 108.136 20.8394C106.858 21.5921 105.755 22.0553 104.767 22.2868C103.49 22.6052 101.98 22.6052 101.138 22.2868C100.18 21.9395 99.541 20.7815 99.5119 19.8842C99.3958 18.35 99.57 17.3368 100.064 16.5553C100.528 15.8315 101.109 15.3973 101.777 15.1658C102.067 15.0789 102.648 14.9342 103.635 14.8473H108.078C108.078 13.6026 108.049 12.9657 108.049 12.9657C108.049 12.2131 107.729 11.6631 107.148 11.2868C106.742 11.0263 106.132 10.8526 105.232 10.7947C104.187 10.7078 102.88 10.8237 101.399 11.0552C100.819 11.142 100.673 10.9974 100.644 10.7078C100.615 10.4184 100.615 10.1868 100.906 10.0711C101.544 9.83942 103.112 9.60786 104.884 9.57895C106.277 9.49208 107.381 9.81051 108.136 10.3026C108.92 10.8237 109.297 11.5473 109.384 12.6473C109.413 17.9447 109.413 20.5789 109.413 20.5789C109.413 21.129 109.791 21.3894 110.546 21.3605ZM101.486 20.8394C102.27 21.3894 103.432 21.4184 104.796 21.0131C106.19 20.55 107.265 20.0868 107.99 19.5947V16.0921H103.374C102.59 16.0921 102.038 16.3236 101.893 16.4684C101.167 17.0763 100.906 17.8289 100.877 18.6684C100.848 19.7395 100.964 20.4921 101.486 20.8394Z" fill="#003C6B"></path><path fill-rule="evenodd" clip-rule="evenodd" d="M103.431 36.5581C98.3211 29.2344 95.7949 25.5002 95.7949 25.3844L105.377 25.3555C109.006 25.3555 112.955 27.0634 115.075 30.1318L123.176 41.8265C117.601 41.8265 114.814 41.8265 114.814 41.8265C109.906 42.3476 105.812 40.0028 103.431 36.5581Z" fill="#003C6B"></path><path d="M126.225 41.9711C130.725 41.8263 135.052 38.7 138.768 33.6342C138.768 33.6342 144.314 25.4421 155.406 9.05789L143.995 9C138.246 9.75263 135.081 13.1974 131.741 17.7132L120.359 34.6184C120.359 34.6184 121.985 37.0789 125.208 42L126.225 41.9711Z" fill="url(#paint0_linear_110_8833)"></path><defs><linearGradient id="paint0_linear_110_8833" x1="137.895" y1="9" x2="137.895" y2="41.869" gradientUnits="userSpaceOnUse"><stop stop-color="#D81E24"></stop><stop offset="1" stop-color="#7D090B"></stop></linearGradient></defs></svg> 