<?xml version="1.0" encoding="UTF-8"?> <svg xmlns="http://www.w3.org/2000/svg" width="89" height="89" viewBox="0 0 89 89" fill="none"><rect width="89" height="89" rx="15" fill="#0C4BFE"></rect><path fill-rule="evenodd" clip-rule="evenodd" d="M29.6818 27C27.9097 27 26.2101 27.704 24.9571 28.9571C23.704 30.2101 23 31.9097 23 33.6818V35.9091H67.5455V33.6818C67.5455 31.9097 66.8415 30.2101 65.5884 28.9571C64.3353 27.704 62.6358 27 60.8636 27H29.6818ZM67.5455 40.3636H23V55.9545C23 57.7267 23.704 59.4262 24.9571 60.6793C26.2101 61.9324 27.9097 62.6364 29.6818 62.6364H60.8636C62.6358 62.6364 64.3353 61.9324 65.5884 60.6793C66.8415 59.4262 67.5455 57.7267 67.5455 55.9545V40.3636ZM36.3636 51.5C36.3636 50.9093 36.5983 50.3428 37.016 49.9251C37.4337 49.5074 38.0002 49.2727 38.5909 49.2727H48.4221L48.1526 49.0032C47.7347 48.5856 47.4998 48.019 47.4995 47.4282C47.4993 46.8374 47.7338 46.2707 48.1515 45.8527C48.5691 45.4348 49.1357 45.1999 49.7265 45.1997C50.3173 45.1995 50.884 45.434 51.302 45.8516L55.3734 49.9253C55.791 50.343 56.0255 50.9094 56.0255 51.5C56.0255 52.0906 55.791 52.657 55.3734 53.0747L51.302 57.1461C51.0965 57.3589 50.8507 57.5285 50.579 57.6453C50.3073 57.762 50.015 57.8234 49.7193 57.826C49.4235 57.8286 49.1302 57.7722 48.8565 57.6602C48.5828 57.5482 48.3341 57.3829 48.125 57.1737C47.9159 56.9646 47.7505 56.7159 47.6385 56.4422C47.5265 56.1685 47.4701 55.8752 47.4727 55.5795C47.4753 55.2837 47.5367 54.9915 47.6535 54.7197C47.7702 54.448 47.9399 54.2022 48.1526 53.9968L48.4221 53.7273H38.5909C38.0002 53.7273 37.4337 53.4926 37.016 53.0749C36.5983 52.6572 36.3636 52.0907 36.3636 51.5Z" fill="white"></path></svg> 