<?xml version="1.0" encoding="UTF-8"?> <svg xmlns="http://www.w3.org/2000/svg" width="200" height="50" viewBox="0 0 200 50" fill="none"><path d="M40 24.3243L47.8573 23.1895L52.5662 27.785L51.4313 34.1673L44.4818 37.8264L45.7865 29.9405L40 24.3243Z" fill="#7E282B"></path><path d="M40 21.0052L54.3248 18.9344L59.005 9.54589L63.6287 18.8497L74.0388 20.438L66.5216 27.7848L68.3089 38.0532L58.8913 33.2306L46.2828 39.8965L51.8286 43.9529L58.9484 40.2652L66.1529 43.9529L74.5208 37.8262L73.1309 29.827L78.946 24.2955L75.7689 14.3959L67.6846 13.2902L64.1392 6H53.8143L50.2403 13.3182L42.184 14.4531L40 21.0052Z" fill="#D0D2D3"></path><path fill-rule="evenodd" clip-rule="evenodd" d="M140.734 15.0499C140.574 15.0499 140.417 15.0506 140.262 15.0512C139.786 15.0532 139.33 15.0551 138.877 15.0376C138.789 15.0376 138.643 14.8739 138.635 14.7768C138.603 14.3568 138.593 13.9353 138.606 13.5142C138.612 13.3027 138.725 13.1737 138.975 13.181C139.469 13.1969 139.963 13.1889 140.458 13.181C140.626 13.181 140.738 13.2136 140.736 13.4142C140.733 13.8013 140.733 14.1869 140.734 14.5908C140.734 14.741 140.734 14.8937 140.734 15.0499ZM134.822 25.6184H136.209L136.207 13.1925C136.038 13.1925 135.872 13.1949 135.709 13.1972C135.335 13.2025 134.973 13.2076 134.613 13.1839C134.255 13.1607 134.196 13.3034 134.196 13.6185C134.212 14.9949 134.212 16.3713 134.212 17.7477V18.1512C133.368 17.2536 132.374 16.9841 131.294 16.9552C131.162 16.9515 131.03 16.9833 130.898 17.0153C130.797 17.0398 130.695 17.0644 130.592 17.0732C129.922 17.1305 129.356 17.4383 128.871 17.8592C128.318 18.3328 127.894 18.9396 127.64 19.6225C127.427 20.2226 127.326 20.8569 127.343 21.4936C127.35 22.1166 127.512 22.7577 127.712 23.3554C127.974 24.1348 128.484 24.7513 129.194 25.2099C129.72 25.5496 130.284 25.6945 130.886 25.8256C131.644 25.9872 132.34 25.8336 132.992 25.5359C133.365 25.3656 133.701 25.1139 134.039 24.8611L134.039 24.8611L134.039 24.861C134.188 24.7492 134.338 24.6371 134.491 24.5318L134.822 25.6184ZM133.751 19.7362C134.117 20.2628 134.26 20.5106 134.22 21.4893V21.49C134.293 22.3137 133.973 23.0475 133.288 23.5828C132.586 24.1298 131.416 24.2326 130.579 23.6712C129.628 23.0337 129.262 21.9109 129.539 20.7518C129.67 20.2005 129.854 19.7159 130.299 19.3653C130.949 18.8546 131.66 18.7104 132.488 18.9075C133.039 19.0379 133.461 19.3189 133.751 19.7362ZM91.8182 25.6032H93.9378L93.9378 25.5433C93.9377 25.4283 93.9376 25.3271 93.9407 25.2244C93.9409 24.7896 93.9406 24.3548 93.9402 23.92C93.9393 22.906 93.9385 21.8919 93.945 20.8779C93.9508 19.9137 94.4362 19.2624 95.3388 18.9154C96.2183 18.5771 97.1071 19.2356 97.1216 20.1368C97.1421 21.3605 97.1386 22.5847 97.1351 23.8086V23.8087V23.8088V23.8089V23.8089V23.809V23.8091V23.8092V23.8092V23.8093C97.1338 24.2755 97.1325 24.7416 97.1325 25.2077V25.5895H99.2666V25.1997C99.2666 24.8307 99.2653 24.4616 99.264 24.0926C99.2607 23.17 99.2575 22.2476 99.2746 21.3256C99.2785 20.8747 99.3418 20.4263 99.4629 19.9919C99.665 19.3023 100.188 18.8966 100.891 18.8365C101.917 18.7488 102.428 19.3276 102.463 20.2962C102.504 21.4614 102.496 22.6274 102.488 23.7932C102.484 24.2696 102.481 24.7459 102.481 25.2222V25.5989H104.515C104.515 25.0471 104.517 24.4971 104.519 23.9484V23.9481V23.9478V23.9475V23.9471V23.9468V23.9465V23.9462V23.9458V23.9458V23.9458V23.9458V23.9457V23.9457V23.9457V23.9456V23.9456C104.525 22.4301 104.531 20.925 104.491 19.4211C104.478 18.9712 104.217 18.4953 103.971 18.0918C103.621 17.5151 103.068 17.2029 102.39 17.0269C101.711 16.8508 101.078 16.9276 100.47 17.1406C99.8367 17.3616 99.2666 17.7354 98.929 18.4163C98.3162 17.4057 97.4375 16.9168 96.3211 16.937C95.2048 16.9573 94.342 17.468 93.6901 18.4583C93.6637 18.3814 93.6371 18.3125 93.6125 18.2487L93.6125 18.2487C93.5648 18.1248 93.5242 18.0196 93.5061 17.9107L93.5032 17.8937C93.388 17.2007 93.388 17.2007 92.6766 17.2007H92.2782C91.8008 17.2007 91.8008 17.2007 91.8008 17.6933V25.2997C91.8008 25.3635 91.8055 25.427 91.8108 25.4982L91.8108 25.4982C91.8133 25.5313 91.8159 25.566 91.8182 25.6032ZM108.396 22.1441C108.529 22.7432 108.772 23.2373 109.226 23.5633C109.58 23.8294 109.989 24.0139 110.423 24.1035C110.857 24.193 111.306 24.1854 111.737 24.0812C112.239 23.9711 112.688 23.8262 113.087 23.5017C113.253 23.367 113.389 23.4524 113.495 23.6277C113.644 23.8765 113.801 24.1188 113.962 24.3664C114.035 24.4792 114.109 24.5932 114.183 24.7093C113.657 25.1012 113.105 25.4381 112.455 25.6452C111.831 25.8437 111.211 25.9517 110.571 25.9024C109.589 25.83 108.688 25.5402 107.891 24.9143C107.158 24.3453 106.643 23.5414 106.432 22.6375C106.09 21.2075 106.283 19.8449 107.218 18.6257C107.87 17.773 108.684 17.229 109.744 17.0696C109.822 17.0577 109.901 17.0447 109.98 17.0317L109.98 17.0317C110.34 16.9724 110.704 16.9124 111.054 16.9515C112.418 17.1022 113.477 17.7078 114.097 19.019C114.531 19.934 114.518 20.8735 114.501 21.8312C114.496 22.105 114.311 22.1449 114.082 22.1441C112.343 22.1398 110.604 22.1398 108.866 22.1441H108.396ZM108.443 20.6743H112.463C112.658 19.5638 111.679 18.7481 110.888 18.6764C109.354 18.538 108.509 19.7217 108.443 20.6743ZM146.568 18.8328C147.464 18.9053 147.952 19.4551 147.944 20.3541L147.829 20.3633L147.567 20.384L147.564 20.3843L147.563 20.3843L147.562 20.3844C146.887 20.4377 146.225 20.4899 145.565 20.557C144.731 20.6302 143.947 20.9815 143.337 21.5545C142.666 22.176 142.54 22.9816 142.613 23.8509C142.686 24.7028 143.331 25.441 144.114 25.6177C144.694 25.7483 145.289 25.7949 145.882 25.7561C146.313 25.7264 146.752 25.5496 147.146 25.3381C147.418 25.1921 147.66 24.9899 147.909 24.7819C148.021 24.6885 148.134 24.594 148.252 24.5028C148.367 24.8535 148.491 25.2294 148.614 25.6068H150.002L150.003 24.5251V24.5229C150.003 22.8497 150.003 21.1921 149.997 19.5341C149.997 19.4497 149.964 19.3659 149.932 19.2816L149.932 19.2816L149.932 19.2816L149.932 19.2815C149.912 19.2312 149.893 19.1807 149.88 19.1299C149.571 17.8954 148.654 17.2855 147.514 17.1189C146.073 16.9081 144.602 17.1368 143.293 17.7752C142.993 17.9179 143.01 18.0548 143.082 18.2526C143.179 18.5316 143.291 18.8048 143.41 19.0934L143.41 19.0935C143.459 19.211 143.508 19.331 143.558 19.4551C143.611 19.4392 143.664 19.4247 143.717 19.4101C143.831 19.3788 143.945 19.3475 144.054 19.303C144.861 18.9734 145.691 18.7604 146.568 18.8328ZM147.624 21.8368C147.73 21.8372 147.836 21.8377 147.94 21.8377V21.8341C148.046 22.9381 147.19 24.266 146.023 24.1899C145.943 24.1848 145.861 24.1851 145.779 24.1853C145.592 24.1859 145.406 24.1865 145.244 24.1247C144.54 23.8567 144.532 23.0939 144.845 22.5766C145.121 22.1217 145.586 21.992 146.043 21.8812C146.263 21.8283 146.492 21.8321 146.727 21.8361C146.811 21.8374 146.895 21.8389 146.979 21.8377C147.195 21.8348 147.41 21.8358 147.624 21.8368H147.624H147.624H147.624H147.624H147.624H147.624ZM159.995 25.6163H157.837V25.2229C157.837 23.5459 157.837 21.8689 157.832 20.1918C157.828 19.119 156.847 18.6575 155.954 18.8937C155.316 19.0625 154.859 19.3841 154.62 19.9803C154.48 20.3015 154.398 20.6448 154.379 20.9945C154.359 22.0225 154.362 23.0521 154.365 24.0802C154.367 24.4633 154.368 24.8462 154.368 25.2287V25.6068H152.349V17.2319H153.75L154.158 18.5018C154.222 18.3868 154.292 18.2758 154.368 18.1693C155.144 17.2558 156.143 16.832 157.326 16.9486C158.413 17.0566 159.346 17.5832 159.739 18.8459C159.949 19.521 160.003 20.1911 160 20.8822C159.997 21.8481 159.998 22.814 159.999 23.7799C160 24.2628 160 24.7458 160 25.2287L159.995 25.6163ZM116.362 25.609H118.412C118.414 25.5837 118.415 25.5606 118.417 25.5392V25.5392V25.5392V25.5391C118.42 25.4896 118.423 25.4488 118.423 25.4084C118.423 25.0024 118.421 24.5964 118.42 24.1905C118.415 23.0643 118.411 21.9383 118.44 20.8127C118.465 20.4207 118.59 20.0416 118.803 19.7116C119.221 19.0436 120.43 18.7119 121.154 18.9871C121.247 19.0221 121.342 19.0512 121.429 19.0776C121.464 19.0884 121.498 19.0987 121.529 19.1088C121.585 18.9442 121.635 18.7907 121.682 18.6442L121.682 18.6442L121.682 18.6441L121.682 18.644C121.749 18.4349 121.812 18.2401 121.882 18.0476C122.134 17.3579 121.983 17.1268 121.218 17.0682C121.169 17.0684 121.121 17.0645 121.073 17.0566C120.136 16.8262 119.34 17.0942 118.657 17.7462C118.561 17.8397 118.471 17.9404 118.368 18.0555C118.298 18.134 118.222 18.2192 118.134 18.3134C118.104 18.2249 118.077 18.1402 118.05 18.0584L118.05 18.0583L118.05 18.0581C117.979 17.8427 117.915 17.6475 117.84 17.4565C117.803 17.3616 117.72 17.221 117.648 17.2167C117.339 17.2 117.029 17.2021 116.705 17.2043H116.705H116.705H116.705H116.705C116.593 17.205 116.479 17.2058 116.362 17.2058V25.609ZM125.393 17.2341V25.6061H123.372V17.2341H125.393ZM138.682 25.6177H140.719L140.717 17.2348H138.682V25.6177ZM123.366 13.2034V15.0246H125.351V13.2034H123.366Z" fill="#323638"></path><path fill-rule="evenodd" clip-rule="evenodd" d="M95.2706 32.1346L95.6198 32.5816C95.6753 32.5184 95.7337 32.4619 95.7858 32.4116C95.8852 32.3155 95.9613 32.2419 95.9494 32.1868C95.9226 32.0578 95.7668 31.8753 95.6458 31.8702C95.5616 31.8667 95.4735 31.9499 95.3855 32.033C95.3471 32.0693 95.3087 32.1056 95.2706 32.1346ZM103.137 35.6183L103.333 35.9617C102.862 36.4688 102.253 36.4261 101.661 36.3384C101.226 36.2732 100.925 35.9516 100.762 35.5546C100.338 34.5245 100.701 33.5907 101.755 33.2082C102.262 33.0257 102.73 33.2372 103.167 33.4842C103.214 33.5103 103.21 33.6907 103.173 33.774C103.153 33.8182 102.988 33.8464 102.925 33.8138C102.277 33.4676 101.719 33.5371 101.304 34.0312C100.776 34.6592 101.072 35.727 101.928 35.9458C102.368 36.0566 102.679 35.8789 103.021 35.6838C103.059 35.6621 103.098 35.6401 103.137 35.6183ZM108.279 36.3326L107.828 36.3522V35.7727C107.828 35.5871 107.828 35.4015 107.827 35.2159C107.825 34.6901 107.824 34.1643 107.836 33.6385C107.836 33.5396 107.882 33.4427 107.928 33.346C107.949 33.301 107.971 33.2561 107.988 33.2111L108.212 33.5552C108.306 33.5194 108.404 33.4729 108.504 33.4251C108.74 33.3124 108.99 33.193 109.237 33.193C109.481 33.193 109.718 33.32 109.96 33.4497C110.069 33.5079 110.179 33.5666 110.291 33.6146C110.501 33.2727 111.045 33.0489 111.515 33.18C111.984 33.3111 112.323 33.682 112.335 34.2166C112.344 34.6713 112.341 35.1279 112.338 35.595V35.595V35.595V35.5951V35.5951V35.5951V35.5951V35.5952V35.5952V35.5952L112.338 35.596C112.336 35.8334 112.335 36.0735 112.335 36.3174L111.894 36.3464C111.894 36.1782 111.894 36.0119 111.895 35.8472C111.896 35.4237 111.898 35.0097 111.889 34.5962C111.875 34.421 111.842 34.2477 111.793 34.079C111.772 33.9493 111.707 33.8309 111.608 33.7436C111.51 33.6564 111.385 33.6057 111.253 33.6001C111.098 33.5848 110.942 33.6162 110.805 33.6901C110.668 33.7641 110.556 33.8773 110.483 34.0152C110.378 34.2222 110.321 34.4503 110.317 34.6824C110.301 35.0642 110.304 35.4467 110.307 35.8361V35.8362C110.309 35.9965 110.31 36.158 110.31 36.321L109.876 36.3493C109.876 36.1707 109.877 35.9936 109.879 35.8176C109.883 35.372 109.886 34.9337 109.865 34.497C109.854 34.2796 109.75 34.0514 109.639 33.8573C109.494 33.6045 109.237 33.532 108.959 33.6197C108.548 33.7494 108.298 34.0543 108.286 34.4535C108.276 34.7853 108.277 35.1174 108.278 35.4504V35.4511C108.278 35.6014 108.278 35.7517 108.277 35.9023L108.279 36.3326ZM113.807 35.9335V37.7778L113.393 37.7988V33.2162L113.484 33.1691C113.605 33.3096 113.725 33.4509 113.853 33.6038C114.25 33.3314 114.683 33.0539 115.192 33.1894C115.513 33.2749 115.87 33.4335 116.082 33.6733C116.661 34.3318 116.669 35.225 116.113 35.8697C115.53 36.5442 114.677 36.5666 113.807 35.9335ZM113.791 34.7932C113.703 35.3786 114.206 35.9719 114.917 35.9523C115.629 35.9327 116.004 35.5669 116.021 34.8266C116.042 34.0225 115.548 33.6226 114.91 33.6095C114.332 33.6001 113.73 34.0384 113.791 34.7932ZM118.143 33.6603C118.668 33.4973 119.176 33.8928 119.103 34.4571C119.044 34.4571 118.985 34.458 118.925 34.4588C118.809 34.4605 118.692 34.4621 118.575 34.4578C118.163 34.439 117.784 34.4984 117.43 34.7476C117.153 34.941 116.918 35.3887 116.996 35.7183C117.073 36.0479 117.431 36.3377 117.772 36.3638C118.28 36.4022 118.76 36.363 119.114 35.8762C119.122 35.9088 119.13 35.9415 119.137 35.9736C119.193 36.2127 119.241 36.4214 119.586 36.3109V34.3274C119.584 34.1489 119.542 33.9731 119.462 33.8133C119.383 33.6535 119.268 33.5138 119.126 33.4049C118.985 33.296 118.821 33.2206 118.646 33.1845C118.471 33.1485 118.29 33.1526 118.117 33.1966C117.918 33.2495 117.72 33.3182 117.521 33.3878L117.521 33.3879C117.43 33.4193 117.34 33.4509 117.248 33.4813C117.257 33.5645 117.265 33.6376 117.273 33.7124L117.292 33.8841C117.4 33.8552 117.506 33.829 117.611 33.8031L117.611 33.8031C117.793 33.7582 117.97 33.7145 118.143 33.6603ZM118.132 34.8868C118.462 34.7913 118.806 34.6916 119.132 34.9599C118.982 35.6256 118.582 35.9871 118.107 35.9342C118.073 35.9303 118.038 35.9277 118.004 35.9251C117.801 35.9095 117.608 35.8947 117.546 35.6299C117.466 35.2996 117.628 35.012 117.901 34.949C117.977 34.9318 118.054 34.9094 118.132 34.8868L118.132 34.8868ZM93.8956 34.4607C93.9942 33.866 93.5269 33.4777 92.9742 33.6516C92.9038 33.6735 92.8339 33.699 92.764 33.7244L92.764 33.7244L92.764 33.7244L92.764 33.7244L92.764 33.7244L92.764 33.7244L92.764 33.7244L92.764 33.7244C92.6035 33.7828 92.4432 33.8411 92.2787 33.8573C92.2227 33.863 92.1582 33.7792 92.08 33.6778L92.08 33.6778L92.08 33.6778L92.08 33.6778L92.08 33.6778L92.08 33.6778L92.08 33.6778L92.08 33.6778C92.0399 33.6258 91.9963 33.5691 91.9484 33.5175C92.0874 33.4718 92.2107 33.4292 92.3242 33.39L92.3242 33.39L92.3243 33.39L92.3243 33.39L92.3243 33.39C92.5345 33.3174 92.7109 33.2564 92.8902 33.2089C93.4545 33.0641 94.4295 33.406 94.3861 34.2615C94.3635 34.7036 94.3682 35.1457 94.3729 35.5863C94.3751 35.7954 94.3774 36.0041 94.3767 36.2124C94.3727 36.2476 94.3652 36.2823 94.3542 36.316H94.3542C94.097 36.3326 94.097 36.3326 93.8942 35.8965C93.5718 36.3609 93.1089 36.3862 92.6156 36.3652C92.4752 36.3645 92.3374 36.3266 92.2163 36.2555C92.0952 36.1844 91.995 36.0826 91.926 35.9603C91.7405 35.6538 91.763 35.3329 91.981 35.0432C92.2534 34.681 92.6011 34.4506 93.0763 34.4636C93.2353 34.4645 93.3935 34.4634 93.5503 34.4623L93.5503 34.4623L93.5504 34.4623C93.6664 34.4615 93.7816 34.4607 93.8956 34.4607ZM93.9217 34.9359C93.3864 34.7295 92.7235 34.8396 92.436 35.1822C92.2462 35.4083 92.3345 35.8639 92.596 35.9067C93.3378 36.0269 93.837 35.7937 93.9217 34.9359ZM103.776 34.786C103.717 35.7067 104.454 36.4724 105.352 36.3797C106.371 36.4652 106.952 35.6082 106.975 34.8237C107.004 33.9029 106.223 33.1416 105.37 33.1575C104.428 33.1756 103.839 33.8131 103.776 34.786ZM105.344 36.0291C104.663 35.99 104.229 35.5032 104.229 34.786V34.7824C104.14 34.0971 104.824 33.5733 105.354 33.5943C105.98 33.6153 106.535 34.1666 106.535 34.8019C106.534 35.4228 105.913 36.0617 105.344 36.0291ZM124.343 37.7604C124.379 37.6664 124.409 37.5696 124.44 37.4737C124.506 37.2623 124.571 37.0551 124.693 36.8911C125.069 36.3814 124.862 35.9506 124.65 35.5094C124.625 35.4558 124.599 35.4021 124.574 35.3481C124.41 34.9907 124.247 34.6321 124.085 34.2737L124.085 34.2729L124.084 34.2718L124.084 34.2708C123.985 34.0534 123.887 33.836 123.788 33.619C123.757 33.5515 123.724 33.4851 123.687 33.4099L123.687 33.4099L123.687 33.4094L123.687 33.4086C123.671 33.3761 123.654 33.3419 123.636 33.3053C123.94 33.2408 124.128 33.2372 124.265 33.603C124.444 34.0844 124.666 34.5501 124.897 35.0365L124.897 35.0365L124.897 35.0369L124.897 35.0375L124.898 35.0384L124.899 35.0399L124.899 35.0404C124.996 35.2458 125.096 35.4549 125.195 35.6705C125.244 35.554 125.292 35.4405 125.34 35.3289L125.34 35.3275L125.34 35.3271L125.343 35.321L125.344 35.3187C125.457 35.0537 125.565 34.7997 125.668 34.544C125.721 34.4124 125.77 34.2785 125.818 34.1447L125.818 34.1446C125.912 33.8868 126.005 33.6294 126.131 33.3886C126.242 33.1763 126.47 33.1437 126.638 33.348C126.563 33.5297 126.488 33.7097 126.413 33.8888L126.413 33.8896C126.261 34.2536 126.11 34.614 125.962 34.978C125.828 35.3054 125.696 35.6338 125.564 35.9623C125.437 36.2798 125.309 36.5974 125.18 36.9143C125.155 36.9736 125.123 37.0312 125.091 37.0885C125.034 37.1929 124.977 37.2963 124.958 37.4076C124.898 37.7626 124.71 37.8582 124.343 37.7604ZM120.598 36.3399H121.038C121.038 36.1606 121.039 35.9847 121.039 35.8112V35.811V35.8107V35.8105V35.8103C121.04 35.4266 121.042 35.0545 121.037 34.6831C121.03 34.5182 121.065 34.3543 121.136 34.2056C121.208 34.0568 121.315 33.9279 121.447 33.8298C121.948 33.4284 122.456 33.5407 122.679 34.1318C122.737 34.3119 122.765 34.5004 122.761 34.6897C122.766 35.0532 122.764 35.4175 122.763 35.7878C122.762 35.9753 122.761 36.1644 122.761 36.3558L123.196 36.3239C123.196 36.0969 123.2 35.8713 123.205 35.6471V35.647V35.6469V35.6468V35.6467C123.214 35.1234 123.224 34.6078 123.179 34.1007C123.136 33.5994 122.747 33.1408 122.143 33.1829C121.883 33.2026 121.629 33.2975 121.383 33.3893C121.276 33.4293 121.171 33.4686 121.068 33.5009L120.75 33.2575C120.734 33.3036 120.712 33.3495 120.691 33.3953C120.648 33.4869 120.605 33.5784 120.605 33.6711C120.594 34.1923 120.595 34.7134 120.597 35.2342V35.2344V35.2345V35.2346V35.2348V35.2349V35.235V35.2351V35.2352C120.597 35.4141 120.598 35.5931 120.598 35.7719V36.3399ZM96.9382 35.9385C96.9338 36.3638 96.9418 36.3935 97.4156 36.2913C97.4156 36.0671 97.4147 35.8421 97.4139 35.6165C97.4122 35.1861 97.4106 34.7534 97.4149 34.3195C97.4221 33.8921 97.9444 33.4784 98.3334 33.6277C98.571 33.7197 98.6833 33.632 98.6906 33.4639C98.6949 33.3705 98.5102 33.2039 98.3892 33.1807C97.9712 33.1003 97.6228 33.2792 97.375 33.569L97.0679 33.2372C97.0504 33.2709 97.0283 33.3046 97.0062 33.3383C96.9584 33.411 96.9107 33.4837 96.9107 33.5559C96.9103 33.9177 96.9177 34.2786 96.925 34.6397L96.925 34.6398C96.9338 35.072 96.9425 35.5044 96.9382 35.9385ZM95.8371 36.3312H95.3959C95.3959 36.1262 95.3956 35.922 95.3953 35.7184V35.7184C95.3943 34.9525 95.3932 34.195 95.4075 33.4378C95.4075 33.3884 95.4877 33.339 95.5679 33.2896C95.6053 33.2666 95.6427 33.2436 95.6719 33.2205C95.6895 33.2457 95.7118 33.2708 95.7341 33.2958C95.7818 33.3494 95.8293 33.4029 95.8298 33.4567C95.8389 34.1993 95.8382 34.9415 95.8375 35.7007V35.7007C95.8373 35.9095 95.8371 36.1195 95.8371 36.3312Z" fill="#323638"></path></svg> 