<?xml version="1.0" encoding="UTF-8"?> <svg xmlns="http://www.w3.org/2000/svg" width="200" height="50" viewBox="0 0 200 50" fill="none"><path fill-rule="evenodd" clip-rule="evenodd" d="M20.9881 30.6766C18.0213 30.6766 14.1008 29.9098 15.1844 26.6019L17.3188 20.0778H20.8796L18.8941 26.1246C18.4667 27.4374 19.4014 28.2715 21.7734 28.2715C24.1664 28.2715 25.6353 27.4253 26.0641 26.1246L28.0444 20.0778H31.5818L29.4453 26.6019C28.3816 29.8629 24.0261 30.6766 20.9881 30.6766V30.6766ZM42.6337 23.3761C42.3919 24.1154 41.7702 24.3793 41.2503 24.3793H35.6004L36.2161 22.4874H41.7944C42.4689 22.4874 42.8288 22.7987 42.6337 23.3761ZM43.3172 20.0778H33.4498L30.0361 30.4976H33.5949L34.8081 26.7863H37.4888L39.4456 30.4976H44.1051L41.6039 26.4269L42.2467 26.4272C43.8725 26.4272 45.5204 25.0899 46.132 23.2135C46.8468 21.0537 45.3878 20.0778 43.3172 20.0778V20.0778ZM52.1706 26.4069L55.4172 22.8447L56.3199 26.4069H52.1706ZM58.1877 20H54.5887L44.1327 30.4976H48.4991L50.2046 28.6158H56.8531L57.3199 30.4976H61.7522L58.1877 20ZM62.4889 30.4978L65.904 20.0778H69.4542L66.8689 27.9644H76.4023L74.6901 30.4978H62.4889ZM82.1266 27.436H89.9867L88.2807 20.6937L82.1266 27.436ZM174.864 30.4886C172.679 30.4886 170.794 30.2877 169.246 29.8898L169.936 28.8843C171.07 29.2462 172.865 29.7587 175.702 29.7587C177.916 29.7587 181.303 29.1462 181.895 27.4728C182.387 26.0769 179.184 25.9662 176.638 25.7748C174.372 25.596 171.842 25.5399 171.136 24.3836C171.075 24.2839 170.874 23.9897 171.151 23.1349C171.746 21.3008 175.267 20.02 179.712 20.02C181.759 20.02 183.696 20.2187 185 20.5519L184.348 21.5559C183.016 21.0592 181.011 20.7661 178.887 20.7661C176.424 20.7661 172.855 21.3281 172.38 22.7789C172.251 23.1685 172.24 23.459 172.446 23.7848C172.945 24.5728 175.326 24.4265 177.739 24.4732C180.279 24.5226 183.138 24.6345 183.584 25.7966C183.624 25.9001 183.855 26.3161 183.583 27.1512C182.745 29.7236 178.351 30.4886 174.864 30.4886V30.4886ZM154.141 30.314L157.502 20.1064H169.227L168.979 20.8663H158.419L157.252 24.4265H167.824L167.574 25.1901H157.009L155.581 29.5551H166.14L165.891 30.314H154.141ZM135.21 30.314L138.577 20L149.345 28.6066L152.162 20.106H153.398L150.01 30.427L139.138 21.6384L136.457 30.2959L135.21 30.314ZM116.376 30.314L119.718 20.106H120.954L117.974 29.2065H127.805L127.439 30.314H116.376ZM103.297 25.0651H110.946C112.066 25.0651 113.441 24.3691 113.788 23.2918C114.027 22.5414 114.655 21.0941 111.56 21.0941H104.582L103.297 25.0651ZM109.427 30.3133L107.203 26.042H102.986L101.602 30.3133H100.345L103.646 20.1142H112.68C113.794 20.1142 114.591 20.3325 114.944 20.8278C115.213 21.2039 115.612 21.9642 115.378 22.6846C114.812 24.443 113.382 25.8608 111.909 25.8608H108.391L111.186 30.3076L109.427 30.3133ZM129.774 30.314L133.101 20.106H134.429L131.093 30.314H129.774ZM94.5011 30.314L97.8447 20.106H99.172L95.8197 30.314H94.5011ZM90.6769 30.314L90.1422 28.1758H81.5077L79.5686 30.314H77.9483L87.2678 20.1196L89.4133 20.1064L92.1212 30.2899L90.6769 30.314Z" fill="#E31D2C"></path></svg> 