<?xml version="1.0" encoding="UTF-8"?> <svg xmlns="http://www.w3.org/2000/svg" width="200" height="50" viewBox="0 0 200 50" fill="none"><path fill-rule="evenodd" clip-rule="evenodd" d="M31 3L42.3566 43H169.741V42.1049H84.8182C81.7972 42.2168 80.9021 41.8811 79.5035 40.5385L45.2657 3H31ZM99.1399 35.7273H94.8322L92.7063 30.1329H86.4965L84.5384 35.7273H82.5245L88.1189 20.1749C88.5664 19 88.1748 18.4406 86.3846 18.3287L86.3287 17.4336H92.5385L99.1399 35.7273ZM92.1468 28.4546L89.7972 22.077H89.4056L87.1678 28.4546H92.1468ZM141.21 35.6154H137.294L135.336 30.4126H129.629L127.839 35.5595H125.993L131.14 21.2937C131.476 20.2308 131.196 19.7273 129.517 19.6154L129.462 18.7763H135.224L141.21 35.6154ZM134.832 28.9581L132.65 23.0839H132.315L130.245 28.9581H134.832ZM164.818 35.5035H168.734L162.748 18.7203H157.042L157.098 19.5595C158.776 19.6714 159.112 20.1189 158.72 21.2378L153.573 35.5035H155.42L157.21 30.3567H162.916L164.818 35.5035ZM160.175 22.9161L162.357 28.7902H157.769L159.839 22.9161H160.175ZM114.413 35.6154H110.273V27.6154H105.182V35.6154H101.042V21.3497C101.042 20.3427 100.259 19.7832 98.972 19.7273V18.7763H105.182V25.993H110.273V18.7763H114.413V35.6154ZM118.496 35.6154H122.636V20.5105H128.007V18.7763H116.427V19.7273C117.713 19.7832 118.496 20.2867 118.496 21.3497V35.6154ZM146.413 35.6154H142.273V21.3497C142.273 20.3427 141.489 19.7832 140.203 19.7273V18.7763H147.867C157.713 18.7763 156.986 28.6224 149.042 28.5105H146.413V35.6154ZM146.357 20.2308H147.923C152.622 20.3427 152.455 27 147.923 27.056H146.357V20.2308Z" fill="#1B97B9"></path><path fill-rule="evenodd" clip-rule="evenodd" d="M52.7063 11.1119H33.1818L31 3H45.2657L52.7063 11.1119Z" fill="#F03A25"></path><path fill-rule="evenodd" clip-rule="evenodd" d="M33.6851 12.5102L33.1816 11.0557H52.7061L58.9159 17.9368L62.0488 33.8808L73.4054 33.8249L75.0278 35.6151H40.2865L39.8949 34.3843C43.3635 27.9508 46.8879 21.5172 50.4124 15.0836C51.6991 12.7899 51.4194 12.3424 48.5663 12.4543H33.6851V12.5102ZM47.8949 25.4333H54.1047L52.4264 16.8738L47.8949 25.4333ZM54.5523 27.7829H46.6642L43.3635 33.9368H55.7271L54.5523 27.7829Z" fill="white"></path></svg> 