<?xml version="1.0" encoding="UTF-8"?> <svg xmlns="http://www.w3.org/2000/svg" width="200" height="50" viewBox="0 0 200 50" fill="none"><path fill-rule="evenodd" clip-rule="evenodd" d="M53.8705 34.2166H61.8774L53.5636 16H43.5108L39.9642 20.556H40.6462L30 34.1963H35.9608L39.4868 29.6676H51.804L53.8705 34.2166ZM42.6855 25.5892L47.255 19.7238L49.9284 25.5892H42.6855ZM84.7249 26.2712L98.1742 16.041L106.181 16.0205L100.179 34.2371H92.1247L94.8528 26.0529L83.9951 34.2371H80.0803L74.7197 26.0051L71.9916 34.2371H63.9779L68.486 20.5968H67.804L69.3113 16.041H78.0206L84.7249 26.2712ZM166.199 16.7876C167.173 17.2836 168.015 18.0049 168.654 18.8917C169.304 19.7671 169.735 20.7856 169.911 21.8619C170.087 22.9382 170.002 24.0408 169.663 25.0775L169.608 25.2413C169.138 26.6004 168.255 27.7786 167.082 28.6113C165.91 29.444 164.506 29.8896 163.068 29.8857H147.116L145.683 34.2371H137.676L142.178 20.5968H141.496L142.996 16.0408H163.054C164.147 16.0358 165.225 16.2917 166.199 16.7876ZM150.341 20.1397L148.466 25.8209H161.022C161.628 25.8288 162.22 25.6413 162.712 25.2863C163.203 24.9315 163.567 24.4278 163.75 23.85V23.8159C163.88 23.3899 163.909 22.9394 163.833 22.5005C163.757 22.0615 163.58 21.6466 163.314 21.2889C163.049 20.9313 162.703 20.6409 162.305 20.4414C161.907 20.2418 161.467 20.1384 161.022 20.1397H150.341ZM129.349 21.0743L132.514 16.0478H140.521L129.063 34.2575H127.167H121.049H113.772L112.415 30.1586H123.634L126.764 25.1799H118.103H115.245H110.778L109.264 20.5968H106.918L108.425 16.0478H109.298H109.625H115.088L116.745 21.0743H129.349Z" fill="#1F1919"></path></svg> 