<?xml version="1.0" encoding="UTF-8"?> <svg xmlns="http://www.w3.org/2000/svg" width="200" height="50" viewBox="0 0 200 50" fill="none"><g clip-path="url(#clip0_110_8863)"><path fill-rule="evenodd" clip-rule="evenodd" d="M6.10847 21.694L0 18.1533H200L192.244 21.694H6.10847ZM182.636 26.4604L190.323 22.9197H7.82349L14.0692 26.5285L182.636 26.4604ZM15.5108 27.6181L21.6879 31.2269H172.959L180.714 27.6181H15.5108Z" fill="#0094C7"></path><path fill-rule="evenodd" clip-rule="evenodd" d="M53.6716 31.0908H52.642L52.7106 30.9546L53.1911 30.4099C53.1911 30.4099 54.907 30.2056 54.7011 30.6142C54.6324 30.7503 54.5637 30.8865 54.5637 30.9546C54.5637 30.9546 54.5637 30.9546 54.5637 31.0227C54.4265 31.0908 54.0147 31.1589 53.6716 31.0908ZM55.1129 21.9666C55.456 21.2857 55.6619 20.741 55.7306 20.6048C56.211 19.4472 56.211 19.3792 57.1719 19.3792H59.6427L58.4073 21.8985L58.0641 22.7837L56.8973 25.235C55.5932 25.235 53.5342 25.3712 53.6029 25.1669C53.6715 25.0988 53.6716 24.8945 53.7401 24.7583C53.7401 24.7583 54.1519 23.8051 54.6324 22.7837C54.907 22.5794 54.9755 22.239 55.1129 21.9666ZM114.138 24.9626L116.197 22.988L115.854 24.9626H114.138ZM153.878 18.3578L154.564 14.1362H146.122L141.66 18.3578L137.886 21.9666L136.993 22.8518L133.218 26.4606L132.326 27.2777L129.444 30.0694L129.375 30.1375L129.306 30.2056C129.306 30.2056 128.895 30.6142 127.796 30.8184C127.453 30.8865 127.041 30.8865 126.424 30.8865H125.669C124.914 30.9546 124.227 30.8184 124.227 30.8184L124.777 27.2096L124.914 26.3925L125.463 22.7837L125.6 21.8985L126.149 18.2897L126.836 14.0681H118.394L113.932 18.2897L110.158 21.8985L109.265 22.7837L105.491 26.3925L104.598 27.2096L101.716 30.0013C101.716 30.0013 101.235 30.546 99.931 30.7503C99.6568 30.8184 99.2444 30.8184 98.6953 30.8184H97.9404L97.2545 30.8865L97.3229 30.7503L98.9702 27.1415L99.3819 26.3244L101.029 22.7156L101.441 21.8304L103.088 18.2216L105.079 14H95.6755L90.6651 18.2216L86.5471 21.8304L86.2045 22.1028L86.1354 21.8304L85.3805 18.2216L84.4197 14H75.6345C75.6345 14 74.7421 15.8384 73.5755 18.2216C73.0948 19.3792 72.4773 20.6048 71.9282 21.8304C71.7907 22.1028 71.654 22.4432 71.5165 22.7156C70.899 24.0093 70.2808 25.235 69.8008 26.3244C69.6633 26.5968 69.5259 26.8691 69.4575 27.1415C68.84 28.4352 68.4967 29.2523 68.4967 29.2523C68.4276 29.3204 67.8101 30.7503 66.3688 30.7503H64.2412L65.8885 27.1415L66.3003 26.3244L67.9476 22.7156L68.3593 21.8304L70.0066 18.2216L71.9966 14H56.6228C51.887 14 48.6612 15.3618 47.3572 17.9493C47.3572 17.9493 47.3572 17.9493 47.2885 18.0173L47.014 18.3578C46.8767 18.5621 46.259 20.1962 45.4354 21.9666C45.2981 22.3751 45.2295 22.4432 45.0922 22.8518C44.6118 24.0774 43.9255 25.4393 43.9255 25.4393C43.7882 25.7116 43.7196 26.052 43.7196 26.4606C43.7196 26.733 43.7196 27.0054 43.7882 27.2777C43.8568 27.482 43.9255 27.6181 43.9941 27.8224C44.8863 29.5247 45.8472 29.4566 45.8472 29.4566L44.2 30.6823C44.2 30.6823 44.2 30.6823 44.2 30.7503C43.9255 30.7503 42.6214 30.8184 41.5919 30.8865C40.837 30.9546 40.1506 30.9546 40.1506 30.9546L38.6406 35.1762H77.2128L79.1351 31.0227L77.6252 30.8865L77.2819 30.8184L78.7918 27.2777L79.2034 26.4606L80.7133 22.9199L81.6057 26.4606L81.88 27.2777L82.7723 30.8865L83.1156 32.1121L84.4197 30.8865L88.3319 27.2777L89.8418 25.7116C89.8418 25.7116 89.2927 26.9372 89.1552 27.2777C88.6752 28.5714 87.8512 30.2737 87.8512 30.2737C87.8512 30.2737 87.6453 30.7503 86.4103 30.8184C86.3413 30.8184 86.2729 30.8184 86.2729 30.8184H85.5179L83.6647 35.1082H107.206L108.099 31.295H107.412L107.755 30.9546L108.442 30.3418C108.442 30.3418 114.893 30.2737 114.825 30.4099C114.687 30.6823 114.482 30.9546 114.001 30.9546H113.04L112.354 35.2443H135.003L135.896 31.4313C135.896 31.4313 134.797 31.5674 135.14 31.295C135.277 31.1589 135.415 31.0908 135.552 30.9546C136.032 30.546 136.513 30.1375 136.513 30.0694L139.327 27.4138L140.22 26.5968L143.788 23.1242L143.308 26.5968L142.896 29.1161C142.896 29.0481 142.622 30.0694 142.622 30.2056C142.622 30.4099 142.415 31.0227 141.729 31.0227H140.769L140.082 35.3124H153.603L154.221 31.0908H152.848C152.025 31.0908 151.955 31.0227 151.955 31.0227L152.505 27.4138L152.642 26.5968L153.191 22.988L153.329 22.1028L153.878 18.3578Z" fill="white"></path><path fill-rule="evenodd" clip-rule="evenodd" d="M153.124 15.2256L150.721 30.6821C150.721 30.6821 150.172 32.1802 152.78 32.1121L152.505 34.0186H141.387L141.73 32.044C143.514 32.044 143.789 30.2736 143.789 30.2736L144.064 29.1161L145.642 19.6515L135.69 29.1161L133.837 30.8184C133.837 30.8184 132.67 31.8397 134.455 32.2482L134.043 34.0186H126.15L126.356 32.1801C129.307 32.1801 130.131 30.9546 130.131 30.9546L146.603 15.2256H153.124ZM111.257 26.0522H116.885L117.914 19.7197L111.257 26.0522ZM118.875 15.2938H125.464L122.993 30.7503C122.993 30.7503 122.444 32.2483 125.052 32.1803L124.778 34.0868H113.659L114.002 32.1122C115.787 32.1122 116.061 30.3419 116.061 30.3419L116.336 29.1842H108.031L106.177 30.8866C106.177 30.8866 105.011 31.9079 106.796 32.3164L106.384 34.0868H98.0788L98.6962 32.2484C101.648 32.2484 102.472 31.0228 102.472 31.0228L118.875 15.2938ZM57.7219 26.4607H53.4666C52.643 26.4607 52.2312 25.8478 52.8488 24.3498L54.4274 20.8772C54.5276 20.6513 54.6157 20.4398 54.6978 20.2428C55.2344 18.9544 55.5151 18.2807 57.2415 18.2216H61.5654L57.7219 26.4607ZM62.6635 31.0228L69.9384 15.2938H56.4178C49.7825 15.2938 48.4923 18.0388 48.2135 18.632L48.211 18.6371C48.1997 18.6614 48.19 18.6819 48.1817 18.6983C47.6326 19.992 46.26 23.2604 45.0932 25.984C44.0636 28.3672 48.3189 29.2524 48.3189 29.2524L44.9559 31.7717C44.9559 31.7717 44.8186 32.2484 41.0438 32.2484L40.3574 34.0868H50.3094L50.9271 32.2484C49.5544 32.0442 50.3094 31.5674 50.3094 31.5674L52.4371 29.5248L56.4864 29.4567C56.4864 29.4567 56.1811 30.1556 55.914 30.763C55.7244 31.194 55.554 31.579 55.5256 31.6355C54.9766 32.5207 53.4666 32.2484 53.4666 32.2484L52.643 34.0868H63.4185L64.1736 32.1122C61.7027 32.0442 62.6635 31.0228 62.6635 31.0228ZM103.227 15.2256L96.0204 30.7502C96.0204 30.7502 95.3345 31.976 96.6379 32.1121L95.952 33.9505H85.4511L86.2745 31.976C88.5393 31.976 88.9509 30.6821 88.9509 30.6821L92.6574 21.8304L83.8038 29.8651L80.9898 19.3111L75.9794 31.0907C75.9794 31.0907 75.3619 31.8397 77.4209 31.976L76.5969 33.9505H65.4783L66.1646 31.976C68.4983 31.976 69.3907 29.8651 69.3907 29.8651L76.1853 15.2256H83.3231L85.382 24.4179L96.0204 15.2256H103.227Z" fill="#DF2D30"></path></g><defs><clipPath id="clip0_110_8863"><rect width="200" height="50" fill="white"></rect></clipPath></defs></svg> 