<?xml version="1.0" encoding="UTF-8"?> <svg xmlns="http://www.w3.org/2000/svg" width="200" height="50" viewBox="0 0 200 50" fill="none"><path fill-rule="evenodd" clip-rule="evenodd" d="M142.061 9.6263C145.601 8.52323 149.33 7.90444 153.059 8.01206C155.41 8.03896 157.788 8.36181 160.03 9.16893C162.408 9.97605 164.597 11.4558 166.002 13.5274C167.435 15.6528 167.651 18.397 166.975 20.8184C165.624 25.0423 162.517 28.486 158.95 31.0419C154.437 34.3242 149.141 36.3689 143.682 37.4451C147.114 31.8221 150.573 26.1992 154.005 20.5762C153.005 20.6032 152.005 20.5493 151.005 20.5493C148.978 24.1007 146.79 27.5713 145.06 31.2841C145.114 30.5846 145.276 29.912 145.249 29.2124C145.222 26.3337 145.411 23.455 145.411 20.5762C144.25 20.5762 143.115 20.4686 141.953 20.5493C142.196 23.4281 142.115 26.3337 142.385 29.2124C142.439 30.9343 142.574 32.6562 142.52 34.378C142.034 35.2928 141.331 36.0999 140.764 36.9877C140.493 37.3644 140.223 37.8756 139.71 37.8756C136.332 38.1177 132.873 37.5796 129.712 36.3689C130.928 31.7683 132.035 27.1408 133.251 22.5402C133.981 22.5671 134.738 22.5941 135.467 22.5941C135.656 21.8945 135.846 21.195 136.035 20.4955C135.305 20.4955 134.576 20.4686 133.819 20.4417C134.197 19.2849 134.332 17.9935 135.197 17.0787C135.738 16.5137 136.575 16.5137 137.251 16.1909C137.494 15.5452 137.629 14.8457 137.818 14.1731C135.819 14.0386 133.63 14.6843 132.333 16.2985C131.36 17.4285 130.982 18.9351 130.603 20.3341C130.117 20.4417 129.576 20.3341 129.063 20.4148C128.874 21.0874 128.658 21.7869 128.469 22.4595C128.982 22.4864 129.495 22.4864 130.009 22.5133C128.928 26.5489 127.847 30.5577 126.739 34.5933C124.821 33.1942 123.551 30.9612 123.361 28.5937C123.226 26.8449 123.605 25.0961 124.199 23.455C125.226 20.9529 126.928 18.7468 128.928 16.9173C132.684 13.5543 137.251 11.1598 142.061 9.6263ZM139.277 14.2C137.278 20.8722 135.467 27.5982 133.495 34.2973C134.576 34.3242 135.656 34.3511 136.737 34.3242C138.656 27.6251 140.547 20.9529 142.439 14.2538C141.412 14.2 140.358 14.2269 139.277 14.2ZM151.762 28.486C151.302 28.9165 151.302 29.6967 151.654 30.2079C151.978 30.6384 152.599 30.5307 153.032 30.3155C152.978 30.2079 152.951 30.0734 152.924 29.9658C152.68 29.9927 152.41 30.1541 152.194 29.9658C151.924 29.6967 151.897 29.1586 152.167 28.8896C152.356 28.7013 152.626 28.8627 152.87 28.8627C152.924 28.7013 152.951 28.5398 153.005 28.3784C152.572 28.2977 152.086 28.1901 151.762 28.486ZM153.815 28.3246C152.762 28.6475 153.005 30.5577 154.167 30.5038C155.058 30.5038 155.383 29.3739 154.95 28.7282C154.734 28.3246 154.221 28.1901 153.815 28.3246ZM155.977 28.5937C155.923 28.3246 155.707 28.3246 155.491 28.3515C155.518 29.051 155.491 29.7236 155.491 30.4231C155.68 30.4231 155.869 30.4231 156.031 30.4231C156.031 29.9658 156.004 29.5084 156.031 29.0241C156.058 28.7551 156.41 28.6206 156.599 28.8089C156.707 29.3201 156.653 29.8851 156.626 30.3962C156.815 30.3962 157.004 30.3962 157.193 30.3962C157.22 29.912 157.139 29.4008 157.22 28.9165C157.274 28.6475 157.734 28.5937 157.788 28.8896C157.869 29.3739 157.815 29.885 157.815 30.3693C158.004 30.3693 158.193 30.3693 158.382 30.3424C158.328 29.7236 158.463 29.0779 158.274 28.486C158.031 28.0556 157.382 28.1901 157.112 28.5129C156.896 28.1363 156.301 28.2439 155.977 28.5937ZM150.627 29.8851C150.384 29.9389 150.33 30.3155 150.573 30.45C150.789 30.6653 151.059 30.3962 151.194 30.2348C151.032 30.0465 150.897 29.7236 150.627 29.8851ZM153.923 28.8089C153.626 29.1586 153.626 29.8043 154.059 30.0734C154.842 30.1541 154.734 28.486 153.923 28.8089Z" fill="#57AD40"></path><path fill-rule="evenodd" clip-rule="evenodd" d="M43.0523 15.4371C44.8898 15.0336 46.8083 14.926 48.6999 15.1681C50.2131 15.3564 51.7534 16.0559 52.6722 17.2935C53.4828 18.3966 53.7531 19.7956 53.7801 21.1139C53.726 22.8088 53.2937 24.4769 52.6992 26.0373C51.5913 28.943 49.6187 31.6065 46.8354 33.0862C44.5925 34.3507 41.8903 34.4852 39.4043 33.9471C38.6747 36.4492 37.9991 38.9782 37.2425 41.4533C35.8373 41.4533 34.4052 41.4533 33 41.3995C33.9998 37.9558 34.9996 34.5121 35.9995 31.0684C37.4316 26.1718 38.7557 21.2484 40.2419 16.3519C41.0796 15.8945 42.0795 15.6793 43.0523 15.4371ZM43.998 17.9661C43.4576 19.8494 42.8901 21.7058 42.3227 23.5891C41.566 26.1449 40.8905 28.7546 40.0798 31.3105C40.8635 31.7141 41.7552 31.7679 42.6199 31.6334C43.7278 31.5257 44.7817 31.0684 45.6464 30.3958C47.1056 29.2927 48.1054 27.6516 48.6188 25.9028C49.1323 24.2886 49.4565 22.6205 49.4835 20.9525C49.5106 19.8225 49.0782 18.5311 47.9973 17.993C46.7543 17.428 45.2951 17.6164 43.998 17.9661ZM62.3191 15.5447C63.8864 15.0605 65.5618 15.0067 67.1561 15.3295C68.2099 15.5178 69.2097 16.0559 69.8853 16.9169C70.75 18.0199 70.9121 19.4727 70.8581 20.8448C70.8041 22.19 70.4257 23.4814 70.0204 24.7459C66.0211 25.2571 62.0489 25.7952 58.0496 26.3333C57.8874 27.6516 57.7794 29.1313 58.563 30.2882C59.1575 31.2029 60.3194 31.3912 61.3463 31.5257C63.1838 31.6603 65.0213 31.2298 66.7507 30.5572C66.8858 31.4181 66.9399 32.306 67.048 33.1938C64.67 34.3238 61.9948 34.6197 59.4007 34.4314C57.7253 34.2969 55.9959 33.6243 55.0231 32.2253C53.9963 30.7724 53.8611 28.8892 54.0773 27.1673C54.4556 24.5038 55.2933 21.8403 56.9146 19.6342C58.2117 17.7509 60.0762 16.1904 62.3191 15.5447ZM61.4274 18.8539C59.833 20.1991 59.0494 22.19 58.4549 24.1271C61.1301 23.7774 63.8323 23.4007 66.5075 22.9972C66.7778 21.8403 67.102 20.6296 66.8318 19.4458C66.6697 18.8808 66.3724 18.289 65.805 18.0468C64.3728 17.3742 62.5893 17.8316 61.4274 18.8539ZM81.2616 15.3564C77.2353 15.8945 73.8576 18.8808 72.2903 22.5129C71.7228 23.9388 71.1824 25.3916 70.9392 26.9252C70.6419 28.5932 70.696 30.4227 71.5066 31.9562C71.939 32.8171 72.6956 33.5436 73.6144 33.8933C75.641 34.7273 77.9379 34.4314 79.9916 33.7857C79.5863 35.104 79.1809 36.4761 78.2081 37.4984C77.5596 38.2249 76.6138 38.6553 75.6951 38.8975C73.7495 39.3548 71.6688 38.8975 69.9393 37.9289C69.2908 38.8706 68.6423 39.7853 67.9667 40.7C69.9393 41.8569 72.2903 42.0452 74.5601 41.9914C77.8569 41.9914 81.1806 40.1619 82.7479 37.2294C84.153 34.6466 84.5584 31.6872 85.5041 28.943C86.7472 24.8535 87.8551 20.7103 89.0711 16.594C86.7472 15.1143 83.8828 15.0874 81.2616 15.3564ZM78.9918 18.9616C80.451 17.6971 82.6398 17.3742 84.4232 18.1275C83.5315 21.1139 82.6398 24.1002 81.8561 27.1135C81.4508 28.5394 81.0184 29.9384 80.6401 31.3643C79.262 31.9831 77.5326 32.2791 76.2085 31.445C75.4249 30.9877 75.1276 30.046 75.0195 29.212C74.8574 27.7054 75.2897 26.2257 75.7221 24.7997C76.3706 22.6743 77.2624 20.4682 78.9918 18.9616ZM91.8814 16.6478C94.6376 15.5447 97.6911 14.9798 100.664 15.464C101.961 15.6793 103.339 16.3519 103.879 17.6164C104.501 19.0154 104.176 20.5758 103.744 21.9748C102.636 25.7414 101.555 29.5349 100.501 33.3014C97.6911 34.5659 94.5295 34.7811 91.476 34.539C90.0709 34.3776 88.5306 33.974 87.6119 32.7902C86.8823 31.8486 86.9363 30.5841 87.1525 29.481C87.5038 27.3556 88.963 25.5261 90.8005 24.4231C93.5027 22.755 96.7454 22.486 99.7989 22.0555C100.042 21.1408 100.393 20.1184 100.015 19.1768C99.6908 18.4504 98.8261 18.2621 98.0965 18.1544C96.0698 17.8316 94.0432 18.4773 92.1516 19.2037C92.0705 18.3428 91.9895 17.5087 91.8814 16.6478ZM94.7998 25.0419C92.665 25.7952 91.1518 27.9475 91.1518 30.1805C91.1248 31.1491 91.9895 31.9562 92.9352 32.1176C94.2863 32.3329 95.7455 32.3598 96.9886 31.6872C97.7722 29.1582 98.4748 26.6023 99.2044 24.0733C97.7182 24.3155 96.2049 24.5038 94.7998 25.0419ZM109.716 16.4326C107.77 17.4818 106.311 19.4727 105.96 21.652C105.906 22.7281 106.149 23.8581 106.933 24.6383C107.879 25.7414 109.446 25.9835 110.5 26.9521C111.202 27.6785 111.067 28.8084 110.635 29.6425C110.121 30.7993 108.905 31.5257 107.689 31.6603C106.392 31.7948 105.014 31.445 103.987 30.6379C103.339 31.4988 102.744 32.4405 102.096 33.3283C105.717 35.669 110.959 34.8888 113.796 31.6603C114.904 30.3958 115.607 28.6739 115.418 26.979C115.256 25.6069 114.202 24.5576 113.067 23.8581C112.148 23.3738 111.094 22.9434 110.554 22.0017C110.094 21.1677 110.446 20.0915 111.04 19.4189C112.391 17.8316 115.066 17.7778 116.553 19.1768C117.12 18.3428 117.715 17.5356 118.309 16.7285C115.823 14.9529 112.337 14.9529 109.716 16.4326Z" fill="#0068A7"></path></svg> 