<?xml version="1.0" encoding="UTF-8"?> <svg xmlns="http://www.w3.org/2000/svg" width="89" height="89" viewBox="0 0 89 89" fill="none"><rect width="89" height="89" rx="15" fill="#0C4BFE"></rect><path d="M34.7642 18C35.182 18 35.5826 18.1622 35.8779 18.4511C36.1733 18.7399 36.3393 19.1316 36.3393 19.54V22.4198H53.2525V19.5598C53.2525 19.1514 53.4184 18.7597 53.7138 18.4709C54.0092 18.182 54.4098 18.0198 54.8275 18.0198C55.2452 18.0198 55.6458 18.182 55.9412 18.4709C56.2366 18.7597 56.4025 19.1514 56.4025 19.5598V22.4198H62.5C63.6931 22.4198 64.8373 22.8831 65.6812 23.7078C66.525 24.5324 66.9994 25.651 67 26.8176V57.6022C66.9994 58.7688 66.525 59.8874 65.6812 60.7121C64.8373 61.5367 63.6931 62 62.5 62H26.5C25.3069 62 24.1627 61.5367 23.3188 60.7121C22.475 59.8874 22.0006 58.7688 22 57.6022V26.8176C22.0006 25.651 22.475 24.5324 23.3188 23.7078C24.1627 22.8831 25.3069 22.4198 26.5 22.4198H33.1893V19.5378C33.1898 19.1297 33.356 18.7386 33.6514 18.4503C33.9467 18.1619 34.3469 18 34.7642 18ZM25.15 35.0324V57.6022C25.15 57.7755 25.1849 57.9472 25.2528 58.1073C25.3206 58.2675 25.42 58.413 25.5454 58.5356C25.6708 58.6582 25.8196 58.7554 25.9834 58.8217C26.1472 58.8881 26.3227 58.9222 26.5 58.9222H62.5C62.6773 58.9222 62.8528 58.8881 63.0166 58.8217C63.1804 58.7554 63.3292 58.6582 63.4546 58.5356C63.58 58.413 63.6794 58.2675 63.7472 58.1073C63.8151 57.9472 63.85 57.7755 63.85 57.6022V35.0632L25.15 35.0324ZM37.0007 50.1618V53.827H33.25V50.1618H37.0007ZM46.3743 50.1618V53.827H42.6257V50.1618H46.3743ZM55.75 50.1618V53.827H51.9993V50.1618H55.75ZM37.0007 41.4124V45.0776H33.25V41.4124H37.0007ZM46.3743 41.4124V45.0776H42.6257V41.4124H46.3743ZM55.75 41.4124V45.0776H51.9993V41.4124H55.75ZM33.1893 25.4976H26.5C26.3227 25.4976 26.1472 25.5317 25.9834 25.5981C25.8196 25.6644 25.6708 25.7616 25.5454 25.8842C25.42 26.0068 25.3206 26.1523 25.2528 26.3125C25.1849 26.4726 25.15 26.6443 25.15 26.8176V31.9546L63.85 31.9854V26.8176C63.85 26.6443 63.8151 26.4726 63.7472 26.3125C63.6794 26.1523 63.58 26.0068 63.4546 25.8842C63.3292 25.7616 63.1804 25.6644 63.0166 25.5981C62.8528 25.5317 62.6773 25.4976 62.5 25.4976H56.4025V27.5414C56.4025 27.9498 56.2366 28.3415 55.9412 28.6303C55.6458 28.9192 55.2452 29.0814 54.8275 29.0814C54.4098 29.0814 54.0092 28.9192 53.7138 28.6303C53.4184 28.3415 53.2525 27.9498 53.2525 27.5414V25.4976H36.3393V27.5216C36.3393 27.93 36.1733 28.3217 35.8779 28.6105C35.5826 28.8994 35.182 29.0616 34.7642 29.0616C34.3465 29.0616 33.9459 28.8994 33.6506 28.6105C33.3552 28.3217 33.1893 27.93 33.1893 27.5216V25.4976Z" fill="white"></path></svg> 