<?xml version="1.0" encoding="UTF-8"?> <svg xmlns="http://www.w3.org/2000/svg" width="39" height="39" viewBox="0 0 39 39" fill="none"><path fill-rule="evenodd" clip-rule="evenodd" d="M30.3333 0C31.4826 0 32.5848 0.455564 33.3975 1.26647C34.2101 2.07738 34.6667 3.17721 34.6667 4.32401V6.48602H36.8333C37.408 6.48602 37.9591 6.7138 38.3654 7.11926C38.7717 7.52471 39 8.07463 39 8.64803C39 9.22143 38.7717 9.77134 38.3654 10.1768C37.9591 10.5822 37.408 10.81 36.8333 10.81V34.5921C37.408 34.5921 37.9591 34.8199 38.3654 35.2253C38.7717 35.6308 39 36.1807 39 36.7541C39 37.3275 38.7717 37.8774 38.3654 38.2829C37.9591 38.6883 37.408 38.9161 36.8333 38.9161H22.75V29.1871C22.75 28.327 22.4076 27.5021 21.7981 26.8939C21.1886 26.2858 20.362 25.9441 19.5 25.9441C18.638 25.9441 17.8114 26.2858 17.2019 26.8939C16.5924 27.5021 16.25 28.327 16.25 29.1871V38.9161H2.16667C1.59203 38.9161 1.04093 38.6883 0.634602 38.2829C0.228273 37.8774 0 37.3275 0 36.7541C0 36.1807 0.228273 35.6308 0.634602 35.2253C1.04093 34.8199 1.59203 34.5921 2.16667 34.5921V10.81C1.59203 10.81 1.04093 10.5822 0.634602 10.1768C0.228273 9.77134 0 9.22143 0 8.64803C0 8.07463 0.228273 7.52471 0.634602 7.11926C1.04093 6.7138 1.59203 6.48602 2.16667 6.48602H4.33333V4.32401C4.33333 3.17721 4.78988 2.07738 5.60254 1.26647C6.41519 0.455564 7.5174 0 8.66667 0H30.3333ZM10.8333 21.6201C10.2587 21.6201 9.7076 21.8478 9.30127 22.2533C8.89494 22.6588 8.66667 23.2087 8.66667 23.7821V25.9441C8.66667 26.5175 8.89494 27.0674 9.30127 27.4728C9.7076 27.8783 10.2587 28.1061 10.8333 28.1061C11.408 28.1061 11.9591 27.8783 12.3654 27.4728C12.7717 27.0674 13 26.5175 13 25.9441V23.7821C13 23.2087 12.7717 22.6588 12.3654 22.2533C11.9591 21.8478 11.408 21.6201 10.8333 21.6201ZM28.1667 21.6201C27.636 21.6201 27.1238 21.8145 26.7272 22.1664C26.3306 22.5183 26.0773 23.0032 26.0152 23.5291L26 23.7821V25.9441C26.0006 26.4951 26.2121 27.0252 26.5912 27.4258C26.9703 27.8265 27.4884 28.0677 28.0397 28.1C28.591 28.1323 29.1338 27.9533 29.5573 27.5996C29.9808 27.2459 30.2529 26.7442 30.3182 26.197L30.3333 25.9441V23.7821C30.3333 23.2087 30.1051 22.6588 29.6987 22.2533C29.2924 21.8478 28.7413 21.6201 28.1667 21.6201ZM10.8333 12.972C10.3026 12.9721 9.79044 13.1665 9.39386 13.5184C8.99729 13.8703 8.74392 14.3552 8.68183 14.8811L8.66667 15.134V17.2961C8.66728 17.8471 8.87874 18.3771 9.25784 18.7778C9.63694 19.1785 10.1551 19.4197 10.7064 19.4519C11.2576 19.4842 11.8005 19.3053 12.224 18.9516C12.6475 18.5979 12.9196 18.0962 12.9848 17.549L13 17.2961V15.134C13 14.5606 12.7717 14.0107 12.3654 13.6053C11.9591 13.1998 11.408 12.972 10.8333 12.972ZM19.5 12.972C18.9693 12.9721 18.4571 13.1665 18.0605 13.5184C17.664 13.8703 17.4106 14.3552 17.3485 14.8811L17.3333 15.134V17.2961C17.3339 17.8471 17.5454 18.3771 17.9245 18.7778C18.3036 19.1785 18.8217 19.4197 19.373 19.4519C19.9243 19.4842 20.4672 19.3053 20.8906 18.9516C21.3141 18.5979 21.5863 18.0962 21.6515 17.549L21.6667 17.2961V15.134C21.6667 14.5606 21.4384 14.0107 21.0321 13.6053C20.6257 13.1998 20.0746 12.972 19.5 12.972ZM28.1667 12.972C27.592 12.972 27.0409 13.1998 26.6346 13.6053C26.2283 14.0107 26 14.5606 26 15.134V17.2961C26 17.8695 26.2283 18.4194 26.6346 18.8248C27.0409 19.2303 27.592 19.4581 28.1667 19.4581C28.7413 19.4581 29.2924 19.2303 29.6987 18.8248C30.1051 18.4194 30.3333 17.8695 30.3333 17.2961V15.134C30.3333 14.5606 30.1051 14.0107 29.6987 13.6053C29.2924 13.1998 28.7413 12.972 28.1667 12.972ZM30.3333 4.32401H8.66667V6.48602H30.3333V4.32401Z" fill="white"></path></svg> 