<?xml version="1.0" encoding="UTF-8"?> <svg xmlns="http://www.w3.org/2000/svg" width="200" height="50" viewBox="0 0 200 50" fill="none"><path d="M111.4 10.4482H102.526L94.2793 21.9217L98.7611 28.1514C98.8507 28.2858 99.03 28.2858 99.1196 28.1514L111.624 10.8068C111.669 10.6723 111.579 10.4482 111.4 10.4482Z" fill="url(#paint0_linear_110_8801)"></path><path d="M88.1859 10.4481C83.3904 10.4481 80.6117 15.8711 83.3904 19.7703L89.396 28.1065C89.4857 28.2409 89.6649 28.2409 89.7546 28.1065L102.483 10.4033H88.1859V10.4481Z" fill="#E62731"></path><path fill-rule="evenodd" clip-rule="evenodd" d="M150.885 18.1121H146.448C146.314 18.1121 146.134 18.2017 146.045 18.2913L144.521 20.3082C144.386 20.4874 144.521 20.7115 144.7 20.7115H148.151V25.2381C147.165 25.6415 145.955 25.8656 144.611 25.8656C143.625 25.8656 142.728 25.6863 141.966 25.3726C141.653 25.2381 141.339 25.0589 141.07 24.8796C140.667 24.6107 140.308 24.3418 139.994 23.9832C139.456 23.4006 139.053 22.7283 138.739 21.9216C138.426 21.1149 138.291 20.2633 138.291 19.2773C138.291 18.4258 138.426 17.6639 138.65 16.9468C138.672 16.902 138.683 16.8683 138.695 16.8348C138.706 16.8012 138.717 16.7675 138.739 16.7227C139.053 15.916 139.456 15.2437 139.994 14.6611C140.532 14.0785 141.16 13.6303 141.921 13.2717C142.683 12.958 143.535 12.7787 144.476 12.7787C145.417 12.7787 146.314 12.958 147.12 13.3165C147.703 13.5854 148.241 13.8544 148.599 14.2129C148.734 14.3474 149.003 14.3025 149.092 14.1681L150.571 12.1961C150.706 12.0168 150.661 11.7927 150.482 11.7031C149.854 11.2549 149.137 10.8964 148.286 10.6275C147.12 10.2241 145.821 10 144.386 10C142.997 10 141.742 10.2241 140.577 10.6723C139.412 11.1205 138.381 11.7479 137.529 12.5098C137.081 12.9132 136.678 13.4062 136.319 13.8992C136.005 14.3922 135.737 14.8852 135.468 15.423C134.975 16.5882 134.706 17.8432 134.706 19.2773C134.706 19.5463 134.706 19.8152 134.751 20.0393C134.84 21.1149 135.064 22.1457 135.423 23.0869C135.916 24.2522 136.543 25.2381 137.44 26.0449C138.291 26.8516 139.322 27.5239 140.487 27.972C141.697 28.4202 142.997 28.6443 144.431 28.6443C145.821 28.6443 147.075 28.5099 148.151 28.2858C149.137 28.0617 150.033 27.7927 150.84 27.3894C151.02 27.2998 151.109 27.1205 151.109 26.9412V18.381C151.244 18.2465 151.109 18.1121 150.885 18.1121ZM131.434 10.4482H128.969C128.79 10.4482 128.61 10.5826 128.61 10.8067V23.7591H128.566L121.126 11.7927C120.633 10.986 119.692 10.4482 118.75 10.4482H116.465C116.285 10.4482 116.106 10.5826 116.106 10.8067V27.8824C116.106 28.0617 116.241 28.2409 116.465 28.2409H118.93C119.109 28.2409 119.288 28.1065 119.288 27.8824V14.4818H119.333L126.952 26.8516C127.445 27.7031 128.386 28.1961 129.328 28.1961H131.434C131.613 28.1961 131.793 28.0617 131.793 27.8376V10.7619C131.748 10.6275 131.613 10.4482 131.434 10.4482ZM78.0565 12.42C77.1153 11.7477 76.0846 11.2099 74.8744 10.941C73.7092 10.6273 72.5439 10.4928 71.3787 10.4928H65.4178C65.2385 10.4928 65.0593 10.6273 65.0593 10.8514V27.9271C65.0593 28.1063 65.1937 28.2856 65.4178 28.2856H71.3787C72.5439 28.2856 73.7092 28.1063 74.8744 27.7926C76.0397 27.4341 77.1153 26.8962 78.0565 26.1791C78.9977 25.4621 79.7597 24.5209 80.3423 23.4004C80.9249 22.28 81.2386 20.9355 81.2386 19.3668C81.2386 17.7085 80.9249 16.2743 80.3423 15.1539C79.7597 14.0334 78.9977 13.0923 78.0565 12.42ZM77.205 22.3248C76.8016 23.1315 76.2638 23.7142 75.5915 24.2071C74.9192 24.6553 74.2021 25.0139 73.3506 25.1932C72.5439 25.3724 71.6924 25.4621 70.8856 25.4621H68.2414V13.1819H70.8856C71.6924 13.1819 72.5439 13.2715 73.3506 13.4508C74.1574 13.6301 74.9192 13.9438 75.5915 14.392C76.2638 14.8402 76.8016 15.4676 77.205 16.2743C77.6083 17.0811 77.8324 18.1119 77.8324 19.3668C77.8324 20.5321 77.6083 21.5629 77.205 22.3248ZM108.666 16.9467L111.355 13.2268C111.445 13.1372 111.624 13.182 111.669 13.2716V27.8375C111.669 28.0616 111.49 28.1961 111.311 28.1961H108.846C108.622 28.1961 108.487 28.0168 108.487 27.8375V17.5293C108.487 17.3053 108.532 17.126 108.666 16.9467ZM45.6527 18.7396C44.8908 19.5463 44.0841 19.9497 43.0532 20.2634L47.1765 27.8825C47.2662 28.1066 47.1317 28.3307 46.9076 28.3307H44.2185C44.0392 28.3307 43.86 28.241 43.7704 28.0618L39.916 20.8013H37.1821V27.9721C37.1821 28.1962 37.0028 28.3307 36.8236 28.3307H34.3586C34.1345 28.3307 34 28.1514 34 27.9721V10.8964C34 10.6724 34.1792 10.5379 34.3586 10.5379H40.1849C40.9917 10.5379 41.7983 10.6275 42.605 10.8068C43.4118 10.9861 44.0841 11.255 44.7115 11.6584C45.339 12.0617 45.8319 12.5547 46.1905 13.227C46.5491 13.8545 46.7283 14.6612 46.7283 15.6023C46.7283 16.8572 46.3698 17.9329 45.6527 18.7396ZM41.126 17.9777C41.5742 17.9329 41.9776 17.7984 42.3362 17.6192C42.6947 17.4399 42.9636 17.171 43.1877 16.8124C43.4118 16.4987 43.5463 16.0505 43.5463 15.5127C43.5463 15.0197 43.4567 14.6163 43.2326 14.3026C43.0532 13.9889 42.7395 13.72 42.4258 13.5407C42.1121 13.3614 41.7535 13.2718 41.3054 13.1822L41.1833 13.1699C41.0837 13.1598 40.9862 13.15 40.8902 13.1409C40.8342 13.1356 40.7788 13.1305 40.7239 13.1258C40.4944 13.1061 40.2723 13.0925 40.0504 13.0925H37.1821V18.0674H39.7815C40.2297 18.0674 40.6778 18.0674 41.126 17.9777ZM165.854 20.8459C165.541 20.2633 165.092 19.7704 164.599 19.4118C164.106 19.0084 163.524 18.7395 162.896 18.4706C162.666 18.3884 162.442 18.3062 162.224 18.2262C161.847 18.0882 161.489 17.9567 161.148 17.8432C161.126 17.8432 161.092 17.8319 161.059 17.8207L161.058 17.8206C161.025 17.8095 160.991 17.7984 160.969 17.7984C160.879 17.7535 160.79 17.7535 160.745 17.7087C160.5 17.6475 160.276 17.5653 160.073 17.4909C160.018 17.4708 159.965 17.4512 159.913 17.4328C159.876 17.4195 159.84 17.4069 159.804 17.395C159.401 17.2605 159.042 17.0813 158.728 16.8572C158.414 16.6779 158.19 16.409 158.056 16.1401C157.877 15.8712 157.787 15.5126 157.787 15.1093C157.787 14.6611 157.877 14.3026 158.056 13.9888C158.235 13.6751 158.504 13.451 158.818 13.2269C159.132 13.0476 159.445 12.9132 159.804 12.7787C160.162 12.6891 160.521 12.6443 160.924 12.6443C161.552 12.6443 162.179 12.7787 162.762 13.0925C162.986 13.1821 163.21 13.3165 163.389 13.451C163.569 13.5406 163.748 13.5406 163.882 13.3614L165.182 11.5686C165.316 11.3893 165.272 11.1653 165.092 11.0756C164.689 10.8516 164.286 10.6723 163.837 10.493C162.896 10.1793 162 10 161.104 10C160.297 10 159.49 10.0896 158.728 10.3137C157.966 10.5378 157.249 10.8516 156.667 11.2549C156.039 11.7031 155.546 12.2409 155.188 12.8684C154.829 13.5406 154.605 14.3026 154.605 15.1989C154.605 16.0504 154.739 16.7227 155.008 17.3054C155.277 17.888 155.636 18.3361 156.039 18.7395C156.487 19.1429 156.935 19.4118 157.473 19.6807C157.966 19.9048 158.459 20.0841 158.952 20.2185C158.975 20.2185 158.997 20.2298 159.02 20.241C159.042 20.2521 159.064 20.2633 159.087 20.2633H159.132L159.136 20.2647C159.672 20.4435 160.208 20.6223 160.7 20.8011C161.193 20.9804 161.641 21.1597 162 21.3838C162.359 21.6079 162.672 21.8768 162.896 22.1905C163.12 22.5043 163.21 22.9076 163.21 23.3558C163.21 23.8488 163.12 24.2522 162.941 24.5659C162.762 24.8796 162.493 25.1485 162.179 25.3726C161.865 25.5967 161.507 25.7311 161.148 25.8208C160.745 25.9104 160.386 25.9552 160.028 25.9552C159.311 25.9552 158.594 25.7759 157.877 25.4174C157.294 25.1485 156.711 24.7452 156.398 24.4763C156.263 24.3418 155.994 24.3866 155.905 24.5211L154.56 26.3586C154.47 26.4931 154.47 26.7172 154.605 26.8516C154.964 27.1653 155.725 27.7031 156.577 28.0168C157.697 28.4202 158.818 28.6443 159.983 28.6443C160.835 28.6443 161.686 28.5099 162.448 28.2858C163.255 28.0617 163.927 27.7031 164.51 27.2101C165.092 26.762 165.585 26.1345 165.899 25.4622C166.258 24.7452 166.437 23.9384 166.437 22.9524C166.347 22.1457 166.168 21.4286 165.854 20.8459ZM52.9577 25.4176H61.6524C61.8316 25.4176 62.011 25.5969 62.011 25.7313V27.8378C62.011 28.0619 61.8316 28.1963 61.6524 28.1963H52.7784C51.1201 28.1963 49.7756 26.8517 49.7756 25.1935V13.4064C49.7756 11.7481 51.1201 10.4035 52.7784 10.4035H53.3611H61.6524C61.8765 10.4035 62.011 10.5828 62.011 10.7621V12.8237C62.011 13.0478 61.8316 13.1823 61.6524 13.1823H55.4227H52.9577V17.7089H60.756C60.9801 17.7089 61.1146 17.8881 61.1146 18.0674V20.0394C61.1146 20.2635 60.9353 20.398 60.756 20.398H52.9577V25.4176Z" fill="#46484D"></path><path fill-rule="evenodd" clip-rule="evenodd" d="M96.3871 33.3496H95.5356V41.7754H96.3871V33.3496ZM88.9916 33.5291C88.8572 33.5291 88.7228 33.5739 88.5883 33.6635C88.4987 33.7531 88.4538 33.8876 88.4538 34.0669C88.4538 34.2013 88.4987 34.3358 88.5883 34.4702C88.608 34.4899 88.6298 34.5074 88.6538 34.5228C88.6743 34.536 88.6965 34.5476 88.7204 34.5576C88.7951 34.589 88.8855 34.6047 88.9916 34.6047C89.0672 34.6047 89.1429 34.5905 89.2185 34.5622C89.2773 34.5401 89.3362 34.5095 89.3951 34.4702C89.4847 34.3806 89.5294 34.2461 89.5294 34.0669C89.5294 33.9324 89.4847 33.798 89.3951 33.6635C89.2606 33.5739 89.1261 33.5291 88.9916 33.5291ZM83.5682 36.0388C83.8371 35.9491 84.0612 35.9043 84.3302 35.9043C85.0024 35.9043 85.5402 36.1284 85.9436 36.487C86.3917 36.8903 86.6158 37.4282 86.6158 38.0556V41.7307H85.7643V40.9688C85.7365 40.9688 85.726 40.986 85.7114 41.0097C85.7024 41.0243 85.6918 41.0413 85.6747 41.0584C85.6621 41.071 85.6495 41.0871 85.635 41.1058C85.6135 41.1332 85.5878 41.1661 85.5517 41.2013C85.5247 41.2275 85.4919 41.255 85.4506 41.2825C85.4099 41.3232 85.3599 41.3639 85.3049 41.4046C85.2757 41.4263 85.2449 41.4479 85.2134 41.4696C85.1738 41.4968 85.133 41.5241 85.0921 41.5514C84.9576 41.6411 84.7783 41.7307 84.5543 41.7755C84.3302 41.8203 84.1061 41.8652 83.882 41.8652C83.2993 41.8652 82.8063 41.7307 82.403 41.3721C81.9995 41.0584 81.8203 40.655 81.8203 40.2068C81.8203 39.7139 81.9995 39.3553 82.2685 39.0416C82.5374 38.7279 82.9856 38.5486 83.5234 38.4589L85.7643 38.1004C85.7643 37.697 85.6298 37.3385 85.3609 37.0696C85.0921 36.8007 84.7335 36.6662 84.3302 36.6662C84.0164 36.6662 83.7475 36.7559 83.4786 36.8903C83.3443 36.9799 83.2323 37.0583 83.1371 37.131C83.0888 37.168 83.0448 37.2035 83.0044 37.2382C82.9651 37.2721 82.9291 37.3053 82.8959 37.3385L82.7167 37.5626L82.1789 37.0248C82.1789 37.0162 82.1805 37.0076 82.1835 36.999C82.1874 36.9877 82.1937 36.9765 82.2015 36.9651C82.2062 36.9583 82.2115 36.9515 82.2172 36.9446C82.2324 36.9265 82.2504 36.9084 82.2685 36.8903L82.5374 36.6214C82.5936 36.584 82.6575 36.5388 82.7227 36.4923L82.7515 36.4718C82.787 36.4463 82.8227 36.4208 82.8574 36.3963L82.8801 36.3802C82.9171 36.3543 82.9527 36.3296 82.9856 36.3077C83.12 36.218 83.2993 36.1284 83.5682 36.0388ZM85.2713 40.6102C85.6298 40.2517 85.8091 39.8035 85.8091 39.2209H85.7643V38.8623L83.7923 39.2209C83.0752 39.3553 82.7167 39.7139 82.7167 40.2517C82.7167 40.4757 82.8063 40.6998 83.0304 40.8791C83.2545 41.0584 83.5682 41.148 83.9267 41.148C84.4645 41.148 84.9127 40.9688 85.2713 40.6102ZM88.543 36.0387H89.3945V41.8202H88.543V36.0387ZM92.8451 36.218C92.9795 36.1284 93.1589 36.0388 93.383 35.9939C93.607 35.9043 93.8759 35.9043 94.1448 35.9043H94.3689V36.7559H94.0104C93.4726 36.7559 93.0691 36.9352 92.7107 37.2937C92.3521 37.6522 92.1728 38.1004 92.1728 38.6382V41.8203H91.3213V36.0388H92.1728V36.8007C92.1827 36.8007 92.1904 36.7985 92.1969 36.7946C92.2086 36.7876 92.2163 36.7751 92.2256 36.7599C92.2347 36.7453 92.2453 36.7282 92.2625 36.7111C92.2705 36.703 92.2786 36.6935 92.2871 36.6828L92.3015 36.6647L92.3021 36.6639C92.3394 36.6161 92.3898 36.5515 92.4866 36.487C92.5249 36.4487 92.5714 36.4104 92.6225 36.3721C92.6577 36.3457 92.6953 36.3194 92.7338 36.293C92.7524 36.2802 92.7712 36.2675 92.7902 36.2548L92.8378 36.223L92.8401 36.2215L92.8451 36.218ZM98.4026 33.6635C98.537 33.5739 98.6714 33.5291 98.8059 33.5291C98.9404 33.5291 99.0748 33.5739 99.2093 33.6635C99.2989 33.798 99.3437 33.9324 99.3437 34.0669C99.3437 34.2461 99.2989 34.3806 99.2093 34.4702C99.0748 34.5599 98.9404 34.6047 98.8059 34.6047C98.6266 34.6047 98.4922 34.5599 98.4026 34.4702C98.3129 34.3358 98.2681 34.2013 98.2681 34.0669C98.2681 33.8876 98.3129 33.7531 98.4026 33.6635ZM99.2111 36.0387H98.3596V41.8202H99.2111V36.0387ZM103.782 35.9067C103.812 35.9051 103.842 35.9043 103.872 35.9043C104.544 35.9043 105.127 36.1284 105.575 36.5318C106.023 36.98 106.247 37.5626 106.247 38.3245V41.7755H105.396V38.3245C105.396 37.8315 105.261 37.4282 104.947 37.1144C104.678 36.8007 104.275 36.6662 103.827 36.6662C103.289 36.6662 102.886 36.8455 102.527 37.2041C102.169 37.5626 101.989 38.0108 101.989 38.5934V41.7755H101.138V35.9939H101.989V36.8455C102.017 36.8455 102.028 36.8284 102.042 36.8047C102.051 36.7901 102.062 36.773 102.079 36.7559L102.303 36.5318C102.353 36.4564 102.418 36.3951 102.488 36.34C102.544 36.2968 102.603 36.2574 102.662 36.218C102.796 36.1284 102.975 36.0836 103.199 35.9939L103.299 35.9742C103.333 35.9675 103.368 35.961 103.402 35.9548C103.498 35.9372 103.595 35.9221 103.692 35.9131C103.722 35.9103 103.752 35.9082 103.782 35.9067ZM110.549 35.9043C109.787 35.9043 109.115 36.218 108.577 36.8007C107.995 37.3833 107.726 38.1004 107.726 38.952C107.726 39.8035 107.995 40.5206 108.577 41.1032C109.16 41.6859 109.832 41.9996 110.594 41.9996C110.863 41.9996 111.177 41.9548 111.446 41.8652C111.583 41.8193 111.709 41.7735 111.823 41.7276C111.932 41.6838 112.03 41.64 112.118 41.5962C112.297 41.5066 112.476 41.3721 112.611 41.2377C112.658 41.1907 112.705 41.1492 112.748 41.1131C112.783 41.0837 112.816 41.0579 112.844 41.0358C112.88 41.0075 112.908 40.9851 112.925 40.9688C112.969 40.9239 113.014 40.8791 113.014 40.8343L112.476 40.2965L112.252 40.5206C112.118 40.6998 111.894 40.8343 111.58 41.0136C111.266 41.1929 110.952 41.2377 110.594 41.2377C110.056 41.2377 109.608 41.0584 109.205 40.655C108.801 40.2965 108.577 39.8035 108.577 39.3105H113.283L113.328 38.8623C113.328 38.0108 113.059 37.3385 112.521 36.8007C111.983 36.1732 111.356 35.9043 110.549 35.9043ZM108.577 38.5038C108.622 38.0108 108.846 37.6074 109.249 37.2489C109.608 36.8903 110.056 36.7111 110.594 36.7111C111.132 36.7111 111.535 36.8903 111.894 37.2041C112.252 37.5626 112.476 37.9659 112.521 38.5038H108.577ZM117.406 38.6833C117.675 38.8178 117.944 38.9971 118.168 39.2211C118.392 39.49 118.482 39.8037 118.526 40.1623C118.526 40.6553 118.302 41.1035 117.944 41.4172C117.585 41.7309 117.047 41.9102 116.42 41.9102C116.151 41.9102 115.882 41.9102 115.658 41.8206C115.52 41.7656 115.4 41.7105 115.286 41.6556C115.214 41.6209 115.145 41.5863 115.075 41.5517C114.941 41.4172 114.806 41.3276 114.672 41.238C114.586 41.1517 114.518 41.1024 114.469 41.0544C114.441 41.0275 114.419 41.0012 114.403 40.969L114.313 40.8794L114.941 40.2967C114.941 40.2967 114.941 40.3139 114.951 40.3375C114.958 40.3522 114.969 40.3693 114.986 40.3864L115.165 40.5657C115.21 40.6104 115.266 40.6552 115.322 40.7C115.378 40.7449 115.434 40.7897 115.479 40.8346C115.568 40.9242 115.703 41.0139 115.882 41.0587C116.061 41.1035 116.241 41.1483 116.42 41.1483C116.823 41.1483 117.137 41.0587 117.361 40.8794C117.585 40.7001 117.675 40.476 117.675 40.2071C117.675 39.983 117.585 39.7589 117.361 39.6245C117.182 39.49 116.913 39.3556 116.599 39.266C116.496 39.2314 116.385 39.1902 116.271 39.1476C116.089 39.0794 115.896 39.0073 115.703 38.9522C115.389 38.8626 115.12 38.6833 114.896 38.4592C114.672 38.2351 114.582 37.9214 114.582 37.5628C114.582 37.1595 114.762 36.7562 115.12 36.4424C115.479 36.1287 115.972 35.9494 116.509 35.9494C116.734 35.9494 116.958 35.9942 117.182 36.039C117.406 36.0839 117.585 36.1287 117.72 36.2183C117.854 36.2631 117.988 36.3528 118.078 36.4424C118.131 36.4949 118.183 36.532 118.226 36.5627C118.257 36.5845 118.284 36.6031 118.302 36.6217L118.392 36.7113L117.764 37.2939C117.72 37.2491 117.675 37.1595 117.63 37.1147C117.608 37.0704 117.564 37.0261 117.498 36.9818C117.43 36.9365 117.34 36.8911 117.227 36.8458C117.002 36.7113 116.778 36.6665 116.509 36.6665C116.196 36.6665 115.927 36.7562 115.748 36.9354C115.523 37.1147 115.434 37.2939 115.434 37.518C115.434 37.7421 115.523 37.9214 115.748 38.0558C115.927 38.2351 116.196 38.3248 116.509 38.4144C116.677 38.4424 116.863 38.5053 117.054 38.5704C117.17 38.6095 117.288 38.6496 117.406 38.6833Z" fill="#46484D"></path><defs><linearGradient id="paint0_linear_110_8801" x1="94.2654" y1="19.3445" x2="111.627" y2="19.3445" gradientUnits="userSpaceOnUse"><stop stop-color="#B02224"></stop><stop offset="0.0722053" stop-color="#B72226"></stop><stop offset="0.3089" stop-color="#CC252B"></stop><stop offset="0.5444" stop-color="#DA262F"></stop><stop offset="0.7763" stop-color="#E32631"></stop><stop offset="1" stop-color="#E62731"></stop></linearGradient></defs></svg> 