<?xml version="1.0" encoding="UTF-8"?> <svg xmlns="http://www.w3.org/2000/svg" width="200" height="50" viewBox="0 0 200 50" fill="none"><path fill-rule="evenodd" clip-rule="evenodd" d="M118.039 16.8988C118.039 17.77 118.801 18.4597 119.709 18.4597C120.652 18.4597 121.378 17.77 121.378 16.8988C121.378 16.0276 120.616 15.3379 119.709 15.3379C118.765 15.3379 118.039 16.0276 118.039 16.8988ZM118.293 20.5652V31.4553C118.293 31.6005 118.402 31.7457 118.583 31.7457H120.907C121.088 31.7457 121.197 31.6005 121.197 31.4553V20.5652C121.197 20.3837 121.052 20.2747 120.907 20.2747H118.583C118.402 20.2747 118.293 20.42 118.293 20.5652ZM110.597 31.7457H110.997C111.904 31.7457 112.666 31.1649 112.92 30.3663L116.405 20.6741C116.478 20.4926 116.333 20.3111 116.151 20.3111H113.501C113.392 20.3111 113.283 20.42 113.247 20.5289L110.779 28.9143L108.274 20.5289C108.238 20.3837 108.129 20.3111 108.02 20.3111H105.37C105.188 20.3111 105.043 20.4926 105.116 20.6741L108.637 30.3663C108.927 31.2012 109.726 31.7457 110.597 31.7457ZM99.0537 20.0207C97.8195 20.0207 96.6216 20.2748 95.6778 20.5652C95.5326 20.6015 95.4237 20.783 95.4963 20.9282L96.0771 22.4528C96.1134 22.598 96.2949 22.6706 96.4038 22.6343C97.1298 22.4165 98.0373 22.235 98.8359 22.235C100.143 22.235 100.905 22.5617 100.905 23.7596V24.3404C97.4565 24.5219 94.1895 25.139 94.1895 28.2609C94.1895 30.5841 95.8956 31.9635 99.3441 31.9635C100.542 31.9635 101.776 31.782 102.684 31.4916C103.265 31.3101 103.628 30.8019 103.628 30.2211V24.5945C103.664 20.7467 101.595 20.0207 99.0537 20.0207ZM100.905 29.6766C100.615 29.8218 99.8886 29.8944 99.2715 29.8944C97.7469 29.8944 96.912 29.2773 96.912 28.1883C96.912 26.4821 98.7996 26.2643 100.905 26.1554V29.6766ZM124.718 20.5652C125.662 20.2748 126.86 20.0207 128.094 20.0207C130.635 20.0207 132.704 20.7467 132.668 24.5945V30.2211C132.668 30.8019 132.305 31.3101 131.724 31.4916C130.817 31.782 129.582 31.9635 128.384 31.9635C124.936 31.9635 123.23 30.5841 123.23 28.2609C123.23 25.139 126.497 24.5219 129.945 24.3404V23.7596C129.945 22.5617 129.183 22.235 127.876 22.235C127.078 22.235 126.206 22.4165 125.444 22.6343C125.335 22.6706 125.154 22.598 125.117 22.4528L124.537 20.9282C124.464 20.783 124.573 20.6015 124.718 20.5652ZM128.348 29.8944C128.965 29.8944 129.691 29.8218 129.982 29.6766V26.1554C127.876 26.2643 125.989 26.4821 125.989 28.1883C125.989 29.2773 126.824 29.8944 128.348 29.8944Z" fill="#FF585D"></path><path fill-rule="evenodd" clip-rule="evenodd" d="M92.3011 22.453C92.4463 22.453 92.5915 22.3441 92.5915 22.1626V20.5654C92.5915 20.4202 92.4463 20.275 92.3011 20.275H90.4498V17.5887C90.4498 17.4436 90.3409 17.2983 90.1594 17.2983H87.8725C87.7272 17.2983 87.582 17.4072 87.582 17.5887V28.2974C87.582 30.6932 88.6348 31.9274 90.8491 31.9274C91.4299 31.9274 92.047 31.8185 92.41 31.6733C92.5189 31.637 92.5915 31.5281 92.5915 31.4192V29.6042C92.5915 29.4227 92.41 29.2775 92.2648 29.3138C92.1196 29.3501 91.9381 29.3864 91.7929 29.3864C91.0669 29.3864 90.4861 29.0597 90.4861 28.1159V22.453H92.3011ZM63.4059 31.7459C63.2607 31.7459 63.1155 31.637 63.1155 31.4555V24.1228C63.1155 22.9975 62.3895 22.3441 61.2279 22.3441C60.5019 22.3441 59.9211 22.5619 59.5218 22.9249V31.4555C59.5218 31.6007 59.4129 31.7459 59.2314 31.7459H56.8719C56.7267 31.7459 56.5814 31.637 56.5814 31.4555V23.9776C56.5814 22.9612 55.8191 22.3441 54.5849 22.3441C53.9315 22.3441 53.387 22.453 52.9877 22.6345V31.4555C52.9877 31.6007 52.8788 31.7459 52.6973 31.7459H50.4467C50.3015 31.7459 50.1563 31.637 50.1563 31.4555V21.5092C50.1563 21.1099 50.4104 20.7469 50.8097 20.6017C51.8624 20.2387 53.1329 20.0209 54.476 20.0209C56.3274 20.0209 57.489 20.6017 58.1424 21.1825C58.8684 20.638 60.2841 20.0209 61.9902 20.0209C64.5313 20.0209 66.0559 21.4729 66.0559 23.7961V31.4555C66.0559 31.6007 65.947 31.7459 65.7655 31.7459H63.4059ZM43.6222 32C42.3154 32 41.0449 31.6733 40.1737 31.3103C40.0285 31.2377 39.9559 31.0925 40.0285 30.9473C40.0468 30.9069 40.0667 30.862 40.0878 30.8136C40.1132 30.7552 40.1403 30.6917 40.1688 30.6244C40.1891 30.5764 40.21 30.5266 40.2315 30.4754L40.2914 30.3323C40.4478 29.9586 40.6215 29.5435 40.7545 29.2775C40.8271 29.1323 41.0086 29.0597 41.1538 29.1323C41.8072 29.459 42.8599 29.7131 43.5496 29.7131C44.6023 29.7131 45.2558 29.2412 45.2558 28.4426C45.2558 27.6077 44.5298 27.2447 43.477 26.8816L43.4256 26.8623C41.9825 26.3215 40.21 25.6572 40.21 23.4331C40.21 21.4003 41.7346 20.0572 44.4208 20.0572C45.7639 20.0572 46.853 20.3476 47.7242 20.7469C47.8694 20.8195 47.9057 20.9647 47.8694 21.1099C47.7514 21.3458 47.5875 21.7196 47.4373 22.062L47.4365 22.0639C47.3559 22.2478 47.2793 22.4225 47.216 22.5619C47.1434 22.7071 46.9619 22.7797 46.8167 22.7071C46.2722 22.453 45.4373 22.1989 44.8201 22.1989C43.8037 22.1989 43.2229 22.7071 43.2229 23.3968C43.2229 24.268 43.9489 24.5947 44.9653 24.9577C46.4899 25.5022 48.305 26.1556 48.305 28.4789C48.2687 30.5843 46.7078 32 43.6222 32ZM69.3229 20.5654C70.2667 20.275 71.4647 20.0209 72.6989 20.0209C75.2399 20.0209 77.309 20.7469 77.2727 24.5947V30.2213C77.2727 30.8021 76.9097 31.3103 76.3289 31.4918C75.4214 31.7822 74.1872 31.9637 72.9893 31.9637C69.5407 31.9637 67.8346 30.5843 67.8346 28.2611C67.8346 25.1392 71.1017 24.5221 74.5502 24.3406V23.7598C74.5502 22.5619 73.7879 22.2352 72.4811 22.2352C71.6825 22.2352 70.775 22.4167 70.0489 22.6345C69.9401 22.6708 69.7586 22.5982 69.7222 22.453L69.1414 20.9284C69.0689 20.7832 69.1777 20.6017 69.3229 20.5654ZM72.9167 29.8946C73.5338 29.8946 74.2598 29.822 74.5502 29.6768V26.1557C72.4448 26.2646 70.5572 26.4823 70.5572 28.1885C70.5572 29.2775 71.3921 29.8946 72.9167 29.8946ZM85.3677 20.275C85.5129 20.275 85.6581 20.4202 85.6581 20.5654V22.2715C85.6581 22.4167 85.5492 22.5619 85.4041 22.5619C83.9883 22.7434 82.7541 23.3605 82.7541 25.1392V31.4555C82.7541 31.637 82.6089 31.7459 82.4637 31.7459H80.1405C79.959 31.7459 79.8501 31.6007 79.8501 31.4555V24.7399C79.8501 22.1626 81.9192 20.275 84.4602 20.275H85.3677Z" fill="#330072"></path><path d="M142.504 12.1073L140.58 19.1496C140.435 19.6578 140.798 20.2023 141.343 20.2749L147.84 21.0736C147.986 21.0736 147.986 21.2914 147.84 21.2914L140.98 21.9811C140.254 22.0537 139.636 22.5619 139.455 23.2879L137.313 31.3103C137.204 31.6733 137.604 31.9637 137.93 31.7822L154.157 21.5092C154.411 21.364 154.411 21.0009 154.193 20.8194L143.158 11.8895C142.94 11.6717 142.577 11.8169 142.504 12.1073Z" fill="#FF585D"></path><path d="M155.319 19.7305L157.242 12.6882C157.388 12.18 157.025 11.6355 156.48 11.5629L149.982 10.7642C149.837 10.7642 149.837 10.5464 149.982 10.5464L156.843 9.85673C157.569 9.78413 158.186 9.27593 158.368 8.54992L160.509 0.527518C160.618 0.164514 160.219 -0.125889 159.892 0.0556129L143.666 10.3286C143.412 10.4738 143.412 10.8368 143.63 11.0183L154.665 19.9483C154.883 20.1298 155.246 20.0209 155.319 19.7305Z" fill="#330072"></path></svg> 