<?xml version="1.0" encoding="UTF-8"?> <svg xmlns="http://www.w3.org/2000/svg" width="200" height="50" viewBox="0 0 200 50" fill="none"><path d="M34.3571 25.975C40.5786 25.7429 44.3857 23.0964 44.3857 19.9857C44.3857 16.6893 40.2536 13.9964 33.2429 13.9964H32.2214L34.2643 12H31.2L26.1393 13.9964H18.0607C15.2286 13.9964 13.65 14.6929 13 16.0393H29.6214C34.2179 16.0393 37.2821 16.7357 37.2821 19.8929C37.2821 23.2821 33.5679 23.9786 29.6214 23.9786H22.1464L28.7857 31.0357C34.3571 36.9321 39.6036 38 46.1036 38L34.3571 25.975Z" fill="#E3132C"></path><path fill-rule="evenodd" clip-rule="evenodd" d="M87.9823 31.732C84.918 31.732 82.8287 29.5035 82.8287 25.9749C82.8287 22.4463 84.9645 20.1713 87.9823 20.1713C91.0466 20.1713 93.1359 22.4928 93.1359 25.9749C93.1359 29.457 91.0466 31.732 87.9823 31.732ZM87.9823 18.6392C82.2716 18.6392 78.5109 21.6106 78.5109 25.9284C78.5109 30.2463 82.2716 33.1713 87.9823 33.1713C93.693 33.1713 97.4537 30.2463 97.4537 25.9284C97.4537 21.6106 93.693 18.6392 87.9823 18.6392ZM62.168 20.4498C63.143 20.3106 64.3966 20.2177 65.743 20.2177C68.2502 20.2177 69.7359 21.2391 69.7359 23.3284C69.7359 25.4641 68.2038 26.6713 65.743 26.6713H62.168V20.4498ZM74.0538 23.3284C74.0538 19.8927 70.8502 18.732 66.1609 18.732C64.869 18.732 63.6437 18.8117 62.2856 18.9002C61.1057 18.9769 59.8255 19.0603 58.3145 19.1034V19.1499V28.0641V32.8463H62.168V28.0641H66.1609H66.2537L67.6002 29.6891C69.8752 32.382 71.593 33.1249 75.0752 33.1249H75.5394L70.4323 27.5534C72.7537 26.9034 74.0538 25.557 74.0538 23.3284ZM142.35 19.0106H146.204V32.8463H142.35V19.0106ZM165.797 19.0106L160.504 26.2534L155.257 19.0106H150.754L157.486 28.1105V32.8463H161.339V28.1105L167.979 19.0106H165.797ZM175.964 20.8677L172.529 27.5534H179.354L175.964 20.8677ZM186.318 32.8463H182.047L180.236 29.1784H171.739L169.836 32.8463H167.7L174.804 19.0106H175.036H176.893H179.214L186.318 32.8463ZM124.707 22.2141C124.707 21.0999 126.007 20.0784 128.607 20.0784C132.972 20.0784 135.247 21.7499 135.247 21.7499L136.082 19.6606C136.082 19.6606 132.879 18.6392 128.839 18.6392C123.918 18.6392 121.225 20.1713 121.225 23.0499C121.225 26.7266 125.274 27.2542 128.691 27.6994C131.185 28.0243 133.343 28.3055 133.343 29.7356C133.343 30.8963 131.904 31.5927 128.932 31.5927C124.754 31.5927 121.643 29.9213 121.643 29.9213V32.1499C121.643 32.1499 124.8 33.2177 129.211 33.2177C134.086 33.2177 136.825 32.057 136.825 28.807C136.825 25.1184 132.628 24.5492 129.174 24.0809C126.759 23.7533 124.707 23.4751 124.707 22.2141ZM109.247 20.0784C106.647 20.0784 105.347 21.0999 105.347 22.2141C105.347 23.4751 107.398 23.7533 109.814 24.0809C113.268 24.5492 117.464 25.1184 117.464 28.807C117.464 32.057 114.725 33.2177 109.85 33.2177C105.44 33.2177 102.282 32.1499 102.282 32.1499V29.9213C102.282 29.9213 105.393 31.5927 109.572 31.5927C112.543 31.5927 113.982 30.8963 113.982 29.7356C113.982 28.3055 111.825 28.0243 109.331 27.6994C105.913 27.2542 101.864 26.7266 101.864 23.0499C101.864 20.1713 104.557 18.6392 109.479 18.6392C113.518 18.6392 116.722 19.6606 116.722 19.6606L115.886 21.7499C115.886 21.7499 113.611 20.0784 109.247 20.0784Z" fill="#E3132C"></path></svg> 