<?xml version="1.0" encoding="UTF-8"?> <svg xmlns="http://www.w3.org/2000/svg" width="200" height="50" viewBox="0 0 200 50" fill="none"><path d="M42.9809 20.3875C41.9008 18.8914 40.4966 17.7739 38.9123 16.8546C37.8322 16.2238 36.689 15.7281 35.5098 15.3225C33.3855 14.5925 31.1892 14.187 28.9478 14.0518C26.2834 13.8896 23.646 14.1059 21.0537 14.7367C18.9383 15.2504 16.931 16.0255 15.0858 17.1971C13.6455 18.0983 12.3854 19.1978 11.4222 20.6038C10.7831 21.5411 10.324 22.5504 10.126 23.668C10.081 23.9383 10.045 24.2087 10 24.4791C10 24.7945 10 25.1099 10 25.4254C10.018 25.4885 10.036 25.5515 10.045 25.6236C10.09 26.1554 10.198 26.6691 10.3691 27.1738C10.8461 28.6338 11.7013 29.8414 12.7814 30.9049C14.1136 32.2117 15.6799 33.176 17.3811 33.924C18.8033 34.5549 20.2885 35.0145 21.8188 35.339C22.9529 35.5823 24.0961 35.7445 25.2483 35.8256C26.7425 35.9338 28.2367 35.9248 29.731 35.7986C30.9911 35.6904 32.2423 35.5012 33.4755 35.2038C34.9337 34.8523 36.3379 34.3656 37.6792 33.6987C37.8052 33.6356 37.8952 33.6356 38.0212 33.7167C38.5703 34.0592 39.1284 34.4017 39.6865 34.7351C40.0465 34.9604 40.4156 35.1767 40.8026 35.4111C40.8206 35.1136 40.8386 34.8433 40.8386 34.5819C40.8386 34.5098 40.8026 34.4197 40.7486 34.3746C40.4066 34.0592 40.0465 33.7618 39.6955 33.4464C39.5064 33.2841 39.3174 33.1129 39.1374 32.9507C39.1464 32.9236 39.1464 32.9146 39.1464 32.9146C39.1824 32.8966 39.2094 32.8696 39.2454 32.8515C40.7216 31.9593 42.0358 30.8778 43.044 29.4629C43.7281 28.5076 44.2141 27.4532 44.4212 26.2906C44.4662 26.0292 44.5112 25.7588 44.5562 25.4975C44.5562 25.137 44.5562 24.7765 44.5562 24.416C44.5292 24.2538 44.5022 24.1006 44.4752 23.9383C44.2771 22.6225 43.7551 21.4509 42.9809 20.3875ZM43.08 24.9928C42.8819 26.7232 42.0808 28.1561 40.9286 29.4178C40.0195 30.4182 38.9573 31.2203 37.7962 31.9143C37.7152 31.9593 37.6611 31.9593 37.5891 31.8962C36.581 31.022 35.4648 30.292 34.3216 29.6071C34.1866 29.526 34.1326 29.4269 34.2136 29.3007C34.3216 29.1204 34.4207 28.9312 34.5647 28.796C34.8977 28.5166 35.2578 28.2913 35.7169 28.2462C36.0859 28.2102 36.374 27.9759 36.617 27.6604C33.0075 26.5069 29.3259 25.9751 25.5183 26.0382C25.5723 25.9661 25.5993 25.9211 25.6353 25.885C26.5085 24.8576 27.1386 23.677 27.6336 22.4243C27.7327 22.1809 27.8137 22.1449 28.0297 22.2891C28.2727 22.4423 28.4978 22.6225 28.7228 22.8028C28.8128 22.8749 28.9028 22.9109 29.0109 22.8659C29.2989 22.7397 29.6049 22.6315 29.884 22.4783C30.046 22.3972 30.145 22.235 30.127 22.0097C30.019 22.0007 29.902 22.0007 29.794 21.9917C29.1819 21.9556 28.5698 21.9196 27.9577 21.8835C27.8047 21.8745 27.7597 21.7754 27.8497 21.6582C27.9127 21.5771 28.0027 21.505 28.1017 21.469C28.5968 21.2797 29.1189 21.2527 29.6409 21.2346C30.3701 21.2166 31.0902 21.2256 31.8193 21.2256C32.0173 21.2256 32.1163 21.1355 32.0983 20.9733C32.0893 20.9192 32.0533 20.8381 32.0083 20.8201C31.8013 20.7209 31.5942 20.6308 31.3692 20.5317C31.3962 20.5136 31.4322 20.4956 31.4682 20.4866C31.9723 20.2883 32.4854 20.0991 32.9804 19.8738C33.1785 19.7836 33.3405 19.6124 33.4845 19.4412C33.6375 19.2609 33.6105 19.0176 33.4485 18.8193C33.1515 19.0536 32.8634 19.342 32.4674 19.1167C32.5394 18.7743 32.6204 18.4498 32.6654 18.1344C32.7194 17.8099 32.7374 17.4765 32.6114 17.107C32.5484 17.1971 32.5034 17.2512 32.4674 17.3053C32.3774 17.4765 32.2963 17.6477 32.2063 17.8099C32.1163 17.9722 32.0353 17.9722 31.9093 17.837C31.7113 17.6207 31.5132 17.4044 31.3062 17.1971C31.0902 16.9808 30.8111 16.9538 30.5411 17.0259C30.298 17.089 30.235 17.4945 30.4601 17.6748C30.9821 18.0983 31.0632 18.6481 30.9821 19.2609C30.9731 19.342 30.9281 19.4322 30.8741 19.4952C30.217 20.2883 29.3439 20.7119 28.3357 20.8561C27.8137 20.9282 27.2826 21.0183 26.7605 20.9012C26.4185 20.8201 26.0764 20.7299 25.7524 20.5767C25.2033 20.3154 24.9782 19.8107 25.1133 19.2159C25.1763 18.9455 25.2663 18.6841 25.3563 18.3867C25.2573 18.4048 25.1673 18.4228 25.0863 18.4498C24.8882 18.5129 24.8252 18.4769 24.8072 18.2606C24.8072 18.2335 24.7982 18.2065 24.7982 18.1794C24.4922 18.1975 24.2761 18.3957 24.2221 18.7382C24.1771 18.9996 24.1681 19.2699 24.1501 19.5673C23.8981 19.4141 23.8621 19.0897 23.619 18.9094C23.547 19.2069 23.583 19.4862 23.646 19.7566C23.8081 20.4415 24.2761 20.8381 24.8882 21.0904C25.3293 21.2707 25.7884 21.3608 26.2654 21.4059C26.3194 21.4149 26.3915 21.3969 26.4095 21.4329C26.4545 21.496 26.4725 21.5681 26.5085 21.6402C26.4545 21.6582 26.4005 21.6852 26.3555 21.6852C25.9684 21.6492 25.5723 21.5771 25.1853 21.5771C24.2941 21.5681 23.412 21.6041 22.5209 21.6132C22.3228 21.6132 22.3048 21.7664 22.2598 21.8925C22.2058 22.0277 22.2148 22.1719 22.3138 22.2891C22.3318 22.3161 22.3949 22.3161 22.4399 22.3161C22.7549 22.2981 23.025 22.3792 23.286 22.5775C23.6911 22.8929 24.1771 23.0101 24.6812 23.0912C24.7082 23.0912 24.7352 23.1002 24.7982 23.1092C24.7082 23.1723 24.6542 23.2264 24.5822 23.2714C23.628 23.9654 22.7819 24.7765 22.0798 25.7408C22.0348 25.7949 21.9448 25.8399 21.8728 25.8399C20.0815 25.849 18.2902 25.8399 16.49 25.858C15.4458 25.867 14.4017 25.9301 13.3575 25.9661C13.3125 25.9661 13.2675 25.9751 13.2315 25.9841C13.1865 26.3176 13.4295 26.7502 13.7266 26.8583C13.7806 26.8764 13.8346 26.8764 13.8886 26.8764C15.3198 26.8493 16.76 26.8944 18.1822 27.0476C19.3254 27.1738 20.4686 27.336 21.6027 27.5252C23.358 27.8227 25.0863 28.2733 26.7875 28.796C28.9928 29.4899 31.1532 30.3191 33.2505 31.2924C34.2046 31.734 35.1408 32.2117 36.0859 32.6713C36.1219 32.6893 36.1489 32.7073 36.2119 32.7434C36.1489 32.7794 36.1039 32.8065 36.0589 32.8335C34.6727 33.4824 33.2325 33.9601 31.7473 34.2935C30.064 34.663 28.3538 34.8613 26.6345 34.8883C24.6452 34.9244 22.6829 34.7261 20.7476 34.2665C19.3254 33.924 17.9482 33.4373 16.652 32.7524C15.0768 31.9233 13.6906 30.8869 12.6644 29.4269C11.9803 28.4715 11.5482 27.4171 11.4222 26.2365C11.2962 24.9838 11.5122 23.7941 12.0523 22.6586C12.7184 21.2617 13.7086 20.1261 14.9057 19.1528C16.508 17.846 18.3172 16.9267 20.2525 16.2418C21.6387 15.7551 23.052 15.4127 24.5012 15.1873C26.4095 14.899 28.3267 14.8178 30.253 14.9711C31.8193 15.0972 33.3585 15.3586 34.8707 15.8182C36.725 16.377 38.4623 17.1791 39.9835 18.3867C41.1357 19.297 42.0628 20.3875 42.6389 21.7573C43.062 22.8028 43.215 23.8752 43.08 24.9928Z" fill="#044A85"></path><path fill-rule="evenodd" clip-rule="evenodd" d="M185.229 23.3974C186.183 23.0369 187.236 23.3253 187.272 24.4969C187.272 24.5239 187.299 24.551 187.317 24.5781H190V24.3978C189.986 24.3752 189.972 24.3527 189.958 24.3301L189.934 24.292C189.855 24.1647 189.775 24.0362 189.712 23.9021C189.298 23.064 188.64 22.4691 187.731 22.2709C187.02 22.1176 186.282 22.0275 185.553 22.0546C183.114 22.1357 181.259 23.4785 180.494 25.6415C179.846 27.453 180.692 29.0302 182.565 29.4717C183.69 29.7421 184.833 29.715 185.958 29.4897C187.092 29.2735 188.01 28.6787 188.658 27.7053C188.676 27.6815 188.69 27.6548 188.703 27.6248C188.708 27.6143 188.712 27.6035 188.716 27.5923C188.722 27.5784 188.727 27.5639 188.733 27.5488L188.733 27.5468C188.74 27.5285 188.747 27.5094 188.755 27.4894C188.766 27.4612 188.778 27.4311 188.793 27.3989C188.591 27.3989 188.395 27.3974 188.203 27.3959C187.737 27.3922 187.295 27.3888 186.849 27.4079C186.651 27.4169 186.417 27.5251 186.282 27.6602C185.805 28.1469 185.22 28.3452 184.581 28.3542C183.627 28.3542 182.997 27.7414 183.033 26.8582C183.042 26.5787 183.087 26.2814 183.177 26.02C183.546 24.9115 184.023 23.8571 185.229 23.3974ZM86.3721 22.2563C85.6563 22.2613 84.9405 22.2664 84.2247 22.2258C83.8197 22.1988 83.5857 22.307 83.3606 22.6224C82.6855 23.5957 81.9924 24.56 81.2903 25.5153C81.0743 25.8128 80.8043 26.0651 80.4712 26.4346L80.4591 26.3823L80.4341 26.2762L80.4337 26.2742L80.4318 26.2662L80.4316 26.2653L80.4283 26.2512C80.421 26.2201 80.415 26.1946 80.4101 26.1725L80.4033 26.1416L80.3996 26.1229L80.3972 26.1106L80.3955 26.1009L80.3933 26.0878L80.3915 26.075L80.3902 26.0651C80.2822 24.9476 80.1742 23.821 80.0841 22.7035C80.0571 22.361 79.9311 22.2439 79.5891 22.2529C78.5989 22.2709 77.6088 22.2709 76.6186 22.2529C76.2766 22.2439 76.1056 22.352 75.9885 22.6765C75.6778 23.5359 75.3548 24.3892 75.0321 25.2416C74.8032 25.8463 74.5744 26.4506 74.3503 27.0564C74.1664 27.5458 73.9855 28.035 73.7988 28.544C73.6656 28.907 73.5295 29.2799 73.3871 29.6701C73.5648 29.6701 73.7356 29.6675 73.9017 29.665C74.2741 29.6594 74.6228 29.6541 74.9714 29.6791C75.3854 29.7151 75.5745 29.5709 75.7005 29.1654C76.2226 27.471 76.7896 25.7948 77.3567 24.1185C77.3868 24.022 77.4773 23.9457 77.5663 23.8707C77.6104 23.8335 77.654 23.7967 77.6898 23.758C77.7126 23.7935 77.739 23.829 77.7655 23.8647C77.8332 23.9559 77.9019 24.0484 77.9148 24.1455L77.9219 24.234C78.0365 25.6732 78.1505 27.104 78.2299 28.5435L78.2342 28.6196C78.2922 29.652 78.2922 29.6524 79.3911 29.6701C79.4631 29.6701 79.5531 29.6971 79.6161 29.6701C79.7098 29.6325 79.8181 29.5998 79.9144 29.5568C80.0032 29.5172 80.0817 29.4688 80.1292 29.3997C80.4836 28.9285 80.8256 28.4449 81.1664 27.9629C81.2403 27.8585 81.3141 27.7541 81.3879 27.65C81.4753 27.5269 81.5627 27.404 81.6504 27.2818C81.7816 27.0978 81.9129 26.9135 82.0442 26.7292C82.6785 25.8388 83.3149 24.9454 83.9637 24.0643C84.0294 23.9789 84.1478 23.9318 84.2664 23.8845L84.2671 23.8843C84.3108 23.8669 84.3546 23.8494 84.3958 23.83C84.3986 23.8803 84.4057 23.9324 84.4128 23.9846L84.4129 23.9853C84.4288 24.1011 84.4448 24.2174 84.4138 24.3167C84.1964 24.9982 83.9718 25.6761 83.7468 26.355L83.746 26.3574C83.6172 26.746 83.4883 27.1349 83.3606 27.5251C83.2191 27.9504 83.0811 28.3791 82.9354 28.8317L82.9348 28.8335C82.8491 29.0997 82.7608 29.3742 82.6675 29.661C82.7324 29.661 82.7966 29.6608 82.8604 29.6606C82.9396 29.6604 83.018 29.66 83.0957 29.6595L83.326 29.658C83.8464 29.6543 84.3394 29.6509 84.8369 29.6701C85.1789 29.6791 85.3409 29.5709 85.4399 29.2284C85.7319 28.2451 86.0364 27.265 86.3405 26.2862C86.552 25.6053 86.7634 24.9249 86.9702 24.2446C87.1174 23.7689 87.2546 23.2932 87.4004 22.788C87.4508 22.6136 87.5021 22.4356 87.5553 22.2529H87.0872C86.8488 22.2529 86.6105 22.2546 86.3721 22.2563ZM115.941 22.2541L116.52 22.2534L116.794 22.2532L116.98 22.2531L117.278 22.2529C118.007 22.2529 118.628 22.5052 119.096 23.064C119.681 23.767 119.528 24.6952 118.727 25.1279C118.562 25.2177 118.381 25.2799 118.201 25.342C118.055 25.392 117.909 25.442 117.773 25.5064C117.716 25.5313 117.652 25.5674 117.594 25.6103C117.505 25.6761 117.429 25.758 117.413 25.8398C117.395 25.957 117.548 26.1643 117.674 26.2454C118.844 27.0024 118.889 28.2011 117.764 29.0573C117.17 29.5078 116.486 29.6521 115.775 29.6611C113.722 29.6701 111.67 29.6611 109.618 29.6521C109.588 29.6521 109.558 29.6439 109.515 29.6321C109.48 29.6225 109.436 29.6102 109.375 29.598C109.459 29.3095 109.542 29.0247 109.624 28.7424L109.632 28.7178L109.651 28.6501C109.876 27.88 110.096 27.1281 110.32 26.3715C110.36 26.2348 110.4 26.0982 110.441 25.9617L110.493 25.7887C110.588 25.4686 110.685 25.1489 110.781 24.8293L110.782 24.8275C111.003 24.0932 111.224 23.3594 111.436 22.6224C111.526 22.334 111.652 22.2439 111.94 22.2439C112.77 22.2523 113.603 22.2548 114.436 22.2551C114.937 22.2553 115.439 22.2547 115.941 22.2541ZM115.009 28.2281C115.234 28.2101 115.522 27.9938 115.639 27.7865C115.766 27.5342 115.82 27.1827 115.775 26.9123C115.702 26.5878 115.387 26.4347 115.036 26.4347H115.033C114.476 26.4257 113.919 26.4167 113.371 26.4437C113.245 26.4527 113.038 26.5698 113.002 26.687C112.928 26.9022 112.86 27.1226 112.792 27.357C112.746 27.5166 112.699 27.6827 112.65 27.8582L112.65 27.8595C112.605 28.019 112.558 28.1863 112.507 28.3633C112.79 28.3489 113.066 28.339 113.337 28.3294C113.912 28.309 114.465 28.2894 115.009 28.2281ZM115.081 25.4793C115.792 25.4613 116.378 24.9837 116.504 24.3347C116.594 23.8481 116.387 23.5867 115.892 23.5867H115.126V23.5957C114.856 23.5957 114.586 23.6137 114.316 23.5867C114.01 23.5507 113.884 23.6769 113.83 23.9652C113.772 24.2696 113.685 24.5682 113.597 24.8704C113.576 24.9439 113.554 25.0177 113.533 25.0918C113.47 25.3171 113.515 25.4433 113.776 25.4433C113.943 25.4467 114.109 25.454 114.274 25.4612H114.275H114.276H114.277H114.278H114.279C114.548 25.4731 114.815 25.4849 115.081 25.4793ZM177.344 22.2348C177.029 22.2168 176.885 22.2889 176.786 22.5953C176.632 23.0951 176.461 23.5906 176.29 24.0848L176.29 24.0857C176.211 24.3131 176.133 24.5402 176.056 24.7673C175.966 25.0286 175.831 25.1368 175.534 25.1188C174.963 25.0935 174.387 25.0992 173.81 25.105H173.809H173.808H173.807H173.807H173.806H173.805C173.557 25.1074 173.308 25.1098 173.059 25.1098C173.035 25.1098 173.011 25.1089 172.986 25.1073C172.956 25.1053 172.924 25.1022 172.891 25.0984C172.832 25.0917 172.766 25.0827 172.69 25.0737L172.818 24.6873L172.897 24.446L172.917 24.3851C173.016 24.0856 173.114 23.7889 173.213 23.4904C173.346 23.0853 173.48 22.6768 173.617 22.2528C173.362 22.2528 173.116 22.2554 172.877 22.2579C172.34 22.2635 171.838 22.2687 171.34 22.2438C170.962 22.2258 170.818 22.37 170.701 22.7035C170.435 23.5011 170.165 24.2964 169.895 25.0918C169.721 25.6039 169.547 26.116 169.375 26.6288C169.279 26.9123 169.184 27.196 169.089 27.48C168.855 28.174 168.63 28.8679 168.369 29.67C168.614 29.67 168.851 29.6685 169.083 29.667C169.643 29.6633 170.17 29.6599 170.692 29.679C171.043 29.697 171.205 29.5709 171.304 29.2464C171.372 29.0303 171.442 28.8147 171.514 28.5995C171.565 28.4446 171.617 28.2898 171.669 28.1351C171.822 27.6802 171.975 27.2255 172.114 26.768C172.195 26.4977 172.339 26.4256 172.6 26.4346C173.212 26.4436 173.833 26.4346 174.445 26.4346H175.498L175.408 26.7008C175.065 27.7142 174.749 28.6502 174.409 29.67C174.648 29.67 174.88 29.6685 175.108 29.6669C175.663 29.6633 176.19 29.6598 176.714 29.679C177.083 29.697 177.245 29.5709 177.353 29.2284C177.755 27.9863 178.173 26.7495 178.59 25.5139C178.715 25.1448 178.84 24.7758 178.964 24.4068C179.198 23.7128 179.414 23.0189 179.648 22.2799C179.378 22.2618 179.171 22.2258 178.964 22.2258C178.767 22.2258 178.571 22.2316 178.376 22.2374C178.028 22.2477 177.684 22.2579 177.344 22.2348ZM67.2842 22.2168C68.4454 22.0005 69.5975 22.0185 70.7407 22.4061C72.748 23.082 73.6211 25.5784 72.0459 27.5431C70.7407 29.1653 69.0304 29.8412 66.5821 29.8593C66.096 29.8863 65.2409 29.706 64.4218 29.3365C62.8105 28.5975 62.6035 26.6419 63.1076 25.5604C63.9447 23.7669 65.3039 22.5863 67.2842 22.2168ZM66.177 28.237C66.9511 28.7417 68.0403 28.6065 68.8144 27.8495C69.6876 26.9934 69.9306 25.8848 69.9306 24.7222C69.9396 24.2176 69.6515 23.8029 69.1204 23.6588C68.3464 23.4515 67.6262 23.5326 67.0411 24.1364C66.195 25.0196 65.772 26.0831 65.691 27.2907C65.664 27.7053 65.835 28.0117 66.177 28.237ZM98.897 22.2438L98.5945 22.2436L98.3654 22.2431L98.2124 22.2427C97.5679 22.241 96.9702 22.2394 96.3676 22.2528C96.2685 22.2528 96.1425 22.37 96.0705 22.4691C95.9869 22.5668 95.9113 22.6699 95.836 22.7727C95.7169 22.9354 95.5983 23.0971 95.4494 23.2352C94.889 23.7666 94.3265 24.294 93.763 24.8202C93.436 25.1255 93.1086 25.4305 92.7811 25.7356C92.4765 26.0193 92.1717 26.3033 91.8669 26.5878C91.7679 26.6779 91.6599 26.7681 91.5428 26.8221C91.4438 26.8672 91.2818 26.8942 91.2188 26.8401C91.1378 26.7681 91.0928 26.6148 91.0928 26.4887C91.0838 26.3715 91.1468 26.2543 91.1828 26.1462C91.3853 25.5514 91.5879 24.9543 91.7904 24.3572C91.9137 23.9935 92.0371 23.6298 92.1605 23.2667C92.2396 23.0336 92.3188 22.8008 92.398 22.5683C92.4235 22.4979 92.4264 22.4184 92.4292 22.3428V22.342C92.4303 22.3114 92.4314 22.2813 92.434 22.2528C92.3245 22.2528 92.2164 22.2538 92.1095 22.2551C92.0389 22.256 91.9688 22.2572 91.8992 22.2583L91.8566 22.2589H91.8531H91.8498H91.8489H91.848H91.8471H91.8463H91.8454H91.8445C91.3806 22.2662 90.9374 22.2731 90.4987 22.2348C90.1296 22.2078 89.9946 22.316 89.8956 22.6494C89.5926 23.5929 89.2876 24.5345 88.9816 25.4751C88.6241 26.574 88.2652 27.6714 87.9063 28.7688C87.8698 28.8821 87.8347 28.9955 87.7994 29.1131C87.7476 29.2853 87.6951 29.4665 87.6363 29.67C87.717 29.67 87.7962 29.6693 87.8742 29.6682L87.9437 29.667L88.0092 29.6659L88.1559 29.6629C88.5163 29.6553 88.8525 29.6482 89.1845 29.679C89.7786 29.7421 90.2286 29.6159 90.5257 29.0482C90.6448 28.8267 90.8444 28.6454 91.0332 28.474L91.0658 28.4444C92.2719 27.3809 93.4781 26.3264 94.6933 25.281C94.7138 25.2628 94.7372 25.2486 94.7622 25.2369C94.7869 25.2255 94.8133 25.2166 94.8401 25.2087C94.894 25.193 94.95 25.1818 94.9994 25.1638C95.0264 25.281 95.1074 25.4162 95.0804 25.5243C94.8734 26.2634 94.6573 26.9934 94.4143 27.7234C94.2774 28.123 94.1225 28.5155 93.9586 28.9305C93.8958 29.0896 93.8317 29.252 93.7668 29.4194C93.7338 29.5045 93.7005 29.591 93.6672 29.679C93.7295 29.679 93.7914 29.6789 93.8529 29.6786L94.0344 29.678L94.3577 29.676C94.6037 29.6743 94.844 29.6727 95.081 29.6732C95.1415 29.6734 95.2018 29.6737 95.2619 29.6741C95.3718 29.6749 95.4812 29.6762 95.5903 29.6783C95.7056 29.6806 95.8206 29.6838 95.9355 29.688C96.2685 29.697 96.4126 29.5889 96.5206 29.2825C96.7132 28.7121 96.9076 28.1425 97.1026 27.5735L97.2057 27.2729L97.293 27.0187L97.5224 26.3512L97.5497 26.2719C97.8442 25.4154 98.1385 24.5596 98.4289 23.7038C98.5023 23.4832 98.5716 23.2625 98.6438 23.0329C98.7219 22.7842 98.8033 22.5249 98.897 22.2438ZM130.622 22.258C130.815 22.2555 131.011 22.2529 131.212 22.2529C131.151 22.4344 131.094 22.6097 131.038 22.7812C130.972 22.9836 130.907 23.1804 130.842 23.3756C130.773 23.5817 130.702 23.7858 130.627 23.9923C130.549 24.2211 130.47 24.45 130.391 24.6791C130.257 25.0694 130.123 25.4602 129.988 25.8512L129.986 25.8573L129.98 25.8753C129.595 26.9915 129.21 28.11 128.835 29.2284C128.709 29.5979 128.529 29.7061 128.151 29.6881C127.654 29.669 127.157 29.6724 126.631 29.6761C126.414 29.6775 126.193 29.6791 125.964 29.6791C126.198 29.0753 126.414 28.5616 126.594 28.0298C126.873 27.2187 127.134 26.4076 127.377 25.5875C127.385 25.562 127.388 25.5348 127.387 25.5065C127.385 25.4422 127.365 25.3721 127.345 25.3026C127.334 25.2617 127.322 25.221 127.314 25.1819C127.298 25.1868 127.282 25.1912 127.266 25.1953C127.248 25.1997 127.229 25.204 127.21 25.2082C127.193 25.2123 127.175 25.2164 127.157 25.2208C127.147 25.2232 127.137 25.2257 127.128 25.2284C127.118 25.231 127.109 25.2337 127.099 25.2366C127.048 25.2526 127.001 25.2739 126.963 25.3081C126.562 25.6602 126.15 26.0013 125.738 26.3426C124.568 27.3115 123.397 28.2815 122.472 29.5078C122.418 29.5799 122.309 29.6611 122.219 29.6611C121.49 29.6791 120.761 29.6701 119.933 29.6701C120.122 29.0797 120.299 28.5283 120.47 27.9945C120.584 27.6402 120.695 27.2935 120.806 26.9483C121.274 25.5063 121.742 24.0734 122.219 22.6314C122.264 22.4872 122.399 22.2799 122.499 22.2799C123.087 22.2584 123.681 22.2597 124.312 22.2612C124.473 22.2616 124.637 22.2619 124.803 22.2619C124.551 23.037 124.317 23.749 124.083 24.4519C124.04 24.5792 123.996 24.7064 123.951 24.8336C123.931 24.8925 123.91 24.9514 123.889 25.0103L123.832 25.1715C123.691 25.5715 123.549 25.9715 123.426 26.3715C123.381 26.5067 123.399 26.732 123.489 26.8041C123.579 26.8762 123.786 26.8221 123.93 26.7771C124.045 26.7328 124.151 26.6362 124.249 26.5474L124.25 26.5465L124.254 26.5428C125.388 25.4883 126.513 24.4338 127.638 23.3704C127.673 23.3374 127.71 23.3044 127.747 23.271C127.892 23.1403 128.044 23.0038 128.115 22.8387C128.376 22.2529 128.826 22.2078 129.367 22.2439C129.772 22.2688 130.186 22.2635 130.62 22.258H130.622ZM60.6952 22.2619C60.5782 22.2619 60.4432 22.352 60.3442 22.4332C60.0561 22.6585 59.7681 22.8882 59.4801 23.118C59.192 23.3479 58.904 23.5777 58.6159 23.803L58.3779 23.9874L58.1692 24.1492L58.1644 24.153L58.1609 24.1556L58.1574 24.1582C57.5988 24.5915 57.039 25.0258 56.4736 25.4433C56.3836 25.5153 56.2305 25.4973 56.1045 25.5243C56.1019 25.4928 56.097 25.4606 56.0919 25.428L56.0875 25.3986L56.0843 25.3757C56.0791 25.3368 56.0754 25.2977 56.0771 25.2592L56.0776 25.2486L56.0786 25.2372C56.0802 25.2216 56.0827 25.2062 56.0865 25.1909C56.1612 24.8311 56.2431 24.4737 56.3248 24.1174C56.4007 23.7867 56.4762 23.4569 56.5456 23.1271C56.5821 22.9705 56.6065 22.8139 56.6328 22.645C56.652 22.5224 56.6721 22.3932 56.6986 22.2529C56.4967 22.2529 56.302 22.2565 56.1125 22.26H56.1099C55.8686 22.2645 55.6357 22.2687 55.4072 22.2652C55.248 22.2627 55.0908 22.2565 54.9344 22.2439C54.4573 22.1989 54.2503 22.361 54.1152 22.8207C53.8852 23.582 53.6234 24.3388 53.362 25.0943L53.3615 25.0954L53.3611 25.0965C53.2546 25.4045 53.1482 25.7123 53.044 26.02C52.8492 26.5965 52.6522 27.1751 52.454 27.757L52.4279 27.8337C52.232 28.4092 52.0349 28.9879 51.8379 29.5709C51.8672 29.5872 51.8894 29.6012 51.9072 29.6123L51.9085 29.6132C51.9389 29.6324 51.9559 29.643 51.9729 29.643C52.1786 29.6456 52.3844 29.6467 52.5901 29.6478C53.1045 29.6506 53.6188 29.6534 54.1332 29.6791C54.5383 29.6971 54.7184 29.5709 54.8173 29.1654L54.827 29.1223C54.9235 28.6908 55.0334 28.1996 55.3034 27.8856C55.6296 27.5033 56.0824 27.2124 56.5187 26.9322L56.5194 26.9318L56.5326 26.9232C56.5853 26.8894 56.6377 26.8557 56.6896 26.8221C57.0587 26.5788 57.3467 26.687 57.5087 27.1015C57.6978 27.6063 57.8778 28.1199 58.0398 28.6336C58.2076 29.1605 58.2886 29.4218 58.4659 29.5503C58.6404 29.6768 58.9082 29.6745 59.444 29.6701C59.9121 29.6701 60.3712 29.6701 60.8392 29.6611C60.9017 29.6611 60.9606 29.6467 61.0228 29.6315C61.0591 29.6227 61.0964 29.6136 61.1363 29.6069C61.1285 29.5681 61.1241 29.5343 61.1202 29.504C61.1149 29.4641 61.1105 29.4304 61.1003 29.3997C60.9486 28.991 60.7986 28.5816 60.6486 28.1718C60.3087 27.244 59.9681 26.3144 59.606 25.3892C59.4801 25.0557 59.516 24.8755 59.7951 24.6772C60.2029 24.3757 60.6092 24.071 61.0145 23.7651C61.3124 23.5402 61.6097 23.3148 61.9069 23.0895L62.3589 22.7469L62.6665 22.5142C62.6929 22.4954 62.713 22.4702 62.7327 22.4387C62.7453 22.4184 62.7579 22.3955 62.7719 22.37C62.788 22.3405 62.8061 22.3075 62.8285 22.2709C62.0635 22.2529 61.3793 22.2529 60.6952 22.2619ZM106.71 22.2619C106.827 23.0911 106.944 23.9112 107.07 24.7403C107.277 26.1192 107.466 27.4981 107.682 28.886L107.69 28.9382C107.8 29.6611 107.8 29.6613 107.052 29.6701C106.809 29.674 106.565 29.6729 106.32 29.6718H106.299C106.135 29.671 105.97 29.6703 105.806 29.6712C105.734 29.6715 105.662 29.6722 105.59 29.6733C105.507 29.6746 105.425 29.6764 105.342 29.6791C105.036 29.6881 104.883 29.598 104.892 29.2825C104.894 29.265 104.894 29.2475 104.894 29.23C104.894 29.2125 104.894 29.195 104.892 29.1775C104.891 29.1656 104.89 29.1536 104.889 29.1417C104.887 29.121 104.884 29.1003 104.882 29.0797L104.879 29.0588C104.877 29.0433 104.875 29.0277 104.874 29.0122C104.824 28.4538 104.799 28.1767 104.648 28.0381C104.498 27.9014 104.226 27.8991 103.686 27.8946C103.2 27.8946 102.723 27.8856 102.245 27.8586C101.885 27.8406 101.606 27.9668 101.39 28.2551C101.314 28.362 101.231 28.4666 101.147 28.5713C101.006 28.7491 100.864 28.9275 100.751 29.1203C100.481 29.607 100.094 29.7512 99.5631 29.6881C99.2995 29.6574 99.0318 29.6644 98.7401 29.6719C98.6033 29.6754 98.4612 29.6791 98.3119 29.6791C98.3379 29.6237 98.3569 29.5789 98.3726 29.5418C98.4004 29.4761 98.4181 29.4342 98.4469 29.3997C99.077 28.5427 99.7072 27.6883 100.337 26.8345C101.389 25.4076 102.44 23.9825 103.488 22.5503C103.659 22.316 103.839 22.2439 104.127 22.2529C104.721 22.2721 105.315 22.2686 105.934 22.2649C106.188 22.2635 106.446 22.2619 106.71 22.2619ZM103.822 26.8901C104.013 26.8958 104.205 26.9015 104.388 26.8762C104.487 26.8672 104.667 26.732 104.667 26.66C104.649 26.0471 104.613 25.4343 104.541 24.8214C104.523 24.6862 104.388 24.488 104.271 24.4609C104.154 24.4339 103.965 24.5601 103.875 24.6772C103.416 25.272 102.984 25.8759 102.551 26.4887C102.353 26.7591 102.497 26.8672 102.768 26.8853C102.948 26.8913 103.128 26.8893 103.308 26.8873L103.42 26.8861L103.502 26.8855L103.578 26.8853L103.611 26.8854C103.651 26.8857 103.69 26.8865 103.729 26.8875L103.822 26.8901ZM138.127 22.2571H138.124C137.519 22.2659 136.909 22.2748 136.307 22.2439C135.928 22.2259 135.703 22.361 135.487 22.6494C134.825 23.5724 134.149 24.4861 133.472 25.4005L133.311 25.6178C133.171 25.8073 133.031 25.9968 132.891 26.1866L132.688 26.4616C132.411 26.8374 132.136 27.2132 131.856 27.5953C131.371 28.2576 130.872 28.9385 130.33 29.6701C130.533 29.6701 130.724 29.6727 130.906 29.6753C131.107 29.6781 131.296 29.6807 131.48 29.6795C131.662 29.6783 131.838 29.6734 132.013 29.6611C132.22 29.643 132.472 29.5259 132.607 29.3726C132.876 29.0872 133.1 28.765 133.327 28.4392L133.399 28.3363C133.642 27.9758 133.966 27.8225 134.389 27.8406C134.741 27.8608 135.088 27.8659 135.437 27.871H135.441H135.444C135.516 27.872 135.587 27.8731 135.659 27.8744L135.785 27.8766H135.785C136.293 27.8855 136.549 27.8901 136.695 28.0193C136.844 28.1511 136.878 28.4124 136.946 28.9401C136.947 28.9571 136.95 28.9742 136.952 28.9913C136.954 29.0043 136.957 29.0173 136.959 29.0304C136.961 29.0422 136.963 29.054 136.965 29.0658C136.972 29.1139 136.978 29.1622 136.973 29.2104C136.946 29.5529 137.081 29.6881 137.441 29.6701C137.859 29.6471 138.281 29.6498 138.702 29.6524C138.942 29.6539 139.182 29.6553 139.421 29.6521C139.471 29.6521 139.521 29.6478 139.57 29.6422C139.645 29.6335 139.719 29.6214 139.79 29.6159C139.808 29.5349 139.826 29.5078 139.826 29.4808C139.779 29.147 139.732 28.8131 139.684 28.4789L139.522 27.331L139.519 27.3165L139.517 27.302C139.294 25.7267 139.07 24.15 138.854 22.5774C138.818 22.307 138.674 22.2439 138.422 22.2529C138.325 22.2542 138.227 22.2556 138.13 22.2571H138.127ZM135.912 26.8901H135.911C135.826 26.8877 135.742 26.8853 135.658 26.8853C135.567 26.8853 135.474 26.8872 135.381 26.8892H135.38H135.379H135.378C135.189 26.8932 134.999 26.8973 134.812 26.8853C134.578 26.8672 134.479 26.741 134.632 26.5248C134.761 26.343 134.889 26.1604 135.018 25.9779L135.019 25.9755C135.329 25.5347 135.638 25.0947 135.956 24.6682C136.046 24.551 136.262 24.4158 136.352 24.4519C136.487 24.506 136.613 24.7043 136.631 24.8485C136.703 25.4433 136.748 26.0381 136.775 26.6329C136.775 26.714 136.604 26.8672 136.505 26.8762C136.31 26.9014 136.11 26.8957 135.912 26.8901ZM165.516 22.2259C165.786 22.2259 165.912 22.334 165.948 22.6134C166.139 23.9931 166.337 25.3727 166.536 26.7564L166.539 26.7782C166.666 27.665 166.794 28.5535 166.92 29.4448C166.927 29.4725 166.923 29.5056 166.917 29.5604L166.914 29.5891L166.911 29.616C166.897 29.6184 166.882 29.6211 166.868 29.6241C166.847 29.6282 166.826 29.6326 166.805 29.6371C166.765 29.6458 166.724 29.6546 166.683 29.6609C166.648 29.6665 166.612 29.6701 166.578 29.6701C165.903 29.6791 165.228 29.6701 164.553 29.6881C164.229 29.6971 164.049 29.607 164.058 29.2375C164.063 29.0534 164.047 28.8694 164.031 28.6853C164.019 28.5539 164.007 28.4225 164.004 28.2911C163.995 28.0388 163.905 27.9036 163.626 27.9036C162.906 27.8946 162.185 27.8766 161.465 27.8496C161.051 27.8315 160.709 27.9577 160.52 28.3272C159.962 29.4178 159.125 29.9224 157.883 29.6611C157.784 29.643 157.676 29.643 157.469 29.634C157.874 29.0753 158.216 28.5886 158.567 28.1109C158.915 27.6388 159.263 27.1668 159.612 26.6945L159.638 26.6589C160.625 25.322 161.612 23.9836 162.59 22.6404C162.816 22.334 163.05 22.1808 163.446 22.2079C163.965 22.2349 164.479 22.2315 164.996 22.2282H164.997C165.169 22.2271 165.342 22.2259 165.516 22.2259ZM162.983 26.8983C163.179 26.9036 163.373 26.909 163.563 26.8762C163.68 26.8582 163.869 26.687 163.869 26.5878C163.851 25.993 163.797 25.3982 163.725 24.8034C163.707 24.6682 163.563 24.497 163.437 24.4519C163.347 24.4159 163.158 24.533 163.077 24.6322C162.714 25.1156 162.369 25.6045 162.023 26.0948C161.93 26.2261 161.838 26.3574 161.744 26.4887C161.555 26.7501 161.663 26.8853 161.951 26.8943C162.113 26.8997 162.274 26.8986 162.436 26.8969L162.49 26.8962L162.508 26.896C162.593 26.8951 162.677 26.8943 162.762 26.8943C162.833 26.8943 162.904 26.8962 162.976 26.8981L162.983 26.8983ZM158.414 24.7944C158.765 23.4876 158.054 22.4422 156.704 22.2889C156.542 22.2709 156.371 22.2619 156.209 22.2619C154.714 22.2619 153.229 22.2619 151.735 22.2439C151.42 22.2439 151.33 22.3971 151.249 22.6494C150.592 24.6862 149.926 26.723 149.259 28.7598C149.172 29.0152 149.101 29.2791 149.005 29.6356L149.005 29.6372L148.998 29.6611C149.103 29.6611 149.207 29.6609 149.309 29.6607L149.563 29.6599C150.1 29.6583 150.604 29.6567 151.114 29.6701C151.402 29.6791 151.546 29.58 151.627 29.2916C151.717 28.9732 151.817 28.6567 151.918 28.3396C152.04 27.9564 152.163 27.5722 152.266 27.1827C152.356 26.8582 152.491 26.7501 152.824 26.7591C153.814 26.7861 154.804 26.7952 155.785 26.7861C157.181 26.7861 158.063 26.1102 158.414 24.7944ZM155.966 24.2807C155.893 24.9115 155.362 25.4433 154.705 25.4883C154.264 25.5154 153.805 25.4974 153.364 25.4523C153.283 25.4433 153.139 25.236 153.157 25.1369C153.238 24.6952 153.346 24.2627 153.49 23.8391C153.526 23.7309 153.715 23.6228 153.85 23.6047C154.034 23.5794 154.226 23.5852 154.414 23.5909H154.416C154.496 23.5933 154.574 23.5957 154.651 23.5957V23.5867H155.371C155.812 23.6047 156.011 23.8391 155.966 24.2807ZM149.591 22.2917C149.608 22.302 149.626 22.3135 149.647 22.325C149.463 22.9791 149.373 23.2989 149.162 23.4552C148.96 23.6047 148.647 23.6047 148.035 23.6047C147.138 23.6047 147.135 23.6135 146.824 24.5233L146.811 24.56C146.545 25.34 146.273 26.1177 146.001 26.8953C145.729 27.6722 145.456 28.4492 145.191 29.2284C145.083 29.5439 144.921 29.6791 144.579 29.6701C144.05 29.6509 143.522 29.6543 142.961 29.658C142.729 29.6595 142.492 29.6611 142.247 29.6611C142.658 28.4373 143.056 27.2428 143.457 26.0405C143.723 25.2417 143.991 24.4394 144.264 23.6228H141.851C141.891 23.5032 141.928 23.389 141.963 23.2795C142.064 22.968 142.152 22.6932 142.265 22.4332C142.301 22.343 142.473 22.2529 142.58 22.2529C144.117 22.2469 145.658 22.2489 147.197 22.2509C147.966 22.2519 148.735 22.2529 149.503 22.2529C149.527 22.2529 149.556 22.2696 149.591 22.2917Z" fill="#044A85"></path></svg> 