<?xml version="1.0" encoding="UTF-8"?> <svg xmlns="http://www.w3.org/2000/svg" width="200" height="50" viewBox="0 0 200 50" fill="none"><path fill-rule="evenodd" clip-rule="evenodd" d="M39.1942 19.8905L36.6861 28.2945H41.793L39.1942 19.8905ZM50.7648 36.0243H44.1786L43.2377 32.943H35.3107L34.3912 36.0243H27.9941L36.3263 13.3682H42.1609L50.7648 36.0243ZM114.903 28.8922C114.714 28.4114 114.624 27.897 114.639 27.3803C114.624 26.8636 114.714 26.3492 114.903 25.8684C115.093 25.3876 115.379 24.9504 115.743 24.5834C116.107 24.2164 116.542 23.9272 117.021 23.7336C117.5 23.5399 118.014 23.4457 118.531 23.4568C119.047 23.4461 119.561 23.5406 120.04 23.7344C120.519 23.9282 120.954 24.2173 121.318 24.5842C121.682 24.9511 121.967 25.3882 122.157 25.8689C122.347 26.3495 122.437 26.8637 122.422 27.3803C122.437 27.8969 122.347 28.4111 122.157 28.8918C121.967 29.3724 121.682 29.8095 121.318 30.1764C120.954 30.5433 120.519 30.8325 120.04 31.0263C119.561 31.2201 119.047 31.3145 118.531 31.3038C118.014 31.3149 117.5 31.2207 117.021 31.0271C116.542 30.8334 116.107 30.5443 115.743 30.1773C115.379 29.8103 115.093 29.3731 114.903 28.8922ZM122.385 36.0243H127.332V18.8003H122.385L122.326 20.157C120.979 19.0503 119.295 18.4362 117.552 18.4165C112.928 18.4165 109.49 22.6305 109.49 27.3803C109.49 32.1301 112.928 36.3415 117.552 36.3415C119.294 36.3219 120.977 35.711 122.326 34.609L122.385 36.0243ZM88.5472 31.2425C90.8502 31.2425 92.3721 29.454 92.3721 27.3803C92.3721 25.3066 90.8502 23.5234 88.5472 23.5234C86.2443 23.5234 84.7197 25.3066 84.7197 27.3803C84.7197 29.454 86.2443 31.2425 88.5472 31.2425ZM88.5472 36.3414C83.7682 36.3414 79.5568 32.6099 79.5568 27.3803C79.55 26.199 79.7782 25.0282 80.2279 23.9358C80.6777 22.8435 81.3401 21.8515 82.1766 21.0174C83.0132 20.1833 84.0071 19.5239 85.1008 19.0774C86.1945 18.6309 87.366 18.4062 88.5472 18.4165C89.7284 18.4066 90.8998 18.6315 91.9933 19.0781C93.0868 19.5247 94.0806 20.1842 94.9171 21.0182C95.7536 21.8522 96.416 22.8441 96.8659 23.9363C97.3157 25.0284 97.5441 26.1991 97.5377 27.3803C97.5377 32.6179 93.3237 36.3414 88.5472 36.3414ZM56.2796 28.7077V18.8003L51.114 18.7976V28.9262C51.114 31.6156 51.8337 33.3162 53.0038 34.5236C53.581 35.1046 54.2706 35.5618 55.0304 35.8675C55.7902 36.1731 56.6043 36.3208 57.4231 36.3014C58.2182 36.2949 59.0038 36.1285 59.7332 35.812C60.4627 35.4956 61.121 35.0357 61.6691 34.4596L61.7837 36.0242H66.8054V18.8003H61.6344V28.0173C61.6344 29.4646 61.4052 30.2723 60.8721 30.872C60.6076 31.1613 60.283 31.3892 59.9211 31.5398C59.5592 31.6904 59.1687 31.7599 58.7771 31.7436C58.15 31.759 57.5414 31.5307 57.0792 31.1065C56.5461 30.6081 56.2796 29.8671 56.2796 28.7077ZM74.1221 18.8003V21.6763C74.5525 20.7558 75.2331 19.9751 76.0863 19.4231C76.9394 18.8712 77.9305 18.5704 78.9465 18.5551V23.5687C77.4912 23.6673 76.3984 24.0618 75.6574 24.8215C74.8577 25.6211 74.4713 26.7965 74.4713 28.6997V36.0162H69.3057V18.8003H74.1221ZM104.057 21.6763V18.8003H99.2463V36.0162H104.409V28.6997C104.409 26.7965 104.796 25.6211 105.595 24.8215C106.336 24.0618 107.427 23.6673 108.89 23.5687V18.5551C107.873 18.5698 106.88 18.8703 106.026 19.4222C105.171 19.9742 104.489 20.7552 104.057 21.6763Z" fill="#172D56"></path><path d="M159.494 16.4735C161.885 16.9047 164.087 18.0581 165.803 19.7786C168.042 22.0266 169.299 25.07 169.299 28.2427C169.299 31.4153 168.042 34.4588 165.803 36.7067C163.555 38.9456 160.511 40.2026 157.339 40.2026C154.166 40.2026 151.123 38.9456 148.875 36.7067C146.636 34.4588 145.379 31.4153 145.379 28.2427C145.379 25.07 146.636 22.0266 148.875 19.7786C149.403 19.2509 149.822 18.6243 150.108 17.9346C150.393 17.2449 150.54 16.5057 150.54 15.7592C150.54 15.0126 150.393 14.2734 150.108 13.5837C149.822 12.894 149.403 12.2674 148.875 11.7397C147.809 10.6747 146.364 10.0765 144.857 10.0765C143.35 10.0765 141.905 10.6747 140.839 11.7397C140.31 12.2674 139.892 12.894 139.606 13.5837C139.32 14.2734 139.173 15.0126 139.173 15.7592C139.173 16.5057 139.32 17.2449 139.606 17.9346C139.892 18.6243 140.31 19.2509 140.839 19.7786C141.785 20.7238 143.037 21.3019 144.37 21.4099C144.701 20.7723 145.081 20.161 145.506 19.5814C144.894 19.6847 144.267 19.6405 143.677 19.4522C143.086 19.264 142.549 18.9372 142.11 18.4992C141.381 17.7687 140.972 16.779 140.972 15.7472C140.972 14.7153 141.381 13.7256 142.11 12.9951C142.84 12.2681 143.829 11.8599 144.859 11.8599C145.89 11.8599 146.878 12.2681 147.609 12.9951C148.338 13.7253 148.748 14.7151 148.748 15.7472C148.748 16.7792 148.338 17.769 147.609 18.4992C145.034 21.0826 143.589 24.581 143.589 28.228C143.589 31.8751 145.034 35.3734 147.609 37.9568C150.193 40.5352 153.694 41.9832 157.344 41.9832C160.994 41.9832 164.496 40.5352 167.08 37.9568C169.654 35.3734 171.099 31.8751 171.099 28.228C171.099 24.581 169.654 21.0826 167.08 18.4992C165.02 16.4352 162.355 15.083 159.473 14.6397C159.52 15.2462 159.529 15.8552 159.499 16.4628L159.494 16.4735ZM138.304 9.1889C140.044 7.45171 142.403 6.47604 144.862 6.47604C147.321 6.47604 149.68 7.45171 151.42 9.1889C153.158 10.9299 154.133 13.289 154.133 15.7485C154.133 18.2081 153.158 20.5671 151.42 22.3081C149.851 23.8802 148.97 26.0107 148.97 28.232C148.97 30.4533 149.851 32.5838 151.42 34.1559C152.994 35.724 155.124 36.6045 157.345 36.6045C159.567 36.6045 161.697 35.724 163.271 34.1559C164.838 32.5828 165.718 30.4526 165.718 28.232C165.718 26.0114 164.838 23.8813 163.271 22.3081C162.078 21.1127 160.549 20.3078 158.889 19.9999C158.715 20.5848 158.502 21.1574 158.252 21.7137C159.671 21.9108 160.987 22.5659 161.999 23.5795C163.236 24.8167 163.931 26.4945 163.931 28.244C163.931 29.9935 163.236 31.6714 161.999 32.9085C160.764 34.1403 159.09 34.832 157.345 34.832C155.601 34.832 153.927 34.1403 152.692 32.9085C152.079 32.2963 151.592 31.5692 151.26 30.7688C150.928 29.9684 150.758 29.1105 150.758 28.244C150.758 27.3775 150.928 26.5196 151.26 25.7192C151.592 24.9188 152.079 24.1917 152.692 23.5795C154.764 21.5019 155.928 18.6871 155.928 15.7525C155.928 12.8179 154.764 10.0031 152.692 7.92549C150.614 5.85154 147.799 4.68669 144.863 4.68669C141.928 4.68669 139.112 5.85154 137.035 7.92549C134.96 10.0017 133.794 12.8171 133.794 15.7525C133.794 18.688 134.96 21.5033 137.035 23.5795C138.595 25.1522 140.595 26.2153 142.771 26.6288C142.834 26.0331 142.935 25.442 143.072 24.8589C141.261 24.5102 139.596 23.6252 138.293 22.3188C136.556 20.5778 135.58 18.2187 135.58 15.7592C135.58 13.2996 136.556 10.9405 138.293 9.19956L138.304 9.1889ZM142.704 27.5403C140.312 27.1087 138.108 25.9554 136.39 24.2352C134.151 21.9872 132.894 18.9438 132.894 15.7712C132.894 12.5985 134.151 9.55508 136.39 7.30711C138.638 5.06828 141.681 3.81127 144.854 3.81127C148.027 3.81127 151.07 5.06828 153.318 7.30711C155.561 9.55301 156.82 12.5972 156.82 15.7712C156.82 18.9451 155.561 21.9893 153.318 24.2352C152.254 25.3024 151.657 26.7478 151.657 28.2547C151.657 29.7615 152.254 31.2069 153.318 32.2741C154.385 33.3394 155.831 33.9378 157.339 33.9378C158.847 33.9378 160.293 33.3394 161.36 32.2741C162.425 31.2076 163.023 29.762 163.023 28.2547C163.023 26.7474 162.425 25.3017 161.36 24.2352C160.416 23.2878 159.166 22.7068 157.833 22.596C157.499 23.2312 157.12 23.8415 156.698 24.4218C157.309 24.3157 157.936 24.3577 158.527 24.5441C159.119 24.7306 159.657 25.056 160.096 25.4933C160.459 25.855 160.746 26.2846 160.942 26.7575C161.138 27.2304 161.239 27.7374 161.239 28.2493C161.239 28.7613 161.138 29.2683 160.942 29.7412C160.746 30.2141 160.459 30.6437 160.096 31.0054C159.366 31.7339 158.377 32.1431 157.345 32.1431C156.314 32.1431 155.325 31.7339 154.595 31.0054C153.866 30.2753 153.457 29.2861 153.457 28.2547C153.457 27.2233 153.866 26.234 154.595 25.504C157.169 22.9206 158.615 19.4222 158.615 15.7752C158.615 12.1281 157.169 8.62975 154.595 6.04637C152.012 3.47077 148.513 2.02441 144.866 2.02441C141.219 2.02441 137.72 3.47077 135.137 6.04637C132.562 8.62907 131.115 12.1277 131.115 15.7752C131.115 19.4226 132.562 22.9213 135.137 25.504C137.197 27.5669 139.861 28.9189 142.742 29.3635C142.696 28.7559 142.688 28.1462 142.718 27.5377L142.704 27.5403ZM143.962 22.2868C142.543 22.0882 141.227 21.4333 140.212 20.421C138.981 19.1843 138.291 17.5105 138.291 15.7658C138.291 14.0211 138.981 12.3474 140.212 11.1107C141.448 9.87789 143.123 9.1856 144.869 9.1856C146.614 9.1856 148.289 9.87789 149.525 11.1107C150.756 12.347 151.448 14.0209 151.448 15.7658C151.448 17.5108 150.756 19.1846 149.525 20.421C147.453 22.4986 146.289 25.3134 146.289 28.248C146.289 31.1826 147.453 33.9974 149.525 36.075C151.602 38.1418 154.414 39.3015 157.344 39.3005C160.274 39.2995 163.085 38.1378 165.161 36.0697C167.233 33.9921 168.397 31.1773 168.397 28.2427C168.397 25.3081 167.233 22.4933 165.161 20.4157C163.594 18.8469 161.592 17.7863 159.414 17.3717C159.347 17.9663 159.246 18.5564 159.11 19.1389C160.924 19.487 162.593 20.3708 163.9 21.6764C165.637 23.4169 166.613 25.7756 166.613 28.2347C166.613 30.6938 165.637 33.0524 163.9 34.793C162.159 36.531 159.8 37.5071 157.34 37.5071C154.88 37.5071 152.521 36.531 150.781 34.793C149.043 33.0524 148.068 30.6938 148.068 28.2347C148.068 25.7756 149.043 23.4169 150.781 21.6764C152.348 20.1036 153.229 17.9733 153.229 15.7525C153.229 13.5317 152.348 11.4014 150.781 9.8286C149.208 8.25922 147.077 7.37782 144.855 7.37782C142.634 7.37782 140.503 8.25922 138.93 9.8286C137.362 11.4014 136.482 13.5317 136.482 15.7525C136.482 17.9733 137.362 20.1036 138.93 21.6764C140.12 22.8724 141.646 23.6792 143.304 23.99C143.481 23.4058 143.694 22.8333 143.944 22.2761" fill="#172D56"></path></svg> 