<?xml version="1.0" encoding="UTF-8"?> <svg xmlns="http://www.w3.org/2000/svg" width="200" height="50" viewBox="0 0 200 50" fill="none"><path fill-rule="evenodd" clip-rule="evenodd" d="M130.805 23.6658H134.265C136.56 23.6658 138.381 24.9061 138.928 26.6727C139.401 28.101 139.146 30.5065 138.637 31.3711C137.325 33.5886 135.103 34.2276 131.861 34.2276C129.386 34.2276 128.017 33.919 126.644 33.6094C126.502 33.5773 126.359 33.5452 126.216 33.5135V30.3938C127.709 31.1456 130.368 31.4086 132.298 31.3711C134.12 31.3711 136.014 30.8448 136.014 28.9655C136.014 28.101 135.832 26.6727 133.683 26.6727H129.967C128.255 26.6727 126.543 25.6203 125.961 24.5303C125.56 23.741 125.414 22.6133 125.414 21.824C125.414 21.7038 125.411 21.5924 125.408 21.484C125.389 20.8801 125.374 20.3695 125.961 18.9675C126.689 17.276 129.712 16.1484 132.736 16.1108C135.067 16.1108 137.289 16.6746 138.381 17.1257V20.1326C137.143 19.4185 134.01 18.9298 131.752 19.1177C130.149 19.2306 128.62 19.9071 128.583 21.5234C128.583 23.3651 129.53 23.6658 130.805 23.6658ZM82.1425 19.1178C82.1425 18.2157 82.5794 17.2384 83.2351 16.8251C83.8907 16.4116 84.4372 16.3741 85.3114 16.3741V34.1901H82.1425L72.49 21.2227V34.1901H69.4668V19.3809C69.4668 18.103 69.7582 17.4264 70.3045 16.9754C70.7416 16.5996 71.7979 16.2613 72.6357 16.2613C72.7086 16.3741 82.1425 28.9279 82.1425 28.9279V19.1178ZM120.497 16.8251C119.878 17.3137 119.513 17.9151 119.513 18.5165V21.6362C117.364 20.5838 113.868 20.8844 112.192 22.3503C110.808 23.5531 110.407 25.658 110.407 27.3493C110.407 28.8153 110.662 29.9804 111.1 31.0328C112.229 33.6638 114.778 34.0398 117.182 34.0398C118.603 34.0398 120.497 33.8895 122.682 33.3257V16.2613C121.918 16.2613 121.08 16.3741 120.497 16.8251ZM119.513 30.92C117.838 31.3336 117.146 31.3336 116.49 31.3336C113.613 31.3336 113.576 28.2139 113.576 27.4997C113.576 24.8685 114.487 23.8162 116.6 23.8162C117.947 23.8162 118.712 24.0417 119.513 24.5304V30.92ZM142.57 19.381C143.116 19.0427 143.664 18.8172 144.355 18.8172H144.392V21.0723H147.305V23.6282H144.683C144.683 23.6282 144.829 27.7628 144.829 30.3186C144.829 30.6945 144.938 30.9201 145.229 31.1832C145.63 31.5215 147.305 31.4838 147.305 31.4838V34.1901H144.392C142.825 34.1901 141.478 32.4235 141.478 31.6342V21.6737C141.478 20.5462 142.024 19.7192 142.57 19.381ZM99.5167 23.2149C97.9869 21.11 95.4372 20.9221 94.0167 20.9221C92.5961 20.9221 90.3743 21.561 89.4637 22.5007C88.553 23.4404 87.8246 24.9438 87.8246 27.4998C87.8246 30.8073 88.5895 31.9725 90.4472 33.3257C91.467 34.0774 92.3046 34.1902 94.4538 34.1902C95.9108 34.1902 96.8942 33.9647 97.7684 33.476C99.4439 32.5364 100.682 31.1456 100.682 27.199C100.609 25.3573 100.318 24.3049 99.5167 23.2149ZM96.7485 30.206C96.2387 31.1456 95.3643 31.6343 94.2716 31.6343C93.179 31.6343 92.3046 31.296 91.9404 30.7698C91.8967 30.7125 91.8539 30.6579 91.8122 30.6047C91.3325 29.9939 90.9935 29.5622 90.9935 27.3495C90.9935 25.9587 91.2484 25.2821 91.6856 24.6432C92.3412 23.6284 93.2882 23.5155 94.1624 23.5155C95.1093 23.5155 95.8379 23.8539 96.3842 24.2297C97.1127 24.7183 97.3677 26.3346 97.3677 27.8005C97.2949 28.9656 97.0764 29.6046 96.7485 30.206ZM152.878 21.0722C155.501 20.7716 158.742 21.2602 160.053 23.0643C160.272 23.3651 160.745 24.192 160.709 25.0565V34.1148H159.07C159.07 34.1148 158.269 33.5135 157.685 33.1376C157.176 33.4383 156.411 33.7014 155.902 33.8517C153.023 34.641 149.746 33.551 149.272 31.4461C149.053 30.5817 148.98 29.6045 149.127 29.0407C149.964 25.7706 153.388 25.6954 157.54 26.3344V24.9061C156.071 22.8352 152.381 23.675 150.215 24.168L150.109 24.192V21.4857C150.452 21.4415 150.7 21.3973 150.973 21.3486C151.396 21.273 151.881 21.1866 152.878 21.0722ZM153.06 31.3335C154.153 31.9349 156.739 31.0703 157.467 30.6193V28.7776C156.156 28.552 153.169 28.1761 152.514 29.191C152.077 29.8675 152.514 31.0327 153.06 31.3335ZM166.683 22.6511V21.0724C166.617 21.0724 166.555 21.0721 166.495 21.0718C165.918 21.0687 165.558 21.0667 164.898 21.373C164.169 21.6738 163.659 23.1772 163.659 24.2297V34.1902H166.974V25.3573C167.411 24.4927 169.159 23.5907 170.143 23.6659V21.11C168.649 21.11 167.302 21.749 166.683 22.6511ZM105.709 21.0724V22.6511C106.328 21.749 107.712 21.11 109.169 21.11V23.6659C108.186 23.5907 106.437 24.4927 106 25.3573V34.1902H102.686V24.2297C102.686 23.1772 103.196 21.6738 103.924 21.373C104.584 21.0667 104.945 21.0687 105.521 21.0718C105.581 21.0721 105.644 21.0724 105.709 21.0724Z" fill="#292858"></path><path fill-rule="evenodd" clip-rule="evenodd" d="M61.7088 10.2849C59.9414 11.5487 58.6207 13.3557 57.3625 15.077C55.3279 17.8607 53.457 20.4202 50.1259 20.095C50.1971 20.1413 50.2685 20.1885 50.3405 20.2362C51.2634 20.847 52.2927 21.5282 54.3875 21.1099C57.52 20.4709 59.3776 18.554 60.0334 17.5391C60.6001 16.7134 60.8006 16.3994 61.0609 15.9919L61.0617 15.9907C61.3702 15.5079 61.7629 14.8931 62.9471 13.1415C64.7684 10.4353 65.934 9.53319 67.5002 9.30768C65.0234 8.33038 62.8015 9.49561 61.7088 10.2849ZM48.3413 23.0643C48.2601 23.1092 48.1778 23.1536 48.0946 23.1984C47.1328 23.7171 46.0584 24.2964 45.3546 26.372C44.2983 29.4917 44.9902 32.1228 45.5002 33.2128C46.4109 35.2048 46.1194 34.4531 47.7585 38.0239C49.1062 40.9932 49.2883 42.4967 48.7055 44.0001C50.7454 42.2335 50.891 39.6776 50.7817 38.3245C50.601 36.1162 49.7471 34.0283 48.9338 32.0398C47.6153 28.8161 46.4038 25.8539 48.3413 23.0643ZM46.7488 19.6271C46.7451 19.7213 46.7414 19.8146 46.7386 19.9073C45.3641 16.7683 42.2612 16.3622 38.8956 15.9218C36.8208 15.6502 34.6462 15.3657 32.7153 14.4196C31.5497 13.8182 29.4371 12.4275 29 9.72125C29.9834 10.9992 31.3311 11.6006 34.5365 11.8637C36.7125 12.058 37.3862 12.1035 37.9659 12.1426C38.3953 12.1717 38.7733 12.1972 39.6723 12.2772C40.8378 12.3899 43.3875 13.104 45.4638 15.5848C46.8421 17.2499 46.7931 18.4989 46.7488 19.6271Z" fill="#292858"></path><path fill-rule="evenodd" clip-rule="evenodd" d="M49.3254 19.3809C52.1836 20.0077 53.7802 18.3563 54.3902 17.7253L54.4248 17.6895C55.9618 16.0227 56.3623 14.2983 56.8654 12.1311C56.9903 11.5937 57.1213 11.0291 57.2777 10.4313C57.3724 10.0693 57.4763 9.69523 57.5937 9.3077C57.9214 8.21768 58.3585 7.2028 59.6698 6.18799C55.69 6.49447 54.5732 10.0332 53.5169 13.3805C52.63 16.1909 51.7858 18.8662 49.3254 19.3809ZM49.3617 22.6886C47.394 24.9407 47.9916 27.1928 48.2206 28.0557L48.2325 28.101C48.8679 30.3413 50.1385 31.5887 51.7503 33.1711L51.7511 33.1721C52.3567 33.7664 53.0103 34.408 53.6963 35.1673C54.4611 35.9943 55.0803 36.9339 55.2989 38.5878C56.977 34.8799 54.5673 32.0996 52.2925 29.4748C50.3703 27.257 48.5444 25.1501 49.3617 22.6886ZM36.6114 17.8634C38.7238 17.2319 40.3974 16.7316 42.5867 17.276L42.6489 17.2933C43.499 17.5308 45.6689 18.1369 46.5569 20.9595C44.8943 19.0207 42.2221 19.596 39.4136 20.2006C36.0696 20.9205 32.5323 21.6821 30.2754 18.2908C31.7688 18.9674 32.8615 18.8547 33.9543 18.5916C34.9387 18.3635 35.807 18.1039 36.6114 17.8634Z" fill="#006BAE"></path><path fill-rule="evenodd" clip-rule="evenodd" d="M52.3485 13.818C52.4253 12.9584 52.2858 12.1266 52.1424 11.2721C51.8782 9.69796 51.6011 8.04632 52.6399 6C50.8915 7.05245 49.8717 8.44313 49.8717 11.4125C49.8717 12.3005 49.8922 13.0669 49.9101 13.7375C49.9399 14.8552 49.9627 15.7068 49.8717 16.4115C49.6531 17.9526 49.2889 18.5539 48.3418 19.1177C48.9246 19.0802 49.9444 18.6667 50.2723 18.4036C51.3286 17.6143 52.2028 15.3215 52.3485 13.818ZM55.7358 27.1612C55.0589 26.7602 54.4554 26.4215 53.9191 26.1206L53.9175 26.1196C52.8966 25.5468 52.1201 25.1111 51.547 24.6429C50.3451 23.6656 50.0536 23.0643 50.0536 21.9367C49.7986 22.4629 49.653 23.5905 49.6894 24.0039C49.7986 25.3195 51.2557 27.274 52.4577 28.1385C53.1414 28.6444 53.9166 28.9381 54.7135 29.2401C56.1665 29.7907 57.6921 30.3687 58.8683 32.3106C58.9047 30.2809 58.2127 28.6271 55.7358 27.1612ZM40.4012 21.0346C41.7125 20.3956 44.0801 20.0573 45.2457 20.6211C45.6099 20.8091 46.4841 21.4857 46.812 21.9743C45.8649 21.448 45.2093 21.3729 43.7886 21.9743C43.0793 22.2618 42.2819 22.7677 41.2002 23.4537C40.7267 23.754 40.1988 24.0889 39.5999 24.4551C37.1595 25.9585 35.4476 25.733 33.6992 24.6806C35.916 24.5832 37.1708 23.5091 38.3632 22.4883C39.0126 21.9324 39.6435 21.3924 40.4012 21.0346Z" fill="#0080C3"></path><path fill-rule="evenodd" clip-rule="evenodd" d="M47.1034 7.99219C47.0418 8.08072 46.9799 8.1676 46.9185 8.25381C45.9639 9.59492 45.1272 10.7703 47.2492 15.3968C47.2492 15.3968 48.5241 17.8775 47.2492 19.5313C47.7592 19.3433 48.1963 18.8172 48.4876 18.4037C48.8155 17.9151 49.3618 16.7123 49.034 14.9833C48.8302 13.8261 48.3934 13.0175 47.9774 12.2475C47.353 11.0915 46.7755 10.0225 47.1034 7.99219ZM53.7328 22.8389C53.7328 22.8389 51.001 22.7261 50.2724 20.7716C50.1632 21.2978 50.3818 21.9745 50.6003 22.463C50.8553 22.9893 51.5837 24.0792 53.1865 24.6806C54.2592 25.0695 55.153 25.0834 56.0012 25.0966C57.2842 25.1164 58.4626 25.1347 59.9977 26.4471C59.9605 26.3585 59.9245 26.2704 59.8887 26.1828C59.2564 24.6353 58.6968 23.2657 53.7328 22.8389ZM41.2131 25.7452C41.6518 24.9878 42.1122 24.1929 42.9875 23.4403C44.2623 22.3127 45.5371 22.2 46.12 22.2C46.5934 22.2751 47.2857 22.3879 47.6863 22.7638C45.6829 22.463 44.226 24.831 44.226 24.831C41.3878 29.0301 39.9621 28.8565 38.3816 28.664C38.2787 28.6515 38.175 28.6389 38.0703 28.6273C39.9482 27.9287 40.5564 26.879 41.2131 25.7452Z" fill="#61BEE7"></path></svg> 