<?xml version="1.0" encoding="UTF-8"?> <svg xmlns="http://www.w3.org/2000/svg" width="200" height="50" viewBox="0 0 200 50" fill="none"><path fill-rule="evenodd" clip-rule="evenodd" d="M92.5716 16.9751H96.5589C96.6732 16.9751 96.7447 17.1037 96.6589 17.1752L92.0428 23.6921C91.9999 23.7636 91.9141 23.8065 91.8284 23.8065L68.4046 24.9641C68.4046 24.9641 65.4748 24.7068 63.5026 27.9653C61.5303 31.2238 58.7006 31.5525 57.4858 31.5525C57.255 31.5525 56.6019 31.5803 55.6773 31.6198C51.7365 31.788 42.8633 32.1667 40.7218 31.4953C37.8635 30.6092 37.3204 30.1519 38.9497 28.2083C39.4626 27.5963 39.9047 26.983 40.3077 26.424C41.1846 25.2074 41.876 24.2482 42.7084 24.1209C43.2426 24.0401 43.5338 23.6515 43.8437 23.238C44.2469 22.7001 44.6816 22.1201 45.7239 22.1201C46.0222 22.1201 46.5789 22.1158 47.2619 22.1105C48.3459 22.1022 49.748 22.0915 50.9403 22.0915C51.0975 22.0915 51.2261 21.9628 51.2261 21.8056V20.3908C51.2261 20.2336 51.3547 20.1049 51.512 20.1049L52.6839 20.0907L52.6696 18.9616H25.9158C25.6728 18.9616 25.4728 18.7615 25.487 18.5186C25.487 18.2899 25.7014 18.1184 25.9301 18.1184H85.0971C85.34 18.1184 85.5401 18.3185 85.5258 18.5615C85.5258 18.7901 85.3115 18.9616 85.0828 18.9616H58.3719V19.9334C58.3719 19.9334 58.4862 20.6909 59.5724 20.6909H61.9448C63.1881 20.6909 64.7602 22.2201 65.1318 22.606C65.189 22.6631 65.2747 22.6917 65.3462 22.6917L86.7835 22.4059C86.9693 22.4059 87.1551 22.3201 87.2837 22.1915L92.2714 17.1037C92.3429 17.018 92.4572 16.9751 92.5716 16.9751ZM133.16 17.7732C133.487 17.6179 133.857 17.5332 134.256 17.5332C134.811 17.5332 135.252 17.7167 135.565 18.0555C135.907 18.3943 136.078 18.8459 136.078 19.3964C136.078 19.8481 135.964 20.2998 135.751 20.7233C135.523 21.1468 135.224 21.4855 134.854 21.7114C134.484 21.9513 134.056 22.0643 133.587 22.0643C133.174 22.0643 132.832 21.9654 132.548 21.7819C132.263 21.5984 132.064 21.3726 131.95 21.0903C131.836 20.8221 131.779 20.5398 131.779 20.2575C131.779 19.9893 131.822 19.7211 131.893 19.4388C131.992 19.0718 132.149 18.733 132.362 18.4507C132.576 18.1684 132.846 17.9425 133.16 17.7732ZM133.715 21.2032C133.928 21.2032 134.156 21.1185 134.355 20.9773C134.569 20.8362 134.74 20.6104 134.882 20.2998C135.025 20.0034 135.096 19.6929 135.096 19.4106C135.096 19.1 135.01 18.8459 134.839 18.6766C134.669 18.4931 134.455 18.4083 134.199 18.4083C133.786 18.4083 133.459 18.5919 133.202 18.973C132.932 19.3541 132.804 19.7917 132.804 20.2434C132.804 20.5257 132.889 20.7515 133.06 20.935C133.231 21.1185 133.444 21.2032 133.715 21.2032ZM108.176 21.9937L110.682 17.6038H111.764L112.476 21.9937H111.493L111.351 21.062H109.757L109.244 21.9937H108.176ZM110.169 20.2151H111.237L111.038 18.7895L110.169 20.2151ZM117.429 18.7189C117.429 18.9589 117.358 19.1847 117.216 19.3682C117.102 19.5094 116.96 19.6223 116.746 19.7211C116.903 19.7917 117.017 19.8905 117.116 20.0034C117.244 20.1728 117.316 20.3563 117.316 20.568C117.316 20.8362 117.244 21.0903 117.088 21.3303C116.931 21.5702 116.718 21.7537 116.447 21.8525C116.177 21.9513 115.821 22.0078 115.365 22.0078H113.258L114.184 17.6179H115.707C116.034 17.6179 116.262 17.632 116.39 17.6461C116.604 17.6744 116.789 17.7449 116.945 17.8296C117.102 17.9284 117.216 18.0555 117.301 18.2107C117.387 18.366 117.429 18.5354 117.429 18.7189ZM114.853 19.3259H115.437C115.735 19.3259 115.949 19.2976 116.077 19.2694C116.191 19.2271 116.276 19.1706 116.333 19.0859C116.39 19.0012 116.419 18.9165 116.419 18.8177C116.419 18.7189 116.405 18.6483 116.348 18.5919C116.291 18.5354 116.219 18.4931 116.12 18.479C116.112 18.479 116.102 18.4785 116.09 18.4778C116.083 18.4774 116.075 18.4769 116.066 18.4763L116.066 18.4763C116 18.4722 115.881 18.4648 115.664 18.4648H115.038L114.853 19.3259ZM116.148 20.314C116.049 20.2434 115.892 20.201 115.664 20.201V20.1869H114.668L114.469 21.1609H115.223C115.579 21.1609 115.807 21.1468 115.921 21.1044C116.02 21.062 116.106 21.0056 116.177 20.9068C116.248 20.808 116.276 20.7092 116.276 20.6104C116.276 20.4833 116.234 20.3986 116.148 20.314ZM121.572 17.6038L119.408 20.0598L119.935 17.6038H118.967L118.027 21.9937H118.967L121.145 19.5235L120.604 21.9937H121.586L122.512 17.6038H121.572ZM122.383 21.9937L124.889 17.6038H125.985L126.697 21.9937H125.714L125.572 21.062H123.964L123.451 21.9937H122.383ZM124.376 20.2151H125.444L125.245 18.7895L124.376 20.2151ZM130.626 17.7026C130.469 17.7732 130.341 17.872 130.227 18.0131C130.113 18.1543 129.957 18.3943 129.743 18.7471C129.515 19.1423 129.387 19.2835 129.33 19.3259C129.273 19.3682 129.188 19.3964 129.074 19.4106L129.458 17.6179H128.434L127.494 22.0078H128.505L128.903 20.1728C129.088 20.1869 129.216 20.2575 129.273 20.3704C129.359 20.5962 129.373 20.6386 129.373 20.6386L129.743 22.0078H130.797L130.384 20.5821C130.384 20.5763 130.381 20.568 130.378 20.5583C130.374 20.5446 130.37 20.5281 130.37 20.5116C130.284 20.1587 130.128 19.9046 129.9 19.7634C130.014 19.707 130.113 19.6223 130.213 19.5235C130.355 19.3682 130.54 19.0859 130.782 18.6483C130.868 18.4931 130.925 18.4366 130.953 18.4225C130.996 18.3943 131.067 18.3801 131.167 18.3801H131.366L131.608 17.6038H131.281C130.982 17.6038 130.768 17.6461 130.626 17.7026ZM138.882 17.6038H137.501L136.576 21.9937H137.516L138.099 18.9871L138.227 21.9937H139.167L140.591 19.0435L139.879 21.9937H140.833L141.758 17.6038H140.363L138.996 20.3704L138.882 17.6038ZM142 21.9937L142.939 17.6038H146.484L145.545 21.9937H144.52L145.274 18.4648H143.779L143.025 21.9937H142ZM148.861 17.6038L146.356 21.9937H147.424L147.936 21.062H149.53L149.673 21.9937H150.655L149.943 17.6038H148.861ZM149.402 20.2151H148.335L149.203 18.7895L149.402 20.2151ZM153.075 19.2553H154.584L154.926 17.6038H155.951L155.025 21.9937H154L154.399 20.1022H152.89L152.491 21.9937H151.466L152.392 17.6038H153.417L153.075 19.2553ZM159.752 17.6038L157.588 20.0598L158.114 17.6038H157.146L156.207 21.9937H157.146L159.324 19.5235L158.783 21.9937H159.752L160.691 17.6038H159.752ZM161.958 18.0272C162.243 17.7449 162.684 17.6038 163.239 17.6038V17.5897H165.488L164.535 21.9796H163.524L163.908 20.2151H163.894C163.652 20.2151 163.453 20.2434 163.325 20.3139C163.196 20.3845 163.04 20.5257 162.855 20.7374L161.773 21.9936H160.492L161.787 20.4974C161.944 20.2998 162.1 20.1586 162.243 20.074C162.029 20.0034 161.858 19.8763 161.744 19.7211C161.588 19.5094 161.517 19.2835 161.517 19.0153C161.517 18.6483 161.659 18.3095 161.958 18.0272ZM164.275 18.4789H163.68C163.225 18.4789 162.912 18.5213 162.755 18.606C162.613 18.6907 162.542 18.8177 162.542 18.9871C162.542 19.1 162.584 19.1988 162.67 19.2835C162.727 19.3399 162.883 19.4105 163.268 19.4105H164.079L164.275 18.4789ZM160.307 24.0969L160.463 23.6028V23.6169H164.976L164.819 24.1251H164.72C164.335 24.1251 164.051 24.1957 163.866 24.3509C163.681 24.5062 163.51 24.8309 163.367 25.3108L161.787 30.6887C161.659 31.1122 161.631 31.3098 161.631 31.4086C161.631 31.5074 161.673 31.578 161.744 31.6345C161.83 31.6909 162.015 31.7615 162.456 31.7756H162.641L162.499 32.2838H158.043L158.257 31.7756H158.356C158.727 31.7756 158.997 31.705 159.154 31.578C159.268 31.4933 159.438 31.2393 159.623 30.6041L160.307 28.275H157.488L156.791 30.6746C156.691 30.9993 156.634 31.2393 156.634 31.3945C156.634 31.5074 156.677 31.578 156.762 31.6486C156.819 31.6909 156.976 31.7615 157.431 31.7756H157.616L157.474 32.2838H153.16H153.089H149.189L149.345 31.7756L149.445 31.7615C149.822 31.7276 149.961 31.7027 150.008 31.6942C150.02 31.692 150.026 31.6909 150.029 31.6909C150.114 31.6486 150.199 31.5498 150.285 31.3945C150.37 31.2251 150.427 30.9287 150.442 30.4911L150.484 29.5595H148.078L147.594 30.1523L146.997 30.8722C146.883 31.0134 146.797 31.1404 146.755 31.2534C146.712 31.3239 146.698 31.4086 146.698 31.4792C146.698 31.5074 146.698 31.5639 146.797 31.6486C146.854 31.6909 146.968 31.7474 147.239 31.7615H147.367V32.2697H141.203L141.374 31.7615H141.473C141.701 31.7615 141.858 31.7192 141.957 31.6345C142.043 31.5639 142.085 31.4792 142.085 31.3663C142.085 31.2393 142.028 30.957 141.744 30.3218L141.132 28.9243L139.722 30.2371C139.124 30.7875 138.939 31.0134 138.882 31.0981C138.811 31.211 138.783 31.3239 138.783 31.4227C138.783 31.4792 138.797 31.5639 138.911 31.6486C138.996 31.7192 139.167 31.7615 139.395 31.7756H139.58L139.409 32.2838H136.178L136.306 31.7897L136.391 31.7756C136.605 31.7474 136.775 31.6768 136.918 31.5921C137.302 31.3663 137.772 30.9852 138.327 30.477L140.818 28.2185L139.537 25.2543C139.267 24.605 139.096 24.3792 139.01 24.2945C138.925 24.2239 138.783 24.1674 138.598 24.1251C138.356 24.1674 138.128 24.2662 137.929 24.4074C137.658 24.605 137.345 24.9861 137.003 25.5508L133.758 30.8864C133.43 31.4227 133.117 31.818 132.818 32.0721C132.505 32.3402 132.049 32.4814 131.451 32.4814C130.939 32.4814 130.512 32.3544 130.17 32.1003C129.829 31.8321 129.643 31.5074 129.643 31.1263C129.643 30.8581 129.743 30.6323 129.928 30.4488C130.113 30.2653 130.341 30.1806 130.626 30.1806C131.024 30.1806 131.523 30.3641 131.636 31.3098C131.693 31.6768 131.85 31.6768 131.921 31.6768C132.049 31.6768 132.163 31.6204 132.277 31.5357C132.405 31.4369 132.59 31.2251 132.832 30.8864L131.181 25.4378C130.967 24.7179 130.797 24.4497 130.697 24.3368C130.569 24.1816 130.341 24.111 130.042 24.0969H129.857L130.014 23.5887H134.327L134.17 24.0969H134.071C133.188 24.0969 133.188 24.4639 133.188 24.605C133.188 24.6897 133.217 24.8873 133.345 25.2967L134.313 28.4868L136.334 25.1837C136.619 24.7179 136.676 24.5062 136.676 24.3933C136.676 24.1533 136.263 24.0969 135.921 24.0969H135.736L135.879 23.5887H142.398L142.242 24.0969L142.142 24.111C141.85 24.1247 141.748 24.1923 141.704 24.2218L141.701 24.2239C141.644 24.2804 141.616 24.3509 141.616 24.4497C141.616 24.5485 141.658 24.7462 141.829 25.1555L142.498 26.7364L143.395 25.9177C143.964 25.4096 144.334 25.0285 144.491 24.7744C144.576 24.6473 144.619 24.5345 144.619 24.4356C144.619 24.365 144.591 24.2945 144.52 24.238C144.448 24.1816 144.306 24.1392 144.121 24.1251L143.936 24.111L144.107 23.6028H147.167L147.039 24.0969L146.954 24.111C146.769 24.1392 146.584 24.2098 146.427 24.3086C146.157 24.478 145.687 24.8591 145.046 25.452L142.84 27.4563L144.078 30.3218C144.434 31.1404 144.633 31.4227 144.719 31.5074C144.79 31.5921 144.904 31.6486 145.046 31.705C145.16 31.6627 145.246 31.6204 145.331 31.5639C145.559 31.4086 145.886 31.0698 146.313 30.5617L152.363 23.3911H152.862L152.577 30.4206C152.563 30.7734 152.563 30.9993 152.563 31.0698C152.563 31.3098 152.62 31.4933 152.705 31.5921C152.805 31.6909 152.961 31.7474 153.189 31.7615L153.303 31.7756V31.7615H153.402C153.758 31.7615 154.029 31.6909 154.185 31.5639C154.299 31.4792 154.47 31.2251 154.655 30.5899L156.235 25.212C156.321 24.9156 156.363 24.6897 156.363 24.5203C156.363 24.4074 156.321 24.3086 156.25 24.2521C156.207 24.2239 156.065 24.1533 155.538 24.111L155.367 24.0969L155.524 23.6028H159.994L159.78 24.111H159.68C159.324 24.111 159.068 24.1816 158.897 24.3227C158.712 24.4639 158.556 24.7885 158.399 25.2967L157.744 27.4704H160.549L161.204 25.2261C161.289 24.9156 161.332 24.6756 161.332 24.5203C161.332 24.3933 161.289 24.3086 161.218 24.2521C161.175 24.2239 161.018 24.1533 160.478 24.111L160.307 24.0969ZM150.541 28.7973L150.669 26.6094L148.79 28.7973H150.541ZM127.266 23.6734C128.22 23.6734 128.903 23.7863 129.33 24.0404C129.999 24.4356 130.341 25.0285 130.327 25.8048C130.327 26.5388 129.999 27.2022 129.345 27.7669C128.704 28.3173 127.821 28.5997 126.739 28.5997C126.455 28.5997 126.099 28.5714 125.686 28.515L125.031 30.7452C124.917 31.1404 124.889 31.3239 124.889 31.4086C124.889 31.5639 124.932 31.6627 125.017 31.7333C125.074 31.7756 125.245 31.8462 125.786 31.8603H125.985L125.8 32.3685H121.373L121.529 31.8603H121.629C122.028 31.8603 122.227 31.818 122.312 31.7756C122.426 31.7192 122.526 31.6345 122.611 31.5074C122.654 31.4651 122.725 31.2957 122.91 30.6746L124.476 25.339C124.604 24.9156 124.633 24.7179 124.633 24.6191C124.633 24.5062 124.576 24.4215 124.476 24.3368C124.391 24.2804 124.22 24.2098 123.807 24.1957H123.693H123.622C123.294 24.2098 122.981 24.3086 122.711 24.5062C122.44 24.7038 122.127 25.0849 121.786 25.6496L118.54 30.9852C118.212 31.5216 117.899 31.9168 117.6 32.1709C117.287 32.4391 116.832 32.5802 116.234 32.5802C115.721 32.5802 115.294 32.4532 114.952 32.1991C114.611 31.9309 114.426 31.6062 114.426 31.2251C114.426 30.957 114.525 30.7311 114.711 30.5476C114.896 30.3641 115.123 30.2794 115.408 30.2794C115.807 30.2794 116.305 30.4629 116.419 31.4086C116.476 31.7756 116.632 31.7756 116.703 31.7756C116.832 31.7756 116.945 31.7192 117.059 31.6345C117.187 31.5357 117.373 31.3239 117.615 30.9852L115.963 25.5366C115.75 24.8168 115.579 24.5485 115.479 24.4356C115.351 24.2804 115.123 24.2098 114.824 24.1957H114.682L114.098 26.2424H113.614L113.629 26.0871C113.643 25.9601 113.643 25.8613 113.643 25.7766C113.643 25.3814 113.529 25.0849 113.301 24.8732C113.088 24.6615 112.732 24.5485 112.219 24.5062L110.369 30.7311C110.269 31.0698 110.212 31.3239 110.212 31.4792C110.212 31.578 110.255 31.6627 110.34 31.7333C110.397 31.7756 110.568 31.8462 111.052 31.8603H111.223L111.095 32.3685H106.582L106.753 31.8603H106.853C107.251 31.8603 107.536 31.7897 107.707 31.6486C107.835 31.5498 108.02 31.2957 108.205 30.6464L110.027 24.4921C109.486 24.5345 109.031 24.6615 108.66 24.8873C108.248 25.1414 107.863 25.5648 107.507 26.1436L107.465 26.2142H106.952L107.707 23.6734H114.782H114.824H119.109L118.953 24.1816H118.853C117.97 24.1816 117.97 24.5485 117.97 24.6897C117.97 24.7744 117.999 24.972 118.127 25.3814L119.095 28.5714L121.116 25.2684C121.401 24.8026 121.458 24.5909 121.458 24.478C121.458 24.238 121.045 24.1816 120.704 24.1816H120.519L120.661 23.6734H123.807H123.892H127.266ZM127.038 24.4497H126.853L125.9 27.7669C125.938 27.7696 125.975 27.7723 126.011 27.7749C126.159 27.7859 126.283 27.7951 126.398 27.7951C126.925 27.7951 127.337 27.5551 127.636 27.0752C127.949 26.5812 128.106 26.0589 128.106 25.5225C128.106 25.1837 128.006 24.9156 127.821 24.7321C127.636 24.5345 127.38 24.4497 127.038 24.4497ZM95.7773 23.6734H105.998V24.6615H95.7773V23.6734ZM104.86 27.2022H93.4997V28.4021H104.86V27.2022ZM91.222 31.0134H103.721V32.4249H91.222V31.0134ZM164.369 32.2838H175.728V30.8722H164.369V32.2838ZM178.006 28.3315H164.938V27.1317H178.006V28.3315ZM165.792 24.6615H179.999V23.6734H165.792V24.6615Z" fill="#0380C0"></path><path d="M46.296 32.4814C43.3091 32.4814 41.4369 32.3528 40.5508 32.0813C38.893 31.5668 37.7926 31.1523 37.521 30.2662C37.3067 29.5231 37.764 28.7799 38.5071 27.8795C39.0074 27.2793 39.4504 26.6791 39.8363 26.136C40.7938 24.8069 41.537 23.7636 42.6088 23.5921C42.8947 23.5492 43.0804 23.3205 43.3806 22.9204C43.8093 22.3487 44.3953 21.577 45.7101 21.577C46.0245 21.577 46.6105 21.577 47.3679 21.5627C48.354 21.5484 49.5545 21.5484 50.6407 21.5484C50.6407 21.1339 50.6407 20.6766 50.6407 20.4194C50.6407 19.9477 51.0265 19.5619 51.4839 19.5619H51.8555H25.9163C25.6448 19.5619 25.3875 19.4475 25.1874 19.2474C25.0016 19.0474 24.9016 18.7758 24.9159 18.5043C24.9445 17.9755 25.3875 17.561 25.9306 17.561H54.0706C51.1837 11.8873 45.2956 8 38.4929 8C28.8461 8 21 15.8461 21 25.4929C21 35.1396 28.8461 42.9857 38.4929 42.9857C45.7387 42.9857 51.9841 38.5553 54.628 32.2528C52.3414 32.3671 49.1258 32.4814 46.296 32.4814Z" fill="#E41B21"></path></svg> 