<?xml version="1.0" encoding="UTF-8"?> <svg xmlns="http://www.w3.org/2000/svg" width="200" height="50" viewBox="0 0 200 50" fill="none"><path fill-rule="evenodd" clip-rule="evenodd" d="M36 24.9784H52.0003V28.1733H40.1482V31.6371H48.0383C49.1867 31.5859 50.3346 31.7454 51.4246 32.1078C51.8272 32.2524 52.1965 32.4757 52.5106 32.7645C52.8246 33.0533 53.0772 33.4018 53.2533 33.7893C53.7025 34.7986 53.9056 35.899 53.8459 37.0009C53.8962 38.0388 53.6868 39.0728 53.2363 40.0107C52.838 40.734 52.1786 41.2807 51.3908 41.5408C50.3476 41.8777 49.2532 42.0314 48.1569 41.9948H36.1524L36 24.9784ZM40.0805 34.8486V38.7159H47.141C47.7107 38.7485 48.2821 38.6918 48.8341 38.5478C48.986 38.5058 49.1268 38.4314 49.2467 38.3297C49.3666 38.2281 49.4627 38.1017 49.5283 37.9594C49.6627 37.5704 49.7202 37.1593 49.6976 36.7486C49.658 36.3862 49.5549 36.0334 49.3929 35.7062C49.3337 35.5665 49.246 35.4405 49.1352 35.3363C49.0245 35.2321 48.8931 35.1519 48.7495 35.1009C48.249 34.9585 47.7289 34.8961 47.2087 34.9159L40.0805 34.8486ZM60.1275 41.9276H55.3528L64.3942 24.9784H70.4557L79.4294 41.9276H74.6378L72.4367 37.6566H62.2778L60.1275 41.9276ZM63.9879 34.4451H70.7605L67.5096 28.1564H67.3234L63.9879 34.4451ZM80.6993 41.9276V24.9784H92.3482C93.2787 24.9552 94.2079 25.0627 95.1081 25.2979C95.8016 25.4772 96.4371 25.8303 96.9536 26.3236C97.4465 26.8355 97.8067 27.4588 98.0034 28.1396C98.2453 29.0443 98.3593 29.9781 98.342 30.914C98.3751 32.0991 98.1618 33.2783 97.7155 34.3778C97.3388 35.2341 96.6577 35.9224 95.8023 36.3115C94.7293 36.7489 93.5751 36.9552 92.4159 36.9168H84.7798V41.9611L80.6993 41.9276ZM84.7798 33.5203H91.5524C92.0977 33.5425 92.6411 33.4449 93.144 33.2345C93.3323 33.1573 93.503 33.043 93.6456 32.8985C93.7882 32.754 93.8998 32.5823 93.9736 32.3937C94.1468 31.9083 94.2272 31.3951 94.2107 30.8804C94.2759 30.1811 94.07 29.4835 93.635 28.9298C93.35 28.6889 93.0178 28.5092 92.6593 28.4021C92.3009 28.295 91.924 28.2629 91.5524 28.3077H84.7798V33.5203ZM100.56 41.9276V24.9784H104.607V31.3007H106.96L114.427 24.9784H120.556L110.482 32.915L120.946 41.9276H114.935L107.045 34.6637H104.556V41.9276H100.56ZM126.821 35.7062C126.803 36.2801 126.901 36.8518 127.109 37.3876C127.303 37.7892 127.65 38.0976 128.074 38.2452C128.705 38.4324 129.363 38.512 130.021 38.4806H135.422C136.102 38.5148 136.783 38.4352 137.437 38.2452C137.645 38.181 137.835 38.0725 137.996 37.9272C138.157 37.782 138.284 37.6036 138.368 37.4044C138.555 36.8638 138.641 36.2941 138.622 35.723V31.3848C138.655 30.7427 138.552 30.1009 138.317 29.5016C138.221 29.2932 138.082 29.1067 137.911 28.9534C137.739 28.8002 137.537 28.6835 137.318 28.6105C136.683 28.4176 136.019 28.3323 135.354 28.3582H130.089C129.417 28.327 128.746 28.4181 128.108 28.6272C127.895 28.7041 127.7 28.8226 127.534 28.9757C127.368 29.1288 127.235 29.3133 127.143 29.5184C126.918 30.1266 126.809 30.7708 126.821 31.4185V35.7062ZM142.703 36.1097C142.724 37.0327 142.622 37.9544 142.398 38.8505C142.223 39.486 141.884 40.0655 141.416 40.5319C140.882 41.0219 140.228 41.364 139.52 41.524C138.545 41.7598 137.543 41.8672 136.54 41.8435H128.971C127.99 41.8609 127.01 41.7478 126.059 41.5072C125.335 41.3281 124.667 40.976 124.112 40.4815C123.596 39.9918 123.217 39.3777 123.011 38.6992C122.77 37.8345 122.656 36.9396 122.673 36.0425V30.8972C122.642 29.9164 122.757 28.9363 123.011 27.9882C123.188 27.2907 123.558 26.656 124.078 26.1555C124.617 25.6772 125.27 25.3418 125.974 25.1802C126.958 24.965 127.964 24.869 128.971 24.8944H136.472C137.674 24.85 138.873 25.0267 140.011 25.4156C140.46 25.5802 140.872 25.8313 141.224 26.1545C141.575 26.4776 141.859 26.8665 142.059 27.2989C142.539 28.4539 142.759 29.6993 142.703 30.9476V36.1097ZM164.527 24.9784V41.9276H160.498V28.3414H150.982V35.7062C150.982 39.8089 149.289 41.8602 146.14 41.8602H144.447V38.4973C144.987 38.5368 145.529 38.4384 146.021 38.2115C146.202 38.1054 146.359 37.9644 146.484 37.7969C146.609 37.6294 146.7 37.4388 146.749 37.2362C146.891 36.5847 146.954 35.9185 146.936 35.2521V24.9281H164.527V24.9784Z" fill="#00529C"></path><path fill-rule="evenodd" clip-rule="evenodd" d="M99.5957 20.5732H100.493L100.95 19.4299H102.643L103.101 20.5732H104.015L102.152 16.151H101.492L99.5957 20.5732ZM101.289 18.6395L101.797 17.3449L102.288 18.6395H101.289ZM105.657 20.5732H106.775C108.197 20.5732 108.468 19.8671 108.468 19.2281C108.473 18.9915 108.402 18.7594 108.265 18.5658C108.128 18.3722 107.932 18.2272 107.706 18.1519C107.86 18.0724 107.987 17.9511 108.074 17.8023C108.161 17.6534 108.204 17.4832 108.197 17.3112C108.197 16.151 106.927 16.151 106.639 16.151H105.573L105.657 20.5732ZM106.487 19.783V18.6395H106.961C107.604 18.6395 107.672 19.06 107.672 19.2281C107.672 19.7662 107.063 19.783 106.961 19.783H106.487ZM106.487 17.8493V16.9413H106.859C107.046 16.9413 107.452 16.9413 107.452 17.3953C107.452 17.513 107.452 17.8493 106.859 17.8493H106.487ZM110.381 16.1678V20.5732H111.211L113.192 17.4626V20.5732H114.021V16.151H113.192L111.211 19.2617V16.151L110.381 16.1678ZM115.698 20.5901H116.612L117.069 19.4467H118.762L119.236 20.5901H120.134L118.288 16.1678H117.628L115.698 20.5901ZM117.391 18.6564L117.899 17.3617L118.407 18.6564H117.391ZM121.776 20.5901H122.589V18.6564L123.892 20.5732H124.875L123.181 18.32L124.875 16.151H123.892L122.504 18.0679V16.151H121.691L121.776 20.5901ZM128.853 16.0838C128.545 16.0793 128.238 16.136 127.951 16.2509C127.665 16.3657 127.404 16.5362 127.185 16.7523C126.966 16.9684 126.792 17.2259 126.675 17.5096C126.557 17.7932 126.498 18.0974 126.5 18.4042C126.53 18.993 126.789 19.5473 127.221 19.9514C127.653 20.3556 128.226 20.5784 128.82 20.5732C129.126 20.58 129.431 20.5258 129.716 20.4139C130.002 20.302 130.262 20.1346 130.481 19.9216C130.7 19.7085 130.874 19.4542 130.993 19.1734C131.112 18.8926 131.173 18.5911 131.173 18.2865C131.175 17.9797 131.116 17.6755 130.998 17.3919C130.881 17.1082 130.707 16.8508 130.488 16.6347C130.269 16.4185 130.008 16.2481 129.722 16.1332C129.435 16.0184 129.128 15.9616 128.82 15.9661L128.853 16.0838ZM128.82 19.783C128.619 19.7853 128.42 19.7476 128.234 19.6724C128.048 19.5971 127.879 19.4858 127.737 19.3448C127.595 19.2038 127.483 19.0361 127.407 18.8515C127.331 18.6668 127.293 18.469 127.296 18.2697C127.296 18.0717 127.335 17.8758 127.412 17.6931C127.489 17.5104 127.601 17.3447 127.743 17.2055C127.885 17.0663 128.053 16.9564 128.238 16.8822C128.422 16.808 128.62 16.7709 128.82 16.7731C129.019 16.7686 129.218 16.8041 129.404 16.8775C129.59 16.9509 129.759 17.0607 129.901 17.2004C130.043 17.34 130.156 17.5066 130.232 17.6903C130.308 17.874 130.346 18.0711 130.343 18.2697C130.346 18.469 130.308 18.6668 130.232 18.8515C130.156 19.0361 130.044 19.2038 129.902 19.3448C129.76 19.4858 129.591 19.5971 129.405 19.6724C129.219 19.7476 129.02 19.7853 128.82 19.783V19.783ZM132.985 20.4724H133.814V17.1094L135 20.4724H135.745L136.93 17.1094V20.4724H137.759V16.0501H136.642L135.406 19.413L134.153 16.0501H133.036L132.985 20.4724ZM139.757 20.4724H140.587V16.8405H142.28V20.5732H143.11V16.151H139.825L139.757 20.4724ZM144.718 20.4724H145.633L146.09 19.329H147.783L148.24 20.4724H149.154L147.292 16.0501H146.648L144.718 20.4724ZM146.411 18.5386L146.919 17.244L147.427 18.5386H146.411ZM150.797 20.4724H151.609V18.6228H153.303V20.5732H154.132V16.151H153.303V17.8325H151.609V16.151H150.797V20.4724ZM156.062 16.1173V20.5732H156.892L158.873 17.4626V20.5732H159.703V16.151H158.873L156.892 19.2617V16.151L156.062 16.1173ZM164.528 16.1173H163.241C161.735 16.1173 161.548 17.1263 161.548 17.5635C161.544 17.7349 161.574 17.9054 161.636 18.0653C161.698 18.2252 161.792 18.3712 161.912 18.4948C162.032 18.6184 162.175 18.7171 162.333 18.7853C162.492 18.8534 162.662 18.8896 162.835 18.8918L161.599 20.5732H162.564L163.749 18.8918V20.5732H164.528V16.1173ZM163.699 16.9077V18.2192H163.208C162.564 18.2192 162.395 17.8829 162.395 17.5635C162.395 17.244 162.564 16.9077 163.208 16.9077H163.699Z" fill="#00529C"></path><path fill-rule="evenodd" clip-rule="evenodd" d="M83.2551 7.12131L69.5574 12.1657L66.95 13.0401L65.3923 11.5772C65.0172 11.3503 64.6802 11.0667 64.3933 10.7365C65.5605 10.7686 66.7193 10.5326 67.7796 10.047C67.8788 9.98844 67.9557 9.8991 67.9986 9.79272C68.0414 9.68634 68.0478 9.56889 68.0167 9.45856C68.0167 9.25679 67.7627 9.20636 67.5934 9.15591C65.9002 9.15591 64.3764 9.15592 62.7848 9.05503C62.4462 8.81962 62.2261 8.21422 61.7351 8.44963L60.5837 9.00454L53.3539 9.77804C53.0309 9.77102 52.7126 9.85596 52.4365 10.0228C52.1605 10.1897 51.9383 10.4314 51.7962 10.7197C51.6947 11.1064 52.1349 11.224 52.355 11.3922C54.6238 11.3922 56.8588 11.2913 59.1276 11.3922L61.4811 15.8985C61.2693 16.1177 61.1212 16.3898 61.0527 16.6858C60.9841 16.9819 60.9976 17.2909 61.0917 17.5799H60.4144L37.1335 17.8658C36.9574 17.8742 36.7869 17.9304 36.6407 18.0282C36.4944 18.126 36.3779 18.2617 36.3039 18.4207C36.1105 18.8071 36.0741 19.2527 36.2023 19.665L36.4055 19.7995C46.3274 19.9844 56.3847 20.7075 66.2727 20.6235L97.1051 20.0517L97.3082 19.9172C97.4364 19.5048 97.4 19.0594 97.2067 18.6729C97.1313 18.5115 97.0122 18.3742 96.8627 18.2762C96.7132 18.1782 96.5391 18.1233 96.3601 18.118L77.7354 18.0171L85.4562 16.4702L92.2288 14.587C94.2053 14.0484 95.9412 12.8636 97.1559 11.2241C97.2729 11.0099 97.3343 10.77 97.3343 10.5263C97.3343 10.2826 97.2729 10.0426 97.1559 9.82843C95.6892 8.63169 93.9421 7.82205 92.0764 7.47446C91.3973 6.91965 90.6123 6.50701 89.7684 6.26139C88.9246 6.01577 88.0395 5.94218 87.1663 6.04516C85.8269 6.26131 84.5154 6.62218 83.2551 7.12131" fill="#939598"></path></svg> 