<?xml version="1.0" encoding="UTF-8"?> <svg xmlns="http://www.w3.org/2000/svg" width="200" height="50" viewBox="0 0 200 50" fill="none"><path fill-rule="evenodd" clip-rule="evenodd" d="M48.0632 13.0353C48.8766 12.6576 49.6609 12.1346 50.5614 12.0474C51.4038 11.9893 52.3043 11.9312 53.1176 12.2218C52.9724 12.8029 49.3414 17.5678 48.7895 18.3522C49.0218 18.9333 49.3414 19.4854 49.6028 20.0664C50.6776 22.3908 50.939 25.0638 50.5614 27.5915C49.8933 31.8335 46.9013 35.6396 42.9508 37.3828C42.6022 37.6443 42.0793 37.1214 42.3408 36.7727C42.7184 36.1335 43.2122 35.5524 43.5608 34.8842C45.1875 31.9787 45.9137 27.7077 44.5484 24.5408C43.2413 26.6908 39.6102 31.1652 38.4483 32.7341C37.1412 34.3902 35.863 36.1045 34.062 37.2666C32.0287 38.6322 29.3853 39.3876 27.0034 38.6322C27.7586 38.3707 28.5139 38.1092 29.2691 37.7896C29.6467 37.6153 30.0825 37.441 30.3148 37.0923C28.3396 37.3828 26.3352 37.6443 24.3309 37.441C22.5009 36.4531 20.2642 32.1821 20.2642 30.2936C22.7042 30.8747 25.2895 31.0199 27.7296 30.4098C29.7629 29.8868 31.7672 29.0733 33.452 27.7659C36.5311 25.703 38.9421 22.8557 41.4403 20.1827C43.1832 18.207 44.897 16.2022 46.727 14.3137C47.1047 13.8198 47.5694 13.3839 48.0632 13.0353ZM30.7796 14.0813C29.9663 14.5461 29.2982 15.2434 28.3977 15.563C23.4595 17.3644 19.8866 22.4489 20.0028 27.7077C21.8909 29.3348 26.1319 30.1774 28.4848 29.5382C23.3142 27.0976 25.4348 20.4732 28.3396 16.9576C28.7753 16.4637 29.182 15.8245 29.8791 15.7373C32.7549 15.2144 35.834 15.5921 38.4193 16.9867C39.6102 17.5968 40.6269 18.4685 41.6146 19.3691C42.5151 18.1779 44.2289 15.563 44.1418 14.0231C42.486 13.0643 40.5979 12.4833 38.7098 12.2799C35.9502 12.0184 33.1325 12.6866 30.7796 14.0813Z" fill="#E31E25"></path><path fill-rule="evenodd" clip-rule="evenodd" d="M62.4125 14.0225C64.1263 13.9644 65.8692 13.9934 67.5831 13.9934C68.135 13.9353 68.7159 14.4583 68.5707 15.0103C68.3674 16.0853 67.9607 17.1313 67.5831 18.1772C66.4792 21.5475 65.2883 24.8597 64.1844 28.23C63.9811 28.9274 63.7487 29.828 64.2716 30.4382C65.1721 31.1064 66.4211 31.0483 67.4669 30.874C68.5126 30.7287 69.1807 29.7699 69.5293 28.8692C70.8365 25.0922 72.1436 21.3442 73.4508 17.5671C73.9156 16.3759 74.206 15.1556 74.758 13.9934C76.9366 14.0225 79.1152 13.9644 81.2938 14.0225C79.609 18.8455 77.9533 23.6976 76.2685 28.5496C75.8618 29.6247 75.4551 30.6997 74.8451 31.6585C73.6832 33.5179 71.6208 34.7673 69.4422 34.8835C67.1764 34.9997 64.9397 34.9126 62.6739 34.9416C61.0472 34.9997 59.3334 34.2443 58.4329 32.8206C57.5615 31.4841 57.2129 29.799 57.5905 28.23C57.881 27.0098 58.3458 25.8766 58.7524 24.6854C60.0306 21.1408 61.4249 17.6252 62.4125 14.0225ZM81.7586 13.9934C83.1238 14.0225 84.4891 13.9062 85.8253 14.0515C86.7548 14.284 86.8129 15.359 86.842 16.1434C86.8129 17.6252 87.1034 19.0779 87.0744 20.5306C87.3068 23.2908 87.3939 26.051 87.6263 28.8111C90.6763 23.93 93.494 18.8745 96.515 13.9644C98.7808 13.9934 101.017 13.9353 103.283 13.9934C100.175 19.2813 96.9507 24.482 93.8135 29.7409C92.7678 31.4841 91.7511 33.4308 89.892 34.4186C88.5268 35.2031 86.9001 35.2031 85.3896 35.0578C84.1986 34.9126 82.8914 34.3896 82.3395 33.2274C81.7876 32.1814 81.9619 30.9902 81.9038 29.8571C81.6714 26.7483 81.6424 23.6395 81.439 20.5306C81.2938 18.3225 81.6714 16.1725 81.7586 13.9934ZM103.748 14.1968C103.341 15.5914 102.848 16.957 102.528 18.3516C104.038 18.4097 105.549 18.2935 107.03 18.4097C105.462 22.9422 103.893 27.4456 102.325 31.9781C102.121 32.6754 101.773 33.4889 102.179 34.1862C102.499 34.7382 103.167 34.9126 103.777 34.9126C105.142 34.8835 106.508 34.9126 107.873 34.8835C109.848 29.4213 111.707 23.9009 113.595 18.4097C115.309 18.2644 117.052 18.4678 118.737 18.3225C119.376 18.2644 119.724 17.6833 119.986 17.1603C120.451 16.1725 120.683 15.0975 120.945 14.0515C120.712 13.9934 120.48 13.9644 120.218 13.9644C114.902 13.9644 109.616 13.9644 104.3 13.9644C104.155 13.9934 103.777 13.9062 103.748 14.1968ZM125.592 22.5935C126.928 22.332 128.265 22.4192 129.601 22.3901C131.663 22.3901 133.755 22.3611 135.817 22.3901C136.282 22.3611 136.747 22.9131 136.543 23.378C135.585 26.2834 134.539 29.1307 133.551 32.0362C133.203 32.9369 132.97 33.8666 132.564 34.7673C131.344 33.8666 130.124 32.9369 128.846 32.1233C128.497 32.995 128.207 33.8666 127.887 34.7673C126.318 34.7673 124.75 34.7673 123.181 34.7673C121.787 34.7963 120.451 33.9247 119.841 32.6754C118.708 30.0895 119.26 26.8354 121.177 24.7726C122.368 23.5523 123.966 22.884 125.592 22.5935ZM126.522 25.4699C124.546 26.051 123.559 28.2591 123.646 30.2057C123.617 31.1355 124.517 31.8618 125.389 31.92C126.551 32.0071 127.713 32.0071 128.875 31.949C129.659 29.6828 130.443 27.3875 131.228 25.1212C129.659 25.1793 128.032 24.9469 126.522 25.4699ZM142.382 22.7388C143.951 22.2739 145.577 22.4482 147.175 22.4192C148.511 22.3901 149.935 22.7678 150.893 23.7557C152.055 25.005 152.026 26.9226 151.619 28.4915C151.445 29.0436 151.271 29.6828 150.777 30.0314C150.225 30.2639 149.586 30.1767 149.005 30.2057C146.507 30.2057 144.009 30.2057 141.511 30.2057C141.482 31.0774 142.15 31.8909 143.021 31.9781C145.461 32.0943 147.582 32.0362 149.993 32.0362C149.847 32.7625 149.557 33.4598 149.179 34.1281C148.976 34.5348 148.54 34.7963 148.075 34.7673C146.304 34.7963 144.532 34.7673 142.76 34.7673C141.859 34.7382 140.901 34.8544 140.029 34.4767C138.635 34.0119 137.589 32.7625 137.241 31.3389C136.863 29.3922 137.182 27.3003 138.315 25.6442C139.216 24.1334 140.755 23.2036 142.382 22.7388ZM143.776 25.4989C142.847 25.9057 142.353 26.8354 141.946 27.7071C143.631 27.7361 145.287 27.7652 146.972 27.7071C147.436 27.4165 147.32 26.8354 147.32 26.3706C147.378 25.7314 146.797 25.2374 146.216 25.1503C145.403 25.0922 144.532 25.1212 143.776 25.4989ZM156.267 23.5814C157.138 22.7388 158.388 22.4192 159.579 22.3901C161.321 22.3611 163.064 22.3901 164.807 22.3901C164.691 23.2908 164.371 24.1915 163.791 24.8888C162.774 25.528 161.467 24.8016 160.421 25.3537C159.956 25.557 159.782 26.08 159.608 26.4868C158.678 29.2179 157.69 31.949 156.79 34.7092C155.483 34.7382 154.147 34.7382 152.839 34.7092C152.404 34.7092 152.142 34.1571 152.258 33.7794C152.985 31.397 153.856 29.0726 154.669 26.7483C155.047 25.6152 155.425 24.453 156.267 23.5814ZM170.472 22.4482C168.787 22.6516 167.073 23.3199 165.882 24.5983C164.865 25.6442 164.284 27.0679 164.052 28.4915C163.732 29.8571 163.907 31.3389 164.575 32.5591C165.446 34.0409 167.276 34.7092 168.932 34.7092C170.472 34.7092 171.982 34.7382 173.522 34.6801C175.061 34.4186 176.63 33.8956 177.734 32.7625C179.244 31.3679 179.912 29.276 179.999 27.2713C179.941 26.08 179.564 24.8016 178.663 23.9591C177.559 22.884 175.962 22.4192 174.451 22.3901C173.115 22.3901 171.779 22.332 170.472 22.4482ZM171.227 25.2665C172.302 25.1212 173.551 24.9469 174.509 25.557C175.526 26.2544 175.497 27.649 175.206 28.6949C174.8 30.0024 174.161 31.4551 172.766 31.92C171.75 32.0943 170.704 32.0943 169.687 31.949C168.642 31.6875 168.235 30.4672 168.351 29.5084C168.496 28.3753 168.845 27.1841 169.6 26.3125C169.978 25.7604 170.588 25.4699 171.227 25.2665Z" fill="#27386E"></path></svg> 