<?xml version="1.0" encoding="UTF-8"?> <svg xmlns="http://www.w3.org/2000/svg" width="415" height="230" viewBox="0 0 415 230" fill="none"><rect width="415" height="230" rx="30" fill="white"></rect><rect x="335" y="19" width="60" height="60" rx="10" fill="#043DFF"></rect><path d="M358.25 47.5C356.8 47.5 355.563 46.9875 354.538 45.9625C353.513 44.9375 353 43.7 353 42.25C353 40.8 353.513 39.5625 354.538 38.5375C355.563 37.5125 356.8 37 358.25 37C359.7 37 360.938 37.5125 361.963 38.5375C362.988 39.5625 363.5 40.8 363.5 42.25C363.5 43.7 362.988 44.9375 361.963 45.9625C360.938 46.9875 359.7 47.5 358.25 47.5ZM358.25 44.5C358.875 44.5 359.406 44.2815 359.844 43.8445C360.282 43.4075 360.501 42.876 360.5 42.25C360.499 41.624 360.28 41.093 359.844 40.657C359.408 40.221 358.877 40.002 358.25 40C357.623 39.998 357.092 40.217 356.657 40.657C356.222 41.097 356.003 41.628 356 42.25C355.997 42.872 356.216 43.4035 356.657 43.8445C357.098 44.2855 357.629 44.504 358.25 44.5ZM371.75 61C370.3 61 369.062 60.4875 368.037 59.4625C367.012 58.4375 366.5 57.2 366.5 55.75C366.5 54.3 367.012 53.0625 368.037 52.0375C369.062 51.0125 370.3 50.5 371.75 50.5C373.2 50.5 374.438 51.0125 375.463 52.0375C376.488 53.0625 377 54.3 377 55.75C377 57.2 376.488 58.4375 375.463 59.4625C374.438 60.4875 373.2 61 371.75 61ZM371.75 58C372.375 58 372.906 57.7815 373.344 57.3445C373.782 56.9075 374.001 56.376 374 55.75C373.999 55.124 373.78 54.593 373.344 54.157C372.908 53.721 372.377 53.502 371.75 53.5C371.123 53.498 370.592 53.717 370.157 54.157C369.722 54.597 369.503 55.128 369.5 55.75C369.497 56.372 369.716 56.9035 370.157 57.3445C370.598 57.7855 371.129 58.004 371.75 58ZM354.05 59.95C353.775 59.675 353.638 59.325 353.638 58.9C353.638 58.475 353.775 58.125 354.05 57.85L373.85 38.05C374.125 37.775 374.475 37.6375 374.9 37.6375C375.325 37.6375 375.675 37.775 375.95 38.05C376.225 38.325 376.363 38.675 376.363 39.1C376.363 39.525 376.225 39.875 375.95 40.15L356.15 59.95C355.875 60.225 355.525 60.3625 355.1 60.3625C354.675 60.3625 354.325 60.225 354.05 59.95Z" fill="white"></path></svg> 