<?xml version="1.0" encoding="UTF-8"?> <svg xmlns="http://www.w3.org/2000/svg" width="41" height="36" viewBox="0 0 41 36" fill="none"><path d="M0 31.5V20.25C0 19.0565 0.479959 17.9119 1.33429 17.068C2.18862 16.2241 3.34735 15.75 4.55556 15.75V9C4.55556 6.61305 5.51547 4.32387 7.22414 2.63604C8.9328 0.948211 11.2502 0 13.6667 0H27.3333C29.7497 0 32.0672 0.948211 33.7759 2.63604C35.4845 4.32387 36.4444 6.61305 36.4444 9V15.75C37.6527 15.75 38.8114 16.2241 39.6657 17.068C40.52 17.9119 41 19.0565 41 20.25V31.5C41 32.6935 40.52 33.8381 39.6657 34.682C38.8114 35.5259 37.6527 36 36.4444 36C35.2362 36 34.0775 35.5259 33.2232 34.682C32.3688 33.8381 31.8889 32.6935 31.8889 31.5H9.11111C9.11111 32.6935 8.63115 33.8381 7.77682 34.682C6.92249 35.5259 5.76376 36 4.55556 36C3.34735 36 2.18862 35.5259 1.33429 34.682C0.479959 33.8381 0 32.6935 0 31.5ZM13.6667 4.5C12.4585 4.5 11.2997 4.97411 10.4454 5.81802C9.59107 6.66193 9.11111 7.80653 9.11111 9V15.75H31.8889V9C31.8889 7.80653 31.4089 6.66193 30.5546 5.81802C29.7003 4.97411 28.5415 4.5 27.3333 4.5H13.6667ZM6.83333 24.75C7.43744 24.75 8.0168 24.5129 8.44396 24.091C8.87113 23.669 9.11111 23.0967 9.11111 22.5C9.11111 21.9033 8.87113 21.331 8.44396 20.909C8.0168 20.4871 7.43744 20.25 6.83333 20.25C6.22923 20.25 5.64987 20.4871 5.2227 20.909C4.79554 21.331 4.55556 21.9033 4.55556 22.5C4.55556 23.0967 4.79554 23.669 5.2227 24.091C5.64987 24.5129 6.22923 24.75 6.83333 24.75ZM34.1667 24.75C34.7708 24.75 35.3501 24.5129 35.7773 24.091C36.2045 23.669 36.4444 23.0967 36.4444 22.5C36.4444 21.9033 36.2045 21.331 35.7773 20.909C35.3501 20.4871 34.7708 20.25 34.1667 20.25C33.5626 20.25 32.9832 20.4871 32.556 20.909C32.1289 21.331 31.8889 21.9033 31.8889 22.5C31.8889 23.0967 32.1289 23.669 32.556 24.091C32.9832 24.5129 33.5626 24.75 34.1667 24.75Z" fill="#F4F5F6"></path></svg> 