<?xml version="1.0" encoding="UTF-8"?> <svg xmlns="http://www.w3.org/2000/svg" width="200" height="50" viewBox="0 0 200 50" fill="none"><path fill-rule="evenodd" clip-rule="evenodd" d="M111.555 27.9262V37.7307H115.233V27.9262V18.6597L111.555 19.7657V27.9262ZM95.4067 34.9208C94.5694 34.9208 94.1806 34.4425 94.1806 33.486V28.0756H97.4701L98.2177 25.1761H94.1806V20.7521L90.5023 21.8581V25.1761H88.1398V28.0756H90.5023V34.8909C90.5023 36.6247 91.3995 37.9997 93.7918 37.9997C95.0777 37.9997 96.9916 37.6111 98.457 36.535L97.5 34.2632C97.0216 34.5621 96.1842 34.9208 95.4067 34.9208ZM76.6563 24.5485C75.3106 24.5485 74.2938 25.1463 73.1276 26.1626L72.7089 24.8474H69.5988V37.7308H73.2771V28.7333C74.1742 27.986 74.8919 27.717 75.6695 27.717C75.9984 27.717 76.6264 27.8067 77.2843 28.1953L78.63 25.1463C78.0618 24.7278 77.2843 24.5485 76.6563 24.5485ZM53.5998 24.8474L50.6094 33.0975H50.5496L47.4993 24.8474H43.7313L49.144 37.7906H51.7757L57.1884 24.8474H53.5998ZM83.6242 27.3882C82.5776 27.3882 81.9795 27.6871 81.9795 28.2849C81.9795 28.9798 82.8951 29.3067 84.017 29.7073C85.7908 30.3406 88.08 31.158 88.08 33.9046C88.08 36.8639 85.4484 37.9998 82.6972 37.9998C80.4842 37.9998 78.8395 37.4617 77.6134 36.7145L78.7497 34.0541C79.8263 34.8014 81.1122 35.2497 82.3383 35.2497C83.5943 35.2497 84.4017 34.8313 84.4017 34.084C84.4017 33.2437 83.4091 32.8847 82.2326 32.4591C80.5212 31.8401 78.4208 31.0804 78.4208 28.4942C78.4208 26.1327 80.3347 24.5485 83.4747 24.5485C85.1793 24.5485 86.3755 24.7876 87.452 25.2061V28.255C86.2558 27.7768 85.0297 27.3882 83.6242 27.3882ZM99.384 25.9534C101.148 24.8175 102.853 24.5485 104.587 24.5485C108.027 24.5485 109.911 25.9235 109.911 29.3312V37.7308H107.04L106.471 36.5949C105.604 37.3721 104.468 37.9998 102.823 37.9998C100.371 37.9998 98.5168 36.3557 98.5168 33.785C98.5168 31.0649 100.73 29.66 103.989 29.5404L106.172 29.4806V29.2415C106.172 27.8963 105.066 27.3284 103.81 27.3284C102.494 27.3284 101.358 27.6871 100.491 28.1953L99.384 25.9534ZM104.139 35.1302C105.126 35.1302 105.784 34.8014 106.143 34.5323V31.9019L104.528 31.9616C102.943 31.9915 102.195 32.5595 102.195 33.516C102.195 34.5025 102.883 35.1302 104.139 35.1302ZM26.0575 22.5755C24.7118 22.5755 23.8446 23.1733 23.8446 24.2195C23.8446 25.5291 25.2405 26.2384 26.8447 27.0536C29.0122 28.155 31.56 29.4496 31.56 32.6789C31.56 35.9372 28.6891 37.9997 25.0109 37.9997C22.4091 37.9997 20.555 37.1328 19 36.2062L20.6448 33.1273C21.8709 33.9643 23.6352 34.9208 24.8015 34.9208C25.9678 34.9208 27.493 34.5322 27.493 33.1572C27.493 31.8122 26.1153 31.0975 24.526 30.273C23.325 29.6499 22.0031 28.9641 21.0634 27.8962C20.4055 27.0892 19.927 26.1027 19.927 24.6978C19.927 21.9776 22.0802 19.5863 26.0276 19.5863C27.9415 19.5863 29.5265 20.0646 30.5432 20.6923L30.5133 24.1C28.9882 23.2929 27.5229 22.5755 26.0575 22.5755ZM62.4815 24.5485C58.6238 24.5485 56.4706 27.717 56.4706 31.3339C56.4706 34.7117 58.3546 37.9699 62.96 37.9699C64.4851 37.9699 66.2495 37.5813 68.0438 36.4753L67.2064 34.1437C65.771 34.8014 64.8141 35.0405 63.5581 35.0405C61.8535 35.0405 60.2386 34.0242 60.1489 32.2905H68.4624V31.1845C68.4624 27.1789 66.0103 24.5485 62.4815 24.5485ZM60.0592 29.7795C60.0592 28.6137 60.9264 27.2387 62.3918 27.2387C63.9468 27.2387 64.6346 28.554 64.7243 29.7795H60.0592ZM32.4572 31.3339C32.4572 27.717 34.6103 24.5485 38.4681 24.5485C41.9968 24.5485 44.449 27.1789 44.449 31.1845V32.2905H36.1355C36.2252 34.0242 37.8401 35.0405 39.5446 35.0405C40.8006 35.0405 41.7576 34.8014 43.193 34.1437L44.0303 36.4753C42.2361 37.5813 40.4717 37.9699 38.9465 37.9699C34.3412 37.9699 32.4572 34.7117 32.4572 31.3339ZM38.3484 27.2387C36.8831 27.2387 36.0458 28.6137 36.0458 29.7795H40.7109C40.6212 28.554 39.9334 27.2387 38.3484 27.2387Z" fill="#002F6C"></path><path fill-rule="evenodd" clip-rule="evenodd" d="M132.877 3.41513C132.758 2.45859 132.518 1.50205 131.95 0.934107C131.382 0.366161 130.395 0.127026 129.438 0.0373501C128.511 -0.0224337 127.465 -0.0224337 126.298 0.127026C126.567 0.216701 126.777 0.366161 126.956 0.51562C127.524 1.05367 127.794 1.95043 127.913 2.8173C128.003 3.47492 128.033 4.16243 128.003 4.93962C127.973 6.16519 127.764 7.57011 127.345 9.18427C127.076 10.2006 126.777 11.1272 126.448 11.9343V11.9642C127.076 12.3528 127.704 12.6517 128.272 12.9208C129.079 13.2496 130.006 13.4588 130.724 13.2197C130.963 13.1599 131.173 13.0403 131.382 12.8909L131.412 12.861C131.681 12.1137 131.92 11.3066 132.16 10.4098C132.518 9.00492 132.758 7.71957 132.847 6.55378C132.967 5.388 132.967 4.34178 132.877 3.41513ZM127.734 14.1762C127.136 13.9371 126.508 13.6382 125.85 13.2197C124.803 12.5621 123.697 11.6952 122.5 10.5294C121.753 9.78212 121.095 9.06471 120.557 8.34731C119.899 8.70601 119.331 9.06471 118.822 9.45331C118.134 9.99136 117.506 10.649 117.327 11.4262C117.267 11.6653 117.267 11.9044 117.297 12.1735V12.2034C117.805 12.8012 118.374 13.4289 119.032 14.0567C120.078 15.1029 121.095 15.9398 122.052 16.5975C123.009 17.285 123.906 17.7931 124.743 18.1817C125.611 18.5703 126.597 18.8394 127.375 18.6301C128.123 18.391 128.84 17.6736 129.379 16.8964C129.917 16.1192 130.425 15.2224 130.904 14.1463L130.904 14.1463C130.664 14.2958 130.425 14.4453 130.186 14.505C129.468 14.7442 128.541 14.5349 127.734 14.1762ZM119.749 7.21129C119.061 7.56999 118.493 7.95858 117.985 8.34718C117.267 8.88523 116.639 9.57275 116.46 10.32C116.43 10.5592 116.4 10.8282 116.43 11.0972C115.742 10.1706 115.234 9.27383 114.815 8.43685C114.426 7.56999 114.127 6.58356 114.336 5.80637C114.516 5.02918 115.263 4.31177 116.041 3.74383C116.789 3.20577 117.686 2.69761 118.732 2.21934C119.809 1.71118 121.035 1.2628 122.441 0.874207C123.308 0.635072 124.145 0.455721 124.923 0.306261H124.953C125.192 0.425829 125.401 0.545396 125.581 0.694856C126.149 1.23291 126.418 2.12967 126.538 2.99653C126.597 3.62426 126.657 4.31177 126.627 5.05907H126.597C125.73 5.17864 124.803 5.35799 123.756 5.65691C122.171 6.10529 120.856 6.64334 119.749 7.21129Z" fill="#002F6C"></path><path fill-rule="evenodd" clip-rule="evenodd" d="M167.416 24.3096H169.27V26.1629H167.416V24.3096ZM167.476 27.7172H169.181V37.7908H167.476V27.7172ZM148.068 34.3233H154.049L155.424 37.7907H157.278L152.015 24.8476H150.191L144.928 37.7907H146.692L148.068 34.3233ZM151.088 26.7606L153.451 32.7988H148.666L151.088 26.7606ZM158.564 27.7173H156.74L160.807 37.7909H162.123L166.22 27.7173H164.545L161.525 35.549L158.564 27.7173ZM179.587 31.3341C179.587 28.6737 178.062 27.5378 175.52 27.5378C173.188 27.5378 171.603 28.6139 171.244 30.7362L172.829 30.9754C172.948 29.5704 173.995 28.8829 175.49 28.8829C177.045 28.8829 178.002 29.6003 178.002 31.4536V31.6629L174.533 31.9917C172.081 32.2308 170.885 33.2471 170.885 35.0706C170.885 36.8641 172.201 37.9701 174.324 37.9701C175.939 37.9701 177.285 37.2527 178.032 36.0271V36.1467C178.032 37.3423 178.6 37.9103 179.827 37.9103C180.036 37.9103 180.335 37.8804 180.544 37.8206L180.604 36.6249C180.577 36.6249 180.532 36.631 180.483 36.6376C180.422 36.6458 180.354 36.6548 180.305 36.6548C179.856 36.6548 179.587 36.4157 179.587 35.8178V31.3341ZM178.032 33.5461C178.032 35.2798 176.507 36.6249 174.533 36.6249C173.218 36.6249 172.5 36.0271 172.5 34.9809C172.5 33.9646 173.248 33.3966 174.803 33.2471L178.032 32.9183V33.5461Z" fill="#002F6C"></path></svg> 