<?xml version="1.0" encoding="UTF-8"?> <svg xmlns="http://www.w3.org/2000/svg" width="200" height="50" viewBox="0 0 200 50" fill="none"><path d="M40.7389 37.4162C41.5329 37.6901 43.2578 37.4162 43.7506 37.2793L44.0244 39.3059L45.9409 39.3607L47.9943 40.1001L49.3906 39.8263L50.1298 39.2511L50.65 39.3607L50.9512 38.813L52.2927 38.8951C52.676 37.9092 53.0046 37.3067 51.3071 36.5398C50.5952 36.2112 50.2667 35.6908 50.2667 35.6908C50.2667 35.636 50.4857 31.9936 50.2119 31.5006C50.0203 31.1719 49.6917 30.1312 49.6917 30.1312L50.2393 29.1727L50.7321 29.2001L51.4714 31.9388C51.4714 31.9388 52.895 34.5132 52.8677 34.7323C52.8403 34.9514 52.9224 35.8004 52.9224 35.8004C52.9224 35.8004 54.5651 37.4984 55.277 37.6627C55.9888 37.827 58.5624 37.1697 58.9457 37.1423C59.329 37.115 60.5063 35.28 60.6706 34.5953C60.8348 33.9107 60.6979 31.2815 60.6432 31.035C60.5884 30.7885 59.8492 29.1179 59.8492 29.1179C60.5884 27.9677 60.9444 27.3925 62.2038 26.7626C62.2038 26.7626 63.162 29.8026 63.2715 30.9529C63.3537 32.1031 63.4906 33.1712 63.4906 33.1712L64.8321 34.787C64.8321 34.787 65.4344 37.7996 65.2702 38.32C65.1333 38.813 66.4201 39.5798 66.4201 39.5798C66.4201 39.5798 67.7616 40.018 68.5556 40.374C70.8554 41.3873 70.0341 40.4836 71.5399 40.3466C71.841 40.3192 72.6898 40.3192 72.8814 40.1549C73.648 39.4429 72.4708 39.6893 74.661 39.3333C74.661 39.3333 75.0717 38.32 74.6884 37.9092C73.7028 36.7863 71.5673 36.4577 71.4577 35.8551L71.2661 28.1046C71.2661 28.1046 70.0067 25.585 69.9519 25.0372C69.8972 24.4895 69.6508 22.8189 69.6508 22.8189C69.6508 22.8189 70.1162 21.8056 70.3078 21.6412C70.4721 21.4769 72.0601 20.5731 72.0601 20.5731C72.0601 20.5731 72.8267 18.9025 73.429 18.4369C74.1408 17.8892 75.7288 17.807 75.9478 17.6701C75.9478 17.6701 77.7274 15.7256 78.3571 15.4791C78.9869 15.2326 80.6022 14.9588 80.6022 14.9588L82.108 14.3015L82.0806 13.5894L81.6973 13.3703C81.6973 13.3703 83.0115 12.5213 83.3127 12.001C83.7781 11.1794 83.8603 10.5221 82.9841 10.1934C82.4913 10.0017 81.6152 9.5909 81.6152 9.5909C81.6152 9.5909 79.4523 9.34442 79.1785 9.26226C78.9047 9.1801 78.7952 8.57758 78.5488 8.44065C78.3572 8.3311 77.9191 8.30371 77.3715 8.30371C76.7144 8.30371 75.8931 8.35848 75.1812 8.41326C74.3599 8.46803 73.6754 8.5502 73.5659 8.52281C73.2647 8.44065 71.5673 8.49542 71.5673 8.49542C71.5673 8.49542 69.4865 9.07055 68.7746 9.15271C67.1319 9.28964 64.3393 10.8781 63.3537 10.9603C63.1346 10.9603 57.9327 11.4806 57.1661 11.508C56.4269 11.5354 53.7164 10.4125 52.9498 10.3304C52.1832 10.2482 50.0203 10.2756 49.0073 10.3577C46.9813 10.5221 44.216 12.2201 42.9566 13.2334C42.9566 13.2334 39.2057 16.4377 38.8224 18.9299C38.4391 21.4495 38.7677 24.3252 38.7677 24.3252L40.0271 28.7071L37.1523 29.1453C37.1797 29.9395 37.8368 35.6087 38.7403 36.4851C38.7677 36.4303 40.2187 37.2245 40.7389 37.4162Z" fill="white"></path><path fill-rule="evenodd" clip-rule="evenodd" d="M64.2934 11.7864C64.2386 11.3471 64.266 10.9628 64.4579 10.6059C64.5402 10.4412 65.1983 9.97447 65.4999 10.3314C64.8418 11.1275 64.8692 11.8962 64.9515 12.8845C64.9636 12.9877 64.9811 13.0923 64.9983 13.1952L64.9983 13.1952C65.059 13.5577 65.1162 13.9 64.9241 14.0924C64.8418 14.2022 64.8418 14.7238 64.9515 14.8611C65.0436 15.0087 65.0243 15.1067 64.9934 15.2634C64.9783 15.3399 64.9605 15.4303 64.9515 15.5474C64.9515 15.6846 64.4305 15.1356 64.4031 14.8336C64.3619 14.3381 64.3551 13.8358 64.3482 13.3265V13.3265C64.3414 12.8199 64.3344 12.3066 64.2934 11.7864ZM54.3951 17.2494C54.5042 16.4661 54.9756 15.7795 55.4246 15.1255C55.6522 14.7938 55.8742 14.4705 56.0402 14.1472C56.1773 13.9002 56.0951 12.6648 55.8483 12.6648C55.5198 12.6854 55.468 13.0599 55.4167 13.4312C55.3995 13.5558 55.3823 13.68 55.3547 13.7904C55.2958 14.0145 55.1357 14.2589 54.9765 14.5018C54.7653 14.8242 54.5557 15.1439 54.587 15.4101C54.613 15.6834 54.5589 15.9382 54.5006 16.2126C54.436 16.5169 54.3662 16.8452 54.3951 17.2494ZM63.4983 22.7675C63.3886 23.0146 63.1144 23.4264 63.1418 22.795C63.1734 22.2735 63.7136 21.9977 64.224 21.737C64.6004 21.5448 64.9606 21.3609 65.0886 21.0929C65.1147 21.0209 65.1424 20.9271 65.1732 20.8229C65.2714 20.4902 65.4007 20.0522 65.6095 19.885C65.7055 19.8064 65.8514 19.7528 65.9846 19.7039C66.27 19.599 66.497 19.5156 66.0482 19.2536C65.8563 19.1438 65.8015 17.9633 65.8289 17.2495C65.8715 17.6764 66.1351 18.0147 66.3983 18.3525C66.6429 18.6665 66.887 18.9799 66.9531 19.3634C67.0353 19.9124 65.0886 21.5047 64.5402 21.7518C63.8547 22.0263 63.745 22.2185 63.4983 22.7675ZM54.6718 35.5658C54.9596 35.7956 55.3699 36.1233 55.821 36.1369C57.4387 36.1919 58.371 35.835 59.2484 34.5172C59.5774 33.9956 58.9742 33.3093 58.5903 33.0897C58.1512 32.831 58.3205 32.7491 58.611 32.6084C58.9372 32.4505 59.4161 32.2187 59.3581 31.5798C59.309 30.9764 59.2492 30.5649 59.2039 30.2527C59.0717 29.3432 59.062 29.2762 59.7968 27.7638C60.3685 26.5654 60.4396 26.5441 60.8142 26.4317C61.0145 26.3716 61.3016 26.2855 61.7984 25.9794C61.9997 25.8567 62.1815 25.7088 62.358 25.5652L62.358 25.5652L62.358 25.5652C62.7343 25.259 63.0866 24.9724 63.5532 24.9911C63.3576 25.1869 63.2296 25.4263 63.1044 25.6604C62.9311 25.9843 62.7632 26.2983 62.429 26.4736C61.9629 26.6932 61.0306 27.6266 60.729 28.0933C60.6459 28.2228 60.4786 28.343 60.3038 28.4686C59.9601 28.7155 59.5876 28.9832 59.7694 29.3836C60.261 30.5247 60.3155 31.4835 60.3782 32.5869V32.5869L60.3783 32.587C60.3925 32.8374 60.4071 33.0952 60.4274 33.3642C60.4783 34.0266 59.9834 34.6996 59.6051 35.214C59.372 35.531 59.1831 35.7878 59.1936 35.9448C58.5323 37.0635 57.359 36.967 56.1941 36.8713C55.9583 36.8519 55.7228 36.8325 55.492 36.8233C54.9436 36.8233 54.313 36.082 54.2581 35.5879C54.2169 35.2025 54.3824 35.3347 54.6718 35.5658ZM39.2598 35.9449C39.0405 35.6429 38.9856 35.4233 39.205 35.4508C41.525 35.233 39.9151 32.5799 38.8581 30.8382C38.3161 29.9451 37.9196 29.2916 38.2727 29.3288C38.1996 29.2556 38.3216 29.2448 38.5387 29.2258H38.5387H38.5388L38.5389 29.2258L38.5389 29.2257C38.7288 29.2091 38.9913 29.186 39.2598 29.1092C39.703 28.9797 40.0094 28.9499 40.1539 28.9359C40.2239 28.9291 40.2559 28.926 40.2469 28.917C40.2195 28.8621 40.713 29.219 40.905 29.4935C41.0454 29.6944 41.2483 29.9027 41.4518 30.1116L41.4519 30.1116C41.8045 30.4736 42.1589 30.8374 42.1937 31.1681L42.3033 32.3761C42.3238 32.6939 42.3711 32.962 42.4151 33.2118C42.489 33.6307 42.5537 33.9981 42.4678 34.4625C42.3098 35.3329 42.6927 35.7186 43.2063 36.236L43.2063 36.236C43.4055 36.4366 43.6243 36.6571 43.8388 36.9332C43.2779 37.2702 42.5334 37.2763 41.7857 37.2824H41.7855C41.6194 37.2838 41.4532 37.2851 41.2888 37.2901C40.6034 37.345 39.6437 36.4665 39.2598 35.9449ZM41.3985 27.517C41.4912 27.4242 41.421 27.3565 41.3065 27.246C41.2516 27.1931 41.1865 27.1303 41.1243 27.0503C41.0919 27.0015 41.0613 26.9552 41.0318 26.9107L41.0317 26.9105L41.0315 26.9103C40.8619 26.6539 40.7313 26.4564 40.5211 26.1992C39.6437 25.2109 39.5066 24.3873 39.3969 22.8774C39.299 23.4854 39.369 24.0374 39.4369 24.5733L39.4369 24.5733C39.4641 24.7876 39.491 24.9992 39.5066 25.2109C39.5615 25.7325 40.0002 27.4071 40.3018 27.8738C40.8037 28.6636 40.8603 28.5263 41.0079 28.1677C41.086 27.9779 41.1897 27.726 41.3985 27.517ZM51.1597 26.0344C50.4295 26.0896 50.2531 26.3873 50.0774 26.6839C49.9035 26.9776 49.7303 27.27 49.021 27.3247C48.6409 27.3539 48.5103 27.8201 48.3714 28.3157C48.2497 28.7496 48.1218 29.206 47.8146 29.4111C47.6596 29.5062 47.5092 29.5821 47.3773 29.6487L47.3773 29.6487C46.7857 29.9473 46.5666 30.0579 47.9791 30.8661C48.3325 31.0666 48.448 31.3228 48.5474 31.5433C48.6795 31.8362 48.7831 32.0661 49.3774 32.0191C50.1931 31.9474 50.023 31.4496 49.8258 30.8728C49.6452 30.3445 49.442 29.7499 49.9533 29.3562C50.3371 29.0816 51.05 28.0384 51.0226 27.6541C50.9552 26.9118 51.7714 26.3906 52.4305 25.9698C52.5758 25.8771 52.7134 25.7892 52.8322 25.7049C53.2424 25.4217 53.3607 25.0655 53.4996 24.6475C53.6299 24.2552 53.7784 23.8084 54.2032 23.3166C54.5322 22.9322 54.5871 21.0105 54.5596 21.1203C54.1758 21.9714 51.571 26.0069 51.1597 26.0344ZM70.47 37.417C70.2467 37.6313 70.014 37.8546 69.6401 37.894C69.4915 37.9075 69.3495 37.9011 69.2012 37.8943C69.0483 37.8874 68.8887 37.8801 68.7078 37.894C68.5159 37.9215 67.9127 37.8117 68.0772 37.8117C68.1562 37.8064 68.2414 37.8041 68.3294 37.8018H68.3295H68.3295H68.3295H68.3296C68.6998 37.7921 69.1223 37.781 69.3659 37.5371C69.4207 37.4822 69.4413 37.4067 69.4618 37.3312C69.4824 37.2557 69.503 37.1802 69.5578 37.1253C69.7797 36.9349 69.9741 36.7353 70.1516 36.553L70.1517 36.553L70.1517 36.5529C70.2813 36.4199 70.4018 36.2962 70.5175 36.192C70.7073 36.0192 70.7559 36.0747 70.8547 36.1875C70.9129 36.254 70.9885 36.3403 71.1207 36.4116C71.1578 36.4339 71.1989 36.4682 71.2441 36.5059C71.3657 36.6076 71.5165 36.7336 71.6965 36.7136C71.6979 36.7136 71.7005 36.7135 71.7041 36.7133L71.7128 36.713H71.7129H71.7129H71.7129H71.7129C71.7985 36.7098 72.165 36.6958 72.19 36.7959L72.1963 36.8305C72.2164 36.9395 72.2256 36.9899 72.2047 37.0136C72.1867 37.034 72.1463 37.0345 72.0712 37.0356H72.0711C72.0246 37.0363 71.9646 37.0371 71.8884 37.043C71.8133 37.0505 71.7052 37.0539 71.5845 37.0577H71.5844C71.2646 37.0678 70.8562 37.0806 70.7368 37.1803C70.644 37.2499 70.5577 37.3328 70.47 37.417L70.47 37.417ZM71.6142 14.2846C71.6638 14.8311 71.7035 14.5185 71.7512 14.1422C71.7826 13.8947 71.8175 13.6196 71.861 13.5434C71.9556 13.3749 72.0503 13.2589 72.1387 13.1505C72.2809 12.9763 72.4071 12.8217 72.4916 12.5001C72.7444 11.6649 72.4612 11.5764 71.8138 11.374L71.8137 11.374L71.8135 11.374L71.8134 11.3739C71.7587 11.3568 71.7014 11.3389 71.6416 11.3197C71.5358 11.2894 71.4425 11.2696 71.3576 11.2515C71.1347 11.2041 70.9704 11.1692 70.7917 10.9902C70.7094 10.9079 70.3804 10.6334 70.353 10.6334C70.3495 10.6524 70.3456 10.6734 70.3414 10.696V10.696C70.2791 11.0304 70.1509 11.7179 70.4078 11.9236C70.4822 11.9888 70.5977 12.054 70.7188 12.1224C70.9547 12.2557 71.2122 12.4011 71.2304 12.5825L71.2336 12.6309C71.2582 13.0076 71.2688 13.1689 71.532 13.4061C71.7023 13.5766 71.6783 13.6607 71.6132 13.8885L71.6131 13.8888C71.6049 13.9176 71.596 13.9487 71.5868 13.9826C71.5701 14.0161 71.584 14.0905 71.5973 14.1621C71.6059 14.2078 71.6142 14.2525 71.6142 14.2846ZM76.4693 15.4794C76.7166 15.4646 76.9762 15.449 76.9883 15.2179C77.0248 14.341 77.3163 14.461 77.7497 14.6395C77.9675 14.7292 78.2212 14.8336 78.4964 14.8336C78.5512 14.8885 76.1383 17.4965 75.8367 17.524C73.794 17.7099 73.1886 18.3585 72.0587 19.5691C72.0374 19.5919 72.0159 19.6149 71.9942 19.6382C71.9773 19.6563 71.9604 19.6744 71.9432 19.6927C70.8465 20.8458 70.5997 20.8732 70.4626 19.0888C70.3808 18.2372 69.8502 18.4016 69.3132 18.568C68.9499 18.6805 68.5837 18.794 68.3513 18.5946C68.3352 18.5784 68.4669 18.5288 68.6705 18.4521C69.1572 18.2687 70.0549 17.9305 70.3255 17.524C70.6545 17.0298 72.3545 16.8102 72.9852 16.7553C73.2771 16.7245 73.4743 16.8748 73.6492 17.008C73.7864 17.1126 73.9098 17.2066 74.0545 17.1945L74.105 17.191C74.9016 17.1345 76.7013 17.0071 76.1109 15.9592C75.8665 15.5157 76.1582 15.4981 76.4693 15.4794ZM45.1274 25.705C45.0748 25.6101 45.0545 25.4748 45.0339 25.3379C45.0009 25.1181 44.9673 24.8941 44.7984 24.8265C44.6613 24.7716 44.771 25.7324 44.7984 25.8971C44.908 26.4736 45.2371 26.858 45.5661 27.2423L45.5661 27.2423C45.661 27.3446 45.752 27.4275 45.8376 27.5054C46.0734 27.7202 46.268 27.8973 46.3887 28.3404C46.3245 27.484 46.0936 27.2287 45.7349 26.8322L45.7348 26.8322C45.6336 26.7203 45.5223 26.5972 45.4016 26.4462C45.3193 26.2952 45.2919 26.1854 45.2645 26.0756C45.2371 25.9658 45.2097 25.856 45.1274 25.705ZM47.2249 38.1052C46.893 38.1192 46.5346 38.1342 46.2791 38.3332C46.1146 38.443 46.3888 37.7567 46.6904 37.6469C47.3485 37.3174 48.3904 36.7409 48.5275 35.9997C48.5949 35.6331 48.7538 35.3953 48.8839 35.2006C49.1241 34.8412 49.2662 34.6285 48.5549 34.0231C48.1257 33.6649 48.3535 33.6058 48.6617 33.5258C48.9441 33.4526 49.294 33.3618 49.2678 33.0073C49.2404 32.7877 49.1033 32.4583 48.8565 32.3759C48.8565 32.3759 49.6242 32.1563 49.7065 33.0348C49.7255 33.3198 49.6952 33.5785 49.6668 33.8211C49.6131 34.2797 49.5662 34.6808 49.871 35.0937C49.9442 35.1937 50.0207 35.3324 50.1046 35.4849C50.3666 35.9606 50.7021 36.5695 51.242 36.5487C51.0577 36.5733 50.9725 36.6861 50.8804 36.808C50.7668 36.9582 50.6427 37.1224 50.3097 37.1527C50.108 37.1653 49.9933 37.0445 49.8962 36.9423C49.7821 36.8221 49.6923 36.7276 49.5146 36.9056C49.2646 37.1428 49.0272 37.2598 48.7873 37.3781C48.5273 37.5062 48.2643 37.6358 47.9791 37.9214C47.8204 38.0803 47.5342 38.0923 47.2249 38.1052Z" fill="#DFDEDB"></path><path fill-rule="evenodd" clip-rule="evenodd" d="M82.1416 13.3846C82.5255 13.1109 83.3206 12.5086 83.54 12.1254C84.0609 11.222 84.0884 10.3733 82.9093 9.88062L81.511 9.27833C79.083 9.13033 79.0228 8.91974 78.9423 8.63816C78.9038 8.50314 78.8606 8.35186 78.5496 8.18328C77.9964 7.86768 76.0258 8.0322 74.7047 8.14264H74.7037L74.7021 8.14284L74.7003 8.14303L74.5464 8.15595L71.448 8.21068C71.448 8.23807 69.3915 8.81297 68.6786 8.8677C67.7584 8.94425 66.4866 9.4747 65.3668 9.94171L65.366 9.9421C64.484 10.3099 63.6965 10.6383 63.2495 10.6745L57.0802 11.222C56.4511 11.2407 56.0086 11.0541 55.4541 10.8203C54.3894 10.3712 52.912 9.74816 48.9091 10.0722C46.1946 10.2912 42.7946 12.9467 42.7946 12.9467C42.7946 12.9467 39.0381 16.1496 38.6268 18.6954C38.2429 21.214 38.5994 24.1432 38.5994 24.1432L39.8333 28.4411L37.0364 28.8518C36.8171 28.9065 37.6123 35.8599 38.7639 36.5716C40.4914 37.6119 41.5058 37.9404 43.5897 37.475L43.8091 39.1449C43.8617 39.5303 44.4084 39.5121 45.0109 39.4921C45.3499 39.4809 45.7065 39.469 46.0026 39.5281L48.1139 40.2673C48.7037 40.1292 49.0085 40.0933 49.1971 40.071C49.3115 40.0575 49.3831 40.0491 49.4496 40.0259C49.5994 39.9737 49.723 39.8467 50.2527 39.4187C50.2996 39.428 50.3423 39.4372 50.3814 39.4461C50.4317 39.4575 50.476 39.4682 50.5151 39.4779L50.5317 39.4819C50.5773 39.4931 50.6158 39.5026 50.6488 39.5094C50.6623 39.5121 50.6748 39.5144 50.6866 39.5163C50.7154 39.5207 50.7394 39.5221 50.7604 39.5195C50.7733 39.5179 50.7851 39.5148 50.7961 39.5099C50.8555 39.4837 50.8926 39.407 50.9704 39.2459C51.0048 39.1748 51.047 39.0874 51.1027 38.9806C51.3897 38.9966 51.6212 39.0218 51.8078 39.0421C52.2626 39.0916 52.4507 39.1121 52.5285 38.8985C53.2167 37.1556 52.271 36.7465 51.4466 36.3898C50.9243 36.1638 50.4507 35.9588 50.472 35.4492C50.4831 35.1934 50.4935 34.9589 50.5031 34.7432L50.5052 34.6967C50.5769 33.0901 50.6011 32.5476 50.492 32.0332C50.4363 31.771 50.346 31.5161 50.2097 31.1312L50.2087 31.1287L50.1986 31.1001C50.1455 30.95 50.0855 30.7802 50.0181 30.5832L49.9781 30.4655L49.9438 30.3638C49.9283 30.3174 49.9124 30.2697 49.8962 30.2205L50.4172 29.3445L50.6365 29.3719L51.3221 31.863L52.7204 34.6006L52.8849 35.9146C53.24 36.2291 53.5311 36.5022 53.7808 36.7365L53.7853 36.7406L53.7965 36.7512L53.7971 36.7518L53.7975 36.7522C55.2474 38.1131 55.2919 38.1549 58.3963 37.5024C58.5104 37.481 58.6106 37.4648 58.7002 37.4502C59.2995 37.353 59.4249 37.3326 60.0689 36.38C60.9737 35.0933 61.0011 34.7375 61.0011 33.3139C61.0011 31.2373 60.9585 31.1414 60.3838 29.8513L60.3807 29.8443C60.3046 29.6736 60.2194 29.4821 60.1237 29.2624C60.7818 28.1948 61.1382 27.6473 62.2076 27.0724C63.0027 29.7004 63.1673 30.7406 63.3592 33.0675L64.7027 34.7648C64.8124 35.2302 65.2786 37.694 65.1415 38.132C64.9221 38.8164 66.4576 39.7198 66.5399 39.7472C67.1448 39.8957 67.7354 40.1588 68.2895 40.4056C69.2677 40.8414 70.1324 41.2266 70.7625 40.8422C71.203 40.576 71.7121 40.5447 72.1697 40.5165C72.7944 40.4781 73.323 40.4456 73.4496 39.8293L74.9028 39.4734C75.6161 37.5681 73.8086 36.894 72.6246 36.4524C72.1244 36.2659 71.7355 36.1209 71.6947 35.942L71.5028 28.2221L70.1867 25.1287C70.1318 24.6085 69.9125 23.1851 69.885 22.9387C69.9673 22.7744 70.3786 21.9531 70.5157 21.8163L72.298 20.7212C73.3917 18.2594 74.37 18.1589 75.233 18.0702C75.5599 18.0367 75.8703 18.0048 76.1641 17.8468C76.3209 17.7584 76.4827 17.5617 76.688 17.3122C77.3084 16.558 78.3255 15.3218 80.798 15.1366L82.3336 14.4797C82.3884 14.4523 82.4706 13.5489 82.1416 13.3846ZM81.8405 12.9635C81.7365 13.0346 81.6507 13.0932 81.5932 13.1383C81.59 13.1405 81.587 13.1429 81.5842 13.1453C81.579 13.1495 81.5744 13.154 81.5704 13.1586C81.2918 13.263 80.7929 13.4395 80.7157 13.4395C80.7072 13.4395 80.6966 13.4398 80.6842 13.4404C80.6739 13.4409 80.6624 13.4417 80.6497 13.4425C80.5889 13.4466 80.503 13.4544 80.4115 13.4628C80.2479 13.4776 80.0659 13.4942 79.9753 13.4942C79.907 13.5056 79.8291 13.5122 79.7615 13.5161C79.7256 13.5182 79.6925 13.5195 79.6653 13.5203C79.6205 13.5216 79.5915 13.5216 79.5915 13.5216C79.5915 13.5216 79.7012 13.8227 79.9205 13.7953C80.1399 13.7679 80.9899 13.6037 81.1544 13.549C81.3463 13.4942 81.5108 13.4121 81.6753 13.4668C81.8124 13.5216 81.9221 13.7406 81.9221 13.7406L82.01 13.6704L82.0319 14.0417L80.5513 14.6713C80.4141 14.6987 78.9061 14.9724 78.3028 15.1914C77.7747 15.3832 76.4266 16.8133 76.0073 17.258C75.9478 17.3212 75.907 17.3644 75.8899 17.3815C75.8482 17.4148 75.6665 17.4456 75.4131 17.4886C74.8345 17.5867 73.8821 17.7482 73.3673 18.148C72.7915 18.586 72.0786 20.0916 71.9963 20.2833C71.8045 20.3654 70.406 21.1867 70.2415 21.3509C70.0931 21.499 69.6994 22.3151 69.6035 22.5141L69.5834 22.5554L69.8577 24.8275C69.9125 25.3751 70.9819 27.5651 71.1737 27.9484L71.3657 35.6409C71.3657 36.0855 72.0667 36.4053 72.7031 36.6956L72.7915 36.7359C74.7109 37.5845 75.0673 37.8309 74.6012 39.0354L74.0154 39.1407C74.0119 39.1071 74.0062 39.0719 73.9981 39.0354C73.9981 38.8164 73.8609 38.6248 73.7513 38.6522C73.6416 38.6522 73.5868 38.8438 73.6142 39.0902C73.6242 39.1303 73.6361 39.1694 73.6495 39.2065L73.2302 39.2818C73.1225 39.3314 73.1024 39.4136 73.08 39.5055C73.036 39.6855 72.9827 39.9031 72.2454 39.9886C72.3349 39.9567 72.3774 39.7786 72.3527 39.5557C72.2704 39.3367 72.1607 39.1724 72.051 39.1724C71.9414 39.1724 71.8865 39.3641 71.9414 39.6105C71.966 39.8073 72.0794 39.9821 72.1817 39.9955C72.1365 40 72.089 40.004 72.039 40.0076C71.9583 40.0134 71.8712 40.0179 71.777 40.0209C71.0147 40.043 70.7242 40.2251 70.4985 40.3665C70.164 40.5762 69.9716 40.6968 68.5963 40.0757C68.5496 40.055 68.4957 40.0327 68.4359 40.009C68.3929 39.9919 68.3467 39.9741 68.2977 39.9556C68.2295 39.9298 68.1561 39.9026 68.0786 39.8742L67.8973 39.808L67.8928 39.8064L67.8906 39.8056C66.8714 39.4345 65.376 38.8899 65.5253 38.3784L65.0044 34.628C64.8612 34.4512 64.7339 34.2998 64.6204 34.1684C64.4791 34.0046 64.3593 33.8717 64.2576 33.7586L64.254 33.7547L64.2523 33.7527C64.0219 33.497 63.8841 33.3441 63.7955 33.1667C63.6638 32.9028 63.6409 32.5845 63.5841 31.7929C63.5679 31.5663 63.5489 31.301 63.5237 30.987C63.4335 30.0637 62.8052 27.9548 62.5546 27.1138L62.5509 27.1011C62.4989 26.9267 62.4639 26.8091 62.4544 26.7712C62.1528 25.6762 60.2608 28.0578 59.7672 28.8791L60.535 30.9049L60.5624 34.3816C60.4253 34.9565 59.2463 36.8454 58.8898 36.8727C58.679 36.8911 58.2845 36.9766 57.825 37.0763L57.824 37.0765C56.9087 37.2751 55.7358 37.5296 55.243 37.4203C54.6946 37.2834 53.4882 36.1062 53.1317 35.7503C53.1043 35.504 53.0494 34.9565 53.0769 34.7922C53.0769 34.5757 52.2878 33.0918 51.8765 32.3184C51.7678 32.1139 51.6855 31.9591 51.6511 31.8904L50.9108 29.1803C50.8425 28.908 50.6049 28.899 50.3225 28.8883C50.2642 28.8861 50.204 28.8838 50.143 28.8791L49.5123 29.8646L50.0607 31.4251C50.2107 31.7245 50.1556 32.8669 50.1063 33.8902C50.0655 34.7383 50.0286 35.5044 50.1156 35.6409C50.1156 35.6409 50.5543 36.2978 51.3494 36.6537C52.6273 37.2266 52.4417 37.7251 52.1611 38.479C52.1467 38.5178 52.132 38.5572 52.1172 38.5974L51.78 38.5764C51.7777 38.564 51.7752 38.5516 51.7725 38.539C51.7706 38.5296 51.7684 38.5201 51.7662 38.5105L51.7607 38.488C51.7058 38.2416 51.5688 38.0774 51.4591 38.0774C51.3494 38.0774 51.3494 38.269 51.4042 38.5154C51.4091 38.5283 51.414 38.5411 51.4191 38.5538L50.8011 38.5153L50.5435 38.9437L50.5419 38.9392C50.5396 38.9324 50.5371 38.9256 50.5346 38.9187C50.5321 38.912 50.5295 38.9053 50.5268 38.8986C50.4172 38.6249 50.2252 38.4059 50.0882 38.4059C49.951 38.4059 49.8962 38.6523 50.0059 38.926C50.0105 38.9414 50.0155 38.9566 50.0208 38.9716C50.0237 38.9798 50.0267 38.9881 50.0298 38.9962C49.8074 38.9876 49.7597 39.0575 49.6857 39.1661C49.6183 39.265 49.5289 39.3962 49.2651 39.5292C49.2677 39.4594 49.2587 39.3745 49.2381 39.2819C49.1559 39.0629 48.9913 38.8986 48.8817 38.8986C48.772 38.8986 48.7446 39.0903 48.7994 39.3367C48.8376 39.4382 48.8875 39.5338 48.9437 39.6045L47.8671 39.8019L45.8655 39.0902L44.1381 39.0354L43.8914 37.3108C43.8507 36.9177 43.4065 37.0079 42.7921 37.1326C42.1656 37.2598 41.3621 37.4229 40.6284 37.1465C40.2171 36.9822 39.0107 36.3526 38.7639 36.2157C38.051 35.6409 37.3655 29.5088 37.338 29.235L40.1623 28.8244C40.3224 28.8066 39.8245 27.1981 39.4176 25.8838C39.1974 25.1727 39.0039 24.5477 38.9558 24.3074C38.9284 24.0611 38.6268 21.3509 39.0107 18.9692C39.3797 16.6007 42.8149 13.5997 43.1043 13.3469L43.1047 13.3466C43.1161 13.3366 43.1225 13.331 43.1236 13.3299C44.4123 12.2896 47.2365 10.6471 49.1559 10.4828C53.0703 10.1616 54.5378 10.771 55.6169 11.2191C56.1932 11.4584 56.6587 11.6517 57.3269 11.6326C57.9448 11.6058 61.2996 11.29 62.8022 11.1485H62.803L62.8047 11.1483L62.8063 11.1481L62.8148 11.1473L62.8183 11.1469L62.8931 11.1399C64.1297 11.0263 65.1748 10.5744 66.1734 10.1425C67.1011 9.74134 67.9888 9.35744 68.9528 9.27833C69.4965 9.23494 70.851 8.88146 71.4564 8.72343L71.5071 8.71026L71.6415 8.67532C71.697 8.66103 71.7345 8.65173 71.7496 8.64871C71.7782 8.64871 71.8475 8.64707 71.944 8.64478C72.4017 8.63377 73.4699 8.6082 73.6964 8.67604C73.799 8.70397 74.3429 8.66221 75.0364 8.60893C76.3811 8.50563 78.2882 8.35914 78.6319 8.59392C78.6319 8.59392 78.6487 8.61908 78.673 8.66018C78.6926 8.69328 78.7171 8.73667 78.7416 8.78557C79.1374 9.55814 79.746 9.57604 80.4818 9.59767C80.8671 9.609 81.2874 9.62139 81.7303 9.7437C81.7303 9.7437 82.7873 10.1229 83.2735 10.472C83.1806 10.5027 83.0525 10.5437 82.9396 10.5747C82.8768 10.592 82.8186 10.6062 82.774 10.6138C82.7512 10.6177 82.7319 10.6198 82.7173 10.6198C82.6679 10.6198 82.6113 10.6341 82.5592 10.6523C82.4668 10.6845 82.3883 10.7293 82.3883 10.7293C82.3883 10.7293 82.5254 11.441 82.6625 11.5506C82.7693 11.6839 82.9802 11.921 83.0671 11.9333C82.6944 12.3801 82.174 12.7357 81.8405 12.9635ZM77.8915 10.5102L77.2608 10.565C77.2608 10.565 78.3028 11.003 78.4947 10.9483C78.6866 10.9209 78.6866 10.4829 78.6866 10.4829L78.5221 10.127L77.8915 10.5102ZM71.4479 11.0852C70.8995 11.0579 70.735 11.0305 70.735 10.9483C70.735 10.8662 70.6527 10.2913 70.6527 10.2913C70.6527 10.2913 70.3785 11.1673 70.4333 11.3316C70.4882 11.4958 71.2559 12.1803 71.4753 12.1803C71.6947 12.2076 71.9415 12.3992 71.9688 12.4814C72.2431 12.892 72.7092 11.8517 72.6818 11.6601C72.6544 11.3864 72.4898 10.6472 72.4898 10.6472C72.4898 10.6472 71.9963 11.1126 71.4479 11.0852ZM69.7205 40.0758C69.6931 39.8294 69.7479 39.6377 69.8576 39.6377C69.9672 39.6377 70.0769 39.802 70.1318 40.021C70.1592 40.2673 70.1044 40.459 69.9947 40.459C69.885 40.4863 69.7753 40.2947 69.7205 40.0758ZM82.7175 11.1672L82.6078 10.8387C82.6353 10.8387 82.7998 10.7566 82.8546 10.8387C82.8895 10.9257 82.9022 11.0126 82.9138 11.0926C82.9205 11.1385 82.9269 11.182 82.9369 11.2219C82.9369 11.2767 82.9643 11.3041 82.9094 11.2767C82.8546 11.2493 82.8272 11.2219 82.7724 11.2219C82.7175 11.2219 82.7175 11.1945 82.7175 11.1672Z" fill="#02ADD8"></path><path fill-rule="evenodd" clip-rule="evenodd" d="M90.332 12.6292V12.3181C93.1541 12.3181 95.9307 12.3181 98.73 12.3105V22.8705H98.5631H96.0065V22.4002V18.7816V18.7285C96.0065 17.5071 96.0065 16.2933 96.0141 15.0795C96.0141 15.0188 96.0141 14.9733 96.0065 14.9278V14.6699H93.0858V14.8671C93.0811 14.8813 93.0793 14.8984 93.0786 14.9166C93.0782 14.9276 93.0782 14.9391 93.0782 14.9506C93.0858 15.4892 93.0858 16.1947 93.0858 16.9912V22.8781H90.332V12.6292ZM157.402 20.8147C156.59 20.7767 155.847 20.7388 155.103 20.7009C155.103 20.6629 155.095 20.6174 155.088 20.5719C155.143 20.537 155.198 20.5021 155.253 20.4672L155.254 20.4664L155.255 20.4662C155.452 20.3418 155.65 20.2164 155.839 20.0864C156.59 19.5705 157.28 18.9864 157.599 18.1064C158.047 16.8698 157.864 15.4588 156.256 15.0795C155.027 14.7912 153.798 14.814 152.584 15.1402C151.765 15.3602 151.196 15.8988 150.953 16.7333C150.309 18.9181 151.363 21.3533 153.373 22.4154C154.275 22.8891 155.233 22.8778 156.194 22.8664C156.341 22.8647 156.488 22.863 156.635 22.863C156.704 22.863 156.802 22.8099 156.818 22.7643C156.958 22.3054 157.094 21.8464 157.233 21.382L157.309 21.1241L157.346 21.0014L157.402 20.8147ZM153.849 18.8851C153.724 18.9672 153.594 19.0529 153.457 19.1457C153.435 19.0156 153.412 18.9007 153.39 18.7954C153.353 18.612 153.322 18.4578 153.313 18.3037C153.26 17.3326 153.98 16.7712 154.921 17.0519C155.24 17.1505 155.369 17.3705 155.202 17.6588C155.058 17.9167 154.853 18.1519 154.625 18.3416C154.388 18.5312 154.133 18.6988 153.849 18.8851ZM105.262 15.0795C106.4 15.3602 107.037 16.1568 107.151 17.2871C107.318 18.9409 106.953 20.4961 105.914 21.8236C104.549 23.5533 102.432 23.5685 101.059 21.8464C99.9969 20.5188 99.61 18.9561 99.8072 17.2871C99.9665 15.9292 100.816 15.1478 102.174 14.9657C102.614 14.905 103.168 14.8823 103.494 14.8823C103.942 14.8899 104.693 14.943 105.262 15.0795ZM104.678 18.4478C104.693 17.3705 104.329 17.0064 103.449 17.0216C103.274 17.0216 103.092 17.0519 102.925 17.105C102.569 17.2112 102.333 17.454 102.303 17.8333C102.227 18.7892 102.402 19.6995 102.963 20.4961C103.327 21.0119 103.669 20.9968 104.025 20.4733C104.473 19.7981 104.64 19.0395 104.678 18.4478ZM124.338 15.1076C124.311 15.1127 124.278 15.1189 124.235 15.125V15.6409V24.6988C124.235 24.7112 124.235 24.7237 124.235 24.7362C124.236 24.7819 124.237 24.8281 124.238 24.8744C124.242 24.9933 124.245 25.1133 124.235 25.2299C124.212 25.4954 124.311 25.5864 124.576 25.5788C125.168 25.5636 125.767 25.5561 126.359 25.5788C126.662 25.594 126.731 25.4802 126.715 25.2071C126.699 24.9256 126.702 24.6479 126.705 24.3686C126.707 24.2565 126.708 24.1442 126.708 24.0312C126.708 23.5706 126.708 23.3412 126.817 23.1914C126.926 23.0426 127.142 22.9725 127.573 22.8326C129.879 22.074 131.305 20.1774 131.244 17.9243C131.199 16.2629 130.16 15.1629 128.491 15.1098C127.526 15.0773 126.562 15.0835 125.597 15.0897C125.211 15.0922 124.825 15.0947 124.44 15.0947C124.408 15.0947 124.379 15.1001 124.338 15.1076ZM126.943 20.7312C126.89 20.7388 126.822 20.7388 126.723 20.7464C126.72 20.6839 126.715 20.6325 126.71 20.5872L126.707 20.5573L126.706 20.5401C126.704 20.5174 126.702 20.4959 126.701 20.4748C126.701 20.4641 126.7 20.4535 126.7 20.443V17.1809C126.761 17.1846 126.821 17.1874 126.881 17.1894C126.969 17.1925 127.057 17.1942 127.145 17.1959C127.473 17.2023 127.792 17.2084 128.096 17.2871C128.324 17.3402 128.582 17.6361 128.658 17.8712C129.007 18.9788 128.089 20.4809 126.943 20.7312ZM123.4 31.003C122.376 33.0512 122.763 35.5092 124.235 37.3906C124.91 36.9733 125.57 36.5637 126.23 36.1464C126.124 35.9568 126.033 35.7975 125.949 35.6457C125.395 34.6368 125.16 33.5747 125.395 32.4292C125.578 31.534 126.26 30.874 127.118 30.7981V31.2761V35.9416C127.118 35.9547 127.117 35.9683 127.117 35.9821L127.116 35.9942L127.115 36.0081C127.109 36.1469 127.102 36.2981 127.33 36.2981H129.575V28.5147C129.379 28.5147 129.184 28.5125 128.989 28.5102L128.987 28.5102C128.053 28.4993 127.135 28.4887 126.238 28.7271C124.963 29.0685 123.992 29.8195 123.4 31.003ZM97.326 32.8517C97.3255 33.041 97.3248 33.2302 97.324 33.4195C97.3209 34.2324 97.3178 35.0453 97.3341 35.8581C97.3417 36.2299 97.2203 36.3285 96.8638 36.3133C96.4124 36.2921 95.961 36.2968 95.5097 36.3016L95.4118 36.3026C95.3328 36.3035 95.2537 36.3042 95.1747 36.3048C95.0929 36.3054 95.0111 36.3057 94.9293 36.3057C92.6686 36.2981 90.7265 34.6595 90.3927 32.4064C90.3017 31.7843 90.3093 31.1092 90.4458 30.4947C90.7037 29.3188 91.5762 28.7119 92.7293 28.5906C93.3793 28.5195 94.0332 28.5193 94.6883 28.5191C94.943 28.519 95.1979 28.5189 95.4527 28.5147C95.6561 28.5117 95.8583 28.5135 96.0603 28.5153C96.363 28.518 96.6651 28.5207 96.97 28.5071C97.2582 28.4919 97.3341 28.6057 97.3341 28.8788C97.3227 29.765 97.3242 30.6555 97.3256 31.547V31.5474V31.5477V31.548V31.5484V31.5487V31.549V31.5494V31.5497V31.55V31.5504V31.5507V31.551V31.5514C97.326 31.849 97.3265 32.1466 97.3265 32.4443L97.3265 32.5557L97.3264 32.6069C97.3263 32.6885 97.3262 32.7701 97.326 32.8517ZM94.8155 34.2726V30.6312C94.7546 30.6312 94.6942 30.6306 94.6341 30.6297L94.5805 30.6289C94.5473 30.6283 94.5143 30.6277 94.4814 30.6271C94.2283 30.6223 93.9814 30.6177 93.7382 30.6388C93.1693 30.6768 92.8279 31.0181 92.8203 31.5947C92.8051 32.4747 93.1086 33.2333 93.8293 33.7719C94.0115 33.9035 94.2207 33.998 94.4524 34.1026C94.568 34.1547 94.6892 34.2095 94.8155 34.2726ZM121.753 33.2996L121.754 32.9376C121.754 32.8408 121.754 32.7441 121.754 32.6474C121.754 32.5746 121.754 32.5019 121.754 32.4292C121.754 31.2381 121.754 30.0547 121.747 28.8561C121.747 28.8502 121.747 28.8442 121.747 28.8382C121.747 28.8321 121.747 28.826 121.747 28.8198L121.747 28.8157C121.748 28.8116 121.748 28.8076 121.748 28.8035L121.749 28.7895C121.755 28.6509 121.762 28.5006 121.534 28.5071C121.065 28.5166 120.595 28.5187 120.124 28.5207C119.09 28.5253 118.055 28.5299 117.028 28.6133C115.822 28.7043 115.025 29.5237 114.813 30.7223C114.722 31.2457 114.722 31.8147 114.805 32.3381C115.154 34.5533 117.066 36.4271 119.524 36.3057C120.146 36.2754 120.76 36.283 121.382 36.3057C121.693 36.3209 121.762 36.2071 121.762 35.9188C121.75 35.0479 121.752 34.1727 121.753 33.2996ZM118.86 30.6406C118.935 30.6423 119.009 30.644 119.085 30.6451C119.137 30.6459 119.19 30.6464 119.243 30.6464V34.1968C118.424 34.0678 117.855 33.6202 117.551 32.9147C117.369 32.4747 117.293 31.9664 117.278 31.4885C117.255 31.0105 117.574 30.7071 118.044 30.654C118.311 30.6279 118.581 30.6341 118.859 30.6406L118.86 30.6406ZM99.5568 28.5071H98.8969C98.8817 28.6209 98.8665 28.6664 98.8513 28.7119C98.8513 31.1395 98.8513 33.5671 98.8438 35.9947C98.8438 36.2754 98.9727 36.2981 99.1927 36.2981C99.6961 36.2953 100.198 36.2956 100.7 36.296C101.538 36.2966 102.374 36.2972 103.213 36.283C103.623 36.2754 104.048 36.2223 104.442 36.1009C105.869 35.6685 106.354 34.3181 105.55 33.0664C105.39 32.8164 105.193 32.5887 104.993 32.3572L104.993 32.357C104.908 32.2585 104.822 32.1593 104.738 32.0574C104.743 32.0522 104.747 32.047 104.752 32.0418L104.761 32.0315C104.78 32.0107 104.8 31.9899 104.82 31.9691C104.841 31.9473 104.862 31.9255 104.884 31.9036C105.013 31.7721 105.148 31.6345 105.224 31.4657C105.383 31.1092 105.558 30.7147 105.558 30.3354C105.558 29.3947 104.829 28.6512 103.76 28.583C102.744 28.5167 101.725 28.5147 100.705 28.5127C100.322 28.512 99.9395 28.5112 99.5568 28.5071ZM101.881 32.007C101.763 32.1053 101.643 32.2049 101.522 32.3078L101.607 32.3675L101.665 32.4084L101.676 32.416L101.691 32.4265L101.691 32.4269L101.694 32.4286C102.042 32.6733 102.38 32.9108 102.713 33.165C102.842 33.2561 102.971 33.3774 103.062 33.5064C103.289 33.8326 103.153 34.1512 102.758 34.1816C102.447 34.2027 102.131 34.1981 101.807 34.1933C101.666 34.1913 101.523 34.1892 101.378 34.1892V30.6464C101.405 30.6464 101.432 30.6463 101.459 30.646C101.484 30.6457 101.508 30.6454 101.532 30.645C101.594 30.6439 101.656 30.6423 101.718 30.6408L101.721 30.6407L101.724 30.6406L101.727 30.6406C101.983 30.6341 102.232 30.6279 102.478 30.654C102.872 30.6995 102.978 31.0105 102.69 31.2988C102.439 31.5446 102.165 31.7716 101.882 32.0063L101.881 32.007ZM139.248 36.2678H141.713L141.706 32.9602H143.39V36.2678H145.848V28.545H143.375V30.7981H141.713V28.5526H139.248V28.9243V36.2678ZM109.518 36.2754H107.06V28.9319V28.5602H109.518V30.2747L111.179 28.5526H113.652V36.2754H111.202V31.2457L109.518 32.9678V36.2754ZM131.085 36.2754H133.543V32.9678L135.227 31.2457V36.2754H137.678V28.5526H135.204L133.543 30.2747V28.5602H131.085V28.9319V36.2754ZM149.884 36.2754H147.418C147.418 34.0223 147.418 30.8892 147.426 28.9319V28.5602H149.884V30.2747L151.545 28.5526H154.018V36.2754H151.568V31.2457L149.884 32.9678V36.2754ZM155.505 36.2754H157.963V32.9678L159.647 31.2457V36.2754H162.098V28.5526H159.624L157.963 30.2747V28.5602H155.505V28.9319V36.2754ZM109.237 23.9781C108.622 23.1512 108.198 22.2788 107.993 21.3002C107.712 19.9802 107.833 18.6981 108.463 17.4995C109.07 16.3388 110.041 15.6105 111.3 15.2768C112.063 15.0725 112.838 15.0815 113.624 15.0906C113.947 15.0944 114.273 15.0982 114.6 15.0871V22.8402H112.135V17.3478C111.141 17.4768 110.466 18.2657 110.36 19.3278C110.253 20.3747 110.473 21.3381 110.989 22.2485C111.008 22.2815 111.027 22.3146 111.046 22.3482C111.074 22.3993 111.103 22.4516 111.134 22.5071L111.135 22.5098C111.172 22.5763 111.211 22.6474 111.255 22.7264C110.58 23.1437 109.92 23.5533 109.237 23.9781ZM140.507 15.1098V22.8705C140.737 22.8705 140.966 22.8708 141.194 22.8711C142.1 22.8724 142.992 22.8735 143.883 22.8554C144.103 22.8554 144.315 22.8554 144.528 22.825C145.689 22.6733 146.515 21.8919 146.682 20.7616C146.804 19.9043 146.515 19.1685 145.901 18.5616C145.188 17.8561 144.315 17.3857 143.405 17.014C143.041 16.8623 142.904 16.6726 142.942 16.2857C142.969 16.0241 142.962 15.7552 142.956 15.4817V15.4814C142.953 15.3585 142.95 15.2345 142.95 15.1098H140.507ZM143.014 19.2936L143.032 19.2842L143.04 19.2798L143.046 19.2765C143.052 19.2732 143.058 19.2697 143.064 19.2662C143.071 19.2616 143.079 19.2569 143.087 19.2519C143.179 19.3342 143.275 19.4147 143.37 19.4953L143.37 19.4958L143.371 19.4964C143.618 19.7051 143.865 19.9142 144.073 20.1547C144.315 20.443 144.194 20.6629 143.822 20.754C143.8 20.7616 143.769 20.7616 143.747 20.7692C143.011 20.9057 142.942 20.845 142.942 20.1167V19.3354C142.954 19.3275 142.966 19.3202 142.979 19.3131C142.991 19.3065 143.003 19.3001 143.014 19.2936ZM147.244 22.8478V15.125H149.671V22.8478H147.244ZM116.952 19.9043C117.081 19.6919 117.051 19.5705 116.853 19.4037C116.087 18.774 115.609 18.0002 115.723 16.9685C115.822 15.9747 116.504 15.2085 117.597 15.1478C118.764 15.0841 119.938 15.0983 121.12 15.1127H121.12H121.121C121.629 15.1188 122.138 15.125 122.649 15.125V22.8402H120.229C120.222 21.6416 120.222 19.9802 120.222 18.9181C120.222 18.7591 120.221 18.5992 120.22 18.4391V18.4373C120.218 18.1167 120.217 17.795 120.222 17.4767C120.222 17.2643 120.146 17.1809 119.933 17.1885C119.782 17.1952 119.63 17.1959 119.478 17.1967C119.289 17.1976 119.099 17.1986 118.909 17.2112C118.765 17.2264 118.538 17.2871 118.522 17.3629C118.492 17.5147 118.53 17.7347 118.629 17.8409C118.962 18.1823 119.319 18.5009 119.698 18.7968C119.747 18.8337 119.79 18.8655 119.828 18.8934C119.85 18.909 119.87 18.9235 119.889 18.9368C120.006 19.0199 120.067 19.0633 120.083 19.1194C120.1 19.1809 120.063 19.2577 119.986 19.4187C119.962 19.4682 119.934 19.5258 119.903 19.5933C119.387 20.7388 118.788 21.8312 118.06 22.8478H114.942C115.015 22.7487 115.092 22.645 115.172 22.5387C115.229 22.4635 115.287 22.3871 115.345 22.3101C115.638 21.9208 115.942 21.5175 116.163 21.194C116.336 20.9423 116.494 20.6734 116.652 20.4049L116.652 20.4045C116.751 20.2362 116.85 20.068 116.952 19.9043ZM132.344 22.8402H134.802V19.5402H136.487V22.8402H138.937V15.125H136.464V17.3781H134.802V15.125H132.344V22.8402Z" fill="#02ADD8"></path></svg> 