<?xml version="1.0" encoding="UTF-8"?> <svg xmlns="http://www.w3.org/2000/svg" width="200" height="50" viewBox="0 0 200 50" fill="none"><path fill-rule="evenodd" clip-rule="evenodd" d="M65.9761 9.28989C70.5755 10.6612 74.2665 12.9453 75.4509 15.9552C79.0663 25.1584 69.4935 36.6457 55.8423 40.0117C41.4209 43.5648 28.7091 43.4134 25.4455 33.7471C22.6048 25.3276 33.8294 14.428 45.4548 9.57039C47.9081 8.54633 50.9669 7.92744 54.137 7.65584C56.1807 7.48219 56.0738 8.83128 55.5039 9.84644L51.6392 16.6987C51.6392 16.6987 51.617 15.5945 51.608 14.7041C51.5991 14.2098 51.1762 13.8269 50.6864 13.8714C49.4308 13.9917 48.1574 14.2143 46.697 14.5616C34.9292 17.3666 24.8578 26.6188 27.8142 34.6376C29.2657 38.578 33.9808 40.4837 40.4725 40.6707C41.7147 40.7063 42.7477 39.7312 42.77 38.489L43.1306 19.0541C43.1306 18.6133 42.6408 18.2527 42.0398 18.2527C41.8038 18.2527 41.5811 18.3105 41.4031 18.404C40.9444 18.6445 40.4413 18.7869 39.9248 18.7869H38.0236C39.6755 17.8475 41.3808 17.0149 43.0994 16.3203C44.8047 15.6302 46.8217 15.1448 48.9633 14.8376C49.3373 14.7842 49.6757 15.0781 49.6757 15.4565V39.985L51.1005 39.7624V39.749V20.4833H57.1113C58.0953 20.4833 58.8922 21.2803 58.8922 22.2643V36.5166C58.8922 37.1444 59.5289 37.5807 60.1122 37.3447C70.9628 32.9813 78.2604 23.226 74.6405 15.599C73.4918 13.1813 70.0857 11.0085 65.887 9.56148C65.798 9.53032 65.7668 9.42346 65.8202 9.34777V9.34332C65.8559 9.29434 65.9182 9.27208 65.9761 9.28989ZM92.8744 31.2501H91.1268V25.7267C90.409 25.9605 89.7706 26.1358 89.2116 26.2527C88.6526 26.3696 88.0672 26.4281 87.4552 26.4281C86.8904 26.4281 86.3726 26.3609 85.9019 26.2264C85.4311 26.0861 85.0163 25.864 84.6574 25.5601C84.3044 25.2562 84.0278 24.8646 83.8278 24.3853C83.6336 23.906 83.5365 23.339 83.5365 22.6844V18.1956H85.284V21.8165C85.284 22.3659 85.3046 22.8013 85.3458 23.1228C85.387 23.4384 85.5047 23.7423 85.6989 24.0346C85.8695 24.2918 86.1225 24.4905 86.4579 24.6308C86.7933 24.7652 87.2405 24.8324 87.7994 24.8324C88.2996 24.8324 88.8644 24.7769 89.494 24.6658C90.1236 24.5489 90.6679 24.4057 91.1268 24.2362V18.1956H92.8744V31.2501ZM103.157 21.457L97.8522 34.8622H96.0782L97.8434 30.7767L94.26 21.457H96.0517L98.7436 28.7076L101.427 21.457H103.157ZM110.279 31.2501H112.344L108.329 26.0423C108.599 25.8903 108.846 25.6741 109.07 25.3935C109.294 25.1071 109.488 24.7097 109.653 24.2012C109.811 23.6985 110.006 23.3537 110.235 23.1666C110.47 22.9737 110.82 22.8773 111.285 22.8773H111.665V21.457H111.215C110.479 21.457 109.882 21.606 109.423 21.9041C108.964 22.2022 108.605 22.7107 108.346 23.4296C108.299 23.5758 108.234 23.7453 108.152 23.9381C108.076 24.131 108.005 24.3005 107.94 24.4467C107.728 24.9435 107.47 25.2795 107.164 25.4549C106.864 25.6244 106.499 25.7121 106.069 25.7179V21.457H104.41V31.2501H106.069V26.7349H106.899L110.279 31.2501ZM121.523 26.3579C121.523 28.0062 121.123 29.2804 120.323 30.1805C119.523 31.0747 118.458 31.5219 117.128 31.5219C115.757 31.5219 114.677 31.0601 113.889 30.1366C113.106 29.2073 112.715 27.9477 112.715 26.3579C112.715 24.7214 113.118 23.4501 113.924 22.5441C114.736 21.6382 115.804 21.1852 117.128 21.1852C118.458 21.1852 119.523 21.6382 120.323 22.5441C121.123 23.4443 121.523 24.7155 121.523 26.3579ZM119.811 26.3579C119.811 25.0896 119.579 24.1486 119.114 23.5349C118.649 22.9153 117.987 22.6055 117.128 22.6055C116.263 22.6055 115.595 22.9153 115.125 23.5349C114.66 24.1486 114.427 25.0896 114.427 26.3579C114.427 27.5854 114.66 28.5176 115.125 29.1547C115.595 29.7859 116.263 30.1016 117.128 30.1016C117.981 30.1016 118.64 29.7918 119.105 29.1722C119.576 28.5468 119.811 27.6087 119.811 26.3579ZM127.075 22.9036H130.429V21.457H122.062V22.9036H125.416V31.2501H127.075V22.9036ZM130.376 31.2501L134.806 18.1956H136.96L141.391 31.2501H139.546L138.355 27.6029H133.333L132.141 31.2501H130.376ZM137.869 26.1212L135.839 19.9666L133.818 26.1212H137.869ZM151.179 28.9618C151.426 28.465 151.549 27.8922 151.549 27.2434C151.549 26.4076 151.335 25.7121 150.905 25.1568C150.476 24.5957 149.869 24.2099 149.087 23.9995V23.9294C149.664 23.6547 150.114 23.2748 150.437 22.7896C150.767 22.3045 150.932 21.7551 150.932 21.1414C150.932 20.592 150.823 20.1156 150.605 19.7123C150.387 19.3032 150.043 18.9729 149.572 18.7216C149.143 18.4936 148.693 18.3504 148.222 18.292C147.757 18.2277 147.057 18.1956 146.121 18.1956H142.635V31.2501H146.404C147.298 31.2501 148.028 31.1712 148.593 31.0134C149.158 30.8497 149.687 30.575 150.181 30.1892C150.599 29.8678 150.932 29.4586 151.179 28.9618ZM148.955 20.5715C149.06 20.7994 149.113 21.0712 149.113 21.3869C149.113 21.7902 149.057 22.1292 148.946 22.4039C148.834 22.6786 148.646 22.9007 148.381 23.0702C148.104 23.2455 147.837 23.3624 147.578 23.4209C147.319 23.4735 146.916 23.4998 146.368 23.4998H144.383V19.6772H146.06C146.672 19.6772 147.151 19.6948 147.498 19.7298C147.845 19.7649 148.16 19.8613 148.443 20.0192C148.678 20.1536 148.849 20.3377 148.955 20.5715ZM149.519 26.1037C149.661 26.4193 149.731 26.8226 149.731 27.3136C149.731 27.7753 149.655 28.1523 149.502 28.4445C149.349 28.7309 149.107 28.9881 148.778 29.2161C148.443 29.444 148.054 29.5931 147.613 29.6632C147.172 29.7333 146.569 29.7684 145.804 29.7684H144.383V24.9464H146.368C146.969 24.9464 147.431 24.9668 147.754 25.0078C148.084 25.0487 148.387 25.1422 148.663 25.2883C149.093 25.5104 149.378 25.7822 149.519 26.1037ZM162.741 31.2501H161.002V20.8871L155.062 31.2501H153.297V18.1956H155.036V28.3919L160.896 18.1956H162.741V31.2501ZM168.416 18.1956L163.985 31.2501H165.75L166.942 27.6029H171.964L173.155 31.2501H175L170.569 18.1956H168.416ZM169.448 19.9666L171.478 26.1212H167.427L169.448 19.9666Z" fill="#3473B8"></path><path fill-rule="evenodd" clip-rule="evenodd" d="M52.1475 8.1632L51.7913 8.85333C51.7289 8.978 51.5553 8.97355 51.493 8.85333L51.1501 8.1543L51.1546 8.92902C51.1546 9.06705 50.9987 9.14719 50.8874 9.06705L50.2552 8.6129L50.6203 9.29857C50.6871 9.41879 50.5847 9.56127 50.4511 9.54346L49.6808 9.4366L50.322 9.87294C50.4333 9.95308 50.411 10.1267 50.2819 10.1713L49.5517 10.4339L50.322 10.523C50.4555 10.5408 50.5179 10.7011 50.4244 10.8035L49.899 11.3734L50.6247 11.0929C50.7539 11.0439 50.883 11.1597 50.8474 11.2933L50.647 12.0413L51.1679 11.4669C51.257 11.3601 51.4262 11.4046 51.4573 11.5382L51.6265 12.2951L51.8091 11.5382C51.8402 11.4046 52.0094 11.3645 52.0985 11.4669L52.6016 12.0591L52.4102 11.3066C52.3745 11.1731 52.5037 11.0617 52.6328 11.1107L53.3541 11.4001L52.8376 10.8213C52.7441 10.7189 52.8064 10.5542 52.9445 10.5408L53.7147 10.4607L52.989 10.1891C52.8599 10.1401 52.8376 9.96644 52.9534 9.89075L53.599 9.46332L52.8287 9.56127C52.6907 9.57908 52.5927 9.4366 52.6595 9.31638L53.0335 8.63516L52.3968 9.08041C52.2855 9.1561 52.1297 9.07595 52.1341 8.93793L52.1475 8.1632ZM49.0041 13.2568L49.4805 12.5622L49.3602 13.3948C49.338 13.5418 49.4938 13.6486 49.6229 13.5818L50.3665 13.19L49.8723 13.8712C49.7832 13.9914 49.8723 14.1606 50.0192 14.1606H50.8607L50.1083 14.5346C49.9747 14.6014 49.9747 14.7884 50.1038 14.8597L50.8518 15.247L50.0103 15.2292C49.8634 15.2248 49.7743 15.394 49.8589 15.5142L50.3353 16.1999L49.6007 15.7902C49.4716 15.719 49.3157 15.8259 49.3335 15.9728L49.4359 16.8054L48.9729 16.1019C48.8927 15.9772 48.7057 15.9995 48.6523 16.1375L48.354 16.9256L48.2739 16.0885C48.2605 15.9416 48.0824 15.8704 47.9711 15.9728L47.3433 16.5338L47.6594 15.7546C47.7173 15.6166 47.5926 15.4741 47.4457 15.5097L46.6309 15.7145L47.2721 15.1713C47.3834 15.0734 47.3433 14.8908 47.1964 14.8552L46.3771 14.6549L47.1964 14.4723C47.3433 14.4411 47.3878 14.2586 47.2765 14.1606L46.6443 13.6041L47.4546 13.8267C47.5971 13.8668 47.7262 13.7243 47.6728 13.5863L47.3745 12.8026L47.9889 13.377C48.0958 13.4794 48.2738 13.4126 48.2917 13.2657L48.3896 12.4286L48.6701 13.2212C48.7324 13.3548 48.9194 13.3815 49.0041 13.2568ZM48.5588 25.5366L48.2783 26.0887C48.2293 26.1867 48.0913 26.1867 48.0379 26.0887L47.7574 25.5366L47.7663 26.1555C47.7707 26.2668 47.646 26.3292 47.557 26.2668L47.0539 25.9106L47.3477 26.4538C47.4012 26.5518 47.321 26.6631 47.2142 26.6497L46.5997 26.5651L47.1118 26.908C47.2053 26.9703 47.1874 27.1083 47.085 27.144L46.5018 27.3577L47.1162 27.4245C47.2231 27.4378 47.272 27.5669 47.2008 27.6471L46.7867 28.1057L47.3611 27.8786C47.4635 27.8385 47.5659 27.9276 47.5392 28.0344L47.3834 28.6311L47.7885 28.1636C47.8598 28.0834 47.9933 28.1146 48.0201 28.2214L48.1581 28.8225L48.2961 28.2214C48.3228 28.1146 48.4564 28.079 48.5276 28.1636L48.9328 28.6311L48.777 28.0344C48.7503 27.932 48.8527 27.8385 48.9551 27.8786L49.5294 28.1057L49.1154 27.6471C49.0441 27.5669 49.0931 27.4378 49.2 27.4245L49.8144 27.3577L49.2311 27.144C49.1287 27.1083 49.1154 26.9703 49.2044 26.908L49.7164 26.5651L49.102 26.6497C48.9951 26.6631 48.915 26.5518 48.9684 26.4538L49.2623 25.9106L48.7592 26.2668C48.6701 26.3292 48.5499 26.2668 48.5499 26.1555L48.5588 25.5366ZM44.5382 30.185L44.8187 29.6329L44.8098 30.2518C44.8098 30.3631 44.9301 30.4254 45.0191 30.3631L45.5222 30.0069L45.2284 30.5501C45.1749 30.648 45.2551 30.7593 45.3619 30.746L45.9764 30.6614L45.4643 31.0042C45.3753 31.0666 45.3887 31.2046 45.4911 31.2402L46.0743 31.4539L45.4599 31.5207C45.353 31.5341 45.3041 31.6632 45.3753 31.7433L45.7894 32.2019L45.215 31.9749C45.1126 31.9348 45.0102 32.0283 45.0369 32.1307L45.1928 32.7273L44.7876 32.2598C44.7163 32.1752 44.5828 32.2108 44.5561 32.3177L44.418 32.9188L44.28 32.3177C44.2533 32.2108 44.1197 32.1797 44.0485 32.2598L43.6433 32.7273L43.7991 32.1307C43.8258 32.0238 43.7235 31.9348 43.621 31.9749L43.0467 32.2019L43.4608 31.7433C43.532 31.6632 43.483 31.5341 43.3762 31.5207L42.7617 31.4539L43.345 31.2402C43.4474 31.2046 43.4652 31.0666 43.3717 31.0042L42.8597 30.6614L43.4741 30.746C43.581 30.7593 43.6611 30.648 43.6077 30.5501L43.3138 30.0069L43.8169 30.3631C43.906 30.4254 44.0307 30.3631 44.0262 30.2518L44.0173 29.6329L44.2978 30.185C44.3512 30.2829 44.4893 30.2829 44.5382 30.185ZM53.1983 36.0399L52.8242 36.7746C52.7575 36.9082 52.5749 36.9082 52.5393 36.7746L52.1653 36.0399L52.1742 36.8636C52.1786 37.0106 52.0139 37.0952 51.8937 37.0106L51.2214 36.5342L51.6132 37.2599C51.68 37.389 51.5731 37.5404 51.4306 37.5226L50.6114 37.4113L51.2971 37.8699C51.4173 37.95 51.395 38.137 51.257 38.186L50.4823 38.4665L51.3015 38.5556C51.444 38.5734 51.5108 38.747 51.4128 38.8539L50.8563 39.4639L51.6221 39.1611C51.7557 39.1077 51.8937 39.2279 51.8581 39.3704L51.6488 40.1674L52.1875 39.544C52.281 39.4327 52.4636 39.4772 52.4948 39.6197L52.6818 40.4256L52.8688 39.6197C52.8999 39.4772 53.0825 39.4327 53.176 39.544L53.7147 40.1674L53.5055 39.3704C53.4654 39.2323 53.6079 39.1077 53.7414 39.1611L54.5073 39.4639L53.9507 38.8539C53.8528 38.7426 53.9151 38.5734 54.062 38.5556L54.8813 38.4665L54.1066 38.186C53.9685 38.137 53.9463 37.95 54.0665 37.8699L54.7522 37.4113L53.9329 37.5226C53.786 37.5404 53.6791 37.389 53.7504 37.2599L54.1422 36.5342L53.4699 37.0106C53.3496 37.0952 53.1893 37.0106 53.1893 36.8636L53.1983 36.0399ZM47.3789 37.7141L47.0361 38.3864C46.9782 38.5021 46.8045 38.5021 46.7511 38.3864L46.4083 37.7141L46.4172 38.4665C46.4172 38.6001 46.2658 38.6758 46.1589 38.6001L45.5445 38.1637L45.9051 38.8272C45.9675 38.9474 45.874 39.0854 45.7404 39.0676L44.9924 38.9652L45.6202 39.3837C45.7315 39.4594 45.7092 39.6286 45.5846 39.6731L44.8766 39.9314L45.6246 40.0115C45.7582 40.0249 45.8161 40.1852 45.727 40.2831L45.2195 40.8397L45.923 40.5636C46.0476 40.5146 46.1767 40.6259 46.1411 40.7551L45.9497 41.4853L46.4439 40.9154C46.5285 40.8174 46.6932 40.8575 46.7244 40.9866L46.8936 41.7212L47.0628 40.9866C47.0939 40.853 47.2542 40.8129 47.3433 40.9154L47.8375 41.4853L47.646 40.7551C47.6149 40.6259 47.7396 40.5146 47.8642 40.5636L48.5677 40.8397L48.0601 40.2831C47.9711 40.1852 48.029 40.0249 48.1625 40.0115L48.9105 39.9314L48.2026 39.6731C48.0779 39.6241 48.0557 39.4594 48.167 39.3837L48.7948 38.9652L48.0468 39.0676C47.9132 39.0854 47.8197 38.9429 47.882 38.8272L48.2427 38.1637L47.6282 38.6001C47.5169 38.6802 47.37 38.6001 47.37 38.4665L47.3789 37.7141Z" fill="white"></path><path d="M33.4153 36.9039L33.4198 36.8994C33.54 36.8193 33.6157 36.2761 33.6958 35.7017C33.7047 35.6349 33.7136 35.5681 33.7225 35.5013C33.2817 36.1469 32.6317 36.708 31.8703 36.708H31.5676L31.7991 36.512C32.4269 35.9778 32.5694 35.5192 32.7252 35.0294C32.7341 34.9982 32.743 34.9715 32.7519 34.9403C32.231 35.39 31.3138 35.9911 30.6637 35.9911C30.4411 35.9911 30.263 35.9199 30.1428 35.7774L29.9825 35.5948H30.2274C30.913 35.5948 31.6833 34.8246 32.1642 34.2502C31.759 34.5084 31.1668 34.829 30.4366 35.0561C30.0626 35.1719 29.7465 35.2297 29.4883 35.2297C29.0697 35.2297 28.9005 35.0739 28.8338 34.9448C28.7625 34.8023 28.7803 34.6287 28.8872 34.4817L28.9317 34.4194L29.003 34.4372C29.1054 34.4595 29.2167 34.4728 29.3324 34.4728C30.0537 34.4728 31.0911 34.0409 32.2532 33.2529C33.2506 32.5761 33.9496 31.8681 34.2479 31.5431C33.9986 31.5298 33.9229 31.4719 33.8873 31.4229C33.8517 31.3784 33.8428 31.325 33.8561 31.2671C33.914 31.0355 34.9292 29.9135 35.9844 28.983C37.0752 28.0257 39.0521 26.8903 40.4146 26.2046C40.9355 25.9419 41.4253 25.7371 41.8527 25.559C42.4493 25.3053 42.9213 25.1093 43.1973 24.8823C43.5891 24.5617 43.5446 24.3302 43.2552 23.2749L43.2018 23.079C42.8768 21.8635 43.9943 20.9552 44.0433 20.9151L44.0477 20.9107C44.3906 20.6614 45.3612 20.087 47.0264 20.087C47.0932 20.087 47.1645 20.087 47.2312 20.0914C47.2669 20.0914 47.298 20.0914 47.3337 20.0914C48.9722 20.0914 50.6106 19.0807 51.323 18.1324C52.1824 16.9836 53.5315 14.4903 54.6089 12.4466C55.8912 10.0111 57.6811 8.16335 57.6989 8.14554L57.8904 7.94963V8.898C58.1486 8.59969 58.6295 8.04313 59.1682 7.47767C59.6981 6.92112 60.2413 6.53821 60.7177 6.19982C60.967 6.02172 61.203 5.85698 61.4034 5.68779C61.9733 5.20693 62.7257 4.49454 62.7346 4.49008L62.9617 4.27637L62.9216 4.58359C62.9172 4.62811 62.7658 5.71005 61.3277 6.97009C60.6732 7.54446 60.317 7.9897 60.1211 8.30137C60.4594 7.96744 60.9359 7.5222 61.2787 7.28622C61.4345 7.17936 61.6037 7.06805 61.7863 6.95228C62.285 6.63616 62.846 6.27997 63.2645 5.83027C63.8389 5.21583 64.5067 4.50344 64.5112 4.49454L64.6492 4.34761L64.7026 4.53906C64.7204 4.6103 65.1568 6.27106 64.0348 7.01907C62.9706 7.73146 62.5699 7.99416 61.6839 8.74662C61.2431 9.12062 60.9492 9.48572 60.7622 9.75287C61.1184 9.51689 61.675 9.16515 62.3161 8.83122C63.407 8.26576 64.8228 7.16155 64.8362 7.14819L64.9965 7.02352L65.0187 7.22388C65.0232 7.28177 65.1434 8.60414 63.4871 9.38332C63.0463 9.59258 62.659 9.77513 62.325 9.93542C62.8192 9.78849 63.3491 9.64601 63.7275 9.57477C64.6447 9.40113 66.5459 8.78224 66.5637 8.77779L66.8131 8.69764L66.6973 8.93362C66.6706 8.9915 65.9938 10.3139 63.9012 10.6879C62.8949 10.866 62.2538 11.0485 61.8575 11.1955C62.6812 11.0218 63.9591 10.7769 64.5512 10.7769H64.6314L64.6581 10.8526C64.716 11.0307 64.6804 11.2222 64.5512 11.4003C64.1327 11.9791 62.8549 12.362 62.1914 12.362C62.1692 12.362 62.1425 12.362 62.1202 12.362C62.2449 12.6737 62.236 13.0343 62.0801 13.3237C61.9243 13.6176 61.6438 13.7868 61.3143 13.7868C61.2386 13.7868 61.1585 13.7779 61.0783 13.7601C61.0961 13.9827 61.0472 14.1697 60.9314 14.3166C60.7132 14.5882 60.3259 14.6283 60.1122 14.6283C60.0676 14.6283 60.0276 14.6283 59.9875 14.6238C59.9741 14.6773 59.9474 14.7307 59.9118 14.793C59.8094 14.9578 59.5957 15.1804 59.3909 15.2294C59.4131 15.4431 59.3419 15.7102 59.2083 15.9017C59.0703 16.1021 58.8699 16.2134 58.6518 16.2134C58.6161 16.2134 58.5761 16.2089 58.536 16.2045C58.5271 16.2846 58.5004 16.3603 58.4514 16.436C58.2867 16.6764 57.9171 16.8456 57.552 16.8456C57.4585 16.8456 57.3695 16.8367 57.2849 16.8144C57.316 17.046 57.276 17.3443 57.1424 17.5758C57.0044 17.8162 56.7906 17.9409 56.5279 17.9409C56.4968 17.9409 56.4656 17.9409 56.4344 17.9365C56.5324 18.3283 56.4077 18.631 56.2786 18.8269C56.0916 19.103 55.8156 19.2811 55.6419 19.3479C55.6553 19.5928 55.5573 20.0291 55.397 20.3007C55.7577 20.3096 56.3365 20.3808 56.6526 20.7237C56.8174 20.9018 56.893 21.1333 56.8708 21.4049C56.7995 22.3132 56.4968 22.6115 56.3409 22.7095C56.3498 22.9321 56.3365 23.5688 55.8957 23.9294C55.6909 24.0986 55.4994 24.2055 55.3302 24.3035C55.0809 24.4459 54.885 24.5528 54.7158 24.7977C54.5555 25.0247 53.9411 25.7906 52.6944 26.1334C52.2224 26.2625 51.9642 26.3249 51.7727 26.3249C51.5679 26.3249 51.4433 26.2536 51.3364 26.1111C51.2162 26.2536 51.0203 26.3338 50.7709 26.3338C50.5795 26.3338 50.3702 26.2848 50.2455 26.2091C50.1164 26.129 50.0496 25.9464 49.9784 25.746C49.9472 25.6659 49.8582 25.4166 49.8137 25.4166C49.8137 25.4166 49.8092 25.4166 49.8048 25.4166C49.7023 25.4522 49.6222 25.5056 49.5287 25.5724C49.404 25.6614 49.2616 25.7639 49.0389 25.8173C48.9232 25.844 48.8074 25.8618 48.6916 25.8618C48.6293 25.8618 48.5759 25.8574 48.5269 25.8529C48.5269 25.9509 48.5002 26.0533 48.4022 26.1156C48.3444 26.1557 48.2553 26.1735 48.1306 26.1735C48.046 26.1735 47.957 26.1646 47.8813 26.1557C47.8858 26.3026 47.8813 26.5119 47.8101 26.6187C47.7077 26.7746 47.1511 27.2332 46.55 27.4202C45.9846 27.5938 45.9445 27.7585 45.9133 27.8743C45.9044 27.9144 45.9 27.9634 45.9 28.0168C45.8955 28.1815 45.8866 28.4042 45.6462 28.5644C45.5126 28.6535 45.4146 28.6847 45.3301 28.7114C45.2366 28.7425 45.1609 28.7648 45.0317 28.8717C44.9427 28.9473 44.9026 28.9963 44.867 29.0453C44.7824 29.1566 44.7156 29.2323 44.4307 29.3748C44.2392 29.4683 44.2169 29.5173 44.1947 29.5573C44.1457 29.6553 44.0878 29.7087 43.8786 29.78C43.5713 29.8824 43.3665 29.9091 43.1706 29.9358C43.1038 29.9447 43.037 29.9536 42.9703 29.9625C42.8456 29.9848 42.7565 30.1762 42.6719 30.3632C42.623 30.4701 42.574 30.5769 42.5117 30.6704C42.3603 30.8975 42.0308 30.942 41.826 30.9465C41.8304 31.1914 41.7815 31.7079 41.3362 31.8325C41.2694 31.8503 41.2026 31.8592 41.1269 31.8592C40.8064 31.8592 40.4902 31.6811 40.3122 31.5609C40.2676 31.699 40.1608 31.8726 39.9203 31.9617C39.8179 31.9973 39.7066 32.0195 39.5909 32.0195C39.4706 32.0195 39.3549 32.0017 39.2658 31.9795C39.3014 32.2555 39.3237 32.7408 39.0566 32.9323C38.9898 32.9813 38.9141 33.0035 38.8295 33.0035C38.6336 33.0035 38.4288 32.8655 38.2863 32.7408C38.2507 33.2172 38.126 34.0944 37.6808 34.0944C37.6273 34.0944 37.5739 34.081 37.516 34.0543C37.28 33.9474 37.1331 33.8495 37.0352 33.7649C36.9372 34.1211 36.7057 34.7489 36.3005 34.8602L36.2515 34.8735L36.2115 34.8468C35.8909 34.6465 35.922 34.0721 35.9577 33.7827C35.9176 33.8228 35.8597 33.8896 35.7885 34.0098C35.735 34.0988 35.6816 34.1923 35.6326 34.2858C35.4189 34.6687 35.2319 35.0027 34.9692 35.0027C34.9514 35.0027 34.9381 35.0027 34.9202 34.9982C34.8401 34.9849 34.7778 34.967 34.7243 34.9492C34.5952 36.5744 34.1945 36.7569 33.7715 36.9528C33.6914 36.9885 33.6112 37.0241 33.5355 37.0731C33.5311 37.0731 33.5311 37.0775 33.5266 37.0775L33.4153 36.9039Z" fill="white"></path><path fill-rule="evenodd" clip-rule="evenodd" d="M63.9716 6.94751C65.0402 6.23512 64.5949 4.58772 64.5949 4.58772C64.5949 4.58772 63.9271 5.30011 63.3482 5.92345C62.9226 6.38184 62.3525 6.74392 61.8504 7.06281C61.6697 7.17756 61.4978 7.28672 61.3446 7.39276C60.7658 7.79348 59.7863 8.81754 59.7863 8.81754C59.7863 8.81754 59.8308 8.14967 61.2556 6.90299C62.6804 5.65631 62.814 4.58772 62.814 4.58772C62.814 4.58772 62.057 5.30011 61.4782 5.78988C61.2755 5.96141 61.04 6.12749 60.7851 6.30722C60.3123 6.64068 59.7728 7.02118 59.252 7.57085C58.4506 8.41682 57.7827 9.21826 57.7827 9.21826V8.23872C57.7827 8.23872 56.0017 10.0642 54.7105 12.5131C53.4193 14.9619 52.2171 17.1436 51.4157 18.2122C50.6321 19.2541 48.9134 20.2158 47.3373 20.2158H47.2304C47.1592 20.2113 47.0924 20.2113 47.0256 20.2113C45.5429 20.2113 44.5812 20.6744 44.1137 21.0172C44.1137 21.0172 43.0006 21.9077 43.3123 23.0653C43.3244 23.1104 43.3362 23.1541 43.3478 23.1968L43.3581 23.2348L43.3629 23.2526L43.3632 23.2536L43.3648 23.2594C43.6374 24.2646 43.729 24.6025 43.2677 24.9799C42.9815 25.2141 42.4976 25.4178 41.8961 25.6712C41.4682 25.8513 40.9808 26.0566 40.4627 26.3156C39.216 26.939 37.1679 28.0966 36.0548 29.0761C34.9417 30.0557 34.0067 31.1243 33.9621 31.3024C33.9354 31.4226 34.1803 31.4404 34.3495 31.4404C34.4341 31.4404 34.4964 31.4359 34.4964 31.4359C34.4964 31.4359 33.695 32.4155 32.3147 33.3505C31.1348 34.1519 30.0841 34.5927 29.3316 34.5927C29.2025 34.5927 29.0867 34.5794 28.9754 34.5526C28.8151 34.7797 28.8864 35.1226 29.4874 35.1226C29.7101 35.1226 30.0128 35.0736 30.4002 34.9534C31.825 34.5081 32.7155 33.7067 32.7155 33.7067C32.7155 33.7067 31.3797 35.7103 30.2221 35.7103C30.329 35.8305 30.4848 35.8839 30.6629 35.8839C31.451 35.8839 32.7733 34.8732 33.0271 34.5081C32.9434 34.6996 32.8853 34.8846 32.828 35.0675C32.6719 35.5652 32.5207 36.0473 31.8695 36.6008C32.7155 36.6008 33.4724 35.8438 33.9176 34.9534C33.8724 35.2338 33.8358 35.4944 33.8027 35.7295C33.7057 36.4201 33.6396 36.8907 33.4768 36.997C33.5596 36.9451 33.6434 36.9068 33.7264 36.869C34.1343 36.6827 34.519 36.507 34.63 34.7753C34.63 34.7753 34.6745 34.8643 34.9417 34.9088C34.9506 34.9133 34.9639 34.9133 34.9728 34.9133C35.1708 34.9133 35.3444 34.6017 35.5338 34.2618L35.5339 34.2616L35.5342 34.261L35.5355 34.2587C35.5883 34.1638 35.6424 34.0668 35.6986 33.9738C35.8633 33.6978 35.9791 33.6443 36.0414 33.6443C36.0815 33.6443 36.0993 33.6622 36.0993 33.6622C36.0993 33.6622 35.9212 34.5526 36.2774 34.7753C36.7672 34.6417 36.9898 33.5286 36.9898 33.5286C36.9898 33.5286 36.9898 33.7067 37.5686 33.9738C37.6087 33.9916 37.6488 34.0005 37.6844 34.0005C38.1519 34.0005 38.192 32.5045 38.192 32.5045C38.192 32.5045 38.5393 32.9097 38.8331 32.9097C38.8865 32.9097 38.9444 32.8963 38.9934 32.8607C39.3051 32.6381 39.127 31.8367 39.127 31.8367C39.127 31.8367 39.3362 31.9302 39.59 31.9302C39.688 31.9302 39.7859 31.9168 39.8839 31.8812C40.2401 31.7476 40.2401 31.3914 40.2401 31.3914C40.2401 31.3914 40.6898 31.7699 41.1306 31.7699C41.1885 31.7699 41.2508 31.7654 41.3087 31.7476C41.7984 31.614 41.7094 30.8571 41.7094 30.8571C41.7094 30.8571 41.7406 30.8616 41.794 30.8616C41.9543 30.8616 42.2882 30.8349 42.4218 30.6345C42.4789 30.5489 42.5268 30.445 42.5744 30.3418C42.6753 30.1231 42.7745 29.9078 42.9561 29.8776C43.0254 29.866 43.0918 29.8575 43.159 29.8488C43.3508 29.8241 43.5499 29.7984 43.8466 29.6995C44.0469 29.6327 44.0692 29.5882 44.097 29.5325C44.1248 29.4769 44.1582 29.4101 44.3809 29.2988C44.6591 29.1596 44.7113 29.0901 44.7765 29.0031C44.8157 28.9509 44.8595 28.8925 44.9597 28.809C45.1059 28.6871 45.1988 28.6587 45.2967 28.6286C45.3777 28.6038 45.4621 28.5779 45.583 28.4973C45.7765 28.3683 45.7831 28.1927 45.789 28.0379C45.7912 27.979 45.7933 27.9231 45.8056 27.874C45.8502 27.6959 45.9392 27.5178 46.518 27.3397C47.0968 27.1616 47.6311 26.7163 47.7202 26.5828C47.8092 26.4492 47.7647 26.0485 47.7647 26.0485C47.7647 26.0485 47.9606 26.0886 48.1343 26.0886C48.2189 26.0886 48.299 26.0797 48.3435 26.0485C48.4771 25.9594 48.388 25.7368 48.388 25.7368C48.388 25.7368 48.5083 25.7769 48.6908 25.7769C48.7843 25.7769 48.8912 25.768 49.0114 25.7368C49.2111 25.6869 49.3408 25.5949 49.4634 25.5081C49.5594 25.4401 49.6509 25.3752 49.7683 25.3361C49.772 25.3352 49.7756 25.3342 49.7789 25.3333C49.785 25.3317 49.7906 25.3303 49.7959 25.3292C49.7973 25.3289 49.7986 25.3286 49.8 25.3284C49.8028 25.3279 49.8056 25.3275 49.8083 25.3273C49.8098 25.3272 49.8113 25.3272 49.8128 25.3272C49.9355 25.3272 50.0075 25.5273 50.0808 25.731C50.1431 25.9043 50.2064 26.0802 50.3026 26.1375C50.4005 26.1954 50.5831 26.2444 50.7701 26.2444C51.0105 26.2444 51.251 26.1642 51.3267 25.9149C51.4469 26.1375 51.5448 26.2355 51.7675 26.2355C51.9545 26.2355 52.2216 26.1687 52.6624 26.0485C53.6419 25.7813 54.3098 25.2025 54.6215 24.7573C54.8072 24.4919 55.0246 24.3689 55.2736 24.228C55.4424 24.1324 55.6258 24.0287 55.8236 23.8668C56.3134 23.4661 56.2243 22.6646 56.2243 22.6646C56.2243 22.6646 56.6696 22.5311 56.7586 21.4179C56.8299 20.523 55.7435 20.434 55.3205 20.434C55.2181 20.434 55.1558 20.4384 55.1558 20.4384C55.4211 20.2615 55.5986 19.4256 55.5137 19.2835L55.514 19.2837C55.5144 19.2839 55.5148 19.2841 55.5152 19.2842C55.5166 19.2847 55.5183 19.2849 55.52 19.2851C55.5208 19.2851 55.5215 19.2852 55.5222 19.2852C55.5233 19.2852 55.5244 19.2852 55.5253 19.2852C55.6811 19.2852 56.6562 18.7554 56.2689 17.8115C56.3624 17.8382 56.4514 17.8515 56.5271 17.8515C57.1861 17.8515 57.2751 16.9343 57.1148 16.6538C57.2484 16.7251 57.3998 16.7562 57.5512 16.7562C58.0498 16.7562 58.5441 16.4179 58.406 16.075C58.4906 16.1106 58.5752 16.1284 58.6509 16.1284C59.1496 16.1284 59.3678 15.4472 59.252 15.14C59.2654 15.1445 59.2876 15.1489 59.3054 15.1489C59.5459 15.1489 59.9555 14.6814 59.8753 14.5167C59.9065 14.5256 59.9956 14.5389 60.1113 14.5389C60.4809 14.5389 61.1131 14.4054 60.9439 13.6262C61.0775 13.6752 61.2022 13.6974 61.3135 13.6974C62.0303 13.6974 62.3064 12.8203 61.9235 12.2459C61.9992 12.2637 62.0882 12.2726 62.1906 12.2726C63.0677 12.2726 64.7908 11.627 64.5504 10.9102C63.6599 10.9102 61.122 11.489 61.122 11.489C61.122 11.489 61.3892 11.0438 63.8825 10.5985C65.944 10.229 66.5985 8.90659 66.5985 8.90659C66.5985 8.90659 64.684 9.52993 63.749 9.70803C62.814 9.88612 60.9439 10.5095 60.9439 10.5095C60.9439 10.5095 61.8344 10.0642 63.4373 9.30731C65.0402 8.55039 64.9066 7.25918 64.9066 7.25918C64.9066 7.25918 63.4818 8.37229 62.3687 8.95111C61.2556 9.52993 60.4096 10.1533 60.4096 10.1533C60.4096 10.1533 60.7213 9.44088 61.6118 8.68396C62.5023 7.92705 62.903 7.6599 63.9716 6.94751ZM55.512 19.2808C55.512 19.282 55.5126 19.2829 55.5137 19.2835C55.5131 19.2826 55.5125 19.2817 55.512 19.2808ZM33.4768 37.0015L33.4813 36.997L33.4798 36.997C33.4793 36.9971 33.4789 36.9971 33.4786 36.9971C33.4778 36.9972 33.4773 36.9975 33.4771 36.998C33.477 36.9982 33.477 36.9984 33.4769 36.9986L33.4769 36.9992C33.4768 36.9998 33.4768 37.0005 33.4768 37.0015ZM62.6626 4.42298L63.1123 4L63.0455 4.60998C63.0452 4.61137 63.0448 4.6138 63.0442 4.61725C63.0259 4.72456 62.8393 5.8166 61.4114 7.06328C61.3847 7.08554 61.3625 7.10335 61.3402 7.12561C61.4649 7.04102 61.5984 6.95642 61.7365 6.86737C62.2307 6.5557 62.7872 6.19951 63.1924 5.76317C63.7623 5.14873 64.4302 4.43634 64.4391 4.42743L64.7107 4.13802L64.8131 4.52539L64.8148 4.53254C64.8497 4.67528 65.2595 6.35456 64.0963 7.13007C63.0366 7.83355 62.6403 8.1007 61.7587 8.84871C61.5717 9.00454 61.4114 9.16038 61.2779 9.30731C61.5628 9.12921 61.9012 8.93776 62.2663 8.7463C63.2767 8.22238 64.5706 7.22859 64.7482 7.09223L64.7486 7.09187L64.7498 7.09096C64.7613 7.08211 64.7677 7.0772 64.7686 7.07664L65.0847 6.8273L65.1248 7.22802C65.1292 7.24138 65.1648 7.61093 64.9778 8.07398C64.8131 8.48806 64.4257 9.07578 63.5308 9.49876C63.5085 9.50767 63.4863 9.52103 63.464 9.52993C63.4821 9.52612 63.5 9.52232 63.5176 9.51856C63.5827 9.50472 63.6449 9.49146 63.7044 9.48095C64.5326 9.32341 66.167 8.803 66.4763 8.70455C66.5079 8.69449 66.5256 8.68883 66.5273 8.68842L67.0304 8.52368L66.7989 8.99564C66.7722 9.04907 66.1934 10.1844 64.4792 10.6787H64.5504H64.7107L64.7597 10.83C64.8087 10.9814 64.8309 11.2174 64.6395 11.4801C64.212 12.0723 62.9921 12.4552 62.2752 12.4863C62.3554 12.7891 62.3242 13.1141 62.1773 13.3902C61.9992 13.7197 61.683 13.9111 61.3135 13.9111C61.3007 13.9111 61.2879 13.9111 61.2751 13.911C61.2584 13.9108 61.2417 13.9104 61.2251 13.9094C61.2202 13.9091 61.2154 13.9087 61.2105 13.9083C61.2048 13.9079 61.199 13.9073 61.1933 13.9067C61.1844 14.0981 61.1265 14.2629 61.0152 14.4009C60.7658 14.7126 60.3429 14.7571 60.1113 14.7571H60.0623C60.052 14.7848 60.0362 14.8125 60.0192 14.8424C60.0164 14.8473 60.0135 14.8523 60.0107 14.8573L60.0068 14.8642L60.0045 14.8684C59.911 15.0153 59.7151 15.2291 59.5013 15.3226C59.5013 15.5407 59.4301 15.7901 59.2965 15.9815C59.1362 16.213 58.9047 16.3422 58.6509 16.3422H58.6287C58.6109 16.4 58.5797 16.4579 58.5441 16.5158C58.3615 16.7874 57.9519 16.9744 57.5512 16.9744C57.5022 16.9744 57.4532 16.97 57.4042 16.9655C57.4087 17.1881 57.3597 17.4375 57.2395 17.6467C57.0926 17.905 56.8521 18.0519 56.5716 18.0653C56.6206 18.4259 56.5004 18.7109 56.3713 18.9023C56.2021 19.1472 55.9572 19.3342 55.7568 19.4277C55.7524 19.5791 55.7212 19.7483 55.6811 19.8908C55.6544 19.9798 55.6188 20.0956 55.5698 20.2113C55.9438 20.238 56.4381 20.3405 56.7319 20.661C56.9189 20.8658 56.9991 21.1241 56.9768 21.4269C56.91 22.2862 56.6384 22.6379 56.4514 22.7804C56.4514 23.0609 56.4024 23.6709 55.9617 24.0315C55.7479 24.2052 55.552 24.3165 55.3784 24.4144C55.1424 24.548 54.9554 24.6549 54.7996 24.8775C54.6348 25.1135 53.9981 25.906 52.7158 26.2577C52.2305 26.3913 51.9678 26.4537 51.763 26.4537C51.5582 26.4537 51.4246 26.3869 51.3222 26.2934C51.1842 26.4047 50.9927 26.467 50.7612 26.467C50.5475 26.467 50.3204 26.4091 50.1779 26.3245C50.0152 26.2278 49.9393 26.018 49.8645 25.8112L49.8618 25.8036C49.8395 25.7324 49.7995 25.63 49.7683 25.5676C49.7253 25.5875 49.6823 25.6172 49.6356 25.6494L49.6351 25.6497C49.6191 25.6608 49.6027 25.6721 49.5858 25.6834L49.5817 25.6863C49.4576 25.7749 49.2982 25.8888 49.0604 25.9461C48.9357 25.9772 48.811 25.9906 48.6864 25.9906H48.624C48.6018 26.0841 48.5528 26.1687 48.4637 26.2266C48.3836 26.28 48.2767 26.3023 48.1298 26.3023C48.0853 26.3023 48.0408 26.3023 47.9962 26.2978C47.9918 26.4403 47.9695 26.5961 47.9027 26.6985C47.7781 26.8855 47.1992 27.353 46.5804 27.5445C46.0728 27.7003 46.0416 27.825 46.0194 27.9185C46.0166 27.9353 46.0138 27.9592 46.0121 27.9867C46.0111 28.003 46.0104 28.0206 46.0104 28.0387C46.006 28.2035 45.9971 28.484 45.7077 28.6754C45.5607 28.7734 45.4539 28.809 45.3648 28.8357C45.2758 28.8624 45.2179 28.8802 45.1066 28.9737C45.0265 29.0405 44.9953 29.0806 44.9597 29.1296C44.8662 29.2498 44.786 29.3388 44.4833 29.4902C44.3369 29.5613 44.3162 29.597 44.3032 29.6196C44.3023 29.621 44.3015 29.6224 44.3007 29.6238C44.2428 29.7485 44.1671 29.8242 43.9222 29.9043C43.6251 30.0047 43.4106 30.0344 43.2269 30.0597L43.1921 30.0646C43.1253 30.0735 43.0629 30.0824 42.9961 30.0913C42.9341 30.1037 42.8489 30.2815 42.7907 30.4031L42.7907 30.4031L42.7906 30.4033L42.7906 30.4034C42.7862 30.4125 42.782 30.4213 42.778 30.4297C42.729 30.541 42.6756 30.6568 42.6088 30.7547C42.4529 30.9862 42.1591 31.0575 41.9365 31.0753C41.932 31.1421 41.9231 31.2178 41.9097 31.2935C41.843 31.6452 41.6515 31.8856 41.3666 31.9613C41.2909 31.9836 41.2152 31.9925 41.1306 31.9925C40.8412 31.9925 40.5607 31.8634 40.3648 31.7476C40.2935 31.8856 40.1644 32.0148 39.964 32.0904C39.8527 32.1305 39.7281 32.1528 39.5945 32.1528C39.5277 32.1528 39.4609 32.1483 39.3986 32.1394C39.4208 32.4466 39.3941 32.8518 39.127 33.0433C39.0424 33.1056 38.9444 33.1368 38.8376 33.1368C38.6773 33.1368 38.5214 33.0611 38.3879 32.972L38.3853 32.992C38.3727 33.0883 38.3597 33.1885 38.3389 33.2926L38.3363 33.3062C38.2896 33.5502 38.1607 34.2232 37.6888 34.2232C37.6176 34.2232 37.5508 34.2053 37.4796 34.1742C37.3237 34.103 37.2035 34.0362 37.1056 33.9694C37.0833 34.0362 37.061 34.1074 37.0299 34.1831C36.8473 34.6417 36.6158 34.9133 36.3397 34.989L36.2462 35.0157L36.1617 34.9623C35.9123 34.8064 35.8411 34.4814 35.8322 34.1875C35.7965 34.2454 35.7654 34.3033 35.7342 34.3612L35.7315 34.366C35.5011 34.7781 35.301 35.1359 34.9728 35.1359C34.9506 35.1359 34.9283 35.1359 34.9061 35.1315C34.8749 35.127 34.8526 35.1226 34.8259 35.1181C34.7636 35.7637 34.6567 36.2134 34.4831 36.5162C34.2872 36.8635 34.0378 36.9792 33.8197 37.0772L33.8111 37.081C33.7344 37.115 33.6657 37.1456 33.597 37.1885C33.5957 37.1898 33.5943 37.1908 33.593 37.1915C33.5921 37.1921 33.5912 37.1925 33.5904 37.1929L33.5892 37.1936L33.5884 37.194L33.5878 37.1943C33.587 37.1948 33.5862 37.1953 33.5854 37.1959C33.5848 37.1963 33.5842 37.1968 33.5837 37.1974L33.3477 36.8189L33.3433 36.8234C33.4189 36.7432 33.4902 36.3381 33.5481 35.9195C33.4323 36.0531 33.3076 36.1778 33.183 36.2846C32.7689 36.6408 32.3147 36.8278 31.865 36.8278H31.2595L31.7226 36.436C32.2168 36.0175 32.3949 35.6568 32.5285 35.2695C32.4171 35.3585 32.2925 35.4431 32.1678 35.5233C31.7537 35.7904 31.1571 36.111 30.6629 36.111C30.3423 36.111 30.1553 35.973 30.0574 35.8572L29.7368 35.4877H30.2221C30.654 35.4877 31.1571 35.1315 31.589 34.7085C31.2684 34.8732 30.89 35.0335 30.467 35.1671C30.0841 35.2828 29.7546 35.3452 29.4874 35.3452C28.9888 35.3452 28.8018 35.1315 28.735 35.0023C28.6415 34.8242 28.6637 34.6016 28.7929 34.4235L28.8775 34.3033L29.0244 34.3389C29.1179 34.3612 29.2203 34.3701 29.3316 34.3701C30.0306 34.3701 31.0458 33.9427 32.1901 33.1679C33.0405 32.5891 33.6727 31.9925 34.02 31.6318C33.9176 31.6051 33.8464 31.5606 33.7974 31.4983C33.7395 31.427 33.7217 31.338 33.744 31.2489L33.7442 31.2482C33.7578 31.1983 33.8008 31.0404 34.443 30.3406C34.6968 30.0646 35.2266 29.5125 35.9079 28.9114C37.0076 27.9452 38.9934 26.8054 40.3648 26.1197C40.8645 25.8699 41.332 25.6724 41.7481 25.4966L41.7482 25.4965L41.8118 25.4697C42.404 25.2203 42.867 25.0244 43.1297 24.8107C43.4681 24.5302 43.428 24.3343 43.152 23.3191C43.1343 23.2574 43.1167 23.1912 43.099 23.125L43.0985 23.1232C42.7522 21.8442 43.9207 20.8885 43.9753 20.8439L43.9757 20.8436L43.9801 20.8391L43.9846 20.8347C44.3363 20.5809 45.3337 19.9887 47.0301 19.9887C47.0528 19.9887 47.0752 19.9892 47.0974 19.9898C47.1054 19.99 47.1134 19.9903 47.1214 19.9905L47.1347 19.9909C47.1692 19.9921 47.2037 19.9932 47.2393 19.9932H47.3373C48.8778 19.9932 50.5297 19.0225 51.2376 18.0786C52.0925 16.9388 53.4371 14.4499 54.5146 12.4107C55.8058 9.96182 57.6046 8.1007 57.6224 8.08289L58.0053 7.69107V8.23427V8.61273L58.078 8.53061L58.0786 8.52993C58.348 8.22556 58.7049 7.82215 59.0917 7.41502C59.6099 6.87118 60.1363 6.4962 60.6035 6.16332L60.659 6.12381L60.6772 6.11083C60.9196 5.93769 61.1446 5.77696 61.3357 5.61624C61.9012 5.13537 62.6537 4.43188 62.6626 4.42298ZM46.2553 22.6869C46.2375 22.6691 46.2153 22.6646 46.1974 22.6646C46.1529 22.6646 46.1128 22.7002 46.1084 22.7492L46.0772 23.3058C46.0772 23.3236 46.0817 23.3369 46.095 23.3459L46.6471 23.7288H46.6516C46.6538 23.7288 46.6549 23.7288 46.6555 23.7282C46.656 23.7276 46.656 23.7265 46.656 23.7243V23.0431C46.656 23.0297 46.6471 23.0164 46.6382 23.0075L46.2553 22.6869ZM45.8858 22.7359C45.8947 22.5711 46.0327 22.442 46.1974 22.442C46.2687 22.442 46.3399 22.4687 46.3978 22.5177L46.7807 22.8383C46.843 22.8872 46.8787 22.9629 46.8787 23.0431V23.7243C46.8787 23.849 46.7763 23.9514 46.6516 23.9514C46.6071 23.9514 46.5625 23.938 46.5225 23.9113L45.9704 23.5284C45.8947 23.475 45.8501 23.3859 45.8546 23.2924L45.8858 22.7359ZM45.0443 22.4331C45.2268 22.4331 45.3693 22.4509 45.4049 22.4865C45.5029 22.5845 45.4494 23.2434 44.9151 23.3325C44.8617 23.3414 44.8127 23.3459 44.7638 23.3459C44.3141 23.3459 44.0069 22.9941 43.8466 22.7537C43.7174 22.5578 44.5411 22.4331 45.0443 22.4331ZM45.0443 22.2105C44.7994 22.2105 44.51 22.2372 44.2695 22.2817C43.8154 22.3663 43.6996 22.4776 43.6462 22.5756C43.5972 22.6691 43.6017 22.7848 43.664 22.8739C43.9668 23.3236 44.3452 23.564 44.7682 23.564C44.8306 23.564 44.8929 23.5596 44.9552 23.5462C45.2758 23.4928 45.5162 23.2746 45.6231 22.9451C45.6899 22.7314 45.6988 22.4554 45.5652 22.3218C45.494 22.255 45.3782 22.2105 45.0443 22.2105ZM48.3435 21.1508C48.3435 21.0885 48.299 21.0617 48.2189 21.0617C47.8404 21.0617 46.7317 21.6673 46.6872 21.8454C46.6605 21.9745 46.9722 22.4108 47.4041 22.4108C47.4887 22.4108 47.5777 22.393 47.6712 22.353C48.2367 22.1125 48.3346 21.5159 48.3435 21.1508ZM47.226 21.1909C47.4263 21.084 47.925 20.8391 48.2189 20.8391C48.3302 20.8391 48.4192 20.8703 48.486 20.9371C48.5439 20.995 48.5706 21.0707 48.5706 21.1552C48.5572 21.8454 48.2678 22.344 47.7647 22.5578C47.6534 22.6067 47.5332 22.6335 47.413 22.6335C47.1236 22.6335 46.8342 22.4821 46.6338 22.2327C46.5581 22.1392 46.4423 21.9611 46.478 21.7919C46.4913 21.7296 46.5314 21.556 47.226 21.1909ZM44.8484 23.0653C45.0082 23.0653 45.1378 22.9657 45.1378 22.8427C45.1378 22.7198 45.0082 22.6201 44.8484 22.6201C44.6885 22.6201 44.5589 22.7198 44.5589 22.8427C44.5589 22.9657 44.6885 23.0653 44.8484 23.0653ZM47.8602 21.5852C47.9216 21.6916 47.8593 21.8427 47.7208 21.9227C47.5824 22.0026 47.4204 21.9811 47.3589 21.8746C47.2974 21.7681 47.3598 21.617 47.4982 21.5371C47.6366 21.4572 47.7987 21.4787 47.8602 21.5852Z" fill="#3473B8"></path></svg> 