<?xml version="1.0" encoding="UTF-8"?> <svg xmlns="http://www.w3.org/2000/svg" width="200" height="50" viewBox="0 0 200 50" fill="none"><path fill-rule="evenodd" clip-rule="evenodd" d="M109.6 21.2823L106.687 15.0488H106.484L103.543 21.2823H104.283L105.263 19.2385H107.945L108.925 21.2823H109.6ZM105.494 18.6558L106.567 16.3991L107.612 18.6558H105.494ZM110.387 21.3101H111.755V21.2823C112.874 21.2823 113.439 20.8662 113.439 19.9875C113.45 19.7083 113.364 19.4337 113.196 19.2108C113.027 18.988 112.786 18.831 112.514 18.7668C112.703 18.7008 112.866 18.5748 112.978 18.408C113.09 18.2411 113.145 18.0424 113.133 17.8419C113.135 17.7271 113.119 17.613 113.086 17.5033C113.075 17.4688 113.063 17.4347 113.049 17.4012C113.018 17.3237 112.978 17.2502 112.93 17.1819C112.891 17.127 112.848 17.0754 112.8 17.028C112.651 16.9006 112.477 16.8045 112.29 16.7457C112.102 16.687 111.905 16.6665 111.709 16.6858H110.387V21.3101ZM111.015 18.6558V17.213L111.404 17.287C111.625 17.2653 111.848 17.2653 112.07 17.287C112.199 17.3227 112.311 17.405 112.384 17.5182C112.488 17.6566 112.54 17.8266 112.532 17.9991C112.54 18.1588 112.491 18.3162 112.393 18.4431C112.317 18.5445 112.21 18.6189 112.088 18.6558C111.936 18.6673 111.783 18.671 111.63 18.6672C111.555 18.6653 111.479 18.6614 111.404 18.6558H111.015ZM111.015 20.8199V19.2014H111.903C112.131 19.1904 112.354 19.2702 112.523 19.4234C112.554 19.4539 112.583 19.4868 112.609 19.5219C112.649 19.5762 112.682 19.6355 112.707 19.6984C112.738 19.7747 112.756 19.8552 112.762 19.9368C112.764 19.966 112.765 19.9952 112.763 20.0246C112.772 20.1958 112.723 20.3648 112.625 20.5055C112.546 20.6246 112.428 20.7128 112.292 20.7552C112.083 20.8043 111.868 20.8261 111.654 20.8199H111.015ZM115.076 20.0985V16.7044L114.437 16.6581V21.2823H114.511L117.869 17.9066V21.3009H118.461V16.6766L115.076 20.0985ZM124.435 21.3286V16.7044L123.834 16.6766V17.5644C123.622 17.2675 123.348 17.0211 123.029 16.843C122.713 16.6769 122.36 16.5941 122.003 16.6026C121.689 16.5989 121.378 16.6594 121.089 16.7802C120.799 16.9011 120.537 17.0799 120.319 17.3054C119.873 17.7648 119.623 18.3803 119.623 19.0211C119.623 19.6619 119.873 20.2774 120.319 20.7367C120.533 20.9665 120.792 21.1486 121.081 21.2713C121.369 21.394 121.68 21.4545 121.993 21.4489C122.345 21.4521 122.693 21.3763 123.011 21.2269C123.33 21.0553 123.613 20.8229 123.843 20.5424V21.3286H124.435ZM121.133 17.398C121.415 17.2381 121.734 17.1553 122.058 17.1575V17.1298C122.296 17.127 122.533 17.1732 122.752 17.2655C122.972 17.3577 123.17 17.4941 123.335 17.6661C123.519 17.8424 123.666 18.0549 123.765 18.2906C123.863 18.5261 123.912 18.7795 123.908 19.035C123.91 19.359 123.827 19.678 123.667 19.9599C123.509 20.2403 123.275 20.471 122.992 20.6257C122.711 20.7888 122.392 20.8748 122.067 20.8755C121.742 20.8825 121.421 20.7958 121.143 20.6257C120.86 20.4585 120.627 20.2191 120.467 19.9321C120.305 19.6509 120.22 19.3319 120.22 19.0072C120.22 18.6825 120.305 18.3635 120.467 18.0824C120.622 17.7971 120.852 17.5602 121.133 17.398ZM126.359 16.7044H125.758L125.767 21.3009H126.368V19.3402L126.553 19.1736L128.717 21.2823H129.559L127.034 18.7853L129.318 16.7044H128.495L126.359 18.6465V16.7044ZM133.273 16.7744C132.968 16.6418 132.638 16.5769 132.306 16.5841L132.315 16.5563C132.24 16.5561 132.165 16.5596 132.091 16.5667C131.837 16.5911 131.589 16.6583 131.356 16.7659C131.056 16.9049 130.79 17.108 130.576 17.361C130.154 17.8161 129.919 18.414 129.919 19.035C129.919 19.6559 130.154 20.254 130.576 20.7089C130.794 20.9485 131.062 21.1373 131.361 21.262C131.659 21.3867 131.982 21.4441 132.306 21.4304C132.629 21.4422 132.951 21.3838 133.25 21.2593C133.548 21.1348 133.816 20.947 134.035 20.7089C134.469 20.2532 134.708 19.6459 134.701 19.0165C134.708 18.4022 134.484 17.8077 134.072 17.3517C133.951 17.2159 133.814 17.0954 133.665 16.9924C133.542 16.9073 133.411 16.8343 133.273 16.7744ZM131.614 17.3054C131.833 17.2115 132.068 17.1642 132.306 17.1668L132.315 17.139C132.559 17.1378 132.801 17.1882 133.024 17.2871C133.247 17.3859 133.447 17.5309 133.61 17.7124C133.891 18.0092 134.071 18.388 134.122 18.7939C134.174 19.1996 134.095 19.6114 133.896 19.969C133.746 20.2462 133.522 20.4766 133.249 20.635C132.968 20.7973 132.649 20.8828 132.324 20.8828C131.999 20.8828 131.68 20.7973 131.399 20.635C131.125 20.4789 130.9 20.248 130.752 19.969C130.541 19.6147 130.455 19.2003 130.507 18.7915C130.559 18.3827 130.746 18.0029 131.039 17.7124C131.2 17.538 131.396 17.3994 131.614 17.3054ZM140.99 16.7044H140.814L138.946 20.265L137.096 16.6581H136.93L135.358 21.2823H136.033L137.17 17.8881L138.946 21.2823H139.057L140.796 17.9344L141.933 21.3286H142.553L140.99 16.7044ZM147.316 16.7044H143.441V21.2823H144.033V17.2315H146.724V21.3286H147.316V16.7044ZM152.652 21.3286H153.235V16.7044L152.643 16.6766V17.5644C152.428 17.2671 152.15 17.0208 151.829 16.843C151.513 16.6769 151.16 16.5941 150.803 16.6026C150.617 16.6011 150.433 16.6217 150.253 16.6639C150.129 16.6931 150.007 16.7325 149.889 16.7818C149.6 16.9026 149.338 17.0808 149.12 17.3054C148.673 17.7648 148.423 18.3803 148.423 19.0211C148.423 19.6619 148.673 20.2774 149.12 20.7367C149.333 20.966 149.593 21.1479 149.881 21.2705C150.036 21.3364 150.197 21.3845 150.362 21.4141C150.504 21.4395 150.648 21.4512 150.793 21.4489C151.145 21.4532 151.493 21.3773 151.811 21.2269C152.135 21.0589 152.422 20.8259 152.652 20.5424V21.3286ZM149.933 17.398C150.215 17.2381 150.534 17.1553 150.858 17.1575L150.867 17.1298C151.113 17.1248 151.357 17.1716 151.583 17.2673C151.667 17.3027 151.748 17.3446 151.825 17.3924C151.956 17.4734 152.075 17.5716 152.181 17.6846C152.354 17.8616 152.49 18.0714 152.58 18.3017C152.671 18.5321 152.714 18.7783 152.708 19.0258C152.707 19.3482 152.628 19.6658 152.477 19.9506C152.382 20.114 152.264 20.2613 152.126 20.3879C152.026 20.48 151.916 20.561 151.797 20.6295C151.514 20.7918 151.193 20.8767 150.867 20.8755C150.542 20.8809 150.221 20.7944 149.943 20.6257C149.66 20.4585 149.427 20.2191 149.267 19.9321C149.105 19.6509 149.02 19.3319 149.02 19.0072C149.02 18.6825 149.105 18.3635 149.267 18.0824C149.426 17.7999 149.655 17.5638 149.933 17.398ZM155.168 19.0904H157.85L157.887 21.3101H158.479V16.6858H157.85V18.5356H155.168V16.6858H154.567V21.3101H155.168V19.0904ZM160.366 20.0985V16.7044L159.718 16.6581V21.2823H159.792L163.159 17.9066V21.3101H163.751V16.6858L160.366 20.0985ZM166.645 19.2477H167.071L167.025 21.3471H167.617V16.7229H166.211C165.872 16.7172 165.543 16.8357 165.286 17.0558C165.16 17.1737 165.061 17.3174 164.996 17.4769C164.93 17.6365 164.9 17.8083 164.907 17.9807C164.903 18.131 164.93 18.2807 164.986 18.4205C165.041 18.5604 165.125 18.6876 165.23 18.7945C165.458 19.0182 165.755 19.1583 166.072 19.1922L164.685 21.3101H165.332L166.645 19.2477ZM166.683 17.213H167.071V18.702H166.683C166.446 18.7245 166.207 18.7245 165.97 18.702C165.835 18.6689 165.716 18.5865 165.637 18.4707C165.534 18.3396 165.481 18.1753 165.489 18.0083C165.481 17.8438 165.519 17.6802 165.6 17.5366C165.676 17.4218 165.786 17.3342 165.915 17.287C166.063 17.2503 166.215 17.2265 166.367 17.216C166.472 17.2087 166.577 17.2077 166.683 17.213ZM156.909 32.2522C158.784 28.8686 160.671 25.464 160.671 24.5101C160.671 24.1455 160.579 24.1578 160.465 24.1732C160.313 24.1937 160.12 24.2196 160.051 23.3633H167.274C167.795 23.3633 168.034 23.7542 168.246 24.0986C168.286 24.1645 168.326 24.2287 168.366 24.2881L170.4 39.6129L171.39 40.1587C171.307 40.547 171.381 40.7136 170.78 40.7136H163.547C163.006 40.7136 162.768 40.3325 162.55 39.9835C162.519 39.9329 162.488 39.883 162.456 39.835L162.178 34.1471H161.772L159.256 39.5668L160.181 40.1309C160.168 40.1938 160.159 40.251 160.152 40.3029C160.107 40.5936 160.088 40.7136 159.57 40.7136H154.095C154.03 40.7165 153.966 40.7119 153.902 40.7C153.851 40.6904 153.801 40.6762 153.753 40.6573C153.644 40.6151 153.545 40.5505 153.462 40.4679C153.38 40.3853 153.315 40.2863 153.273 40.1773C153.247 40.1118 153.23 40.0435 153.222 39.9741C153.216 39.928 153.215 39.8815 153.217 39.835C153.217 38.9159 155.057 35.5944 156.909 32.2522ZM96.0605 37.4303V36.1171C96.0605 34.9021 96.8113 32.3115 97.4023 30.2724C97.6436 29.4399 97.8582 28.6993 97.9842 28.1817C98.5576 25.8603 100.38 23.4096 103.071 23.4096H113.115C113.041 27.5669 111.49 27.4586 109.6 27.3266C108.651 27.2604 107.617 27.1881 106.641 27.6454C105.54 28.1632 104.162 33.9436 104.162 35.6732C104.162 36.3483 104.8 36.5517 105.476 36.5517H108.981C109.621 36.5517 109.802 36.4037 109.995 36.2466C110.175 36.0995 110.365 35.9443 110.951 35.8951C110.877 37.939 110.239 40.7136 108.102 40.7136H100C98.0212 40.7136 96.0605 39.502 96.0605 37.4303ZM116.694 24.3159L115.769 24.0939V23.391H123.917C124.426 23.391 124.574 23.5482 124.574 24.0477C124.505 25.1668 124.284 26.2714 123.917 27.3309C124.842 26.7205 126.544 25.4905 126.544 24.0477H126.109V23.391H133.952C134.072 23.3864 134.192 23.4078 134.303 23.4534C134.414 23.499 134.515 23.568 134.597 23.6556C134.679 23.7433 134.742 23.8475 134.781 23.9614C134.819 24.0753 134.833 24.1962 134.821 24.3159C134.821 24.8986 129.503 29.4119 128.911 29.569C129.004 30.7066 131.621 36.5795 132.417 36.5795H133.286C133.221 38.6789 132.694 40.7413 130.447 40.7413H127.598C125.619 40.7413 123.825 36.2927 123.436 34.6095C121.67 35.0812 120.81 37.5598 120.81 39.65C120.81 40.0846 121.263 40.0846 121.679 40.0846C121.55 40.5748 121.633 40.7413 121.022 40.7413H113.624C113.207 40.7413 112.754 40.3529 112.754 40.0846C112.754 39.4108 113.748 35.7626 114.342 33.578C114.507 32.9741 114.641 32.4821 114.715 32.1957C114.875 31.5779 115.094 30.8371 115.328 30.0444C115.902 28.096 116.569 25.8345 116.694 24.3159ZM134.821 36.8476V35.9228V35.8951C135.288 33.128 135.955 30.3986 136.819 27.7286C137.226 26.4579 138.037 25.3552 139.129 24.5887C140.221 23.8222 141.534 23.4341 142.867 23.4835H149.665C151.894 23.4835 154.289 25.1113 154.289 27.4234V28.302C154.289 29.5505 152.532 35.7749 152.098 36.8476C151.016 39.5112 149.23 40.7875 145.531 40.7875H140.296C137.254 40.7875 134.821 39.8534 134.821 36.8476ZM143.386 32.8281C143.063 33.9982 142.71 35.2774 142.71 36.1447L142.756 36.1171C142.756 36.4222 143.006 36.5517 143.367 36.5795H143.58C144.671 36.5795 146.428 29.606 146.428 28.0338C146.428 27.6824 146.299 27.3771 145.993 27.3771C144.487 27.3771 144.164 29.2046 143.918 30.5885C143.885 30.7767 143.853 30.9568 143.82 31.1228C143.723 31.6066 143.559 32.2017 143.386 32.8281Z" fill="#203E86"></path><path fill-rule="evenodd" clip-rule="evenodd" d="M81.9935 26.2948C79.4039 25.4624 76.7218 24.815 73.9473 24.3526C69.7854 23.6127 61.1843 19.8208 60.5369 18.341C59.0571 15.104 62.2016 13.3468 63.7738 12.6994C66.271 11.7746 67.1958 11.7746 70.5253 11.8671L72.19 10.0173C72.2825 9.92486 61.3692 9 57.6698 9C53.6004 9 45.8316 9.46243 44.4444 13.6243C44.3519 13.9942 44.3519 14.9191 44.4444 15.289C45.2767 17.9711 47.4039 19.7283 47.9588 20.0983C52.7681 23.0578 68.1207 26.7572 69.8779 27.4046C72.0975 28.237 77.6467 29.8093 77.6467 33.2312C77.6467 37.3006 68.1207 38.9653 65.5311 39.0578C66.3634 39.6127 76.0744 40.4451 81.6236 40.4451C85.6929 40.4451 93.5542 38.2254 93.5542 34.896C93.6467 31.289 85.4155 27.4046 81.9935 26.2948Z" fill="#66A9A8"></path><path fill-rule="evenodd" clip-rule="evenodd" d="M29 32.861C29 38.6876 33.6243 40.9997 35.104 40.9997L61.9249 38.6876C59.2428 38.2252 48.1445 36.098 48.1445 32.5836C48.1445 23.15 82.3642 18.5258 103.451 18.5258C100.121 17.6009 70.9884 16.1211 50.1792 19.6356C36.2139 22.1327 29 25.9246 29 32.861Z" fill="#203E86"></path></svg> 