<?xml version="1.0" encoding="UTF-8"?> <svg xmlns="http://www.w3.org/2000/svg" width="200" height="50" viewBox="0 0 200 50" fill="none"><path fill-rule="evenodd" clip-rule="evenodd" d="M127.125 17.8645C142.737 11.8874 158.375 5.95039 174 0C172.309 1.86784 170.402 3.52221 168.47 5.13655C161.422 10.9535 153.543 15.7032 145.301 19.639C145.274 19.6256 145.207 19.5989 145.18 19.5856C139.542 17.1441 133.126 16.517 127.125 17.8645ZM62.4376 18.7718C63.1222 18.705 63.8336 18.665 64.4914 18.8918C64.9881 19.092 65.082 19.6923 65.082 20.1726C65.0686 20.7196 65.1089 21.3734 64.6793 21.7736C64.1424 22.1739 63.4175 22.0538 62.8 22.0672C62.3168 22.0538 61.6859 21.9204 61.5248 21.3867C61.3234 20.7463 61.3234 20.0259 61.5114 19.3721C61.6188 18.9719 62.0617 18.8118 62.4376 18.7718ZM106.547 18.7317C107.608 18.7317 108.668 18.7317 109.728 18.7317C109.728 20.226 109.728 21.7069 109.728 23.2012C111.165 23.2012 112.614 23.2012 114.051 23.2012C114.051 24.1218 114.051 25.0424 114.051 25.9629C112.614 25.9629 111.165 25.9629 109.728 25.9629C109.728 27.8174 109.728 29.6586 109.728 31.4997C109.755 32.1135 109.769 32.8072 110.212 33.3009C110.574 33.6744 111.138 33.7678 111.648 33.7545C112.427 33.7812 113.205 33.6077 113.943 33.4076C114.131 34.2481 114.319 35.0886 114.507 35.9292C113.071 36.4228 111.541 36.5963 110.024 36.4895C109.017 36.4095 107.903 36.1293 107.299 35.2487C106.493 34.0747 106.52 32.5938 106.534 31.2329C106.52 29.4718 106.547 27.7107 106.52 25.9496C105.795 25.9629 105.071 25.9496 104.346 25.9496C104.346 25.029 104.346 24.1084 104.346 23.1879C105.071 23.1879 105.795 23.1879 106.52 23.1879C106.547 21.7069 106.547 20.2127 106.547 18.7317ZM116.507 18.7317C116.507 24.5487 116.507 30.3657 116.507 36.1693C117.568 36.1693 118.628 36.1693 119.702 36.1693C119.702 33.2742 119.702 30.379 119.702 27.4972C119.702 27.2037 119.675 26.9102 119.756 26.6167C119.944 26.0963 120.548 25.9362 121.031 25.8028C121.944 25.6294 122.977 25.576 123.81 26.0697C124.561 26.5766 124.749 27.5773 124.803 28.4178C124.816 30.9927 124.803 33.581 124.803 36.156C125.877 36.156 126.951 36.156 128.025 36.156C128.025 33.581 128.025 30.9927 128.025 28.4178C127.971 26.9769 127.89 25.4293 127.031 24.2018C126.561 23.4947 125.756 23.1078 124.951 22.9344C123.179 22.5608 121.313 22.881 119.702 23.6682C119.702 22.0138 119.702 20.3594 119.702 18.705C118.642 18.7317 117.568 18.7317 116.507 18.7317ZM34.5839 23.4947C36.5572 23.0011 38.5975 22.7476 40.6245 22.8143C41.9534 22.881 43.43 23.1478 44.383 24.1618C45.269 25.1357 45.4301 26.5099 45.4569 27.7641C45.4703 30.3523 45.4569 32.9273 45.4569 35.5156C43.7387 36.156 41.9131 36.4362 40.0875 36.5295C38.866 36.5562 37.6176 36.5429 36.4363 36.2227C35.7115 36.0226 34.9866 35.6357 34.5839 34.9686C33.9799 33.9679 33.9664 32.7672 34.0201 31.6465C34.0738 30.6992 34.302 29.6986 35.0269 29.0182C35.7115 28.3244 36.7317 28.1109 37.6713 28.0042C39.2419 27.8574 40.8392 27.9642 42.3829 28.2977C42.3695 27.6306 42.3427 26.8968 41.9668 26.3098C41.6178 25.7895 40.9601 25.6427 40.3828 25.5627C38.6244 25.4026 36.8391 25.5894 35.1611 26.1364C34.9732 25.2558 34.7718 24.3753 34.5839 23.4947ZM37.5236 31.0728C37.3089 31.7532 37.3357 32.5004 37.5102 33.1808C37.6176 33.6477 38.0606 33.9279 38.5036 34.008C39.7922 34.2214 41.1346 34.0613 42.3829 33.6744C42.3829 32.6071 42.3829 31.5398 42.3829 30.4724C41.2419 30.2456 40.0741 30.2189 38.9063 30.2723C38.3559 30.299 37.6982 30.4858 37.5236 31.0728ZM68.3573 23.9217C70.344 23.2012 72.4649 22.8143 74.5724 22.8143C75.6597 22.841 76.8141 23.0144 77.7135 23.6682C79.5928 23.0278 81.6063 22.6542 83.593 22.881C84.7474 23.0144 85.9555 23.5081 86.5864 24.522C87.2576 25.616 87.4052 26.9235 87.4724 28.1643C87.4724 30.8326 87.4724 33.5143 87.4724 36.1827C86.3985 36.1827 85.3246 36.1827 84.2507 36.1827C84.2507 34.048 84.2507 31.9133 84.2507 29.7787C84.2641 28.738 84.3313 27.6306 83.8883 26.6567C83.6064 26.0163 82.8681 25.7495 82.2238 25.7228C81.1902 25.6694 80.1566 25.7895 79.1632 26.0697C79.4451 27.0169 79.4988 28.0042 79.5257 28.9915C79.5257 31.393 79.5257 33.7945 79.5257 36.196C78.4518 36.196 77.3779 36.196 76.304 36.196C76.304 33.8879 76.304 31.5664 76.304 29.2583C76.304 28.3644 76.2906 27.4305 75.8879 26.6167C75.6194 26.083 75.0154 25.8295 74.4382 25.7628C73.4583 25.6561 72.4918 25.8028 71.5387 26.0296C71.5119 29.4184 71.5387 32.8206 71.5253 36.2093C70.4648 36.2093 69.4044 36.2093 68.3439 36.2093C68.3573 32.0868 68.3573 28.0042 68.3573 23.9217ZM48.0208 23.2012C51.7794 23.2012 55.5379 23.2012 59.2965 23.2012C59.2697 23.4814 59.3636 23.8016 59.1757 24.0417C57.1219 27.2571 54.9339 30.379 52.5982 33.4076C54.7728 33.4076 56.9474 33.4076 59.1086 33.4076C59.1086 34.3282 59.1086 35.2487 59.1086 36.1693C55.256 36.1693 51.4169 36.1693 47.5644 36.1693C47.5644 35.9425 47.5644 35.7157 47.5644 35.5022C49.9672 32.4337 52.276 29.2717 54.3432 25.9763C52.2223 25.9629 50.1149 25.9763 47.9939 25.9763C48.0208 25.0424 48.0208 24.1218 48.0208 23.2012ZM61.6053 23.2012C62.6658 23.2012 63.7262 23.2012 64.8001 23.2012C64.8001 27.5239 64.8001 31.8466 64.8001 36.1693C63.7397 36.1693 62.6792 36.1693 61.6053 36.1693C61.6053 31.8466 61.6053 27.5239 61.6053 23.2012ZM90.8685 23.2012C91.9289 23.2012 92.9894 23.2012 94.0633 23.2012C94.0633 25.4293 94.0633 27.6707 94.0633 29.8987C94.0901 30.846 94.0498 31.8333 94.466 32.7138C94.7479 33.3275 95.4459 33.5944 96.0768 33.6611C97.1104 33.7411 98.1574 33.6611 99.1642 33.3676C99.1642 29.9788 99.1642 26.59 99.1642 23.2012C100.238 23.2012 101.312 23.2012 102.386 23.2012C102.386 27.2838 102.399 31.3663 102.372 35.4622C100.184 36.2227 97.8487 36.6363 95.513 36.5696C94.117 36.5162 92.5867 36.0492 91.7947 34.8352C90.9088 33.4076 90.8551 31.6732 90.8685 30.0455C90.8685 27.7641 90.8685 25.4826 90.8685 23.2012Z" fill="#FF6200"></path><path fill-rule="evenodd" clip-rule="evenodd" d="M127.045 17.9455C133.018 16.5798 139.391 17.2018 144.99 19.7034C143.177 20.6499 141.271 21.4071 139.364 22.1238C137.818 22.7052 136.204 23.1244 134.605 23.5436C134.418 23.5301 134.285 23.3813 134.138 23.3002C131.725 21.5288 129.325 19.7575 126.912 17.9861L127.045 17.9455Z" fill="#004BAD"></path><path fill-rule="evenodd" clip-rule="evenodd" d="M145.06 19.7598C145.087 19.7732 145.154 19.8002 145.181 19.8136C150.209 22.0225 154.755 25.2281 158.925 28.7974C159.904 29.6863 160.936 30.5348 161.808 31.5315C152.703 28.8916 143.599 26.2517 134.48 23.6388L134.615 23.5984C136.224 23.1809 137.833 22.7633 139.402 22.1842C141.319 21.4568 143.25 20.7026 145.06 19.7598Z" fill="#00ABC9"></path></svg> 