<?xml version="1.0" encoding="UTF-8"?> <svg xmlns="http://www.w3.org/2000/svg" width="464" height="464" viewBox="0 0 464 464" fill="none"><path d="M0 94.3729C0 42.2522 42.2522 0 94.3729 0H369.627C421.748 0 464 42.2522 464 94.3729V369.627C464 421.748 421.748 464 369.627 464H94.3729C42.2522 464 0 421.748 0 369.627V94.3729Z" fill="#003CFF"></path><path d="M167.228 177.285L167.083 177.09C167.083 177.09 167.135 177.17 167.228 177.285Z" fill="white"></path><path d="M195.221 164.829C195.553 165.113 195.85 165.365 196.132 165.607C195.909 165.357 195.621 165.1 195.221 164.829Z" fill="white"></path><path d="M178.451 150.465C178.895 150.838 179.332 151.212 179.765 151.582C179.332 151.209 178.901 150.843 178.451 150.465Z" fill="white"></path><path d="M178.864 228.265L178.887 228.26C173.727 229.223 165.914 230.714 157.551 232.422C165.901 230.717 173.705 229.231 178.864 228.265Z" fill="white"></path><path d="M180.769 227.909C184.708 227.592 185.705 230.629 185.937 231.699L185.142 227.112C185.142 227.112 183.504 227.403 180.769 227.909Z" fill="white"></path><path d="M223.409 223.905C223.407 223.514 223.409 223.114 223.413 222.763C223.445 218.284 229.208 216.908 229.316 216.883L223.445 218.245C223.445 218.245 223.432 220.362 223.409 223.905Z" fill="white"></path><path d="M63.5723 222.535L90.0476 235.871C90.0476 235.871 91.4892 236.757 92.2382 237.999C92.9886 239.237 93.6807 241.14 93.6807 241.14L101.792 284.68L92.976 237.342L63.5723 222.535Z" fill="white"></path><path d="M275.997 182.818L264.557 178.688C260.221 182.439 255.354 185.713 251.434 188.785C261.113 191.023 269.43 188.302 275.997 182.818Z" fill="white"></path><path d="M408.27 230.149C407.539 226.148 396.009 245.691 396.731 249.692C402.51 281.495 412.761 365.824 392.2 389.188C388.926 392.909 385.12 394.495 380.217 394.173C363.795 393.101 355.431 389.308 359.874 319.979L367.346 203.35C367.604 199.29 364.56 195.785 360.536 195.52C356.519 195.257 353.045 198.337 352.784 202.397L352.502 206.813C352.502 206.813 352.556 210.752 348.817 209.533C342.285 207.211 336.769 202.101 334.155 195.032C329.46 182.358 335.828 168.239 348.37 163.495C360.918 158.751 374.896 165.185 379.589 177.861C382.267 185.095 381.341 192.808 377.716 198.97C376.538 200.595 376.554 201.859 376.554 201.859L372.544 264.491C372.544 264.491 372.295 266.139 373.78 266.465C375.266 266.796 375.837 265.338 375.837 265.338L406.959 208.054C415.455 192.419 410.953 175.263 407.386 165.987C403.813 156.708 395.786 141.036 379.145 135.094L305.333 108.755C288.685 102.819 271.571 99.2795 255.032 105.527L168.029 138.409C168.029 138.409 165.477 139.625 167.873 141.493C168.454 141.978 169.028 142.467 169.602 142.951C169.961 143.259 170.326 143.563 170.687 143.869C171.857 144.86 173.014 145.84 174.155 146.806C174.35 146.973 174.554 147.148 174.749 147.315C176.015 148.389 177.243 149.436 178.451 150.465C178.901 150.843 179.332 151.209 179.765 151.582C180.595 152.288 181.406 152.978 182.202 153.654C182.565 153.968 182.941 154.291 183.297 154.596C184.292 155.447 185.243 156.258 186.163 157.047C186.651 157.46 187.108 157.853 187.564 158.249C188.265 158.849 188.966 159.441 189.608 159.999C189.805 160.166 190.02 160.348 190.211 160.516C192.198 162.222 193.902 163.689 195.22 164.82L195.221 164.829C195.621 165.1 195.909 165.357 196.132 165.607C197.809 167.567 194.563 169.008 194.501 169.033L170.478 178.54C170.478 178.54 169.932 178.828 168.789 178.429C167.972 178.141 167.453 177.579 167.228 177.285C167.135 177.17 167.083 177.09 167.083 177.09L147.61 150.642L147.454 150.427L145.009 147.107L144.996 147.112L121.574 115.511C121.574 115.511 110.345 114.124 109.498 119.436L129.897 147.065C129.897 147.065 131.409 149.064 130.942 150.741C130.466 152.415 128.301 153.422 128.301 153.422L73.9989 173.943C60.0552 179.212 51.8871 193.394 53.3689 207.724C56.2574 206.888 59.4157 206.397 62.373 206.862C71.0385 208.237 94.4302 223.558 117.416 214.876C140.404 206.203 173.252 190.479 173.252 190.479L244.483 159.351C244.483 159.351 258.068 154.791 275.677 159.619C275.586 165.143 273.032 169.809 269.437 173.902L280.667 178.124C284.18 173.896 286.989 168.813 288.948 163.353C301.103 166.146 313.127 168.12 311.297 177.726C308.613 191.811 260.786 209.596 260.786 209.596L229.339 216.879L229.316 216.883C229.208 216.908 223.445 218.284 223.413 222.763C223.409 223.114 223.407 223.514 223.409 223.905C223.402 224.462 223.393 225.057 223.393 225.689C223.391 225.957 223.387 226.229 223.388 226.51C223.378 227.041 223.38 227.589 223.376 228.162C223.374 228.34 223.367 228.523 223.369 228.701C223.306 235.829 223.203 245.899 223.035 256.732C223.034 256.932 223.031 257.134 223.034 257.337C223.014 258.074 223.009 258.817 222.999 259.559C222.986 260.222 222.98 260.89 222.969 261.558C222.954 262.203 222.942 262.853 222.93 263.5C222.911 264.804 222.883 266.11 222.864 267.421C222.847 267.994 216.644 271.699 216.637 272.269C216.631 272.561 228.887 267.864 231.39 267.844C231.39 267.844 238.651 270.171 233.543 278.488C233.543 278.488 228.981 280.64 222.532 282.733C222.432 286.95 222.313 291.012 222.174 294.786C222.165 295.185 215.509 299.773 215.491 300.16C215.482 300.537 230.802 293.325 234.253 293.299C234.253 293.299 241.506 295.624 236.403 303.949C236.403 303.949 229.925 307.007 221.498 309.369C221.305 312.296 221.09 314.574 220.867 316.002C218.725 329.08 203.568 333.72 203.568 333.72L185.997 232.072C185.997 232.072 185.975 231.924 185.937 231.699C185.705 230.629 184.708 227.592 180.769 227.909C180.197 227.956 179.586 228.062 178.887 228.26L178.864 228.265C173.705 229.231 165.901 230.717 157.551 232.422C157.497 232.433 157.442 232.444 157.378 232.457C154.722 232.997 152.011 233.566 149.305 234.145C149.114 234.182 148.916 234.225 148.732 234.267C146.128 234.822 143.55 235.393 141.043 235.959C140.814 236.01 140.591 236.063 140.371 236.113C139.154 236.392 137.95 236.671 136.782 236.949C136.627 236.986 136.482 237.016 136.334 237.056C135.265 237.308 134.229 237.562 133.216 237.815C133.035 237.858 132.846 237.906 132.666 237.948C131.591 238.219 130.546 238.485 129.547 238.752C129.347 238.8 129.161 238.854 128.966 238.906C128.067 239.146 127.197 239.382 126.367 239.618C126.256 239.653 126.124 239.682 126.014 239.72C125.135 239.969 124.313 240.218 123.539 240.459C123.357 240.514 123.183 240.568 123.006 240.624C122.24 240.874 121.51 241.113 120.873 241.349C106.15 246.69 116.743 269.549 111.549 276.349C106.358 283.144 101.792 284.68 101.792 284.68L93.6807 241.14C93.6807 241.14 92.9886 239.237 92.2382 237.999C91.4892 236.757 90.0476 235.871 90.0476 235.871L63.5723 222.535L43.2284 212.285C43.2284 212.285 37.3034 210.626 31.4576 217.745L61.1971 231.946L61.2025 231.929L110.392 364.764C116.577 381.466 135.17 390.025 151.698 383.776L332.729 315.36C334.543 314.676 336.283 313.893 337.954 313.03C345.902 309.366 345.568 315.07 345.568 315.07L345.312 319.027C341.371 380.569 345.218 406.653 379.274 408.88C388.626 409.49 396.867 406.07 403.099 398.979C432.089 366.051 410.531 242.572 408.27 230.149ZM91.3688 206.671L84.96 182.063C84.96 182.063 92.9742 178.356 96.0551 190.662C100.021 206.494 110.483 206.547 110.483 206.547C105.088 210.327 91.3688 206.671 91.3688 206.671Z" fill="white"></path></svg> 