<?xml version="1.0" encoding="UTF-8"?> <svg xmlns="http://www.w3.org/2000/svg" width="200" height="50" viewBox="0 0 200 50" fill="none"><path d="M157.364 33.6924V31.8772H156.277C155.513 31.8772 155.11 32.1596 155.11 32.7646C155.11 33.41 155.473 33.6924 156.237 33.6924H157.364ZM158.289 36.8789H157.364V34.4588H156.599C156.237 34.4588 155.875 34.7411 155.593 35.3865L154.829 36.8789H153.742L154.708 35.1041C154.949 34.7008 155.191 34.4184 155.513 34.2974C155.07 34.2571 154.708 34.0554 154.466 33.8134C154.225 33.531 154.104 33.2083 154.104 32.805C154.104 32.2806 154.305 31.8772 154.668 31.5949C155.03 31.3125 155.553 31.1512 156.237 31.1512H158.249V36.8789H158.289ZM149.879 36.8789H149.034V32.2403C148.953 32.4016 148.833 32.6436 148.672 32.926L145.975 36.8789H145.01V31.0705H145.855V35.6688C145.895 35.5478 146.016 35.3865 146.136 35.1041L148.873 31.0705H149.839V36.8789H149.879ZM140.583 36.8789H139.657V34.2571H136.72V36.8789H135.794V31.0705H136.72V33.4504H139.657V31.0705H140.583V36.8789ZM130.523 33.9344L129.114 34.1361C128.671 34.1764 128.35 34.2974 128.148 34.4588C127.947 34.6201 127.826 34.9025 127.826 35.2655C127.826 35.5478 127.907 35.7898 128.148 35.9512C128.35 36.1125 128.631 36.2335 128.953 36.2335C129.396 36.2335 129.798 36.0722 130.08 35.7495C130.362 35.4268 130.523 35.0235 130.523 34.4991V33.9344V33.9344ZM131.448 36.8789H130.523V35.9512H130.482C130.08 36.6369 129.476 36.9999 128.712 36.9999C128.148 36.9999 127.665 36.8386 127.343 36.5562C127.022 36.2335 126.861 35.8302 126.861 35.3461C126.861 34.2571 127.504 33.6117 128.792 33.4504L130.523 33.2083C130.523 32.2403 130.12 31.7159 129.315 31.7159C128.631 31.7159 127.987 31.9579 127.424 32.4419V31.4739C127.987 31.1109 128.631 30.9495 129.396 30.9495C130.764 30.9495 131.448 31.6756 131.448 33.1277V36.8789V36.8789ZM122.877 36.8789H121.951V31.8369H119.013V36.8386H118.088V31.0705H122.917V36.8789H122.877ZM113.621 36.8789H112.695V32.0789C112.615 32.3209 112.494 32.684 112.293 33.1277L110.844 36.8386H109.999L108.51 33.1277C108.43 32.926 108.309 32.563 108.108 32.0789V36.8789H107.303V31.0705H108.47L109.999 34.8621C110.12 35.1445 110.241 35.5075 110.402 35.9915L110.804 34.8621L112.293 31.0302H113.541V36.8789H113.621ZM100.462 31.7159C99.8584 31.7159 99.3754 31.9176 99.0535 32.3209C98.6913 32.7243 98.5304 33.289 98.5304 34.0151C98.5304 34.7008 98.6913 35.2251 99.0535 35.6285C99.4157 36.0319 99.8584 36.2335 100.462 36.2335C101.066 36.2335 101.508 36.0319 101.83 35.6285C102.152 35.2251 102.313 34.7008 102.313 33.9747C102.313 33.2487 102.152 32.684 101.83 32.2806C101.549 31.8772 101.066 31.7159 100.462 31.7159ZM100.422 36.9999C99.5767 36.9999 98.8925 36.7176 98.3694 36.1932C97.8463 35.6688 97.6048 34.9428 97.6048 34.0151C97.6048 33.047 97.8865 32.2806 98.4096 31.7159C98.9328 31.1512 99.6571 30.9092 100.583 30.9092C101.428 30.9092 102.112 31.1915 102.595 31.7159C103.078 32.2403 103.319 33.0067 103.319 33.9344C103.319 34.8621 103.078 35.5882 102.555 36.1529C101.991 36.7176 101.307 36.9999 100.422 36.9999ZM94.7074 36.8789H93.4197L90.8442 34.0957H90.804V36.8789H89.8784V31.0705H90.804V33.7327H90.8442L93.2587 31.0705H94.466L91.7698 33.8537L94.7074 36.8789ZM84.647 33.9344L83.2385 34.1361C82.7958 34.1764 82.4739 34.2974 82.2727 34.4588C82.0715 34.6201 81.9508 34.9025 81.9508 35.2655C81.9508 35.5478 82.0715 35.7898 82.2727 35.9512C82.4739 36.1125 82.7556 36.2335 83.0775 36.2335C83.5202 36.2335 83.9226 36.0722 84.2043 35.7495C84.486 35.4268 84.647 35.0235 84.647 34.4991V33.9344ZM85.5725 36.8789H84.647V35.9512H84.6067C84.2043 36.6369 83.6007 36.9999 82.8361 36.9999C82.2727 36.9999 81.7898 36.8386 81.4679 36.5562C81.1459 36.2335 80.985 35.8302 80.985 35.3461C80.985 34.2571 81.6288 33.6117 82.9166 33.4504L84.647 33.2083C84.647 32.2403 84.2445 31.7159 83.4397 31.7159C82.7556 31.7159 82.1117 31.9579 81.5483 32.4419V31.4739C82.1117 31.1109 82.7556 30.9495 83.5202 30.9495C84.8884 30.9495 85.5725 31.6756 85.5725 33.1277V36.8789V36.8789ZM77.001 36.8789H76.1559V32.2403C76.0755 32.4016 75.9547 32.6436 75.7938 32.926L73.0976 36.8789H72.1318V31.0705H72.9768V35.6688C73.0171 35.5478 73.1378 35.3865 73.2585 35.1041L75.995 31.0705H76.9608V36.8789H77.001ZM64.3651 34.2571V36.0319H65.9748C66.7394 36.0319 67.1015 35.7092 67.1015 35.1041C67.1015 34.4991 66.6991 34.2167 65.854 34.2167H64.3651V34.2571ZM64.3651 31.8369V33.4907H65.7736C66.5382 33.4907 66.9003 33.2083 66.9003 32.6033C66.9003 32.0789 66.5784 31.8369 65.8943 31.8369H64.3651ZM63.4395 36.8789V31.0705H65.9748C66.5382 31.0705 66.9808 31.1915 67.343 31.4335C67.6649 31.6756 67.8259 32.0386 67.8259 32.4823C67.8259 33.2487 67.4637 33.6924 66.6991 33.8537C67.5844 33.9747 68.0271 34.4184 68.0271 35.1848C68.0271 35.6688 67.8259 36.0722 67.4637 36.3949C67.1015 36.7176 66.6589 36.8789 66.0955 36.8789H63.4395V36.8789ZM58.1679 33.9344L56.7594 34.1361C56.3167 34.1764 55.9948 34.2974 55.7936 34.4588C55.5924 34.6201 55.4717 34.9025 55.4717 35.2655C55.4717 35.5478 55.5924 35.7898 55.7936 35.9512C55.9948 36.1125 56.2765 36.2335 56.5984 36.2335C57.0411 36.2335 57.4435 36.0722 57.7252 35.7495C58.0069 35.4268 58.1679 35.0235 58.1679 34.4991V33.9344V33.9344ZM59.0934 36.8789H58.1679V35.9512H58.1276C57.7252 36.6369 57.1216 36.9999 56.357 36.9999C55.7936 36.9999 55.3107 36.8386 54.9888 36.5562C54.6668 36.2335 54.5059 35.8302 54.5059 35.3461C54.5059 34.2571 55.1497 33.6117 56.4375 33.4504L58.1679 33.2083C58.1679 32.2403 57.7654 31.7159 56.9606 31.7159C56.2765 31.7159 55.6326 31.9579 55.0692 32.4419V31.4739C55.6326 31.1109 56.2765 30.9495 57.0411 30.9495C58.4093 30.9495 59.0934 31.6756 59.0934 33.1277V36.8789V36.8789Z" fill="black"></path><path fill-rule="evenodd" clip-rule="evenodd" d="M172.091 25.0204C171.407 27.6826 170.32 27.2792 168.912 27.4002H162.594L164.646 15.6221H183.399C182.554 17.8002 182.674 17.9616 178.449 17.9616H167.865L167.423 20.3414H177.242C176.799 22.3179 177.322 22.6809 174.022 22.6809H167.02L166.618 24.98H172.091V25.0204Z" fill="#C6C7C8"></path><path fill-rule="evenodd" clip-rule="evenodd" d="M64.8072 14.4521C63.8012 13.4841 62.5537 13 61.0245 13C59.0929 13 57.5235 13.6857 56.3564 15.0571C55.1492 16.4286 54.5858 18.1226 54.5858 20.0588C54.5858 21.7529 55.1089 23.084 56.1955 23.9714C57.2417 24.8991 58.5295 25.3429 59.9782 25.3429C61.8696 25.3429 63.3988 24.6571 64.5658 23.2454C65.7327 21.8739 66.3364 20.1798 66.3364 18.2033C66.2961 16.6706 65.773 15.4202 64.8072 14.4521ZM62.1914 19.5748C61.9903 20.5832 61.7489 21.3093 61.4269 21.8336C61.1049 22.358 60.622 22.6 59.9782 22.6C58.9319 22.6 58.4087 21.9949 58.4087 20.7849C58.4087 19.8571 58.61 18.7681 58.9721 17.5177C59.3343 16.3075 59.9782 15.7025 60.9038 15.7025C61.3867 15.7025 61.7891 15.8639 62.0707 16.1865C62.3525 16.5093 62.5134 16.9529 62.5134 17.558C62.4732 17.921 62.3525 18.6067 62.1914 19.5748ZM167.847 25.0303C168.974 24.9921 169.856 24.9623 170.442 22.6807V22.6403H164.929L165.331 20.3411H172.333C175.127 20.3411 175.18 20.0231 175.4 18.7266C175.439 18.4915 175.485 18.2243 175.553 17.921H165.774L166.217 15.6218H176.8C180.85 15.6218 180.907 15.4735 181.649 13.5429L181.652 13.537L181.712 13.3802L181.75 13.2823H162.997L160.945 25.0604H167.263C167.374 25.0509 167.483 25.0446 167.591 25.0398C167.677 25.036 167.763 25.0331 167.847 25.0303ZM156.639 21.0672C156.639 22.0352 156.076 22.5193 155.029 22.5193H153.259L153.701 19.9781H155.23C156.156 19.9781 156.639 20.3411 156.639 21.0672ZM151.408 13.3227L149.355 25.0604H155.11C157.122 25.0604 158.49 24.6168 159.255 23.7697C160.019 22.9226 160.381 21.8739 160.381 20.7042C160.381 20.0184 160.221 19.4134 159.939 18.9294C159.657 18.4453 159.214 18.0823 158.611 17.8403C158.047 17.5982 157.122 17.4772 155.915 17.4772H154.144L154.868 13.3227H151.408ZM112.132 13.3227L115.592 21.4706C115.311 21.9142 114.949 22.1966 114.546 22.3176C114.184 22.4387 113.741 22.5193 113.178 22.5193H112.011L111.568 25.1008H113.379C114.425 25.1008 115.19 24.9798 115.753 24.7378C116.317 24.4958 116.759 24.2134 117.122 23.931C117.484 23.6487 118.007 22.8823 118.771 21.5916L123.56 13.3227H120.18L117.524 18.0017L115.995 13.3227H112.132ZM106.136 22.5193H104.204L104.606 20.3008H105.894C106.981 20.3008 107.544 20.6235 107.544 21.3092C107.544 21.6319 107.423 21.9142 107.222 22.1562C106.981 22.3982 106.618 22.5193 106.136 22.5193ZM102.353 13.2823L100.3 25.0604V25.1008H106.417C107.222 25.1008 108.027 24.9798 108.872 24.6974C109.717 24.4151 110.321 23.931 110.723 23.205C111.126 22.479 111.327 21.7529 111.327 21.0268C111.327 20.3008 111.126 19.6958 110.723 19.2117C110.321 18.7277 109.838 18.3646 109.194 18.2033C108.55 18.0017 107.745 17.921 106.699 17.921H105.049L105.451 15.7025H110.804L111.206 13.2823H102.353ZM131.85 14.0084C132.293 14.2907 132.655 14.694 132.937 15.1781C133.218 15.6621 133.379 16.1865 133.339 16.7916C133.339 17.921 132.977 18.8487 132.212 19.6151C131.448 20.3814 130.401 20.7849 128.993 20.7849H126.619L125.854 25.1008H122.273L124.325 13.3227H128.389C129.355 13.3227 130.039 13.363 130.482 13.4437C130.924 13.5243 131.367 13.726 131.85 14.0084ZM127.061 18.2436H127.906C129.194 18.2436 129.838 17.8 129.838 16.9933C129.838 16.2269 129.315 15.8639 128.228 15.8639H127.464L127.061 18.2436ZM149.758 13.3227L145.371 18.9294L148.51 25.0604H144.808L142.313 20.1394L141.79 20.3008L140.945 25.0604H137.846L138.651 20.3008L138.208 20.1394L134.184 25.0604H130.683L135.633 18.8891L133.339 13.3227H136.921L138.57 18.1226L139.013 18.2436L139.898 13.3227H142.997L142.152 18.284L142.635 18.163L146.297 13.3227H149.758ZM92.574 20.3411H95.7531L94.9483 25.0604H98.4896L100.542 13.3227H97.0007L96.236 17.6386H93.0569L93.7813 13.3227H90.24L88.1877 25.0604H91.729L92.574 20.3411ZM86.739 25.0604L87.1816 22.3579H81.7088L82.0709 20.3008H86.4976L86.9402 17.7193H82.5136L82.8356 15.9042H88.1072L88.5499 13.3227H79.7369L77.6846 25.0604H86.739ZM77.2419 15.0571C76.9603 14.6134 76.6383 14.2907 76.1956 14.0084C75.7127 13.726 75.27 13.5243 74.8275 13.4437C74.3848 13.363 73.7006 13.3227 72.7349 13.3227H68.6704L66.6181 25.1008H70.1996L70.9642 20.7849H73.3385C74.7469 20.7849 75.7932 20.3814 76.5578 19.6151C77.2017 18.9294 77.5639 18.1226 77.6444 17.1949C77.8053 16.4285 77.6444 15.6621 77.2419 15.0571ZM72.2922 18.2436H71.4471L71.8495 15.8639H72.6141C73.7006 15.8639 74.2238 16.2269 74.2238 16.9933C74.2238 17.8 73.5799 18.2436 72.2922 18.2436ZM17 13.2823H55.7529C55.27 13.605 54.8273 14.0084 54.4249 14.4924C54.0224 14.8958 53.781 15.1781 53.5395 15.6621H17V13.2823ZM17 18.042H52.6945C52.4932 18.8084 52.3725 19.2924 52.4127 20.1394V20.3814H17V18.042ZM54.6664 25.0604H17V22.6807L52.8554 22.7613C53.3383 23.7697 53.5395 24.1327 54.3444 24.8184C54.4651 24.8991 54.5456 24.9798 54.6664 25.0604Z" fill="#004494"></path></svg> 