<?xml version="1.0" encoding="UTF-8"?> <svg xmlns="http://www.w3.org/2000/svg" width="200" height="50" viewBox="0 0 200 50" fill="none"><path d="M101.203 14.5664H104.553V17.5719H101.203V14.5664ZM101.203 19.32H104.553V31.958H101.203V19.32V19.32ZM109.653 21.3402H109.727C110.491 19.9111 111.353 19.172 112.831 19.172C113.2 19.172 113.422 19.1968 113.619 19.2706V22.2022H113.545C111.353 21.9807 109.776 23.1385 109.776 25.799V31.9579H106.426V19.3199H109.653V21.3402V21.3402ZM120.147 14.5664H123.497V17.5719H120.147V14.5664ZM120.147 19.32H123.498V31.958H120.147V19.32V19.32ZM128.646 21.0444H128.72C129.582 19.6894 130.74 18.975 132.464 18.975C135.076 18.975 136.825 20.9457 136.825 23.705V31.9579H133.475V24.1976C133.475 22.8427 132.686 21.8819 131.282 21.8819C129.804 21.8819 128.72 23.0644 128.72 24.7889V31.9579H125.37V19.3199H128.646V21.0444H128.646ZM138.204 25.6267C138.204 21.882 140.741 18.9751 144.436 18.9751C148.501 18.9751 150.669 22.0791 150.669 26.5874H141.505C141.751 28.5334 142.835 29.7408 144.732 29.7408C146.038 29.7408 146.801 29.1495 147.171 28.1885H150.472C150.004 30.4305 148.009 32.3276 144.757 32.3276C140.569 32.3275 138.204 29.3956 138.204 25.6267ZM141.554 24.2717H147.171C147.072 22.6703 146.013 21.5616 144.486 21.5616C142.712 21.5616 141.85 22.621 141.554 24.2717ZM151.441 27.8682H154.545C154.767 29.3218 155.801 29.9623 157.304 29.9623C158.783 29.9623 159.62 29.3956 159.62 28.509C159.62 27.3018 158.019 27.1785 156.294 26.8339C154.028 26.3904 151.811 25.7744 151.811 23.0153C151.811 20.2808 154.077 18.9751 156.959 18.9751C160.285 18.9751 162.133 20.6257 162.379 23.163H159.349C159.201 21.8082 158.339 21.3155 156.91 21.3155C155.605 21.3155 154.742 21.8082 154.742 22.7197C154.742 23.8035 156.417 23.9022 158.216 24.2719C160.335 24.7152 162.675 25.3065 162.675 28.2628C162.675 30.8002 160.507 32.3278 157.354 32.3278C153.683 32.3275 151.638 30.5538 151.441 27.8682V27.8682ZM93.2976 14.5664H89.3981L82.3477 31.9579H86.3386L87.6443 28.3858H94.8379L96.1681 31.9579H100.184L93.2976 14.5664V14.5664ZM88.6049 25.4541L91.1918 18.0633L93.8523 25.454H88.6049V25.4541ZM114.924 14.5664H118.275V31.9579H114.924V14.5664Z" fill="#747679"></path><path d="M77.9998 25.0043C77.9998 36.0534 69.0519 45 58.006 45C46.9587 45 38 36.0534 38 25.0043C38 13.9552 46.9587 5 58.006 5C69.052 5 77.9998 13.9552 77.9998 25.0043Z" fill="#BED600"></path><path d="M56.5493 14.5654C53.399 14.5654 51.3553 14.7396 49.8759 15.2888C47.3898 16.2572 45.6729 18.2869 45.6729 20.9544C45.6729 23.176 46.7074 24.785 49.7012 26.6355C52.8955 28.572 53.5328 29.2119 53.5328 30.3787C53.5328 31.6558 52.2815 33.1094 49.0621 33.1094C47.9384 33.1094 46.2459 32.9539 45.1645 32.6893L44.6484 32.5592C44.3605 33.3309 43.7071 35.1565 43.5078 35.8188L44.0188 35.9691C44.9916 36.2794 47.3003 36.5217 48.9544 36.5217C54.457 36.5217 57.7401 33.1973 57.7401 29.7161C57.7401 27.577 56.7691 25.9512 53.4867 23.9032C51.8403 22.8904 51.0012 22.2337 50.4917 21.7253C50.0786 21.1945 50.0329 20.7996 50.0329 20.3823C50.0329 19.9839 50.1215 19.5249 50.3841 19.1886C50.6682 18.7729 51.1892 18.5081 51.8943 18.2895C52.6191 18.049 53.9619 18.0427 56.0533 18.0427H58.0006L59.3911 14.5656H56.5493V14.5654ZM71.2659 14.5654H61.4803L60.0896 18.0424H63.3332C65.5157 18.0424 65.9356 17.9954 66.4836 17.9954C65.6924 19.8054 60.9239 31.9571 60.9239 31.9571H64.9596C64.9596 31.9571 70.9969 16.8304 71.6367 15.2445C71.8139 14.8905 71.7259 14.5654 71.2659 14.5654V14.5654Z" fill="white"></path></svg> 