<?xml version="1.0" encoding="UTF-8"?> <svg xmlns="http://www.w3.org/2000/svg" width="200" height="50" viewBox="0 0 200 50" fill="none"><path d="M146.187 27.1272C146.187 30.6227 143.354 33.5156 139.799 33.5156C136.303 33.5156 133.41 30.683 133.41 27.1272C133.41 23.6316 136.243 20.7388 139.799 20.7388C143.294 20.799 146.187 23.6316 146.187 27.1272Z" fill="#0095D4"></path><path d="M161.435 27.1272C161.435 30.6227 158.602 33.5156 155.047 33.5156C151.551 33.5156 148.658 30.683 148.658 27.1272C148.658 23.6316 151.491 20.7388 155.047 20.7388C158.602 20.799 161.435 23.6316 161.435 27.1272Z" fill="#66ADDF"></path><path d="M176.744 27.1272C176.744 30.6227 173.911 33.5156 170.355 33.5156C166.86 33.5156 163.967 30.683 163.967 27.1272C163.967 23.6316 166.799 20.7388 170.355 20.7388C173.911 20.799 176.744 23.6316 176.744 27.1272Z" fill="#92C0E6"></path><path fill-rule="evenodd" clip-rule="evenodd" d="M114.004 14.2299V25.4397H114.065V31.346V31.4063C114.065 32.6719 113.04 33.6964 111.775 33.6964C110.931 33.6964 110.208 33.2143 109.786 32.5513L109.484 32.7321C108.279 33.3348 106.893 33.6964 105.386 33.6964C100.504 33.6964 96.8281 30.0804 96.8281 25.5V25.4397C96.8281 20.8594 100.504 17.183 105.446 17.183C106.893 17.183 108.279 17.5446 109.484 18.1473V14.2299C109.484 13.0246 110.509 12 111.775 12C112.98 12 114.004 12.9643 114.004 14.2299ZM105.446 29.8393C107.737 29.8393 109.183 28.2121 109.484 26.2232V24.7768C109.243 22.7277 107.616 21.0402 105.386 21.0402C102.855 21.0402 101.288 23.029 101.288 25.3795V25.4397C101.288 27.7902 102.975 29.8393 105.446 29.8393ZM41.8035 25.5603C41.8035 21.0402 45.4195 17.3638 50.3615 17.3638C55.2432 17.3638 58.8593 20.9799 58.8593 25.5V25.5603C58.8593 30.0803 55.2432 33.7567 50.3012 33.7567C45.4195 33.7567 41.8035 30.1406 41.8035 25.6205V25.5603ZM50.3615 29.8995C52.953 29.8995 54.4597 27.971 54.4597 25.6205C54.4597 23.2098 52.7722 21.1607 50.3012 21.221C47.77 21.221 46.203 23.2098 46.203 25.5V25.5603C46.203 27.8504 47.8905 29.8995 50.3615 29.8995ZM68.9843 17.2433C67.4776 17.2433 66.0915 17.6049 64.9464 18.2076V14.2299C64.9464 12.9643 63.9218 12 62.7165 12C61.4509 12 60.4866 13.0246 60.4866 14.2299V25.3795V25.4397V31.346V31.4063C60.4866 32.6719 61.5111 33.6964 62.7768 33.6964C63.6205 33.6964 64.3437 33.2143 64.7656 32.5513L65.0669 32.7321C66.2723 33.3348 67.6584 33.6964 69.1651 33.6964C74.1071 33.6964 77.7232 30.0804 77.7232 25.5V25.4397C77.6026 20.9196 73.9263 17.2433 68.9843 17.2433ZM73.1428 25.4397C73.1428 27.7902 71.4553 29.8393 68.9843 29.8393C66.6942 29.8393 65.1875 28.2723 64.9464 26.2232V24.8371C65.2477 22.7879 66.8147 21.1004 69.0446 21.1004C71.6361 21.1004 73.1428 23.0893 73.1428 25.4397ZM40.2366 25.5603V25.6205C40.2366 30.1406 36.5603 33.8772 31.4978 33.817C30.0513 33.817 28.6652 33.4553 27.4598 32.8527V36.7701C27.4598 37.9754 26.4955 39 25.2299 39C24.0246 39 23 38.0357 23 36.7701V25.6205V25.5603V19.654V19.5937C23 18.3281 24.0246 17.3638 25.2902 17.3638C26.1339 17.3638 26.8571 17.7857 27.2188 18.4487L27.5804 18.3281C28.7857 17.7254 30.1719 17.3638 31.6786 17.3638C36.6205 17.3638 40.2366 20.9799 40.2366 25.5603ZM31.6786 30.0201C34.2098 30.0201 35.7768 28.0312 35.7768 25.6808C35.7768 23.2701 34.0893 21.221 31.6183 21.2812C29.3281 21.2812 27.8817 22.9085 27.5804 24.8973V26.2835C27.8214 28.3326 29.4487 30.0201 31.6786 30.0201ZM90.5 23.933C90.3795 22.3058 89.2344 20.9799 87.3058 20.9799C85.3772 20.9799 84.2321 22.125 83.9308 23.933H90.5ZM94.2969 30.8639C94.2969 31.7679 93.6339 32.4308 92.308 32.9732C90.8616 33.5759 89.2946 33.6964 87.7879 33.6964C85.0759 33.6964 82.9665 32.8527 81.4598 31.4063C79.9531 29.8996 79.1094 27.7902 79.1094 25.3795C79.1094 23.029 80.0134 20.9799 81.3996 19.5938C82.7857 18.2076 84.7746 17.4241 87.3058 17.4241C89.8973 17.4241 91.7054 18.2679 92.971 19.4732C94.4777 20.9799 94.9598 22.8482 94.9598 24.3549C94.9598 25.9822 94.1161 26.8862 92.6696 26.8862H83.9911C84.4129 28.9353 85.8594 30.0804 88.0893 30.0804C89.5014 30.0804 90.3966 29.7081 91.1382 29.3997C91.6625 29.1817 92.1101 28.9955 92.6094 28.9955C93.5737 29.0558 94.2969 29.8996 94.2969 30.8639ZM128.167 19.4732C129.734 21.0402 130.217 23.2098 130.277 23.8728C130.458 25.5 130.397 31.2857 130.397 31.2857C130.397 32.4911 129.433 33.3951 128.288 33.3951C127.504 33.3951 126.842 32.9732 126.48 32.3705C126.48 32.3705 124.732 33.817 121.237 33.5759C117.259 33.0937 115.33 30.2009 115.933 26.8862C117.138 22.0647 122.623 22.5469 122.623 22.5469C122.623 22.5469 124.19 22.6071 125.636 23.2701C125.033 21.6428 123.768 20.7991 121.9 20.7991C120.543 20.7991 119.99 21.074 119.539 21.2981C119.229 21.4524 118.967 21.5826 118.525 21.5826C117.56 21.5826 116.897 20.7388 116.897 19.7745C116.897 18.8705 117.5 18.2076 118.766 17.7254C120.152 17.1228 120.935 17.1228 122.382 17.1228C124.913 17.1228 126.781 18.0268 128.167 19.4732ZM119.73 28.1518C119.73 29.4777 121.176 30.6228 122.924 30.6228C124.672 30.6228 126.118 29.4777 126.118 28.1518C126.118 26.8259 124.672 25.6808 122.924 25.6808C121.176 25.6808 119.73 26.7656 119.73 28.1518Z" fill="#0095D4"></path></svg> 