<?xml version="1.0" encoding="UTF-8"?> <svg xmlns="http://www.w3.org/2000/svg" width="200" height="50" viewBox="0 0 200 50" fill="none"><path fill-rule="evenodd" clip-rule="evenodd" d="M147.198 22.8849C146.068 23.6086 145.853 25.1095 145.906 26.3424C145.96 27.8164 145.61 29.5853 146.821 30.7378C148.005 31.8903 149.835 31.3274 151.181 30.7914C151.181 28.2453 151.207 25.6991 151.154 23.153C149.916 22.6705 148.436 22.1077 147.198 22.8849ZM143.996 21.8129C145.691 19.6152 149.109 19.3739 151.342 20.9284C151.369 20.714 151.423 20.312 151.476 20.1244C152.445 20.0976 153.414 20.0976 154.383 20.0976C154.49 20.9284 154.517 21.7593 154.517 22.5901C154.49 26.53 154.544 30.443 154.49 34.3828C154.517 36.0713 153.656 37.867 151.988 38.4567C149.566 39.3679 146.902 38.9391 144.426 38.4835C144.399 37.6794 144.399 36.8486 144.426 36.0445C146.175 36.1249 147.898 36.2857 149.647 36.1785C150.185 36.1517 150.723 35.9105 150.965 35.4281C151.234 34.7581 151.154 34.0344 151.207 33.3376C149.674 34.1952 147.79 34.624 146.122 33.8736C144.023 33.1232 142.758 30.9254 142.65 28.7813C142.543 26.396 142.408 23.7426 143.996 21.8129ZM137.242 20.0976C138.291 20.0708 139.341 20.0976 140.39 20.0976C140.471 21.0356 140.525 21.9469 140.498 22.8849C140.363 26.6104 140.551 30.309 140.39 34.0344C139.314 34.088 138.237 34.088 137.188 33.9808C137.215 29.3173 137.107 24.7075 137.242 20.0976ZM101.776 28.2453C101.13 28.6473 100.915 29.3709 100.995 30.0946C101.103 30.9254 101.157 31.4615 102.287 31.5955C103.309 31.7027 104.359 31.4079 105.301 30.979C105.301 29.9606 105.301 28.9421 105.301 27.9236C104.117 27.9236 102.852 27.736 101.776 28.2453ZM98.5466 20.3388C101.022 19.9368 103.659 19.5079 106.054 20.3924C107.615 20.9284 108.53 22.5901 108.53 24.1714C108.53 27.4412 108.53 30.6842 108.53 33.954C107.696 34.0076 106.888 34.0612 106.054 34.0076C105.57 34.0612 105.462 33.5788 105.328 33.2304C103.498 34.2756 101.157 34.6508 99.2731 33.6056C97.8469 32.7211 97.4702 30.845 97.6855 29.2905C97.7931 28.1381 98.4389 27.066 99.4615 26.53C101.237 25.5919 103.336 25.7259 105.274 25.7259C105.247 24.7075 105.435 23.2066 104.224 22.8045C102.314 22.4561 100.349 22.8581 98.4389 22.8045C98.4389 21.9737 98.4658 21.1696 98.5466 20.3388ZM83.9619 20.0976C85.0652 20.0976 86.1415 20.0172 87.2448 20.1512C88.375 23.7426 89.0477 27.4412 90.0702 31.0862C90.1779 31.0862 90.3932 31.113 90.5008 31.113C91.4426 27.4412 92.2768 23.7426 93.2993 20.0976C94.3219 20.1244 95.3444 20.044 96.3669 20.1244C96.4477 20.2048 96.6091 20.3388 96.6629 20.4192C95.4251 25.0559 93.999 29.6657 92.7073 34.3024C92.2499 36.0445 91.6848 38.2423 89.6666 38.7247C87.8906 39.2071 86.0339 38.9927 84.2848 38.5639C84.2579 37.7598 84.2579 36.9826 84.3386 36.1785C85.2805 36.2321 86.2492 36.3393 87.2179 36.3393C89.2092 36.3393 89.1284 35.9641 89.7742 34.1416C88.8055 34.088 87.783 33.7396 87.487 32.7211C86.4375 29.6657 85.711 26.5032 84.7692 23.421C84.4463 22.3221 84.0965 21.2232 83.9619 20.0976ZM75.9969 22.9386C74.6245 23.5818 74.4092 25.2703 74.4361 26.6104C74.463 27.9236 74.3016 29.4245 75.1896 30.4966C76.1314 31.7295 78.2841 31.6759 79.1183 30.3358C79.9525 29.1565 79.6834 27.6556 79.7372 26.3156C79.791 25.2167 79.5219 24.0374 78.7147 23.2334C77.9612 22.6973 76.8579 22.5365 75.9969 22.9386ZM75.4856 20.0708C77.3154 19.6688 79.3874 19.9368 80.9212 21.0624C82.3474 22.1881 82.9932 24.0374 82.9932 25.8063C82.9663 27.6556 83.2354 29.6657 82.2936 31.3543C81.4056 33.2572 79.2528 34.2756 77.2347 34.222C75.2434 34.3024 73.0638 33.4984 72.0681 31.7027C70.8572 29.773 71.1263 27.4144 71.1802 25.2435C71.3147 22.8313 72.9831 20.446 75.4856 20.0708ZM172.385 17.6586C173.461 17.4442 174.537 17.2566 175.614 17.1226C175.641 18.1143 175.641 19.1059 175.641 20.0976C176.529 20.0976 177.417 20.0976 178.332 20.0976C178.385 20.9016 178.385 21.7057 178.359 22.5097C177.444 22.5365 176.556 22.5365 175.668 22.5365C175.721 25.0023 175.668 27.468 175.695 29.9338C175.695 31.6223 176.098 31.6223 177.524 31.6759C177.847 31.6759 178.17 31.6759 178.493 31.6759C178.493 32.4531 178.466 33.2304 178.412 34.0076C176.744 34.2488 174.833 34.5436 173.3 33.5788C172.385 32.6943 172.358 31.3006 172.358 30.0946C172.385 27.5752 172.358 25.0559 172.385 22.5097C171.443 22.3757 170.528 22.2417 169.586 22.1077C169.532 21.4377 169.532 20.7408 169.586 20.044C170.501 20.044 171.416 20.044 172.358 20.044C172.331 19.2667 172.358 18.4627 172.385 17.6586ZM118.89 17.1494C119.751 15.9433 121.312 15.5681 122.711 15.4877C124.729 15.4073 126.747 15.4609 128.738 15.8629C129.25 16.5866 128.846 17.605 128.846 18.4359C127.474 18.4895 126.101 18.4091 124.756 18.4091C124.191 18.4091 123.034 18.4359 122.469 18.5431C121.904 18.6503 121.634 18.9987 121.5 20.0976C121.365 21.116 121.5 22.1881 121.5 23.2334C123.868 23.2602 126.236 23.2066 128.604 23.2602C128.631 24.1446 128.9 25.1095 128.469 25.9403C126.128 26.0743 123.787 25.9671 121.473 25.9939C121.473 28.6741 121.5 31.3542 121.446 34.0076C120.316 34.0612 119.186 34.1952 118.056 33.9808C117.894 30.1214 118.056 26.2351 117.975 22.3757C118.002 20.58 117.84 18.6503 118.89 17.1494ZM156.67 16.935C156.697 16.3722 156.616 15.7825 156.831 15.2465C157.854 15.1661 158.903 15.2197 159.926 15.2197C159.98 17.0422 159.953 18.8647 159.953 20.6872C161.89 19.8564 164.258 19.4007 166.196 20.4996C167.676 21.4377 168.079 23.3406 168.106 24.9755C168.106 27.9772 168.16 30.979 168.079 33.9808C167.057 34.0076 166.034 34.088 165.012 33.954C164.743 33.6324 164.877 33.1232 164.823 32.7479C164.823 30.1482 164.823 27.5752 164.823 24.9755C164.77 24.3054 164.77 23.5014 164.258 23.019C162.886 22.2417 161.271 22.9117 159.953 23.4746C159.926 26.932 160.034 30.4162 159.899 33.8736C158.876 34.1684 157.773 33.9808 156.724 33.9808C156.616 28.2989 156.724 22.6169 156.67 16.935ZM131.268 15.2465C132.317 15.1929 133.394 15.1929 134.443 15.2197C134.578 19.7224 134.47 24.225 134.497 28.7277C134.497 30.4698 134.551 32.2387 134.47 33.9808C133.421 33.9808 132.317 34.1148 131.295 33.8736C131.187 27.6824 131.241 21.4645 131.268 15.2465ZM111.597 15.2197C112.647 15.1929 113.723 15.1929 114.773 15.2197C114.853 21.4645 114.853 27.736 114.773 33.9808C113.696 34.0344 112.62 34.0612 111.571 33.954C111.571 27.7092 111.517 21.4645 111.597 15.2197ZM60.4435 18.4627C60.4435 20.312 60.4435 22.1881 60.4435 24.0374C61.6813 24.0642 62.9191 24.1982 64.13 23.9838C64.9104 23.823 65.7984 23.5014 66.0674 22.6973C66.5518 21.4645 66.5518 19.6688 65.2602 18.9451C63.8071 18.1143 62.0311 18.4895 60.4435 18.4627ZM57.322 15.8897C59.098 15.4877 60.9278 15.4877 62.7307 15.4609C64.8296 15.4609 67.1438 15.8897 68.6238 17.4978C69.9154 19.0255 69.9962 21.2232 69.5387 23.0994C69.1351 24.6271 67.8973 25.7527 66.4711 26.3424C67.7627 28.9153 69.3234 31.3811 70.4536 34.0076C69.2427 34.0612 68.0049 34.0344 66.794 34.0344C65.5024 31.7027 64.2376 29.3441 62.9729 26.9856C62.1118 26.9588 61.2777 26.9052 60.4166 26.8248C60.3627 29.2101 60.4435 31.5955 60.3628 34.0076C59.2326 34.088 58.0755 34.088 56.9453 34.0076C56.9453 28.3257 56.9453 22.6705 56.9453 16.9886C57.026 16.5866 56.8915 16.0773 57.322 15.8897ZM137.161 15.0857C138.237 15.0321 139.367 14.8981 140.444 15.1393C140.686 16.1309 140.551 17.1762 140.525 18.1679C139.421 18.1679 138.264 18.3019 137.161 18.0875C137.053 17.0958 137.107 16.0773 137.161 15.0857Z" fill="#66656A"></path><path fill-rule="evenodd" clip-rule="evenodd" d="M37.7061 18.0604C38.7286 16.8811 40.0741 15.8358 41.7155 15.809C44.5948 15.7822 47.474 15.809 50.3533 15.7822L42.0923 34.1949C40.2624 34.1949 38.4595 34.1949 36.6297 34.1949C35.069 34.3021 32.9701 33.0961 34.3963 30.9251C33.4276 32.1044 32.2167 33.0693 31.1672 34.1681C30.629 34.1681 29.2298 34.1949 28.6916 34.1949C29.6065 33.5517 30.3869 33.0157 31.3018 32.3188C34.6385 29.7191 38.029 27.1729 41.3657 24.5731C42.9264 23.3403 44.5948 22.1342 46.1286 20.9013C38.9708 25.2968 31.8938 29.7459 24.8167 34.1949L20 34.1681C20.1345 34.1145 20.2691 34.0877 20.4036 34.0341C21.8298 33.5517 23.1483 32.7476 24.2247 31.7024C28.7723 27.1729 33.2661 22.6702 37.7061 18.0604Z" fill="#EE0123"></path></svg> 