<?xml version="1.0" encoding="UTF-8"?> <svg xmlns="http://www.w3.org/2000/svg" width="200" height="50" viewBox="0 0 200 50" fill="none"><path fill-rule="evenodd" clip-rule="evenodd" d="M79.7091 19.7067H82.6582V17H79.7091V19.7067ZM79.7091 33.6041H82.6582V21.8678H79.7091V33.6041ZM75.9644 32.6575C77.0945 31.7625 77.6601 30.4921 77.6601 28.8461C77.6601 27.4895 77.2669 26.4642 76.4808 25.7723C75.8489 25.2238 74.7956 24.7907 73.3211 24.4731L70.077 23.7798C68.8553 23.52 68.2444 22.9498 68.2444 22.0692C68.2444 20.7122 69.1428 20.0337 70.9407 20.0337C71.8957 20.0337 72.6716 20.2578 73.2684 20.705C73.8653 21.1525 74.1847 21.7588 74.2269 22.5239H77.176C77.1897 20.9071 76.6599 19.6584 75.5856 18.7778C74.5113 17.8976 73.0051 17.4569 71.0671 17.4569C69.2692 17.4569 67.8547 17.8972 66.8225 18.7771C65.7903 19.6569 65.2742 20.8688 65.2742 22.4124C65.2742 23.4077 65.5972 24.2735 66.2435 25.009C66.8899 25.7449 67.7255 26.2137 68.751 26.4154L72.5009 27.1499C73.9323 27.4245 74.6482 28.1477 74.6482 29.3192C74.6482 29.9555 74.3631 30.4582 73.7929 30.8267C73.2228 31.1955 72.4595 31.3799 71.5025 31.3799C69.4335 31.3799 68.2862 30.5286 68.0611 28.8248H65C65.1685 30.4564 65.7864 31.7264 66.8537 32.6358C67.9207 33.5453 69.3742 34 71.2142 34C73.2505 34 74.8339 33.5521 75.9644 32.6575ZM91.9479 24.6452C91.5543 24.6019 91.2665 24.5803 91.0842 24.5803C90.2553 24.5803 89.6062 24.8076 89.1357 25.2623C88.6653 25.7171 88.43 26.2909 88.43 26.9842V33.5019H85.4809V21.7656H88.43V24.0393C88.6407 23.3464 89.062 22.7617 89.6939 22.2853C90.3259 21.8089 90.9579 21.5707 91.5898 21.5707C91.66 21.5707 91.7794 21.5855 91.9479 21.6141V24.6452ZM94.1004 19.7067H97.0495V17H94.1004V19.7067ZM94.1004 33.6041H97.0495V21.8678H94.1004V33.6041ZM109.863 33.5016H106.914V32.0941C106.142 33.35 105.046 33.9783 103.628 33.9783C102.364 33.9783 101.381 33.5886 100.679 32.809C100.018 32.0872 99.6887 31.1561 99.6887 30.0157V21.7656H102.638V29.7775C102.638 30.2539 102.813 30.6296 103.165 30.9035C103.515 31.1782 103.986 31.3153 104.576 31.3153C105.208 31.3153 105.756 31.1276 106.219 30.7519C106.683 30.3766 106.914 29.9367 106.914 29.4311V21.7656H109.863V33.5016H109.863ZM120.508 32.6798C121.379 31.9223 121.814 30.9366 121.814 29.724C121.814 28.1653 120.985 27.1548 119.328 26.6932L115.115 25.5023C114.862 25.4301 114.735 25.1988 114.735 24.8094C114.735 24.4626 114.925 24.1814 115.304 23.9645C115.627 23.7624 116 23.6614 116.421 23.6614C117.193 23.6614 117.772 23.8169 118.159 24.1269C118.545 24.4376 118.717 24.8455 118.675 25.3507H121.519C121.505 24.1377 121.052 23.1705 120.16 22.4488C119.268 21.727 118.099 21.3661 116.653 21.3661C115.164 21.3661 113.999 21.705 113.156 22.3824C112.313 23.0601 111.892 23.9541 111.892 25.0638C111.892 26.6499 112.63 27.6666 114.106 28.1134L117.437 29.0993C117.969 29.2592 118.312 29.3974 118.465 29.5136C118.661 29.6735 118.759 29.9279 118.759 30.2773C118.759 30.6266 118.615 30.9247 118.328 31.172C118.04 31.4192 117.678 31.5426 117.243 31.5426C116.569 31.5426 115.986 31.4202 115.495 31.1745C114.863 30.8858 114.49 30.4458 114.378 29.8536H111.471C111.542 31.1243 112.051 32.1023 112.999 32.7877C113.946 33.4734 115.298 33.8166 117.054 33.8166C118.486 33.8166 119.638 33.4377 120.508 32.6798ZM142.074 33.5015H138.845L137.768 30.3401H132.075L131.025 33.5015H127.813L133.164 17.716H136.808L142.074 33.5015ZM137.021 27.122L134.994 20.1607L133.1 27.122H137.021ZM153.853 28.5862C153.895 28.3123 153.916 28.0015 153.916 27.6551C153.916 25.8362 153.417 24.3677 152.421 23.2489C151.423 22.1305 150.11 21.5707 148.481 21.5707C146.81 21.5707 145.528 22.1374 144.637 23.2706C143.745 24.4041 143.299 26.0242 143.299 28.1318C143.299 30.0951 143.854 31.6036 144.963 32.6574C145.89 33.5377 147.034 33.9783 148.397 33.9783C149.618 33.9783 150.725 33.6319 151.714 32.9389C152.704 32.2457 153.396 31.3294 153.789 30.1889H150.798C150.701 30.5354 150.464 30.8458 150.088 31.12C149.671 31.4087 149.219 31.5527 148.732 31.5527C147.995 31.5527 147.396 31.3185 146.937 30.8494C146.477 30.3802 146.248 29.7631 146.248 28.9976C146.248 28.8103 146.262 28.6728 146.29 28.5862H153.853ZM148.587 24.1042C149.976 24.1042 150.713 24.9199 150.798 26.5511H146.248C146.404 24.9202 147.184 24.1042 148.587 24.1042ZM162.661 24.6452C162.268 24.6019 161.98 24.5803 161.798 24.5803C160.969 24.5803 160.319 24.8076 159.849 25.2623C159.378 25.7171 159.143 26.2909 159.143 26.9842V33.5019H156.194V21.7656H159.143V24.0393C159.354 23.3464 159.776 22.7617 160.407 22.2853C161.039 21.8089 161.671 21.5707 162.303 21.5707C162.373 21.5707 162.493 21.5855 162.661 21.6141V24.6452ZM173.494 32.3756C174.498 31.2929 175 29.7627 175 27.785C175 25.8362 174.505 24.3132 173.515 23.2161C172.525 22.1193 171.145 21.5704 169.375 21.5704C167.592 21.5704 166.208 22.1117 165.226 23.1944C164.242 24.2775 163.751 25.7788 163.751 27.6984C163.751 29.6472 164.242 31.1846 165.226 32.3106C166.208 33.4366 167.55 33.9996 169.249 33.9996C171.075 33.9996 172.49 33.4583 173.494 32.3756ZM171.293 25.162C171.798 25.8387 172.051 26.7168 172.051 27.7962C172.051 28.8468 171.805 29.7068 171.314 30.3759C170.822 31.0446 170.19 31.3795 169.418 31.3795C168.673 31.3795 168.038 31.0486 167.511 30.3863C166.985 29.7248 166.721 28.9258 166.721 27.99C166.721 26.8673 166.971 25.9462 167.469 25.2266C167.967 24.507 168.603 24.1472 169.376 24.1472C170.148 24.1472 170.787 24.4857 171.293 25.162Z" fill="#002148"></path><path d="M37.6007 38.9986C33.821 38.9986 30.0416 39.0028 26.2618 38.9961C25.6712 38.995 25 39 25 39C25 39 25.3022 38.3688 25.4809 37.8605C28.1455 30.2809 30.8055 22.7003 33.4907 15.1282C34.4957 12.2942 35.998 11.2584 39.0636 11.1441C46.6177 10.862 54.1744 11.0931 61.7297 11.0265C62.2975 11.0215 63 11.0201 63 11.0201C63 11.0201 62.7571 11.6773 62.5571 12.2287C59.8066 19.8147 57.0581 27.4018 54.3001 34.9856C53.3246 37.6678 51.4757 38.9736 48.6413 38.9829C44.9614 38.995 41.281 38.9858 37.6011 38.9858C37.6007 38.99 37.6007 38.9943 37.6007 38.9986ZM29.9634 29.618C29.9808 29.6398 29.9982 29.6619 30.016 29.6836C33.3969 28.745 43.5454 25.4623 43.5454 25.4623C43.5454 25.4623 46.9178 34.5518 47.8696 36.8407C47.9623 36.5825 47.9236 36.3638 47.8664 36.1504C47.2279 33.7774 44.711 25.0726 44.711 25.0726C44.711 25.0726 53.7905 21.715 56.5322 20.541C57.1043 20.2959 57.6789 20.0569 58.2521 19.8154C54.8012 20.7137 44.3896 23.896 44.3896 23.896C44.3896 23.896 40.4948 14.5679 39.5181 12.3559C40.2522 15.2788 43.1246 24.4303 43.1246 24.4303C43.1246 24.4303 33.0855 28.3293 29.9634 29.618Z" fill="url(#paint0_radial_110_8771)"></path><defs><radialGradient id="paint0_radial_110_8771" cx="0" cy="0" r="1" gradientUnits="userSpaceOnUse" gradientTransform="translate(44 25) rotate(90) scale(12.5369 12.4996)"><stop stop-color="#ECF8FD"></stop><stop offset="0.317708" stop-color="#6BC5EE"></stop><stop offset="0.703125" stop-color="#005289"></stop><stop offset="1" stop-color="#002148"></stop></radialGradient></defs></svg> 