<?xml version="1.0" encoding="UTF-8"?> <svg xmlns="http://www.w3.org/2000/svg" width="200" height="50" viewBox="0 0 200 50" fill="none"><path d="M66.0766 7.8074C66.0766 5.09721 68.2507 3 71.2927 3C74.2922 3 76.5088 5.09721 76.5088 7.8074C76.5088 10.4718 74.2922 12.6589 71.2943 12.6589C68.2507 12.6589 66.0766 10.4735 66.0766 7.8074V7.8074ZM66.5114 36.5636V14.712H76.0739V36.5636H66.5114V36.5636ZM91.5047 30.0071C92.2436 30.0071 93.1557 29.8763 93.8945 29.6148V36.4753C92.9383 36.781 91.1565 37 89.5922 37C84.0721 37 79.9856 34.9894 79.9856 28.1289V21.4859H77.8132V14.712H79.9872V8.59365H89.5481V14.712H93.8929V21.4859H89.5481V27.7791C89.5481 29.3124 90.1545 30.0071 91.5031 30.0071H91.5047ZM105.196 36.5636H95.6338V14.712H104.328V19.7385C105.327 16.242 107.413 14.2756 110.326 14.2756C110.716 14.2756 111.153 14.2756 111.411 14.3622V23.1466C110.803 22.9276 110.022 22.7968 109.152 22.7968C106.631 22.7968 105.196 23.8904 105.196 25.8552V36.5619V36.5636ZM126.626 33.5036C125.408 35.7332 123.105 37 120.235 37C116.021 37 112.935 34.5088 112.935 29.5265V14.712H122.497V26.952C122.497 28.9626 123.061 29.7913 124.321 29.7913C125.67 29.7913 126.191 28.9593 126.191 26.952V14.712H135.754V36.5636H126.626V33.5019V33.5036ZM148.358 37C142.186 37 137.491 34.2048 137.491 29.3516H145.534C145.534 30.8391 146.662 31.5813 148.141 31.5813C149.359 31.5813 150.096 31.1007 150.096 30.2703C150.096 27.0795 137.884 30.6626 137.884 21.3992C137.884 16.8109 142.143 14.2756 147.708 14.2756C153.661 14.2756 158.137 17.5088 158.137 21.7016H150.096C150.096 20.5656 149.184 19.7352 147.923 19.7352C146.881 19.7352 146.184 20.1275 146.184 20.9154C146.184 23.7122 158.529 20.4348 158.529 29.6115C158.529 34.4206 154.181 37 148.358 37V37ZM56.0597 26.5123C55.8313 27.3158 55.325 28.0121 54.6311 28.4771C53.9382 28.9411 53.1022 29.1419 52.2742 29.0433C51.4462 28.9447 50.6807 28.5531 50.1163 27.9393C49.6945 27.4804 49.4015 26.9181 49.2669 26.3094C49.1324 25.7008 49.161 25.0674 49.35 24.4734C49.539 23.8794 49.8816 23.3459 50.3431 22.9269C50.8046 22.5079 51.3686 22.2183 51.9781 22.0874C52.7937 21.9178 53.643 22.0453 54.3728 22.447C55.1045 22.8506 55.6688 23.5013 55.9649 24.2827H64.4682C63.8601 18.2967 59.6444 14.2756 52.7807 14.2756C45.9954 14.2756 41 18.9506 41 25.6378C41 32.3234 45.9954 37 52.779 37C59.821 37 64.1658 32.7614 64.5581 26.5123H56.0597Z" fill="#FA5EAB"></path></svg> 