<?xml version="1.0" encoding="UTF-8"?> <svg xmlns="http://www.w3.org/2000/svg" width="29" height="19" viewBox="0 0 29 19" fill="none"><path d="M1.61112 19C1.15463 19 0.772265 18.848 0.464006 18.544C0.155746 18.24 0.00107963 17.8642 5.55555e-06 17.4166C-0.00106852 16.9691 0.153598 16.5933 0.464006 16.2893C0.774413 15.9853 1.15678 15.8333 1.61112 15.8333H27.3889C27.8454 15.8333 28.2283 15.9853 28.5376 16.2893C28.8469 16.5933 29.0011 16.9691 29 17.4166C28.9989 17.8642 28.8443 18.2405 28.536 18.5456C28.2277 18.8506 27.8454 19.0021 27.3889 19H1.61112ZM1.61112 11.0833C1.15463 11.0833 0.772265 10.9313 0.464006 10.6273C0.155746 10.3233 0.00107963 9.94754 5.55555e-06 9.49999C-0.00106852 9.05243 0.153598 8.67666 0.464006 8.37266C0.774413 8.06866 1.15678 7.91666 1.61112 7.91666H27.3889C27.8454 7.91666 28.2283 8.06866 28.5376 8.37266C28.8469 8.67666 29.0011 9.05243 29 9.49999C28.9989 9.94754 28.8443 10.3239 28.536 10.6289C28.2277 10.934 27.8454 11.0854 27.3889 11.0833H1.61112ZM1.61112 3.16666C1.15463 3.16666 0.772265 3.01466 0.464006 2.71066C0.155746 2.40666 0.00107963 2.03089 5.55555e-06 1.58333C-0.00106852 1.13578 0.153598 0.759999 0.464006 0.456C0.774413 0.152 1.15678 0 1.61112 0H27.3889C27.8454 0 28.2283 0.152 28.5376 0.456C28.8469 0.759999 29.0011 1.13578 29 1.58333C28.9989 2.03089 28.8443 2.40719 28.536 2.71225C28.2277 3.0173 27.8454 3.16877 27.3889 3.16666H1.61112Z" fill="white"></path></svg> 